<svg xmlns="http://www.w3.org/2000/svg" viewBox="0 0 699 853.99"><defs><style>.cls-1{opacity:0.15;}.cls-2{fill:#fff;}.cls-3{opacity:0.25;}</style></defs><title>CityScene2</title><g id="Layer_2" data-name="Layer 2"><g id="Layer_1-2" data-name="Layer 1"><g class="cls-1"><path class="cls-2" d="M594.85,297.24a10.19,10.19,0,0,1-1.93-10.4,10,10,0,0,1,5.89-5.86,10.2,10.2,0,0,1,8.53.66,15.55,15.55,0,0,1,25.76-2.5,12.55,12.55,0,0,1,16.21,17.74l-.67,1.12h-53.1Zm51.62-7.17a8,8,0,0,0-10.41-7.59,7.72,7.72,0,0,0-2.29,1.2l-2,1.48-1.16-2a11.23,11.23,0,0,0-6.3-5.09,11,11,0,0,0-13.78,7.46l-1.17,4.1-2.67-3.09a5.68,5.68,0,0,0-3-1.89,5.53,5.53,0,0,0-6,8.31h48.21A8.12,8.12,0,0,0,646.47,290.07Z"/></g><g class="cls-1"><path class="cls-2" d="M501.5,195.24a10.17,10.17,0,0,1-1.94-10.4,10,10,0,0,1,5.89-5.86,10.2,10.2,0,0,1,8.53.66,15.55,15.55,0,0,1,25.76-2.5A12.55,12.55,0,0,1,556,194.88l-.67,1.12h-53.1Zm51.61-6.17a8,8,0,0,0-10.41-7.59,7.72,7.72,0,0,0-2.29,1.2l-2,1.48-1.16-2a11.29,11.29,0,0,0-6.31-5.09,11,11,0,0,0-13.78,7.46l-1.16,4.1-2.68-3.09a5.64,5.64,0,0,0-3-1.89,5.53,5.53,0,0,0-6,8.31h48.21A7.91,7.91,0,0,0,553.11,189.07Z"/></g><g class="cls-1"><path class="cls-2" d="M277.73,216h-53.1l-.67-1.12a12.56,12.56,0,0,1,16.21-17.74,15.55,15.55,0,0,1,25.76,2.5,10.2,10.2,0,0,1,8.53-.66,10,10,0,0,1,5.89,5.86,10.17,10.17,0,0,1-1.94,10.4Zm-50.37-5h48.21a5.61,5.61,0,0,0,.37-5.19,5.38,5.38,0,0,0-2.65-2.73,5.56,5.56,0,0,0-6.59,1.37l-2.79,3.22-1.08-3.8a11.27,11.27,0,0,0-5.1-6.76A11,11,0,0,0,242.8,201l-1.3,2.18-2-1.48a7.72,7.72,0,0,0-2.29-1.2A8,8,0,0,0,227.36,211Z"/></g><g class="cls-1"><path class="cls-2" d="M303.42,73.24a8.67,8.67,0,0,1-1.53-9.16A8.31,8.31,0,0,1,306,59.73a8.69,8.69,0,0,1,7.66,0,13,13,0,0,1,21.12-2,10.59,10.59,0,0,1,13.36,15.11L347.47,74H304.1ZM345,67.07a6,6,0,0,0-7.27-5.85,6.07,6.07,0,0,0-2.38,1.12l-1.92,1.4-1.19-2a8.63,8.63,0,0,0-4.77-3.9,8.42,8.42,0,0,0-10.66,5.71l-1.16,4.09L313,64.52A4,4,0,0,0,306.3,69h38.4A6,6,0,0,0,345,67.07Z"/></g><g class="cls-1"><path class="cls-2" d="M309.32,136.94a20.9,20.9,0,0,1,7.73.9,29.4,29.4,0,0,1,51.57,7.31,15.82,15.82,0,0,1,18.55,12.48l.54,2.37H290v-1.85C290,147.16,298.35,137.7,309.32,136.94Zm62.62,13.12a11.24,11.24,0,0,0-3.77.65l-2.35.84-.64-2.41a24.8,24.8,0,0,0-45-6.7l-1,1.65-1.79-.75A16.23,16.23,0,0,0,295.08,156h86.79A11.19,11.19,0,0,0,371.94,150.06Z"/></g><g class="cls-1"><path class="cls-2" d="M151.3,135.79a17.56,17.56,0,0,1,21.09-24.94,26.58,26.58,0,0,1,49.53,3.46A16.65,16.65,0,0,1,243.2,133.7a15.14,15.14,0,0,1-.49,1.75l-.52,1.55H152Zm87.66-5a12.07,12.07,0,0,0-14.87-11.72,12.28,12.28,0,0,0-2.81,1.08l-2.62,1.36-.59-3A22,22,0,0,0,192,101.13a22.39,22.39,0,0,0-16.36,14.57l-.72,2-2.17-1.1a12.75,12.75,0,0,0-3-1.12,13,13,0,0,0-15,17.53h84A11.75,11.75,0,0,0,239,130.78Z"/></g><g class="cls-1"><path class="cls-2" d="M52.93,183.16a10.75,10.75,0,0,1,14.71-12A16.78,16.78,0,1,1,98.51,183.8l-.65,1.2H53.31Zm43-7.78a12.2,12.2,0,0,0-14-12,12.41,12.41,0,0,0-10.35,11.74l-.25,4.7-3.5-3.41a6.38,6.38,0,0,0-3.13-1.72A6.14,6.14,0,0,0,57.36,180H95A12.16,12.16,0,0,0,96,175.38Z"/></g><g class="cls-1"><path class="cls-2" d="M151.31,126.58l1.25-4.42a32.4,32.4,0,1,1,40.57-24.37l4.5,1A37,37,0,1,0,124.43,91,37.15,37.15,0,0,0,151.31,126.58Z"/></g><g class="cls-1"><rect class="cls-2" x="159" y="24" width="5" height="33"/></g><g class="cls-1"><rect class="cls-2" x="159" y="135" width="5" height="23"/></g><g class="cls-1"><rect class="cls-2" x="196" y="88" width="37" height="5"/></g><g class="cls-1"><rect class="cls-2" x="90" y="88" width="37" height="5"/></g><g class="cls-1"><rect class="cls-2" x="127.9" y="50.25" width="4.6" height="18.96" transform="translate(-4.1 109.58) rotate(-45.01)"/></g><g class="cls-1"><rect class="cls-2" x="120.71" y="119.93" width="18.96" height="4.6" transform="translate(-48.29 127.86) rotate(-45)"/></g><g class="cls-1"><rect class="cls-2" x="183.21" y="57.43" width="18.96" height="4.6" transform="translate(14.2 153.75) rotate(-45)"/></g><g class="cls-1"><rect class="cls-2" x="203.97" y="41.05" width="10.22" height="4.6" transform="translate(30.56 160.5) rotate(-44.99)"/></g><g class="cls-1"><rect class="cls-2" x="109.36" y="135.65" width="10.21" height="4.6" transform="translate(-64.02 121.34) rotate(-45)"/></g><g class="cls-1"><rect class="cls-2" x="206.12" y="132.85" width="4.6" height="10.22" transform="translate(-36.5 187.78) rotate(-45)"/></g><g class="cls-1"><rect class="cls-2" x="111.51" y="38.24" width="4.6" height="10.22" transform="translate(2.69 93.17) rotate(-45)"/></g><g class="cls-1"><rect class="cls-2" x="242" y="88" width="9" height="5"/></g><g class="cls-1"><rect class="cls-2" x="265" y="88" width="8" height="5"/></g><g class="cls-1"><rect class="cls-2" x="292" y="88" width="7" height="5"/></g><g class="cls-1"><rect class="cls-2" x="71" y="88" width="9" height="5"/></g><g class="cls-1"><rect class="cls-2" x="50" y="88" width="8" height="5"/></g><g class="cls-1"><rect class="cls-2" x="24" y="88" width="7" height="5"/></g><g class="cls-1"><rect class="cls-2" x="160" y="171" width="5" height="9"/></g><g class="cls-1"><rect class="cls-2" x="160" width="5" height="9"/></g><g class="cls-3"><polygon class="cls-2" points="298 754.99 298 748.99 333 748.99 333 715.99 400 715.99 400 720.99 389 720.99 389 727.99 395 727.99 395 787.99 389 787.99 389 791.96 389 805.99 395 805.99 395 824.51 395 853.99 363 853.99 363 824.51 363 775.99 368 775.99 368 754.99 298 754.99"/></g><g class="cls-3"><polygon class="cls-2" points="494 693.99 494 671.99 500 671.99 500 653.99 496 653.99 496 648.99 504.67 648.99 523 619.35 523 605.99 526.5 605.99 530 605.99 530 619.35 548.33 648.99 557 648.99 557 653.99 553 653.99 553 671.99 559 671.99 559 693.99 567 693.99 567 708.05 567 718.3 567 853.99 557.89 853.99 548.78 853.99 539.67 853.99 530.56 853.99 521.45 853.99 512.34 853.99 503.22 853.99 494.11 853.99 485 853.99 485 718.3 485 693.99 494 693.99"/></g><g class="cls-3"><polygon class="cls-2" points="389 727.99 389 720.99 401 720.99 401 715.89 401 693.99 395 693.99 395 689.99 402 689.99 402 670.99 407.06 670.99 435.5 636.99 463.94 670.99 469 670.99 469 688.99 476 688.99 476 693.99 471 693.99 471 720.99 483 720.99 483 727.99 477 727.99 477 787.99 483 787.99 483 791.58 483 805.99 477 805.99 477 853.99 472.03 853.99 464.33 853.99 456.63 853.99 448.92 853.99 441.22 853.99 433.52 853.99 425.81 853.99 418.11 853.99 410.41 853.99 402.7 853.99 395 853.99 395 824.37 395 805.99 389 805.99 389 792.06 389 787.99 395 787.99 395 727.99 389 727.99"/></g><g class="cls-3"><polygon class="cls-2" points="132 738.99 132 731.99 202.28 731.99 234 731.99 234 738.99 230 738.99 230 745.99 234 745.99 234 752.99 230 752.99 230 759.99 234 759.99 234 767.99 230 767.99 230 774.99 234 774.99 234 781.99 230 781.99 230 788.99 234 788.99 234 795.99 230 795.99 230 802.99 234 802.99 234 809.99 230 809.99 230 816.99 234 816.99 234 824.99 230 824.99 230 831.99 234 831.99 234 838.99 230 838.99 230 845.99 234 845.99 234 852.99 230 852.99 230 853.99 197.63 853.99 135 853.99 135 852.99 131 852.99 131 845.99 135 845.99 135 838.99 131 838.99 131 831.99 135 831.99 135 824.99 131 824.99 131 816.99 135 816.99 135 809.99 131 809.99 131 802.99 135 802.99 135 795.99 131 795.99 131 788.99 135 788.99 135 781.99 131 781.99 131 778.58 131 774.99 135 774.99 135 767.99 131 767.99 131 759.99 135 759.99 135 752.99 131 752.99 132 745.99 136 745.99 136 738.99 132 738.99"/></g><g class="cls-3"><polygon class="cls-2" points="9 848.99 9 827.99 80 827.99 80 777.99 125 777.99 125 781.99 129 781.99 129 788.99 125 788.99 125 795.99 129 795.99 129 802.99 125 802.99 125 809.99 129 809.99 129 816.99 125 816.99 125 824.99 129 824.99 129 831.99 125 831.99 125 838.99 129 838.99 129 845.99 125 845.99 125 852.99 129 852.99 129 853.99 68.56 853.99 0 853.99 0 848.99 9 848.99"/></g><g class="cls-3"><polygon class="cls-2" points="247.12 754.99 254 754.99 254 749.65 254 740.99 261 740.99 261 732.99 285 732.99 285 740.99 298 740.99 298 749.72 298 754.99 368 754.99 368 775.99 363 775.99 363 824.51 363 853.99 358.77 853.99 249.23 853.99 245 853.99 245 775.99 240 775.99 240 754.99 247.12 754.99"/></g><g class="cls-3"><polygon class="cls-2" points="579.45 839.99 599.92 828.91 636.5 809.09 693.55 839.99 699 839.99 699 845.99 574 845.99 574 839.99 579.45 839.99"/><rect class="cls-2" x="579" y="845.99" width="114" height="8"/></g></g></g></svg>