<svg xmlns="http://www.w3.org/2000/svg" viewBox="0 0 863.42 287.62"><defs><style>.cls-1,.cls-2,.cls-5{fill:#fff;}.cls-2,.cls-7{opacity:0.1;}.cls-3,.cls-6,.cls-7,.cls-8,.cls-9{fill:#65a9c1;}.cls-3{opacity:0.4;}.cls-4{fill:none;}.cls-5,.cls-9{opacity:0.5;}.cls-6{opacity:0.2;}.cls-8{opacity:0.3;}</style></defs><title>CityScene</title><g id="Layer_2" data-name="Layer 2"><g id="Layer_1-2" data-name="Layer 1"><path class="cls-1" d="M310.71,98.65h-10.6l9.5-9.5-3-3L294.07,98.65h-14a18.17,18.17,0,0,0-3.63-8.74l9.9-9.89h17.71V75.74H290.62l7.5-7.49-3.4-3.4-7.5,7.49V58.91H283V76.62l-9.9,9.89a18.24,18.24,0,0,0-8.73-3.63v-14l12.52-12.52-3-3-9.5,9.5V52.25h-4.81V62.86l-9.5-9.5-3,3L259.51,68.9v14a18.27,18.27,0,0,0-8.74,3.63l-9.89-9.89V58.91H236.6V72.34l-7.49-7.49-3.4,3.4,7.49,7.49H219.77V80h17.71l9.89,9.89a18.26,18.26,0,0,0-3.62,8.74h-14L217.24,86.13l-3,3,9.5,9.5H213.11v4.81h10.61l-9.5,9.49,3,3,12.52-12.52h14a18.22,18.22,0,0,0,3.62,8.73l-9.89,9.9H219.77v4.27H233.2l-7.49,7.5,3.4,3.4,7.49-7.5v13.43h4.28V125.48l9.89-9.89a18.27,18.27,0,0,0,8.74,3.63v14L247,145.72l3,3,9.5-9.5v10.6h4.81v-10.6l9.5,9.5,3-3L264.32,133.2v-14a18.24,18.24,0,0,0,8.73-3.63l9.9,9.89v17.71h4.27V129.76l7.5,7.5,3.4-3.4-7.5-7.5h13.43v-4.27h-17.7l-9.9-9.9a18.14,18.14,0,0,0,3.63-8.73h14L306.59,116l3-3-9.5-9.49h10.6Zm-48.8,16.47A14.07,14.07,0,1,1,276,101.05,14.09,14.09,0,0,1,261.91,115.12Z"/><path class="cls-2" d="M249.48,115H228.53L247.3,96.24l-6-6L216.59,115H189a36,36,0,0,0-7.17-17.26l19.56-19.56h35V69.75H209.78L224.6,54.93l-6.72-6.72L203.07,63V36.48h-8.44v35L175.07,91a36.09,36.09,0,0,0-17.27-7.17V56.23l24.74-24.75-6-6L157.8,44.28v-21h-9.5v21L129.53,25.51l-6,6L148.3,56.23V83.86A36,36,0,0,0,131,91L111.49,71.47v-35H103V63L88.23,48.21l-6.72,6.72L96.32,69.75H69.78v8.44h35l19.55,19.56A36,36,0,0,0,117.15,115H89.52L64.78,90.27l-6,6L77.57,115H56.62v9.5H77.57L58.81,143.28l6,6,24.74-24.74h27.63a36,36,0,0,0,7.17,17.26l-19.55,19.56h-35v8.44H96.32L81.51,184.58l6.72,6.72L103,176.49V203h8.45V168L131,148.49a36,36,0,0,0,17.26,7.17v27.63L123.56,208l6,6,18.77-18.77v20.95h9.5V195.24L176.57,214l6-6L157.8,183.29V155.66a36.09,36.09,0,0,0,17.27-7.17L194.62,168v35h8.45V176.49l14.81,14.81,6.72-6.71-14.82-14.82h26.55v-8.45h-35l-19.56-19.56A36,36,0,0,0,189,124.51h27.64l24.74,24.74,6-6-18.77-18.77h20.95Zm-96.43,32.55a27.8,27.8,0,1,1,27.8-27.8A27.83,27.83,0,0,1,153.05,147.56Z"/><path class="cls-1" d="M24.94,42.58a3.59,3.59,0,0,1-.42,2.06,1.31,1.31,0,0,1-1.09.54H1.57a1.35,1.35,0,0,1-1.13-.57,3.48,3.48,0,0,1-.44-2,3.52,3.52,0,0,1,.44-2A1.37,1.37,0,0,1,1.57,40H23.43a1.38,1.38,0,0,1,.6.13,1.2,1.2,0,0,1,.49.44,2.32,2.32,0,0,1,.32.81A6.1,6.1,0,0,1,24.94,42.58Z"/><path class="cls-1" d="M76,47.43A24.13,24.13,0,0,1,74.19,57a19.44,19.44,0,0,1-5,7,21.85,21.85,0,0,1-7.75,4.36,31.65,31.65,0,0,1-9.94,1.48,34.37,34.37,0,0,1-6-.49,43.68,43.68,0,0,1-5-1.15A25.82,25.82,0,0,1,37,66.92a8.49,8.49,0,0,1-1.75-1,2.83,2.83,0,0,1-.5-.58,3.54,3.54,0,0,1-.23-.57,5,5,0,0,1-.16-.84c0-.33,0-.72,0-1.17a8.09,8.09,0,0,1,.08-1.15,3,3,0,0,1,.26-.89,1.43,1.43,0,0,1,.44-.54,1,1,0,0,1,.58-.19,3.9,3.9,0,0,1,1.64.68,25,25,0,0,0,3,1.49,32.22,32.22,0,0,0,4.78,1.49,29.49,29.49,0,0,0,6.75.67,24.85,24.85,0,0,0,6.89-.91,14.64,14.64,0,0,0,5.53-2.9,13.47,13.47,0,0,0,3.68-5,18.37,18.37,0,0,0,1.33-7.38,16.31,16.31,0,0,0-1.15-6.39,11.14,11.14,0,0,0-3.49-4.57,15.63,15.63,0,0,0-5.93-2.71,35,35,0,0,0-8.37-.89,36.66,36.66,0,0,0-5.5.34,26.82,26.82,0,0,1-4.1.34,2.65,2.65,0,0,1-2-.65,3.73,3.73,0,0,1-.63-2.53V4.54A3.07,3.07,0,0,1,39,2.27a2.93,2.93,0,0,1,2.17-.81H69.86a1.65,1.65,0,0,1,1.41.73,2.41,2.41,0,0,1,.39.89,4.85,4.85,0,0,1,.13,1.2,3.89,3.89,0,0,1-.49,2,1.58,1.58,0,0,1-1.44.84H44V28.54a32.66,32.66,0,0,1,3.78-.31c1.3,0,2.88-.05,4.72-.05A33.76,33.76,0,0,1,62.9,29.61a20.52,20.52,0,0,1,7.3,4,16,16,0,0,1,4.33,6.11A20.32,20.32,0,0,1,76,47.43Z"/><polygon class="cls-3" points="585.83 11.41 582.99 79.22 589.03 83.96 585.83 11.41"/><path class="cls-4" d="M235.45,284.09a19.21,19.21,0,1,0-38.41,0,19.56,19.56,0,0,0,.34,3.53h37.73A19.56,19.56,0,0,0,235.45,284.09Z"/><path class="cls-4" d="M241,287.37c0,.08,0,.17,0,.25h19.38l-.25-.25Z"/><path class="cls-4" d="M172.36,287.37l-.25.25h19.38c0-.08,0-.17,0-.25Z"/><path class="cls-5" d="M172.36,287.37h19.09c0,.08,0,.17,0,.25h5.89a19.56,19.56,0,0,1-.34-3.53,19.21,19.21,0,1,1,38.41,0,19.56,19.56,0,0,1-.34,3.53H241c0-.08,0-.17,0-.25h19.09l.25.25h8.25l-.25-.25h14.47v-6.56H268.38l13-13-4.13-4.12-17.09,17.09H241a24.84,24.84,0,0,0-4.95-11.93l13.51-13.5h24.17v-5.84H255.43l10.24-10.23L261,234.67,250.79,244.9V226.57H245v24.17l-13.51,13.5a24.9,24.9,0,0,0-11.92-4.95V240.2l17.09-17.09L232.49,219l-13,13V217.48H213V232l-13-13-4.13,4.12L213,240.2v19.09A24.9,24.9,0,0,0,201,264.24l-13.51-13.5V226.57H181.7V244.9l-10.23-10.23-4.64,4.64,10.23,10.23H158.72v5.84h24.17l13.51,13.5a24.84,24.84,0,0,0-5,11.93H172.36l-17.09-17.09-4.13,4.12,13,13H149.64v6.56h14.47l-.25.25h8.25Z"/><polygon class="cls-6" points="460.12 199.88 461.95 199.88 461.95 174.96 452.63 174.96 452.63 143.92 454.56 143.92 454.56 120.45 440.57 120.45 440.57 105.93 413.48 105.93 413.48 120.45 399.48 120.45 399.48 143.92 401.42 143.92 401.42 174.96 392.1 174.96 392.1 199.88 393.93 199.88 393.93 287.62 460.12 287.62 460.12 199.88"/><polygon class="cls-7" points="376.78 211.77 379.95 211.77 379.95 194.26 370.59 194.26 370.59 182.77 365.55 182.77 365.55 176.22 349.55 176.22 349.55 182.77 341.08 182.77 341.08 194.26 293.95 194.26 293.95 211.77 297.13 211.77 297.13 287.62 376.78 287.62 376.78 211.77"/><polygon class="cls-6" points="860.25 238.93 863.42 238.93 863.42 221.42 854.06 221.42 854.06 209.93 849.01 209.93 849.01 203.38 833.02 203.38 833.02 209.93 824.55 209.93 824.55 221.42 777.42 221.42 777.42 238.93 780.6 238.93 780.6 287.62 860.25 287.62 860.25 238.93"/><polygon class="cls-3" points="553.43 249.11 553.43 244.43 542.79 244.43 542.79 168.72 544.33 168.72 544.33 141.81 537.75 141.81 537.75 126.45 533.98 126.45 533.98 115.48 529.46 115.48 529.46 98.17 529.46 93.3 524.76 93.3 524.76 58.45 520.62 58.45 518.83 0 517.04 58.45 512.9 58.45 512.9 93.3 508.2 93.3 508.2 98.17 508.2 115.48 503.68 115.48 503.68 126.45 499.92 126.45 499.92 141.81 493.33 141.81 493.33 168.72 494.87 168.72 494.87 244.43 484.23 244.43 484.23 249.11 484.23 287.62 553.43 287.62 553.43 249.11"/><polygon class="cls-3" points="624.25 143.11 625.24 143.11 625.24 128.58 620.58 128.58 620.58 115.72 617.14 115.72 617.14 106.04 573.5 71.77 573.5 115.72 570.07 115.72 570.07 128.58 565.41 128.58 565.41 143.11 565.41 287.62 624.25 287.62 624.25 143.11"/><polygon class="cls-8" points="757.9 283.57 760.63 283.57 760.63 277.73 757.9 277.73 757.9 272.03 760.63 272.03 760.63 266.19 757.9 266.19 757.9 260.49 760.63 260.49 760.63 254.65 757.9 254.65 757.9 248.96 760.63 248.96 760.63 243.11 757.9 243.11 757.9 237.42 760.63 237.42 760.63 231.57 757.9 231.57 757.9 225.88 760.63 225.88 760.63 220.04 757.9 220.04 757.9 214.34 760.63 214.34 760.63 208.5 757.9 208.5 757.9 202.8 760.63 202.8 760.63 196.96 757.9 196.96 757.9 191.26 760.63 191.26 760.63 185.42 757.9 185.42 757.9 179.72 760.63 179.72 760.63 173.88 757.9 173.88 757.9 168.18 760.63 168.18 760.63 162.34 757.9 162.34 757.9 156.65 760.63 156.65 760.63 150.81 757.9 150.81 757.9 145.11 760.63 145.11 760.63 139.27 694.69 139.27 694.69 145.11 697.42 145.11 697.42 150.81 694.69 150.81 694.69 156.65 697.42 156.65 697.42 162.34 694.69 162.34 694.69 168.18 697.42 168.18 697.42 173.88 694.69 173.88 694.69 179.72 697.42 179.72 697.42 185.42 694.69 185.42 694.69 191.26 697.42 191.26 697.42 196.96 694.69 196.96 694.69 202.8 697.42 202.8 697.42 208.5 694.69 208.5 694.69 214.34 697.42 214.34 697.42 220.04 694.69 220.04 694.69 225.88 697.42 225.88 697.42 231.57 694.69 231.57 694.69 237.42 697.42 237.42 697.42 243.11 694.69 243.11 694.69 248.96 697.42 248.96 697.42 254.65 694.69 254.65 694.69 260.49 697.42 260.49 697.42 266.19 694.69 266.19 694.69 272.03 697.42 272.03 697.42 277.73 694.69 277.73 694.69 283.57 697.42 283.57 697.42 287.62 757.9 287.62 757.9 283.57"/><polygon class="cls-9" points="686.25 179.11 680.99 179.11 680.99 161.31 677.23 161.31 677.23 146.56 679.83 146.56 679.83 142.16 673.42 142.16 662.88 118 662.88 107.12 658.85 107.12 658.85 118 648.31 142.16 641.9 142.16 641.9 146.56 644.5 146.56 644.5 161.31 640.74 161.31 640.74 179.11 635.47 179.11 635.47 287.62 686.25 287.62 686.25 179.11"/></g></g></svg>