<svg xmlns="http://www.w3.org/2000/svg" viewBox="0 0 140.88 116.35"><defs><style>.a{fill:#fff;}</style></defs><title>Cloud</title><path class="a" d="M123.5,68A41.31,41.31,0,0,0,72.41,35.18a28.49,28.49,0,0,0-3.54-6.26l8.87-8.87A4.13,4.13,0,1,0,72,14.14l-9,9a28.74,28.74,0,0,0-13.18-5.44V4.15S48.19,0,45.9,0a4,4,0,0,0-4,4.15V16.89a28.74,28.74,0,0,0-13.33,5.49l-9-9a4.15,4.15,0,0,0-5.86,5.87l9,9a29.13,29.13,0,0,0-5.49,13.11h-13A4.34,4.34,0,0,0,0,45.62c0,2.29,4.15,4.73,4.15,4.73h13A29.07,29.07,0,0,0,22.21,63a28.87,28.87,0,0,0,15.27,53.38h78.08c13.36,0,24.75-10.36,25.3-23.72A24.68,24.68,0,0,0,123.5,68Zm-93.4-9a20.5,20.5,0,0,1-4.94-13.43A20.74,20.74,0,0,1,65,37.41a41.26,41.26,0,0,0-6.79,4.19A41.91,41.91,0,0,0,44.84,58.94,29.68,29.68,0,0,0,30.1,59.05Zm86.3,48.3H30.05a4.51,4.51,0,0,1-2.89-1.07C.87,84.06,30.25,50.25,56,74a.91.91,0,0,0,.65.24c5.27-.27,6.25-5.3,3.54-7.6a41.59,41.59,0,0,0-7.63-5.2,33.19,33.19,0,0,1,62.77,4.49c-8,.36-16,4.48-22.65,12a.94.94,0,0,0-.24.61c0,5.18,5,6.42,7.39,3.87,15.43-16.17,33.4-5.71,33.4,8.41A16.75,16.75,0,0,1,116.4,107.35Z"/></svg>