<svg xmlns="http://www.w3.org/2000/svg" xmlns:xlink="http://www.w3.org/1999/xlink" viewBox="0 0 87.38 56.11"><defs><style>.cls-1{isolation:isolate;}.cls-2{opacity:0.5;}.cls-3{opacity:0.77;mix-blend-mode:multiply;}.cls-4{fill:#f6f6f6;opacity:0;}.cls-5{fill:#f5f5f5;opacity:0.01;}.cls-6{fill:#f4f4f4;opacity:0.02;}.cls-7{fill:#f3f3f3;opacity:0.03;}.cls-8{fill:#f2f2f2;opacity:0.04;}.cls-9{fill:#f1f1f1;opacity:0.05;}.cls-10{fill:#f0f0f0;opacity:0.07;}.cls-11{fill:#efefef;opacity:0.08;}.cls-12{fill:#eee;opacity:0.09;}.cls-13{fill:#ededed;opacity:0.1;}.cls-14{fill:#ececec;opacity:0.11;}.cls-15{fill:#ebebeb;opacity:0.12;}.cls-16{fill:#eaeaea;opacity:0.13;}.cls-17{fill:#e9e9e9;opacity:0.14;}.cls-18{fill:#e8e8e8;opacity:0.15;}.cls-19{fill:#e7e7e7;opacity:0.16;}.cls-20{fill:#e6e6e6;opacity:0.18;}.cls-21{fill:#e5e5e5;opacity:0.19;}.cls-22{fill:#e4e4e4;opacity:0.2;}.cls-23{fill:#e3e3e3;opacity:0.21;}.cls-24{fill:#e2e2e2;opacity:0.22;}.cls-25{fill:#e1e1e1;opacity:0.23;}.cls-26{fill:#e0e0e0;opacity:0.24;}.cls-27{fill:#e0e0df;opacity:0.25;}.cls-28{fill:#dfdfde;opacity:0.26;}.cls-29{fill:#dededd;opacity:0.27;}.cls-30{fill:#dddddc;opacity:0.29;}.cls-31{fill:#dcdcdb;opacity:0.3;}.cls-32{fill:#dbdbda;opacity:0.31;}.cls-33{fill:#dadad9;opacity:0.32;}.cls-34{fill:#d9d9d8;opacity:0.33;}.cls-35{fill:#d8d8d7;opacity:0.34;}.cls-36{fill:#d7d7d6;opacity:0.35;}.cls-37{fill:#d6d6d5;opacity:0.36;}.cls-38{fill:#d5d5d4;opacity:0.37;}.cls-39{fill:#d4d4d3;opacity:0.38;}.cls-40{fill:#d3d3d2;opacity:0.4;}.cls-41{fill:#d2d2d1;opacity:0.41;}.cls-42{fill:#d1d1d0;opacity:0.42;}.cls-43{fill:#d0d0cf;opacity:0.43;}.cls-44{fill:#cfcfce;opacity:0.44;}.cls-45{fill:#cececd;opacity:0.45;}.cls-46{fill:#cdcdcc;opacity:0.46;}.cls-47{fill:#cccccb;opacity:0.47;}.cls-48{fill:#cbcbca;opacity:0.48;}.cls-49{fill:#cacac9;opacity:0.49;}.cls-50{fill:#c9c9c9;opacity:0.51;}.cls-51{fill:#c8c8c8;opacity:0.52;}.cls-52{fill:#c7c7c7;opacity:0.53;}.cls-53{fill:#c6c6c6;opacity:0.54;}.cls-54{fill:#c5c5c5;opacity:0.55;}.cls-55{fill:#c4c4c4;opacity:0.56;}.cls-56{fill:#c3c3c3;opacity:0.57;}.cls-57{fill:#c2c2c2;opacity:0.58;}.cls-58{fill:#c1c1c1;opacity:0.59;}.cls-59{fill:silver;opacity:0.6;}.cls-60{fill:#bfbfbf;opacity:0.62;}.cls-61{fill:#bebebe;opacity:0.63;}.cls-62{fill:#bdbdbd;opacity:0.64;}.cls-63{fill:#bcbcbc;opacity:0.65;}.cls-64{fill:#bbb;opacity:0.66;}.cls-65{fill:#bababa;opacity:0.67;}.cls-66{fill:#b9b9b9;opacity:0.68;}.cls-67{fill:#b8b8b8;opacity:0.69;}.cls-68{fill:#b7b7b7;opacity:0.7;}.cls-69{fill:#b6b6b6;opacity:0.71;}.cls-70{fill:#b5b5b5;opacity:0.73;}.cls-71{fill:#b4b4b4;opacity:0.74;}.cls-72{fill:#b3b3b3;opacity:0.75;}.cls-73{fill:#b3b3b2;opacity:0.76;}.cls-74{fill:#b2b2b1;opacity:0.77;}.cls-75{fill:#b1b1b0;opacity:0.78;}.cls-76{fill:#b0b0af;opacity:0.79;}.cls-77{fill:#afafae;opacity:0.8;}.cls-78{fill:#aeaead;opacity:0.81;}.cls-79{fill:#adadac;opacity:0.82;}.cls-80{fill:#acacab;opacity:0.84;}.cls-81{fill:#ababaa;opacity:0.85;}.cls-82{fill:#aaaaa9;opacity:0.86;}.cls-83{fill:#a9a9a8;opacity:0.87;}.cls-84{fill:#a8a8a7;opacity:0.88;}.cls-85{fill:#a7a7a6;opacity:0.89;}.cls-86{fill:#a6a6a5;opacity:0.9;}.cls-87{fill:#a5a5a4;opacity:0.91;}.cls-88{fill:#a4a4a3;opacity:0.92;}.cls-89{fill:#a3a3a2;opacity:0.93;}.cls-90{fill:#a2a2a1;opacity:0.95;}.cls-91{fill:#a1a1a0;opacity:0.96;}.cls-92{fill:#a0a09f;opacity:0.97;}.cls-93{fill:#9f9f9e;opacity:0.98;}.cls-94{fill:#9e9e9d;opacity:0.99;}.cls-95{fill:#9d9d9c;}.cls-96{fill:url(#linear-gradient);}</style><linearGradient id="linear-gradient" x1="28.65" y1="42.48" x2="70.99" y2="0.13" gradientUnits="userSpaceOnUse"><stop offset="0" stop-color="#fff"/><stop offset="0.65" stop-color="#f6f6f6"/></linearGradient></defs><title>cloud_1</title><g class="cls-1"><g id="Layer_2" data-name="Layer 2"><g id="_ÎÓÈ_1" data-name="—ÎÓÈ_1"><g class="cls-2"><g class="cls-3"><path class="cls-4" d="M68.75,32.77a9,9,0,0,0,.14-1.56A9.24,9.24,0,0,0,59.66,22a9.09,9.09,0,0,0-1.74.17,11.66,11.66,0,0,0-18-2.28,10.41,10.41,0,0,0-17.84,1A11.7,11.7,0,0,0,3.67,30.47a11.83,11.83,0,0,0,.12,1.7,7.46,7.46,0,0,0,3.67,14q.39,0,.75,0a10.6,10.6,0,0,0,9.84,6.67,10.47,10.47,0,0,0,4-.8,12.68,12.68,0,0,0,17.63.7,8.35,8.35,0,0,0,1-.18,7.38,7.38,0,0,0,13.19-1,7.29,7.29,0,0,0,11.34-4.94,4.93,4.93,0,0,0,.55,0,7.22,7.22,0,0,0,2.93-13.81Z"/><path class="cls-5" d="M68.91,32.61A10.08,10.08,0,0,0,69,31a9.23,9.23,0,0,0-9.23-9.23,10.05,10.05,0,0,0-1.74.16A11.67,11.67,0,0,0,40,19.7a10.41,10.41,0,0,0-17.84,1A11.7,11.7,0,0,0,3.82,30.3,12.08,12.08,0,0,0,3.94,32,7.46,7.46,0,0,0,7.61,46a6.06,6.06,0,0,0,.75,0,10.59,10.59,0,0,0,13.88,5.88,12.7,12.7,0,0,0,17.63.7q.52-.07,1-.18a7.38,7.38,0,0,0,13.19-1,7.29,7.29,0,0,0,11.34-4.94l.55,0a7.21,7.21,0,0,0,2.94-13.8Z"/><path class="cls-6" d="M69.06,32.45a10.18,10.18,0,0,0,.13-1.57A9.24,9.24,0,0,0,60,21.64a9,9,0,0,0-1.73.17,11.67,11.67,0,0,0-18-2.28,10.41,10.41,0,0,0-17.83,1A11.71,11.71,0,0,0,4,30.14a10.55,10.55,0,0,0,.13,1.7,7.46,7.46,0,0,0,3.67,14c.25,0,.5,0,.74,0a10.62,10.62,0,0,0,13.88,5.88A12.7,12.7,0,0,0,40,52.34a8.54,8.54,0,0,0,1-.18,7.38,7.38,0,0,0,13.2-1,7.3,7.3,0,0,0,11.33-4.94l.55,0a7.21,7.21,0,0,0,2.94-13.8Z"/><path class="cls-7" d="M69.21,32.28a9,9,0,0,0,.13-1.57,9.23,9.23,0,0,0-9.23-9.23,9,9,0,0,0-1.73.17,11.67,11.67,0,0,0-18-2.28,10.41,10.41,0,0,0-17.83,1A11.71,11.71,0,0,0,4.12,30a10.72,10.72,0,0,0,.13,1.7,7.46,7.46,0,0,0,3.67,14,6.28,6.28,0,0,0,.75,0,10.58,10.58,0,0,0,9.84,6.68,10.42,10.42,0,0,0,4-.8,12.72,12.72,0,0,0,17.64.7q.51-.07,1-.18a7.38,7.38,0,0,0,13.19-1,7.21,7.21,0,0,0,4.12,1.28,7.29,7.29,0,0,0,7.21-6.22,5.07,5.07,0,0,0,.55,0,7.22,7.22,0,0,0,2.94-13.81Z"/><path class="cls-8" d="M69.36,32.12a9.07,9.07,0,0,0,.13-1.57,9.23,9.23,0,0,0-9.23-9.23,9,9,0,0,0-1.73.16,11.66,11.66,0,0,0-18-2.28,10.41,10.41,0,0,0-17.84,1A11.72,11.72,0,0,0,4.27,29.81a12.08,12.08,0,0,0,.13,1.71,7.46,7.46,0,0,0,3.67,14c.25,0,.5,0,.75,0a10.58,10.58,0,0,0,13.87,5.88,12.72,12.72,0,0,0,17.64.7c.34-.05.68-.11,1-.19a7.37,7.37,0,0,0,13.19-1A7.28,7.28,0,0,0,65.87,45.9l.55,0a7.21,7.21,0,0,0,2.94-13.8Z"/><path class="cls-9" d="M69.51,32a9,9,0,0,0,.13-1.56,9.24,9.24,0,0,0-9.23-9.24,9,9,0,0,0-1.73.17,11.66,11.66,0,0,0-18-2.28,10.41,10.41,0,0,0-17.84,1A11.71,11.71,0,0,0,4.42,29.65a11.93,11.93,0,0,0,.13,1.7,7.46,7.46,0,0,0,3.67,14,6.28,6.28,0,0,0,.75,0A10.57,10.57,0,0,0,18.81,52a10.39,10.39,0,0,0,4-.8,12.69,12.69,0,0,0,17.64.7,9.09,9.09,0,0,0,1-.18,7.38,7.38,0,0,0,13.19-1A7.21,7.21,0,0,0,58.81,52,7.29,7.29,0,0,0,66,45.73a5.07,5.07,0,0,0,.55,0A7.22,7.22,0,0,0,69.51,32Z"/><path class="cls-10" d="M69.66,31.79a9,9,0,0,0,.14-1.57A9.24,9.24,0,0,0,60.56,21a9.85,9.85,0,0,0-1.73.16,11.65,11.65,0,0,0-18-2.27,10.42,10.42,0,0,0-17.84,1A11.72,11.72,0,0,0,4.57,29.48a12.08,12.08,0,0,0,.13,1.71,7.46,7.46,0,0,0,3.67,14c.25,0,.5,0,.75,0A10.58,10.58,0,0,0,23,51a12.72,12.72,0,0,0,17.64.7c.34,0,.68-.11,1-.19a7.37,7.37,0,0,0,13.19-1,7.28,7.28,0,0,0,11.33-4.94l.55,0a7.21,7.21,0,0,0,2.94-13.8Z"/><path class="cls-11" d="M69.81,31.63A9.08,9.08,0,0,0,70,30.06a9.24,9.24,0,0,0-9.24-9.24A9,9,0,0,0,59,21a11.66,11.66,0,0,0-18-2.28,10.41,10.41,0,0,0-17.84,1A11.71,11.71,0,0,0,4.72,29.32,11.82,11.82,0,0,0,4.85,31,7.46,7.46,0,0,0,8.52,45l.75,0a10.61,10.61,0,0,0,13.87,5.88,12.7,12.7,0,0,0,17.64.69,9.09,9.09,0,0,0,1-.18,7.38,7.38,0,0,0,13.19-1,7.3,7.3,0,0,0,11.33-4.94l.56,0a7.21,7.21,0,0,0,2.93-13.8Z"/><path class="cls-12" d="M70,31.46a9,9,0,0,0,.14-1.57,9.24,9.24,0,0,0-9.24-9.23,9.85,9.85,0,0,0-1.73.16,11.67,11.67,0,0,0-18-2.27,10.41,10.41,0,0,0-17.84,1A11.71,11.71,0,0,0,4.87,29.15,12.08,12.08,0,0,0,5,30.86a7.46,7.46,0,0,0,3.67,14,6.28,6.28,0,0,0,.75,0,10.58,10.58,0,0,0,13.87,5.88,12.72,12.72,0,0,0,17.64.7c.35,0,.68-.11,1-.18a7.38,7.38,0,0,0,13.19-1,7.21,7.21,0,0,0,4.12,1.28,7.29,7.29,0,0,0,7.21-6.22l.56,0A7.21,7.21,0,0,0,70,31.46Z"/><path class="cls-13" d="M70.11,31.3a9.08,9.08,0,0,0,.14-1.57A9.23,9.23,0,0,0,61,20.5a9,9,0,0,0-1.74.16,11.66,11.66,0,0,0-18-2.28,10.41,10.41,0,0,0-17.84,1A11.72,11.72,0,0,0,5,29a11.83,11.83,0,0,0,.12,1.7,7.47,7.47,0,0,0,3.67,14c.25,0,.5,0,.75,0A10.58,10.58,0,0,0,23.44,50.5a12.7,12.7,0,0,0,17.64.69,8.35,8.35,0,0,0,1-.18,7.37,7.37,0,0,0,13.19-1,7.28,7.28,0,0,0,11.33-4.94l.56,0a7.21,7.21,0,0,0,2.93-13.8Z"/><path class="cls-14" d="M70.26,31.13a9,9,0,0,0,.14-1.57,9.24,9.24,0,0,0-9.23-9.23,9,9,0,0,0-1.74.17,11.66,11.66,0,0,0-18-2.28,10.41,10.41,0,0,0-17.84,1A11.7,11.7,0,0,0,5.18,28.83a11.94,11.94,0,0,0,.12,1.7A7.46,7.46,0,0,0,9,44.49a6.28,6.28,0,0,0,.75,0,10.59,10.59,0,0,0,9.84,6.68,10.39,10.39,0,0,0,4-.8,12.72,12.72,0,0,0,17.64.7c.35,0,.69-.11,1-.18a7.38,7.38,0,0,0,13.19-1,7.28,7.28,0,0,0,11.33-4.94,5.25,5.25,0,0,0,.56,0,7.22,7.22,0,0,0,2.93-13.81Z"/><path class="cls-15" d="M70.41,31a9,9,0,0,0,.14-1.57,9.23,9.23,0,0,0-9.23-9.23,9.88,9.88,0,0,0-1.74.16,11.66,11.66,0,0,0-18-2.28,10.42,10.42,0,0,0-17.84,1A11.72,11.72,0,0,0,5.33,28.66a12.08,12.08,0,0,0,.12,1.71,7.46,7.46,0,0,0,3.67,14c.25,0,.5,0,.75,0a10.59,10.59,0,0,0,13.88,5.88,12.7,12.7,0,0,0,17.63.7c.35,0,.69-.11,1-.19a7.37,7.37,0,0,0,13.19-1,7.29,7.29,0,0,0,11.34-4.94l.55,0A7.21,7.21,0,0,0,70.41,31Z"/><path class="cls-16" d="M70.56,30.81a9.08,9.08,0,0,0,.14-1.57A9.24,9.24,0,0,0,61.47,20a9,9,0,0,0-1.74.17,11.66,11.66,0,0,0-18-2.28,10.41,10.41,0,0,0-17.84,1A11.7,11.7,0,0,0,5.48,28.5a11.83,11.83,0,0,0,.12,1.7,7.46,7.46,0,0,0,3.67,14q.39,0,.75,0a10.6,10.6,0,0,0,9.84,6.67,10.47,10.47,0,0,0,4-.8,12.68,12.68,0,0,0,17.63.7,8.35,8.35,0,0,0,1-.18,7.38,7.38,0,0,0,13.19-1,7.3,7.3,0,0,0,11.34-5,4.93,4.93,0,0,0,.55,0,7.21,7.21,0,0,0,2.93-13.8Z"/><path class="cls-17" d="M70.72,30.64a10.08,10.08,0,0,0,.13-1.57,9.23,9.23,0,0,0-9.23-9.23,10,10,0,0,0-1.74.16,11.67,11.67,0,0,0-18-2.27,10.41,10.41,0,0,0-17.84,1A11.7,11.7,0,0,0,5.63,28.33,12.08,12.08,0,0,0,5.75,30,7.46,7.46,0,0,0,9.42,44a6.06,6.06,0,0,0,.75,0,10.59,10.59,0,0,0,13.88,5.88,12.7,12.7,0,0,0,17.63.7q.52-.07,1-.18a7.38,7.38,0,0,0,13.19-1,7.29,7.29,0,0,0,11.34-4.94l.55,0a7.21,7.21,0,0,0,2.94-13.8Z"/><path class="cls-18" d="M70.87,30.48A10.18,10.18,0,0,0,71,28.91a9.26,9.26,0,0,0-11-9.07,11.66,11.66,0,0,0-18-2.28,10.41,10.41,0,0,0-17.84,1A11.7,11.7,0,0,0,5.78,28.17a11.83,11.83,0,0,0,.12,1.7,7.47,7.47,0,0,0,3.67,14c.26,0,.51,0,.75,0A10.59,10.59,0,0,0,24.2,49.68a12.69,12.69,0,0,0,17.63.69,8.35,8.35,0,0,0,1-.18,7.38,7.38,0,0,0,13.2-1,7.28,7.28,0,0,0,11.33-4.94l.55,0a7.21,7.21,0,0,0,2.94-13.8Z"/><path class="cls-19" d="M71,30.31a9,9,0,0,0,.13-1.57,9.23,9.23,0,0,0-9.23-9.23,9,9,0,0,0-1.73.17,11.67,11.67,0,0,0-18-2.28,10.41,10.41,0,0,0-17.83,1A11.71,11.71,0,0,0,5.93,28a10.72,10.72,0,0,0,.13,1.7,7.46,7.46,0,0,0,3.67,14,6.28,6.28,0,0,0,.75,0,10.58,10.58,0,0,0,9.84,6.68,10.42,10.42,0,0,0,4-.8,12.72,12.72,0,0,0,17.64.7c.34-.05.68-.11,1-.18a7.38,7.38,0,0,0,13.2-1,7.21,7.21,0,0,0,4.12,1.28,7.29,7.29,0,0,0,7.21-6.22,5.07,5.07,0,0,0,.55,0A7.22,7.22,0,0,0,71,30.31Z"/><path class="cls-20" d="M71.17,30.15a9.07,9.07,0,0,0,.13-1.57,9.23,9.23,0,0,0-9.23-9.23,9,9,0,0,0-1.73.16,11.66,11.66,0,0,0-18-2.28,10.42,10.42,0,0,0-17.84,1A11.72,11.72,0,0,0,6.08,27.84a12.08,12.08,0,0,0,.13,1.71,7.46,7.46,0,0,0,3.67,14c.25,0,.5,0,.75,0A10.58,10.58,0,0,0,24.5,49.35a12.72,12.72,0,0,0,17.64.7c.34,0,.68-.11,1-.19a7.37,7.37,0,0,0,13.19-1,7.28,7.28,0,0,0,11.33-4.94l.55,0a7.21,7.21,0,0,0,2.94-13.8Z"/><path class="cls-21" d="M71.32,30a9,9,0,0,0,.13-1.56,9.24,9.24,0,0,0-9.23-9.24,9,9,0,0,0-1.73.17,11.66,11.66,0,0,0-18-2.28,10.41,10.41,0,0,0-17.84,1A11.71,11.71,0,0,0,6.23,27.68a11.82,11.82,0,0,0,.13,1.7,7.46,7.46,0,0,0,3.67,14l.75,0A10.58,10.58,0,0,0,20.62,50a10.39,10.39,0,0,0,4-.8,12.69,12.69,0,0,0,17.64.7,9.09,9.09,0,0,0,1-.18,7.38,7.38,0,0,0,13.19-1A7.21,7.21,0,0,0,60.62,50a7.29,7.29,0,0,0,7.21-6.22,5.07,5.07,0,0,0,.55,0A7.22,7.22,0,0,0,71.32,30Z"/><path class="cls-22" d="M71.47,29.82a9,9,0,0,0,.13-1.57A9.23,9.23,0,0,0,62.37,19a9.85,9.85,0,0,0-1.73.16,11.67,11.67,0,0,0-18-2.27,10.41,10.41,0,0,0-17.84,1A11.71,11.71,0,0,0,6.38,27.51a12.08,12.08,0,0,0,.13,1.71,7.46,7.46,0,0,0,3.67,14,6.28,6.28,0,0,0,.75,0A10.58,10.58,0,0,0,24.8,49a12.72,12.72,0,0,0,17.64.7q.51-.07,1-.18a7.38,7.38,0,0,0,13.19-1,7.21,7.21,0,0,0,4.12,1.28A7.29,7.29,0,0,0,68,43.6l.55,0a7.21,7.21,0,0,0,2.94-13.8Z"/><path class="cls-23" d="M71.62,29.66a9.08,9.08,0,0,0,.14-1.57,9.24,9.24,0,0,0-9.24-9.24,9,9,0,0,0-1.73.17,11.66,11.66,0,0,0-18-2.28,10.41,10.41,0,0,0-17.84,1A11.71,11.71,0,0,0,6.53,27.35a11.82,11.82,0,0,0,.13,1.7,7.46,7.46,0,0,0,3.67,14q.38,0,.75,0A10.61,10.61,0,0,0,25,48.86a12.7,12.7,0,0,0,17.64.69,9.09,9.09,0,0,0,1-.18,7.37,7.37,0,0,0,13.19-1,7.3,7.3,0,0,0,11.33-4.94l.56,0a7.21,7.21,0,0,0,2.93-13.8Z"/><path class="cls-24" d="M71.77,29.49a9,9,0,0,0,.14-1.57,9.24,9.24,0,0,0-9.24-9.23,9,9,0,0,0-1.73.17,11.66,11.66,0,0,0-18-2.28,10.41,10.41,0,0,0-17.84,1A11.71,11.71,0,0,0,6.68,27.18a12.08,12.08,0,0,0,.13,1.71,7.46,7.46,0,0,0,3.67,14,6.28,6.28,0,0,0,.75,0,10.59,10.59,0,0,0,9.84,6.68,10.39,10.39,0,0,0,4-.8,12.72,12.72,0,0,0,17.64.7q.51-.07,1-.18a7.38,7.38,0,0,0,13.19-1,7.21,7.21,0,0,0,4.12,1.28,7.29,7.29,0,0,0,7.21-6.22,5.25,5.25,0,0,0,.56,0,7.22,7.22,0,0,0,2.93-13.81Z"/><path class="cls-25" d="M71.92,29.33a9.08,9.08,0,0,0,.14-1.57,9.23,9.23,0,0,0-9.23-9.23,9,9,0,0,0-1.74.16,11.66,11.66,0,0,0-18-2.28,10.41,10.41,0,0,0-17.84,1A11.72,11.72,0,0,0,6.84,27,12.08,12.08,0,0,0,7,28.73a7.46,7.46,0,0,0,3.67,14c.25,0,.5,0,.75,0a10.58,10.58,0,0,0,13.87,5.88,12.72,12.72,0,0,0,17.64.7c.35,0,.69-.11,1-.19a7.37,7.37,0,0,0,13.19-1,7.28,7.28,0,0,0,11.33-4.94l.56,0a7.21,7.21,0,0,0,2.93-13.8Z"/><path class="cls-26" d="M72.07,29.16a9,9,0,0,0,.14-1.56A9.24,9.24,0,0,0,63,18.36a9,9,0,0,0-1.74.17,11.66,11.66,0,0,0-18-2.28,10.41,10.41,0,0,0-17.84,1A11.7,11.7,0,0,0,7,26.86a11.94,11.94,0,0,0,.12,1.7,7.46,7.46,0,0,0,3.67,14,6.28,6.28,0,0,0,.75,0,10.58,10.58,0,0,0,9.84,6.68,10.39,10.39,0,0,0,4-.8,12.69,12.69,0,0,0,17.64.7c.35,0,.69-.11,1-.18a7.38,7.38,0,0,0,13.19-1,7.28,7.28,0,0,0,11.33-4.94,5.25,5.25,0,0,0,.56,0,7.22,7.22,0,0,0,2.93-13.81Z"/><path class="cls-27" d="M72.22,29a9,9,0,0,0,.14-1.57,9.23,9.23,0,0,0-9.23-9.23,9.88,9.88,0,0,0-1.74.16,11.67,11.67,0,0,0-18-2.27,10.42,10.42,0,0,0-17.84,1A11.72,11.72,0,0,0,7.14,26.69a12.08,12.08,0,0,0,.12,1.71,7.46,7.46,0,0,0,3.67,14,6.28,6.28,0,0,0,.75,0A10.59,10.59,0,0,0,25.56,48.2a12.7,12.7,0,0,0,17.63.7c.35,0,.69-.11,1-.19a7.37,7.37,0,0,0,13.19-1,7.28,7.28,0,0,0,11.33-4.94l.56,0A7.21,7.21,0,0,0,72.22,29Z"/><path class="cls-28" d="M72.37,28.84a9.08,9.08,0,0,0,.14-1.57A9.24,9.24,0,0,0,63.28,18a9,9,0,0,0-1.74.17,11.66,11.66,0,0,0-18-2.28,10.41,10.41,0,0,0-17.84,1A11.7,11.7,0,0,0,7.29,26.53a11.83,11.83,0,0,0,.12,1.7,7.46,7.46,0,0,0,3.67,14q.39,0,.75,0A10.62,10.62,0,0,0,25.71,48a12.69,12.69,0,0,0,17.63.69,8.35,8.35,0,0,0,1-.18,7.38,7.38,0,0,0,13.19-1,7.31,7.31,0,0,0,11.34-4.94l.55,0a7.21,7.21,0,0,0,2.93-13.8Z"/><path class="cls-29" d="M72.52,28.67a9,9,0,0,0,.14-1.57,9.23,9.23,0,0,0-9.23-9.23,9.09,9.09,0,0,0-1.74.17,11.66,11.66,0,0,0-18-2.28,10.41,10.41,0,0,0-17.84,1A11.7,11.7,0,0,0,7.44,26.36a12.08,12.08,0,0,0,.12,1.71,7.46,7.46,0,0,0,3.67,14A6.06,6.06,0,0,0,12,42a10.59,10.59,0,0,0,13.88,5.88,12.7,12.7,0,0,0,17.63.7q.52-.07,1-.18a7.38,7.38,0,0,0,13.19-1A7.29,7.29,0,0,0,69,42.45a4.93,4.93,0,0,0,.55,0,7.22,7.22,0,0,0,2.93-13.81Z"/><path class="cls-30" d="M72.68,28.51a10.18,10.18,0,0,0,.13-1.57,9.26,9.26,0,0,0-11-9.07,11.66,11.66,0,0,0-18-2.28,10.41,10.41,0,0,0-17.84,1A11.72,11.72,0,0,0,7.59,26.2a11.83,11.83,0,0,0,.12,1.7,7.47,7.47,0,0,0,3.67,14c.26,0,.51,0,.75,0A10.59,10.59,0,0,0,26,47.71a12.69,12.69,0,0,0,17.63.69,8.35,8.35,0,0,0,1-.18,7.37,7.37,0,0,0,13.19-1,7.29,7.29,0,0,0,11.34-4.94l.55,0a7.21,7.21,0,0,0,2.94-13.8Z"/><path class="cls-31" d="M72.83,28.34A10.08,10.08,0,0,0,73,26.77a9.23,9.23,0,0,0-9.23-9.23,9,9,0,0,0-1.73.17,11.67,11.67,0,0,0-18-2.28,10.41,10.41,0,0,0-17.83,1A11.71,11.71,0,0,0,7.74,26a10.63,10.63,0,0,0,.13,1.7,7.46,7.46,0,0,0,3.67,14,6,6,0,0,0,.74,0,10.59,10.59,0,0,0,9.84,6.68,10.47,10.47,0,0,0,4-.8,12.69,12.69,0,0,0,17.64.7c.34,0,.68-.11,1-.18a7.38,7.38,0,0,0,13.2-1,7.21,7.21,0,0,0,4.12,1.28,7.29,7.29,0,0,0,7.21-6.22,5.07,5.07,0,0,0,.55,0,7.22,7.22,0,0,0,2.94-13.81Z"/><path class="cls-32" d="M73,28.18a9,9,0,0,0,.13-1.57,9.23,9.23,0,0,0-9.23-9.23,9.85,9.85,0,0,0-1.73.16,11.67,11.67,0,0,0-18-2.28,10.42,10.42,0,0,0-17.83,1A11.72,11.72,0,0,0,7.89,25.87,12.08,12.08,0,0,0,8,27.58a7.46,7.46,0,0,0,3.67,14c.25,0,.5,0,.75,0a10.58,10.58,0,0,0,13.87,5.88,12.72,12.72,0,0,0,17.64.7c.34,0,.68-.11,1-.19a7.38,7.38,0,0,0,13.2-1A7.28,7.28,0,0,0,69.49,42L70,42A7.21,7.21,0,0,0,73,28.18Z"/><path class="cls-33" d="M73.13,28a9.07,9.07,0,0,0,.13-1.57A9.24,9.24,0,0,0,64,17.21a9,9,0,0,0-1.73.17,11.66,11.66,0,0,0-18-2.28,10.41,10.41,0,0,0-17.84,1A11.71,11.71,0,0,0,8,25.71a11.82,11.82,0,0,0,.13,1.7,7.46,7.46,0,0,0,3.67,14l.75,0A10.58,10.58,0,0,0,22.43,48a10.42,10.42,0,0,0,4-.8,12.69,12.69,0,0,0,17.64.7,9.09,9.09,0,0,0,1-.18,7.38,7.38,0,0,0,13.19-1,7.3,7.3,0,0,0,11.33-5,5.07,5.07,0,0,0,.55,0A7.21,7.21,0,0,0,73.13,28Z"/><path class="cls-34" d="M73.28,27.85a9,9,0,0,0,.13-1.57,9.23,9.23,0,0,0-9.23-9.23,9.85,9.85,0,0,0-1.73.16,11.67,11.67,0,0,0-18-2.27,10.41,10.41,0,0,0-17.84,1A11.71,11.71,0,0,0,8.19,25.54a12.08,12.08,0,0,0,.13,1.71,7.46,7.46,0,0,0,3.67,14,6.28,6.28,0,0,0,.75,0,10.58,10.58,0,0,0,13.87,5.88,12.72,12.72,0,0,0,17.64.7q.51-.07,1-.18a7.38,7.38,0,0,0,13.19-1,7.21,7.21,0,0,0,4.12,1.28,7.29,7.29,0,0,0,7.21-6.22l.55,0a7.21,7.21,0,0,0,2.94-13.8Z"/><path class="cls-35" d="M73.43,27.69a9.08,9.08,0,0,0,.14-1.57,9.24,9.24,0,0,0-9.24-9.23,9,9,0,0,0-1.73.16,11.66,11.66,0,0,0-18-2.28,10.41,10.41,0,0,0-17.84,1A11.71,11.71,0,0,0,8.34,25.38a11.82,11.82,0,0,0,.13,1.7,7.47,7.47,0,0,0,3.67,14c.25,0,.5,0,.75,0a10.61,10.61,0,0,0,13.87,5.88,12.7,12.7,0,0,0,17.64.69,9.09,9.09,0,0,0,1-.18,7.37,7.37,0,0,0,13.19-1,7.3,7.3,0,0,0,11.33-4.94l.55,0a7.21,7.21,0,0,0,2.94-13.8Z"/><path class="cls-36" d="M73.58,27.52A9,9,0,0,0,73.72,26a9.24,9.24,0,0,0-9.24-9.23,9,9,0,0,0-1.73.17,11.66,11.66,0,0,0-18-2.28,10.41,10.41,0,0,0-17.84,1,11.61,11.61,0,0,0-6.67-2.09A11.72,11.72,0,0,0,8.49,25.22a12,12,0,0,0,.13,1.7,7.46,7.46,0,0,0,3.67,14,6.28,6.28,0,0,0,.75,0,10.59,10.59,0,0,0,9.84,6.68,10.39,10.39,0,0,0,4-.8,12.72,12.72,0,0,0,17.64.7c.34,0,.68-.11,1-.18a7.38,7.38,0,0,0,13.19-1,7.21,7.21,0,0,0,4.12,1.28,7.29,7.29,0,0,0,7.21-6.22,5.12,5.12,0,0,0,.56,0,7.22,7.22,0,0,0,2.93-13.81Z"/><path class="cls-37" d="M73.73,27.36a9,9,0,0,0,.14-1.57,9.24,9.24,0,0,0-9.24-9.23,9.85,9.85,0,0,0-1.73.16,11.66,11.66,0,0,0-18-2.28,10.42,10.42,0,0,0-17.84,1A11.72,11.72,0,0,0,8.64,25.05a12.08,12.08,0,0,0,.13,1.71,7.46,7.46,0,0,0,3.67,14c.25,0,.5,0,.75,0a10.58,10.58,0,0,0,13.87,5.88,12.72,12.72,0,0,0,17.64.7c.35,0,.68-.11,1-.19a7.37,7.37,0,0,0,13.19-1,7.28,7.28,0,0,0,11.33-4.94l.56,0a7.21,7.21,0,0,0,2.93-13.8Z"/><path class="cls-38" d="M73.88,27.19A9,9,0,0,0,74,25.63a9.24,9.24,0,0,0-9.23-9.24,9,9,0,0,0-1.74.17,11.66,11.66,0,0,0-18-2.28,10.41,10.41,0,0,0-17.84,1A11.7,11.7,0,0,0,8.8,24.89a11.83,11.83,0,0,0,.12,1.7,7.46,7.46,0,0,0,3.67,14l.75,0a10.59,10.59,0,0,0,9.84,6.67,10.39,10.39,0,0,0,4-.8,12.69,12.69,0,0,0,17.64.7,8.35,8.35,0,0,0,1-.18,7.38,7.38,0,0,0,13.19-1A7.28,7.28,0,0,0,70.39,41,5.25,5.25,0,0,0,71,41a7.22,7.22,0,0,0,2.93-13.81Z"/><path class="cls-39" d="M74,27a9,9,0,0,0,.14-1.57,9.23,9.23,0,0,0-9.23-9.23,9.88,9.88,0,0,0-1.74.16,11.67,11.67,0,0,0-18-2.27,10.41,10.41,0,0,0-17.84,1A11.7,11.7,0,0,0,9,24.72a12.08,12.08,0,0,0,.12,1.71,7.46,7.46,0,0,0,3.67,14,6.28,6.28,0,0,0,.75,0,10.59,10.59,0,0,0,13.88,5.88,12.7,12.7,0,0,0,17.63.7q.53-.07,1-.18a7.38,7.38,0,0,0,13.19-1,7.28,7.28,0,0,0,11.33-4.94l.56,0A7.21,7.21,0,0,0,74,27Z"/><path class="cls-40" d="M74.18,26.87a9.08,9.08,0,0,0,.14-1.57,9.24,9.24,0,0,0-9.23-9.24,9,9,0,0,0-1.74.17,11.66,11.66,0,0,0-18-2.28,10.41,10.41,0,0,0-17.84,1A11.7,11.7,0,0,0,9.1,24.56a11.83,11.83,0,0,0,.12,1.7,7.46,7.46,0,0,0,3.67,14q.38,0,.75,0a10.62,10.62,0,0,0,13.88,5.88,12.69,12.69,0,0,0,17.63.69,8.35,8.35,0,0,0,1-.18,7.38,7.38,0,0,0,13.19-1A7.31,7.31,0,0,0,70.7,40.65l.55,0a7.21,7.21,0,0,0,2.93-13.8Z"/><path class="cls-41" d="M74.33,26.7a9,9,0,0,0,.14-1.57,9.23,9.23,0,0,0-9.23-9.23,9,9,0,0,0-1.74.17,11.66,11.66,0,0,0-18-2.28,10.41,10.41,0,0,0-17.84,1A11.7,11.7,0,0,0,9.25,24.39a12.08,12.08,0,0,0,.12,1.71,7.46,7.46,0,0,0,3.67,14,6.06,6.06,0,0,0,.75,0,10.6,10.6,0,0,0,9.84,6.68,10.47,10.47,0,0,0,4-.8,12.7,12.7,0,0,0,17.63.7q.53-.08,1-.18a7.38,7.38,0,0,0,13.19-1,7.29,7.29,0,0,0,11.34-4.94,4.93,4.93,0,0,0,.55,0A7.22,7.22,0,0,0,74.33,26.7Z"/><path class="cls-42" d="M74.49,26.54A10.18,10.18,0,0,0,74.62,25a9.26,9.26,0,0,0-11-9.07,11.66,11.66,0,0,0-18-2.28,10.41,10.41,0,0,0-17.84,1A11.72,11.72,0,0,0,9.4,24.23a11.83,11.83,0,0,0,.12,1.7,7.47,7.47,0,0,0,3.67,14c.26,0,.51,0,.75,0a10.59,10.59,0,0,0,13.88,5.88,12.7,12.7,0,0,0,17.63.7c.35,0,.69-.11,1-.19a7.37,7.37,0,0,0,13.19-1A7.29,7.29,0,0,0,71,40.32l.55,0a7.21,7.21,0,0,0,2.94-13.8Z"/><path class="cls-43" d="M74.64,26.37a10.05,10.05,0,0,0,.13-1.56,9.21,9.21,0,0,0-11-9.07,11.66,11.66,0,0,0-18-2.28,10.41,10.41,0,0,0-17.83,1A11.71,11.71,0,0,0,9.55,24.07a11.94,11.94,0,0,0,.12,1.7,7.46,7.46,0,0,0,3.67,14,6.06,6.06,0,0,0,.75,0,10.59,10.59,0,0,0,9.84,6.68,10.47,10.47,0,0,0,4-.8,12.68,12.68,0,0,0,17.63.7,8.35,8.35,0,0,0,1-.18,7.38,7.38,0,0,0,13.2-1,7.21,7.21,0,0,0,4.12,1.28,7.29,7.29,0,0,0,7.21-6.22,5.07,5.07,0,0,0,.55,0,7.22,7.22,0,0,0,2.94-13.81Z"/><path class="cls-44" d="M74.79,26.21a9,9,0,0,0,.13-1.57,9.23,9.23,0,0,0-9.23-9.23,9.85,9.85,0,0,0-1.73.16,11.68,11.68,0,0,0-18-2.27,10.41,10.41,0,0,0-17.83,1A11.72,11.72,0,0,0,9.7,23.9a10.76,10.76,0,0,0,.13,1.71,7.46,7.46,0,0,0,3.67,14,6.28,6.28,0,0,0,.75,0,10.58,10.58,0,0,0,13.87,5.88,12.72,12.72,0,0,0,17.64.7c.34,0,.68-.11,1-.19a7.38,7.38,0,0,0,13.2-1,7.21,7.21,0,0,0,4.12,1.28A7.29,7.29,0,0,0,71.3,40l.55,0a7.21,7.21,0,0,0,2.94-13.8Z"/><path class="cls-45" d="M74.94,26.05a9.07,9.07,0,0,0,.13-1.57,9.24,9.24,0,0,0-9.23-9.24,9,9,0,0,0-1.73.17,11.66,11.66,0,0,0-18-2.28,10.41,10.41,0,0,0-17.84,1A11.71,11.71,0,0,0,9.85,23.74a11.82,11.82,0,0,0,.13,1.7,7.46,7.46,0,0,0,3.67,14q.38,0,.75,0a10.61,10.61,0,0,0,13.87,5.88,12.7,12.7,0,0,0,17.64.69,9.09,9.09,0,0,0,1-.18,7.38,7.38,0,0,0,13.19-1,7.3,7.3,0,0,0,11.33-4.94l.55,0a7.21,7.21,0,0,0,2.94-13.8Z"/><path class="cls-46" d="M75.09,25.88a9,9,0,0,0,.13-1.57A9.23,9.23,0,0,0,66,15.08a9,9,0,0,0-1.73.17,11.66,11.66,0,0,0-18-2.28,10.41,10.41,0,0,0-17.84,1A11.71,11.71,0,0,0,10,23.57a12.08,12.08,0,0,0,.13,1.71,7.46,7.46,0,0,0,3.67,14,6.28,6.28,0,0,0,.75,0,10.58,10.58,0,0,0,13.87,5.88,12.72,12.72,0,0,0,17.64.7l1-.18a7.38,7.38,0,0,0,13.19-1,7.21,7.21,0,0,0,4.12,1.28,7.29,7.29,0,0,0,7.21-6.22,5.06,5.06,0,0,0,.55,0,7.21,7.21,0,0,0,2.94-13.8Z"/><path class="cls-47" d="M75.24,25.72a9.07,9.07,0,0,0,.13-1.57,9.23,9.23,0,0,0-9.23-9.23,9,9,0,0,0-1.73.16,11.66,11.66,0,0,0-18-2.28,10.41,10.41,0,0,0-17.84,1,11.72,11.72,0,0,0-18.39,9.63,11.82,11.82,0,0,0,.13,1.7,7.47,7.47,0,0,0,3.67,14c.25,0,.5,0,.75,0a10.58,10.58,0,0,0,13.87,5.88,12.72,12.72,0,0,0,17.64.7c.34,0,.68-.11,1-.19a7.37,7.37,0,0,0,13.19-1A7.28,7.28,0,0,0,71.75,39.5l.55,0a7.21,7.21,0,0,0,2.94-13.8Z"/><path class="cls-48" d="M75.39,25.55A9,9,0,0,0,75.53,24a9.24,9.24,0,0,0-9.24-9.23,9,9,0,0,0-1.73.17,11.66,11.66,0,0,0-18-2.28,10.41,10.41,0,0,0-17.84,1A11.61,11.61,0,0,0,22,11.53,11.72,11.72,0,0,0,10.3,23.25a11.93,11.93,0,0,0,.13,1.7,7.46,7.46,0,0,0,3.67,14,6.28,6.28,0,0,0,.75,0,10.57,10.57,0,0,0,9.84,6.68,10.39,10.39,0,0,0,4-.8,12.69,12.69,0,0,0,17.64.7c.34,0,.68-.11,1-.18a7.38,7.38,0,0,0,13.19-1,7.21,7.21,0,0,0,4.12,1.28,7.29,7.29,0,0,0,7.21-6.22,5.12,5.12,0,0,0,.56,0,7.22,7.22,0,0,0,2.93-13.81Z"/><path class="cls-49" d="M75.54,25.39a9,9,0,0,0,.14-1.57,9.24,9.24,0,0,0-9.24-9.23,9.85,9.85,0,0,0-1.73.16,11.65,11.65,0,0,0-18-2.27,10.42,10.42,0,0,0-17.84,1,11.72,11.72,0,0,0-18.39,9.63,12.08,12.08,0,0,0,.13,1.71,7.46,7.46,0,0,0,3.67,14c.25,0,.5,0,.75,0a10.58,10.58,0,0,0,13.87,5.88,12.72,12.72,0,0,0,17.64.7c.34,0,.68-.11,1-.19a7.37,7.37,0,0,0,13.19-1,7.28,7.28,0,0,0,11.33-4.94l.56,0a7.21,7.21,0,0,0,2.93-13.8Z"/><path class="cls-50" d="M75.69,25.23a9.08,9.08,0,0,0,.14-1.57,9.24,9.24,0,0,0-9.23-9.24,9,9,0,0,0-1.74.17,11.66,11.66,0,0,0-18-2.28,10.41,10.41,0,0,0-17.84,1,11.7,11.7,0,0,0-18.38,9.63,11.83,11.83,0,0,0,.12,1.7,7.46,7.46,0,0,0,3.67,14q.38,0,.75,0A10.59,10.59,0,0,0,25,45.22a10.39,10.39,0,0,0,4-.8,12.69,12.69,0,0,0,17.64.7,8.35,8.35,0,0,0,1-.18,7.38,7.38,0,0,0,13.19-1A7.3,7.3,0,0,0,72.2,39a5.25,5.25,0,0,0,.56,0,7.21,7.21,0,0,0,2.93-13.8Z"/><path class="cls-51" d="M75.84,25.06A9,9,0,0,0,76,23.49a9.23,9.23,0,0,0-9.23-9.23,9.88,9.88,0,0,0-1.74.16,11.67,11.67,0,0,0-18-2.27,10.41,10.41,0,0,0-17.84,1,11.7,11.7,0,0,0-18.38,9.62,12.08,12.08,0,0,0,.12,1.71,7.46,7.46,0,0,0,3.67,14,6.28,6.28,0,0,0,.75,0,10.58,10.58,0,0,0,13.87,5.88,12.72,12.72,0,0,0,17.64.7q.52-.08,1-.18a7.38,7.38,0,0,0,13.19-1,7.28,7.28,0,0,0,11.33-4.94l.56,0a7.21,7.21,0,0,0,2.93-13.8Z"/><path class="cls-52" d="M76,24.9a9.08,9.08,0,0,0,.14-1.57A9.23,9.23,0,0,0,66.9,14.1a9,9,0,0,0-1.74.16,11.66,11.66,0,0,0-18-2.28,10.41,10.41,0,0,0-17.84,1,11.72,11.72,0,0,0-18.38,9.63,11.83,11.83,0,0,0,.12,1.7,7.47,7.47,0,0,0,3.67,14c.26,0,.51,0,.75,0A10.62,10.62,0,0,0,29.33,44.1,12.69,12.69,0,0,0,47,44.79a8.35,8.35,0,0,0,1-.18,7.37,7.37,0,0,0,13.19-1A7.3,7.3,0,0,0,72.5,38.68l.56,0A7.21,7.21,0,0,0,76,24.9Z"/><path class="cls-53" d="M76.14,24.73a9,9,0,0,0,.14-1.57,9.23,9.23,0,0,0-9.23-9.23,9,9,0,0,0-1.74.17,11.66,11.66,0,0,0-18-2.28,10.41,10.41,0,0,0-17.84,1,11.7,11.7,0,0,0-18.38,9.63,12,12,0,0,0,.12,1.7,7.46,7.46,0,0,0,3.67,14,6.06,6.06,0,0,0,.75,0,10.6,10.6,0,0,0,9.84,6.68,10.47,10.47,0,0,0,4-.8,12.7,12.7,0,0,0,17.63.7c.35,0,.69-.11,1-.18a7.38,7.38,0,0,0,13.19-1,7.29,7.29,0,0,0,11.34-4.94,4.93,4.93,0,0,0,.55,0,7.22,7.22,0,0,0,2.93-13.81Z"/><path class="cls-54" d="M76.29,24.57A9,9,0,0,0,76.43,23a9.23,9.23,0,0,0-9.23-9.23,10,10,0,0,0-1.74.16,11.66,11.66,0,0,0-18-2.28,10.42,10.42,0,0,0-17.84,1,11.72,11.72,0,0,0-18.38,9.63A12.08,12.08,0,0,0,11.33,24a7.46,7.46,0,0,0,3.67,14c.26,0,.51,0,.75,0a10.59,10.59,0,0,0,13.88,5.88,12.7,12.7,0,0,0,17.63.7c.35,0,.69-.11,1-.19a7.37,7.37,0,0,0,13.19-1,7.29,7.29,0,0,0,11.34-4.94l.55,0a7.21,7.21,0,0,0,2.93-13.8Z"/><path class="cls-55" d="M76.45,24.4a10.05,10.05,0,0,0,.13-1.56,9.21,9.21,0,0,0-11-9.07,11.66,11.66,0,0,0-18-2.28,10.41,10.41,0,0,0-17.84,1A11.7,11.7,0,0,0,11.36,22.1a11.83,11.83,0,0,0,.12,1.7,7.46,7.46,0,0,0,3.67,14q.39,0,.75,0a10.6,10.6,0,0,0,9.84,6.67,10.47,10.47,0,0,0,4-.8,12.68,12.68,0,0,0,17.63.7,8.35,8.35,0,0,0,1-.18,7.38,7.38,0,0,0,13.19-1A7.29,7.29,0,0,0,73,38.18a4.93,4.93,0,0,0,.55,0A7.22,7.22,0,0,0,76.45,24.4Z"/><path class="cls-56" d="M76.6,24.24a9,9,0,0,0,.13-1.57,9.23,9.23,0,0,0-9.23-9.23,9.85,9.85,0,0,0-1.73.16,11.68,11.68,0,0,0-18-2.27,10.41,10.41,0,0,0-17.83,1,11.71,11.71,0,0,0-18.39,9.62,12.08,12.08,0,0,0,.12,1.71,7.46,7.46,0,0,0,3.68,14,6,6,0,0,0,.74,0,10.59,10.59,0,0,0,13.88,5.88,12.72,12.72,0,0,0,17.64.7c.34,0,.68-.11,1-.18a7.38,7.38,0,0,0,13.2-1,7.21,7.21,0,0,0,4.12,1.28A7.29,7.29,0,0,0,73.11,38l.55,0a7.21,7.21,0,0,0,2.94-13.8Z"/><path class="cls-57" d="M76.75,24.08a9.07,9.07,0,0,0,.13-1.57,9.24,9.24,0,0,0-9.23-9.24,9,9,0,0,0-1.73.17,11.67,11.67,0,0,0-18-2.28,10.41,10.41,0,0,0-17.83,1,11.71,11.71,0,0,0-18.39,9.63,11.82,11.82,0,0,0,.13,1.7,7.46,7.46,0,0,0,3.67,14q.38,0,.75,0a10.61,10.61,0,0,0,13.87,5.88A12.7,12.7,0,0,0,47.72,44a8.54,8.54,0,0,0,1-.18,7.38,7.38,0,0,0,13.2-1,7.3,7.3,0,0,0,11.33-4.94l.55,0a7.21,7.21,0,0,0,2.94-13.8Z"/><path class="cls-58" d="M76.9,23.91A9,9,0,0,0,77,22.34a9.23,9.23,0,0,0-9.23-9.23,9,9,0,0,0-1.73.17A11.66,11.66,0,0,0,48,11,10.41,10.41,0,0,0,30.2,12a11.71,11.71,0,0,0-18.39,9.63,12,12,0,0,0,.13,1.7,7.46,7.46,0,0,0,3.67,14,6.28,6.28,0,0,0,.75,0,10.58,10.58,0,0,0,9.84,6.68,10.42,10.42,0,0,0,4-.8,12.72,12.72,0,0,0,17.64.7l1-.18a7.38,7.38,0,0,0,13.19-1,7.21,7.21,0,0,0,4.12,1.28,7.29,7.29,0,0,0,7.21-6.22,5.07,5.07,0,0,0,.55,0A7.22,7.22,0,0,0,76.9,23.91Z"/><path class="cls-59" d="M77.05,23.75a9.07,9.07,0,0,0,.13-1.57A9.23,9.23,0,0,0,68,13a9,9,0,0,0-1.73.16,11.66,11.66,0,0,0-18-2.28,10.42,10.42,0,0,0-17.84,1A11.72,11.72,0,0,0,12,21.44a11.82,11.82,0,0,0,.13,1.7,7.47,7.47,0,0,0,3.67,14c.25,0,.5,0,.75,0A10.58,10.58,0,0,0,30.38,43a12.72,12.72,0,0,0,17.64.7c.34,0,.68-.11,1-.19a7.37,7.37,0,0,0,13.19-1,7.28,7.28,0,0,0,11.33-4.94l.55,0a7.21,7.21,0,0,0,2.94-13.8Z"/><path class="cls-60" d="M77.2,23.58A9,9,0,0,0,77.34,22a9.24,9.24,0,0,0-9.24-9.24,9,9,0,0,0-1.73.17,11.66,11.66,0,0,0-18-2.28,10.41,10.41,0,0,0-17.84,1,11.71,11.71,0,0,0-18.39,9.63,11.93,11.93,0,0,0,.13,1.7,7.46,7.46,0,0,0,3.67,14,6.28,6.28,0,0,0,.75,0,10.57,10.57,0,0,0,9.84,6.68,10.39,10.39,0,0,0,4-.8,12.69,12.69,0,0,0,17.64.7,9.09,9.09,0,0,0,1-.18,7.38,7.38,0,0,0,13.19-1,7.21,7.21,0,0,0,4.12,1.28,7.29,7.29,0,0,0,7.21-6.22,5.07,5.07,0,0,0,.55,0A7.22,7.22,0,0,0,77.2,23.58Z"/><path class="cls-61" d="M77.35,23.42a9,9,0,0,0,.14-1.57,9.24,9.24,0,0,0-9.24-9.23,9.85,9.85,0,0,0-1.73.16,11.67,11.67,0,0,0-18-2.27,10.42,10.42,0,0,0-17.84,1,11.72,11.72,0,0,0-18.39,9.63,12.08,12.08,0,0,0,.13,1.71,7.46,7.46,0,0,0,3.67,14,6.28,6.28,0,0,0,.75,0,10.58,10.58,0,0,0,13.87,5.88,12.72,12.72,0,0,0,17.64.7c.34,0,.68-.11,1-.19a7.37,7.37,0,0,0,13.19-1,7.21,7.21,0,0,0,4.12,1.28,7.29,7.29,0,0,0,7.21-6.22l.56,0a7.21,7.21,0,0,0,2.93-13.8Z"/><path class="cls-62" d="M77.5,23.26a9.08,9.08,0,0,0,.14-1.57,9.24,9.24,0,0,0-9.24-9.24,9,9,0,0,0-1.73.17,11.66,11.66,0,0,0-18-2.28,10.41,10.41,0,0,0-17.84,1A11.71,11.71,0,0,0,12.41,21a11.82,11.82,0,0,0,.13,1.7,7.46,7.46,0,0,0,3.67,14q.38,0,.75,0a10.61,10.61,0,0,0,13.87,5.88,12.7,12.7,0,0,0,17.64.69,9.09,9.09,0,0,0,1-.18,7.38,7.38,0,0,0,13.19-1A7.3,7.3,0,0,0,74,37l.56,0a7.21,7.21,0,0,0,2.93-13.8Z"/><path class="cls-63" d="M77.65,23.09a9,9,0,0,0,.14-1.57,9.23,9.23,0,0,0-9.23-9.23,9.88,9.88,0,0,0-1.74.16,11.67,11.67,0,0,0-18-2.27,10.41,10.41,0,0,0-17.84,1,11.7,11.7,0,0,0-18.38,9.62,12.08,12.08,0,0,0,.12,1.71,7.46,7.46,0,0,0,3.67,14,6.28,6.28,0,0,0,.75,0A10.59,10.59,0,0,0,27,43.09a10.39,10.39,0,0,0,4-.8,12.72,12.72,0,0,0,17.64.7q.52-.08,1-.18a7.38,7.38,0,0,0,13.19-1,7.28,7.28,0,0,0,11.33-4.94,5.24,5.24,0,0,0,.56,0,7.21,7.21,0,0,0,2.93-13.8Z"/><path class="cls-64" d="M77.8,22.93a9.08,9.08,0,0,0,.14-1.57,9.23,9.23,0,0,0-9.23-9.23,9,9,0,0,0-1.74.16,11.66,11.66,0,0,0-18-2.28A10.41,10.41,0,0,0,31.1,11a11.72,11.72,0,0,0-18.38,9.63,11.83,11.83,0,0,0,.12,1.7,7.47,7.47,0,0,0,3.67,14c.25,0,.5,0,.75,0a10.59,10.59,0,0,0,13.88,5.88,12.7,12.7,0,0,0,17.63.7c.35,0,.69-.11,1-.19a7.37,7.37,0,0,0,13.19-1,7.28,7.28,0,0,0,11.33-4.94l.56,0a7.21,7.21,0,0,0,2.93-13.8Z"/><path class="cls-65" d="M78,22.76a9,9,0,0,0,.14-1.56A9.24,9.24,0,0,0,68.86,12a9,9,0,0,0-1.74.17,11.66,11.66,0,0,0-18-2.28,10.41,10.41,0,0,0-17.84,1,11.7,11.7,0,0,0-18.38,9.63,11.94,11.94,0,0,0,.12,1.7,7.46,7.46,0,0,0,3.67,14,6.06,6.06,0,0,0,.75,0,10.59,10.59,0,0,0,9.84,6.68,10.47,10.47,0,0,0,4-.8,12.68,12.68,0,0,0,17.63.7,8.35,8.35,0,0,0,1-.18,7.38,7.38,0,0,0,13.19-1,7.29,7.29,0,0,0,11.34-4.94,4.93,4.93,0,0,0,.55,0A7.22,7.22,0,0,0,78,22.76Z"/><path class="cls-66" d="M78.1,22.6A9,9,0,0,0,78.24,21,9.23,9.23,0,0,0,69,11.8a9.88,9.88,0,0,0-1.74.16,11.66,11.66,0,0,0-18-2.28,10.42,10.42,0,0,0-17.84,1A11.72,11.72,0,0,0,13,20.29,12.08,12.08,0,0,0,13.14,22a7.46,7.46,0,0,0,3.67,14c.26,0,.51,0,.75,0A10.59,10.59,0,0,0,31.44,41.8a12.7,12.7,0,0,0,17.63.7c.35,0,.69-.11,1-.19a7.37,7.37,0,0,0,13.19-1,7.29,7.29,0,0,0,11.34-4.94l.55,0A7.21,7.21,0,0,0,78.1,22.6Z"/><path class="cls-67" d="M78.26,22.44a10.18,10.18,0,0,0,.13-1.57,9.21,9.21,0,0,0-11-9.07,11.66,11.66,0,0,0-18-2.28,10.41,10.41,0,0,0-17.84,1,11.7,11.7,0,0,0-18.38,9.63,11.83,11.83,0,0,0,.12,1.7,7.46,7.46,0,0,0,3.67,14q.39,0,.75,0a10.62,10.62,0,0,0,13.88,5.88,12.69,12.69,0,0,0,17.63.69,8.35,8.35,0,0,0,1-.18,7.38,7.38,0,0,0,13.19-1,7.31,7.31,0,0,0,11.34-4.94l.55,0a7.21,7.21,0,0,0,2.94-13.8Z"/><path class="cls-68" d="M78.41,22.27a10.08,10.08,0,0,0,.13-1.57,9.23,9.23,0,0,0-9.23-9.23,10.05,10.05,0,0,0-1.74.16,11.67,11.67,0,0,0-18-2.27,10.41,10.41,0,0,0-17.83,1A11.71,11.71,0,0,0,13.32,20a12.08,12.08,0,0,0,.12,1.71,7.46,7.46,0,0,0,3.67,14,6.06,6.06,0,0,0,.75,0,10.59,10.59,0,0,0,13.88,5.88,12.7,12.7,0,0,0,17.63.7q.52-.08,1-.18a7.38,7.38,0,0,0,13.2-1,7.21,7.21,0,0,0,4.12,1.28,7.29,7.29,0,0,0,7.21-6.22l.55,0a7.21,7.21,0,0,0,2.94-13.8Z"/><path class="cls-69" d="M78.56,22.11a9.07,9.07,0,0,0,.13-1.57,9.23,9.23,0,0,0-9.23-9.23,9,9,0,0,0-1.73.16,11.67,11.67,0,0,0-18-2.28,10.41,10.41,0,0,0-17.83,1A11.72,11.72,0,0,0,13.47,19.8a10.55,10.55,0,0,0,.13,1.7,7.47,7.47,0,0,0,3.67,14c.25,0,.5,0,.75,0a10.58,10.58,0,0,0,13.87,5.88A12.7,12.7,0,0,0,49.53,42a8.54,8.54,0,0,0,1-.18,7.38,7.38,0,0,0,13.2-1,7.28,7.28,0,0,0,11.33-4.94l.55,0a7.21,7.21,0,0,0,2.94-13.8Z"/><path class="cls-70" d="M78.71,21.94a9,9,0,0,0,.13-1.57,9.23,9.23,0,0,0-9.23-9.23,9,9,0,0,0-1.73.17A11.66,11.66,0,0,0,49.85,9,10.41,10.41,0,0,0,32,10a11.71,11.71,0,0,0-18.39,9.63,12,12,0,0,0,.13,1.7,7.46,7.46,0,0,0,3.67,14,6.28,6.28,0,0,0,.75,0A10.58,10.58,0,0,0,28,41.94a10.42,10.42,0,0,0,4-.8,12.72,12.72,0,0,0,17.64.7c.34,0,.68-.11,1-.18a7.38,7.38,0,0,0,13.19-1A7.21,7.21,0,0,0,68,41.94a7.29,7.29,0,0,0,7.21-6.22,5.07,5.07,0,0,0,.55,0,7.22,7.22,0,0,0,2.94-13.81Z"/><path class="cls-71" d="M78.86,21.78A9,9,0,0,0,79,20.21,9.23,9.23,0,0,0,69.76,11a9.85,9.85,0,0,0-1.73.16A11.66,11.66,0,0,0,50,8.86a10.42,10.42,0,0,0-17.84,1,11.72,11.72,0,0,0-18.39,9.63,12.08,12.08,0,0,0,.13,1.71,7.46,7.46,0,0,0,3.67,14c.25,0,.5,0,.75,0A10.58,10.58,0,0,0,32.19,41a12.72,12.72,0,0,0,17.64.7c.34,0,.68-.11,1-.19A7.37,7.37,0,0,0,64,40.5a7.28,7.28,0,0,0,11.33-4.94l.55,0a7.21,7.21,0,0,0,2.94-13.8Z"/><path class="cls-72" d="M79,21.62a9.26,9.26,0,0,0-9.1-10.81,9,9,0,0,0-1.73.17,11.66,11.66,0,0,0-18-2.28,10.41,10.41,0,0,0-17.84,1,11.71,11.71,0,0,0-18.39,9.63,11.82,11.82,0,0,0,.13,1.7,7.46,7.46,0,0,0,3.67,14q.38,0,.75,0a10.58,10.58,0,0,0,9.84,6.67,10.39,10.39,0,0,0,4-.8,12.69,12.69,0,0,0,17.64.7,9.09,9.09,0,0,0,1-.18,7.38,7.38,0,0,0,13.19-1,7.21,7.21,0,0,0,4.12,1.28,7.29,7.29,0,0,0,7.21-6.22,5.07,5.07,0,0,0,.55,0A7.21,7.21,0,0,0,79,21.62Z"/><path class="cls-73" d="M79.16,21.45a9,9,0,0,0,.14-1.57,9.24,9.24,0,0,0-9.24-9.23,9.85,9.85,0,0,0-1.73.16,11.67,11.67,0,0,0-18-2.27,10.41,10.41,0,0,0-17.84,1,11.71,11.71,0,0,0-18.39,9.62,12.08,12.08,0,0,0,.13,1.71,7.46,7.46,0,0,0,3.67,14,6.28,6.28,0,0,0,.75,0,10.58,10.58,0,0,0,13.87,5.88,12.72,12.72,0,0,0,17.64.7l1-.18a7.38,7.38,0,0,0,13.19-1,7.21,7.21,0,0,0,4.12,1.28,7.29,7.29,0,0,0,7.21-6.22l.56,0a7.21,7.21,0,0,0,2.93-13.8Z"/><path class="cls-74" d="M79.31,21.29a9.08,9.08,0,0,0,.14-1.57,9.24,9.24,0,0,0-9.24-9.24,9,9,0,0,0-1.73.17,11.66,11.66,0,0,0-18-2.28,10.41,10.41,0,0,0-17.84,1A11.71,11.71,0,0,0,14.22,19a11.82,11.82,0,0,0,.13,1.7,7.46,7.46,0,0,0,3.67,14q.38,0,.75,0a10.61,10.61,0,0,0,13.87,5.88,12.7,12.7,0,0,0,17.64.69,9.09,9.09,0,0,0,1-.18,7.37,7.37,0,0,0,13.19-1,7.3,7.3,0,0,0,11.33-4.94l.56,0a7.21,7.21,0,0,0,2.93-13.8Z"/><path class="cls-75" d="M79.46,21.12a9,9,0,0,0,.14-1.57,9.23,9.23,0,0,0-9.23-9.23,9,9,0,0,0-1.74.17,11.66,11.66,0,0,0-18-2.28,10.41,10.41,0,0,0-17.84,1,11.7,11.7,0,0,0-18.38,9.63,12,12,0,0,0,.12,1.7,7.46,7.46,0,0,0,3.67,14,6.28,6.28,0,0,0,.75,0,10.59,10.59,0,0,0,9.84,6.68,10.39,10.39,0,0,0,4-.8,12.72,12.72,0,0,0,17.64.7c.35,0,.69-.11,1-.18a7.38,7.38,0,0,0,13.19-1,7.21,7.21,0,0,0,4.12,1.28A7.28,7.28,0,0,0,76,34.9a5.25,5.25,0,0,0,.56,0,7.22,7.22,0,0,0,2.93-13.81Z"/><path class="cls-76" d="M79.61,21a9.08,9.08,0,0,0,.14-1.57,9.23,9.23,0,0,0-9.23-9.23,9,9,0,0,0-1.74.16A11.66,11.66,0,0,0,50.75,8,10.42,10.42,0,0,0,32.91,9a11.72,11.72,0,0,0-18.38,9.63,11.83,11.83,0,0,0,.12,1.7,7.47,7.47,0,0,0,3.67,14c.25,0,.5,0,.75,0a10.58,10.58,0,0,0,13.87,5.88,12.72,12.72,0,0,0,17.64.7c.35,0,.69-.11,1-.19a7.37,7.37,0,0,0,13.19-1,7.28,7.28,0,0,0,11.33-4.94l.56,0A7.21,7.21,0,0,0,79.61,21Z"/><path class="cls-77" d="M79.76,20.79a9,9,0,0,0,.14-1.56A9.24,9.24,0,0,0,70.67,10a9,9,0,0,0-1.74.17,11.66,11.66,0,0,0-18-2.28,10.41,10.41,0,0,0-17.84,1,11.7,11.7,0,0,0-18.38,9.63,11.94,11.94,0,0,0,.12,1.7,7.46,7.46,0,0,0,3.67,14q.39,0,.75,0a10.6,10.6,0,0,0,9.84,6.67,10.47,10.47,0,0,0,4-.8,12.68,12.68,0,0,0,17.63.7,8.35,8.35,0,0,0,1-.18,7.38,7.38,0,0,0,13.19-1,7.28,7.28,0,0,0,11.33-4.94,5.25,5.25,0,0,0,.56,0,7.22,7.22,0,0,0,2.93-13.81Z"/><path class="cls-78" d="M79.91,20.63a9,9,0,0,0,.14-1.57,9.23,9.23,0,0,0-9.23-9.23,9.88,9.88,0,0,0-1.74.16,11.67,11.67,0,0,0-18-2.27,10.42,10.42,0,0,0-17.84,1,11.72,11.72,0,0,0-18.38,9.63A12.08,12.08,0,0,0,15,20a7.46,7.46,0,0,0,3.67,14,6.06,6.06,0,0,0,.75,0,10.59,10.59,0,0,0,13.88,5.88,12.7,12.7,0,0,0,17.63.7q.52-.08,1-.18a7.38,7.38,0,0,0,13.19-1,7.29,7.29,0,0,0,11.34-4.94l.55,0a7.21,7.21,0,0,0,2.93-13.8Z"/><path class="cls-79" d="M80.06,20.47a9.08,9.08,0,0,0,.14-1.57A9.24,9.24,0,0,0,71,9.66a9.09,9.09,0,0,0-1.74.17,11.66,11.66,0,0,0-18-2.28,10.41,10.41,0,0,0-17.84,1A11.7,11.7,0,0,0,15,18.16a11.83,11.83,0,0,0,.12,1.7,7.46,7.46,0,0,0,3.67,14q.39,0,.75,0A10.62,10.62,0,0,0,33.4,39.67,12.69,12.69,0,0,0,51,40.36a8.35,8.35,0,0,0,1-.18,7.37,7.37,0,0,0,13.19-1,7.31,7.31,0,0,0,11.34-4.94l.55,0a7.21,7.21,0,0,0,2.93-13.8Z"/><path class="cls-80" d="M80.22,20.3a10.08,10.08,0,0,0,.13-1.57A9.23,9.23,0,0,0,71.12,9.5a10.05,10.05,0,0,0-1.74.16,11.67,11.67,0,0,0-18-2.27,10.41,10.41,0,0,0-17.84,1A11.7,11.7,0,0,0,15.13,18a12.08,12.08,0,0,0,.12,1.71,7.46,7.46,0,0,0,3.67,14,6.06,6.06,0,0,0,.75,0,10.6,10.6,0,0,0,9.84,6.68,10.47,10.47,0,0,0,4-.8,12.7,12.7,0,0,0,17.63.7q.52-.08,1-.18a7.38,7.38,0,0,0,13.19-1,7.29,7.29,0,0,0,11.34-4.94,5,5,0,0,0,.55,0,7.21,7.21,0,0,0,2.94-13.8Z"/><path class="cls-81" d="M80.37,20.14a9.07,9.07,0,0,0,.13-1.57,9.23,9.23,0,0,0-9.23-9.23,9,9,0,0,0-1.73.16,11.67,11.67,0,0,0-18-2.28,10.41,10.41,0,0,0-17.83,1A11.73,11.73,0,0,0,15.4,19.53a7.47,7.47,0,0,0,3.68,14c.25,0,.5,0,.74,0A10.59,10.59,0,0,0,33.7,39.34a12.72,12.72,0,0,0,17.64.7c.34,0,.68-.11,1-.19a7.38,7.38,0,0,0,13.2-1,7.28,7.28,0,0,0,11.33-4.94l.55,0a7.21,7.21,0,0,0,2.94-13.8Z"/><path class="cls-82" d="M80.52,20a9,9,0,0,0,.13-1.56,9.24,9.24,0,0,0-9.23-9.24,9,9,0,0,0-1.73.17,11.67,11.67,0,0,0-18-2.28A10.41,10.41,0,0,0,33.82,8a11.71,11.71,0,0,0-18.39,9.63,11.93,11.93,0,0,0,.13,1.7,7.46,7.46,0,0,0,3.67,14,6.28,6.28,0,0,0,.75,0A10.58,10.58,0,0,0,29.82,40a10.42,10.42,0,0,0,4-.8,12.69,12.69,0,0,0,17.64.7,8.54,8.54,0,0,0,1-.18,7.38,7.38,0,0,0,13.2-1A7.21,7.21,0,0,0,69.82,40,7.29,7.29,0,0,0,77,33.75a5.07,5.07,0,0,0,.55,0A7.22,7.22,0,0,0,80.52,20Z"/><path class="cls-83" d="M80.67,19.81a9,9,0,0,0,.13-1.57A9.23,9.23,0,0,0,71.57,9a9.85,9.85,0,0,0-1.73.16,11.66,11.66,0,0,0-18-2.28A10.42,10.42,0,0,0,34,7.87,11.72,11.72,0,0,0,15.58,17.5a12.08,12.08,0,0,0,.13,1.71,7.46,7.46,0,0,0,3.67,14c.25,0,.5,0,.75,0A10.58,10.58,0,0,0,34,39a12.72,12.72,0,0,0,17.64.7c.34-.05.68-.11,1-.19a7.37,7.37,0,0,0,13.19-1A7.21,7.21,0,0,0,70,39.81a7.29,7.29,0,0,0,7.21-6.22l.55,0a7.21,7.21,0,0,0,2.94-13.8Z"/><path class="cls-84" d="M80.82,19.65A9.07,9.07,0,0,0,81,18.08a9.24,9.24,0,0,0-9.23-9.24A9,9,0,0,0,70,9,11.66,11.66,0,0,0,52,6.73a10.41,10.41,0,0,0-17.84,1,11.71,11.71,0,0,0-18.39,9.63,11.82,11.82,0,0,0,.13,1.7,7.46,7.46,0,0,0,3.67,14q.38,0,.75,0a10.61,10.61,0,0,0,13.87,5.88,12.7,12.7,0,0,0,17.64.69,9.09,9.09,0,0,0,1-.18,7.38,7.38,0,0,0,13.19-1,7.3,7.3,0,0,0,11.33-4.94l.55,0a7.21,7.21,0,0,0,2.94-13.8Z"/><path class="cls-85" d="M81,19.48a9,9,0,0,0,.14-1.57,9.24,9.24,0,0,0-9.24-9.23,9.85,9.85,0,0,0-1.73.16,11.67,11.67,0,0,0-18-2.27,10.41,10.41,0,0,0-17.84,1,11.71,11.71,0,0,0-18.39,9.62A12.08,12.08,0,0,0,16,18.88a7.46,7.46,0,0,0,3.67,14,6.28,6.28,0,0,0,.75,0A10.58,10.58,0,0,0,34.3,38.68a12.72,12.72,0,0,0,17.64.7l1-.18a7.38,7.38,0,0,0,13.19-1,7.21,7.21,0,0,0,4.12,1.28,7.29,7.29,0,0,0,7.21-6.22,5.15,5.15,0,0,0,.56,0A7.21,7.21,0,0,0,81,19.48Z"/><path class="cls-86" d="M81.12,19.32a9.08,9.08,0,0,0,.14-1.57A9.24,9.24,0,0,0,72,8.52a9,9,0,0,0-1.73.16,11.66,11.66,0,0,0-18-2.28,10.41,10.41,0,0,0-17.84,1A11.72,11.72,0,0,0,16,17a11.82,11.82,0,0,0,.13,1.7,7.47,7.47,0,0,0,3.67,14c.25,0,.5,0,.75,0a10.58,10.58,0,0,0,13.87,5.88,12.7,12.7,0,0,0,17.64.69,9.09,9.09,0,0,0,1-.18A7.37,7.37,0,0,0,66.3,38,7.28,7.28,0,0,0,77.63,33.1l.56,0a7.21,7.21,0,0,0,2.93-13.8Z"/><path class="cls-87" d="M81.27,19.15a9,9,0,0,0,.14-1.57,9.24,9.24,0,0,0-9.24-9.23,9,9,0,0,0-1.73.17,11.66,11.66,0,0,0-18-2.28,10.41,10.41,0,0,0-17.84,1,11.7,11.7,0,0,0-18.38,9.63,11.94,11.94,0,0,0,.12,1.7,7.46,7.46,0,0,0,3.67,14,6.28,6.28,0,0,0,.75,0,10.59,10.59,0,0,0,9.84,6.68,10.39,10.39,0,0,0,4-.8,12.69,12.69,0,0,0,17.64.7c.34,0,.68-.11,1-.18a7.38,7.38,0,0,0,13.19-1,7.21,7.21,0,0,0,4.12,1.28,7.29,7.29,0,0,0,7.21-6.22,5.25,5.25,0,0,0,.56,0,7.22,7.22,0,0,0,2.93-13.81Z"/><path class="cls-88" d="M81.42,19a9,9,0,0,0,.14-1.57,9.23,9.23,0,0,0-9.23-9.23,9.88,9.88,0,0,0-1.74.16,11.66,11.66,0,0,0-18-2.28,10.42,10.42,0,0,0-17.84,1,11.72,11.72,0,0,0-18.38,9.63,12.08,12.08,0,0,0,.12,1.71,7.46,7.46,0,0,0,3.67,14c.25,0,.5,0,.75,0a10.58,10.58,0,0,0,13.87,5.88,12.72,12.72,0,0,0,17.64.7c.35,0,.69-.11,1-.19a7.37,7.37,0,0,0,13.19-1,7.28,7.28,0,0,0,11.33-4.94l.56,0A7.21,7.21,0,0,0,81.42,19Z"/><path class="cls-89" d="M81.57,18.83a9.08,9.08,0,0,0,.14-1.57A9.24,9.24,0,0,0,72.48,8a9,9,0,0,0-1.74.17,11.66,11.66,0,0,0-18-2.28,10.41,10.41,0,0,0-17.84,1,11.7,11.7,0,0,0-18.38,9.63,11.83,11.83,0,0,0,.12,1.7,7.46,7.46,0,0,0,3.67,14q.38,0,.75,0a10.6,10.6,0,0,0,9.84,6.67,10.47,10.47,0,0,0,4-.8,12.68,12.68,0,0,0,17.63.7,8.35,8.35,0,0,0,1-.18,7.38,7.38,0,0,0,13.19-1A7.3,7.3,0,0,0,78.08,32.6a5.25,5.25,0,0,0,.56,0,7.21,7.21,0,0,0,2.93-13.8Z"/><path class="cls-90" d="M81.72,18.66a9,9,0,0,0,.14-1.57,9.23,9.23,0,0,0-9.23-9.23A9.88,9.88,0,0,0,70.89,8a11.67,11.67,0,0,0-18-2.27A10.41,10.41,0,0,0,35,6.73a11.7,11.7,0,0,0-18.38,9.62,12.08,12.08,0,0,0,.12,1.71,7.46,7.46,0,0,0,3.67,14,6.06,6.06,0,0,0,.75,0,10.59,10.59,0,0,0,13.88,5.88,12.7,12.7,0,0,0,17.63.7q.53-.08,1-.18a7.38,7.38,0,0,0,13.19-1,7.29,7.29,0,0,0,11.34-4.94l.55,0a7.21,7.21,0,0,0,2.93-13.8Z"/><path class="cls-91" d="M81.87,18.5A9.08,9.08,0,0,0,82,16.93,9.21,9.21,0,0,0,71,7.86,11.66,11.66,0,0,0,53,5.58a10.41,10.41,0,0,0-17.84,1,11.7,11.7,0,0,0-18.38,9.63,11.83,11.83,0,0,0,.12,1.7,7.46,7.46,0,0,0,3.67,14q.39,0,.75,0A10.62,10.62,0,0,0,35.21,37.7a12.69,12.69,0,0,0,17.63.69,8.35,8.35,0,0,0,1-.18,7.37,7.37,0,0,0,13.19-1,7.31,7.31,0,0,0,11.34-4.94l.55,0a7.21,7.21,0,0,0,2.93-13.8Z"/><path class="cls-92" d="M82,18.33a10.08,10.08,0,0,0,.13-1.57,9.21,9.21,0,0,0-11-9.06,11.66,11.66,0,0,0-18-2.28,10.41,10.41,0,0,0-17.84,1A11.7,11.7,0,0,0,16.94,16a12,12,0,0,0,.12,1.7,7.46,7.46,0,0,0,3.67,14,6.06,6.06,0,0,0,.75,0,10.6,10.6,0,0,0,9.84,6.68,10.47,10.47,0,0,0,4-.8,12.7,12.7,0,0,0,17.63.7q.52-.07,1-.18a7.38,7.38,0,0,0,13.19-1,7.29,7.29,0,0,0,11.34-4.94,4.93,4.93,0,0,0,.55,0A7.22,7.22,0,0,0,82,18.33Z"/><path class="cls-93" d="M82.18,18.17a10.18,10.18,0,0,0,.13-1.57,9.26,9.26,0,0,0-11-9.07,11.66,11.66,0,0,0-18-2.28,10.42,10.42,0,0,0-17.83,1A11.73,11.73,0,0,0,17.21,17.56a7.47,7.47,0,0,0,3.67,14c.26,0,.51,0,.75,0a10.59,10.59,0,0,0,13.88,5.88,12.7,12.7,0,0,0,17.63.7c.35,0,.69-.11,1-.19a7.38,7.38,0,0,0,13.2-1A7.28,7.28,0,0,0,78.69,32l.55,0a7.21,7.21,0,0,0,2.94-13.8Z"/><path class="cls-94" d="M82.33,18a9,9,0,0,0,.13-1.56A9.24,9.24,0,0,0,73.23,7.2a9,9,0,0,0-1.73.17,11.67,11.67,0,0,0-18-2.28,10.41,10.41,0,0,0-17.83,1A11.71,11.71,0,0,0,17.24,15.7a10.63,10.63,0,0,0,.13,1.7,7.46,7.46,0,0,0,3.67,14q.38,0,.75,0A10.58,10.58,0,0,0,31.63,38a10.42,10.42,0,0,0,4-.8,12.69,12.69,0,0,0,17.64.7,8.54,8.54,0,0,0,1-.18,7.38,7.38,0,0,0,13.2-1A7.21,7.21,0,0,0,71.63,38a7.29,7.29,0,0,0,7.21-6.22,5.07,5.07,0,0,0,.55,0A7.22,7.22,0,0,0,82.33,18Z"/><path class="cls-95" d="M82.48,17.84a9,9,0,0,0,.13-1.57A9.23,9.23,0,0,0,73.38,7a9.85,9.85,0,0,0-1.73.16,11.67,11.67,0,0,0-18-2.27,10.42,10.42,0,0,0-17.84,1,11.72,11.72,0,0,0-18.39,9.63,12.08,12.08,0,0,0,.13,1.71,7.46,7.46,0,0,0,3.67,14,6.28,6.28,0,0,0,.75,0A10.58,10.58,0,0,0,35.81,37a12.72,12.72,0,0,0,17.64.7l1-.18a7.38,7.38,0,0,0,13.19-1,7.21,7.21,0,0,0,4.12,1.28A7.29,7.29,0,0,0,79,31.62l.55,0a7.21,7.21,0,0,0,2.94-13.8Z"/></g><path class="cls-96" d="M83,17.79A9.42,9.42,0,0,0,72,7,11.86,11.86,0,0,0,53.67,4.66a10.59,10.59,0,0,0-18.14,1,11.92,11.92,0,0,0-18.7,9.79A12.5,12.5,0,0,0,17,17.18a7.59,7.59,0,0,0,3.73,14.2c.26,0,.51,0,.76,0a10.78,10.78,0,0,0,14.11,6A12.92,12.92,0,0,0,53.5,38c.35-.05.7-.11,1-.19a7.49,7.49,0,0,0,13.41-1,7.42,7.42,0,0,0,11.53-5,5.12,5.12,0,0,0,.56,0,7.34,7.34,0,0,0,3-14Z"/></g></g></g></g></svg>