<svg xmlns="http://www.w3.org/2000/svg" viewBox="0 0 770.24 777.06"><defs><style>.cls-1{fill:#2e2829; opacity: .10;}.cls-2{fill:#fafaf8;}</style></defs><title>weathervane</title><g id="Layer_2" data-name="Layer 2"><g id="Layer_1-2" data-name="Layer 1"><path class="cls-1" d="M381.49,742.73a11,11,0,0,1,5.06,1.16V515.35H376.23V744A10.91,10.91,0,0,1,381.49,742.73Z"/><path class="cls-1" d="M187,719.08,509,619.94Z"/><rect class="cls-1" x="179.53" y="665.64" width="336.96" height="7.74" transform="translate(-181.5 131.94) rotate(-17.1)"/><path class="cls-1" d="M575.35,718.73l-321.6-98.79Z"/><rect class="cls-1" x="410.68" y="501.12" width="7.74" height="336.43" transform="translate(-347.01 869.06) rotate(-72.92)"/><path class="cls-1" d="M770.24,514l-68.49-21.53,8.72,15.11H105L82.21,486.1l2.5,9.68-8.62-8.29H52.22l3.05,4.65-9.75-4.65H16.59l5.68,8.6-15.71-7,14,18.49H2.34a.86.86,0,0,0-.72.38l-.33.5a12.52,12.52,0,0,0,0,11.07l.33.5a.87.87,0,0,0,.72.39H19.6l-13,17.38,15.71-7-5.68,8.6H31.84l10.6-5.79-2.37,5.79H62.32l14.14-7-4.66,7H82l21.75-19H710.07l-8.32,15.11ZM745,509.91l-26-.43-7.21-9.12ZM4,513.53a11.32,11.32,0,0,1,.33-2.25l707.82-.8,1.76,3Z"/><path class="cls-1" d="M386.14,510c0,1.22-2.13,2.45-4.75,2.45s-4.74-1.23-4.74-2.45,2.12-2.21,4.74-2.21S386.14,508.79,386.14,510Z"/><path class="cls-1" d="M245.93,631.75l-16.31-21.16v21.16H217.15V590.31h11.46L245,611.59V590.31H257.4v41.44Z"/><path class="cls-1" d="M615.67,687.18l-6.29,12.25c-5.33-2.72-13.5-5.71-18.07-5.71-1.95,0-3.22.56-3.22,2,0,6.12,27.21,2.29,27.21,20,0,10.86-10.27,15.66-22.11,15.66-9.15,0-19.34-2.85-26.31-7.79l6.44-12.11c5.4,4.18,14.69,7.58,20,7.58,2.55,0,4.2-.76,4.2-2.5,0-6.33-27.21-2.16-27.21-19.27,0-9.74,8.85-15.86,22.49-15.86C601.13,681.41,609.75,683.7,615.67,687.18Z"/><path class="cls-1" d="M173.21,729.52l-5.73-24.77-5.91,24.77H147.44L134,688.08h14.66L155,715.27l6.15-27.13,13.35-.06,6.27,27.19,6.15-27.19h14l-13.53,41.44Z"/><path class="cls-1" d="M516.78,600.71v5.09h19.39v10.4H516.78v5.14h21.87v10.41H503.06V590.31h35.06v10.4Z"/><path class="cls-1" d="M474.28,147.27a15.18,15.18,0,0,1-17.51-5.67c13.16,8.25,30.41-6.76,20.1-22.11L461.11,96.38h0l0,0a38.39,38.39,0,0,1,23.73-10.32,38.46,38.46,0,0,0-28.3-12.36H444.49a22.23,22.23,0,0,0,2.94-14c-1.45-11.92-8.83-13.27-15.82-23A51,51,0,0,1,422,4.29a51.12,51.12,0,0,0-17.88,31,51.1,51.1,0,0,1-14.74-27.9,51.14,51.14,0,0,0-14.29,27.21A51,51,0,0,1,362.59,5.29c-9.7,10.34-14.35,24.2-13.84,35.88A51.21,51.21,0,0,1,338.11,0a51.26,51.26,0,0,0,43.53,90.18,45,45,0,0,0-7.11,24.31V246.21a21.78,21.78,0,1,1-43.55,0V210.5a99.41,99.41,0,0,0-99.41-99.4c-93.11,0-139,119.31-56.28,181.35a53.91,53.91,0,0,1,2.76,85.18,86.29,86.29,0,0,0,71.8-85.05c0,72,52.65,128.57,118.87,138.83a113.93,113.93,0,0,0,7.51,77.86h10.63a141.4,141.4,0,0,1,67-91.36l0,0h0a140.52,140.52,0,0,0,76.84-125.3C530.81,257.16,526.14,249.38,474.28,147.27Zm-242.69-15a102.38,102.38,0,0,0-68.31,26,88.32,88.32,0,0,1,136.63,0A102.39,102.39,0,0,0,231.59,132.25ZM366,273.81a11.31,11.31,0,0,1-4.81-.7A21.79,21.79,0,0,0,383,251.33V154.59c0-8,4.61,98,4.61,98C387.57,264.64,378,273.81,366,273.81ZM424.59,92.38a6.33,6.33,0,1,1,6.33-6.33A6.32,6.32,0,0,1,424.59,92.38Zm90.42,190c-1.86-21.25-6-33.26-8.08-41.8,13.32,23.11,17.15,56.7,6.87,84.36C513.9,323.54,516.93,298.48,515,282.35Z"/><path class="cls-1" d="M381.39,741.32a17.87,17.87,0,1,0,17.87,17.87A17.87,17.87,0,0,0,381.39,741.32Zm0,4.7c-4.51,0-8.64.9-11.76,3.69a15,15,0,0,1,23.53,0C390,746.92,385.91,746,381.39,746Z"/><rect class="cls-2" x="137.1" y="689.88" width="9.95" height="1.11"/><rect class="cls-2" x="162.82" y="689.88" width="9.95" height="1.11"/><rect class="cls-2" x="218.7" y="592.16" width="9.95" height="1.11"/><rect class="cls-2" x="246.19" y="592.16" width="9.95" height="1.11"/><path class="cls-2" d="M606.88,686.84a44,44,0,0,0-27.2,0c-.12-.35-.23-.7-.34-1.05a45,45,0,0,1,27.88,0C607.11,686.14,607,686.49,606.88,686.84Z"/><rect class="cls-2" x="505.2" y="592.16" width="30.6" height="1.11"/><rect class="cls-2" x="188.26" y="689.88" width="9.95" height="1.11"/></g></g></svg>
