<svg xmlns="http://www.w3.org/2000/svg" xmlns:xlink="http://www.w3.org/1999/xlink" viewBox="0 0 120.91 73.35"><defs><style>.cls-1{isolation:isolate;}.cls-2{opacity:0.5;}.cls-3{mix-blend-mode:multiply;}.cls-4{fill:#f6f6f6;opacity:0;}.cls-5{fill:#f5f5f5;opacity:0.01;}.cls-6{fill:#f4f4f4;opacity:0.02;}.cls-7{fill:#f3f3f3;opacity:0.03;}.cls-8{fill:#f2f2f2;opacity:0.04;}.cls-9{fill:#f1f1f1;opacity:0.05;}.cls-10{fill:#f0f0f0;opacity:0.07;}.cls-11{fill:#efefef;opacity:0.08;}.cls-12{fill:#eee;opacity:0.09;}.cls-13{fill:#ededed;opacity:0.1;}.cls-14{fill:#ececec;opacity:0.11;}.cls-15{fill:#ebebeb;opacity:0.12;}.cls-16{fill:#eaeaea;opacity:0.13;}.cls-17{fill:#e9e9e9;opacity:0.14;}.cls-18{fill:#e8e8e8;opacity:0.15;}.cls-19{fill:#e7e7e7;opacity:0.16;}.cls-20{fill:#e6e6e6;opacity:0.18;}.cls-21{fill:#e5e5e5;opacity:0.19;}.cls-22{fill:#e4e4e4;opacity:0.2;}.cls-23{fill:#e3e3e3;opacity:0.21;}.cls-24{fill:#e2e2e2;opacity:0.22;}.cls-25{fill:#e1e1e1;opacity:0.23;}.cls-26{fill:#e0e0e0;opacity:0.24;}.cls-27{fill:#e0e0df;opacity:0.25;}.cls-28{fill:#dfdfde;opacity:0.26;}.cls-29{fill:#dededd;opacity:0.27;}.cls-30{fill:#dddddc;opacity:0.29;}.cls-31{fill:#dcdcdb;opacity:0.3;}.cls-32{fill:#dbdbda;opacity:0.31;}.cls-33{fill:#dadad9;opacity:0.32;}.cls-34{fill:#d9d9d8;opacity:0.33;}.cls-35{fill:#d8d8d7;opacity:0.34;}.cls-36{fill:#d7d7d6;opacity:0.35;}.cls-37{fill:#d6d6d5;opacity:0.36;}.cls-38{fill:#d5d5d4;opacity:0.37;}.cls-39{fill:#d4d4d3;opacity:0.38;}.cls-40{fill:#d3d3d2;opacity:0.4;}.cls-41{fill:#d2d2d1;opacity:0.41;}.cls-42{fill:#d1d1d0;opacity:0.42;}.cls-43{fill:#d0d0cf;opacity:0.43;}.cls-44{fill:#cfcfce;opacity:0.44;}.cls-45{fill:#cececd;opacity:0.45;}.cls-46{fill:#cdcdcc;opacity:0.46;}.cls-47{fill:#cccccb;opacity:0.47;}.cls-48{fill:#cbcbca;opacity:0.48;}.cls-49{fill:#cacac9;opacity:0.49;}.cls-50{fill:#c9c9c9;opacity:0.51;}.cls-51{fill:#c8c8c8;opacity:0.52;}.cls-52{fill:#c7c7c7;opacity:0.53;}.cls-53{fill:#c6c6c6;opacity:0.54;}.cls-54{fill:#c5c5c5;opacity:0.55;}.cls-55{fill:#c4c4c4;opacity:0.56;}.cls-56{fill:#c3c3c3;opacity:0.57;}.cls-57{fill:#c2c2c2;opacity:0.58;}.cls-58{fill:#c1c1c1;opacity:0.59;}.cls-59{fill:silver;opacity:0.6;}.cls-60{fill:#bfbfbf;opacity:0.62;}.cls-61{fill:#bebebe;opacity:0.63;}.cls-62{fill:#bdbdbd;opacity:0.64;}.cls-63{fill:#bcbcbc;opacity:0.65;}.cls-64{fill:#bbb;opacity:0.66;}.cls-65{fill:#bababa;opacity:0.67;}.cls-66{fill:#b9b9b9;opacity:0.68;}.cls-67{fill:#b8b8b8;opacity:0.69;}.cls-68{fill:#b7b7b7;opacity:0.7;}.cls-69{fill:#b6b6b6;opacity:0.71;}.cls-70{fill:#b5b5b5;opacity:0.73;}.cls-71{fill:#b4b4b4;opacity:0.74;}.cls-72{fill:#b3b3b3;opacity:0.75;}.cls-73{fill:#b3b3b2;opacity:0.76;}.cls-74{fill:#b2b2b1;opacity:0.77;}.cls-75{fill:#b1b1b0;opacity:0.78;}.cls-76{fill:#b0b0af;opacity:0.79;}.cls-77{fill:#afafae;opacity:0.8;}.cls-78{fill:#aeaead;opacity:0.81;}.cls-79{fill:#adadac;opacity:0.82;}.cls-80{fill:#acacab;opacity:0.84;}.cls-81{fill:#ababaa;opacity:0.85;}.cls-82{fill:#aaaaa9;opacity:0.86;}.cls-83{fill:#a9a9a8;opacity:0.87;}.cls-84{fill:#a8a8a7;opacity:0.88;}.cls-85{fill:#a7a7a6;opacity:0.89;}.cls-86{fill:#a6a6a5;opacity:0.9;}.cls-87{fill:#a5a5a4;opacity:0.91;}.cls-88{fill:#a4a4a3;opacity:0.92;}.cls-89{fill:#a3a3a2;opacity:0.93;}.cls-90{fill:#a2a2a1;opacity:0.95;}.cls-91{fill:#a1a1a0;opacity:0.96;}.cls-92{fill:#a0a09f;opacity:0.97;}.cls-93{fill:#9f9f9e;opacity:0.98;}.cls-94{fill:#9e9e9d;opacity:0.99;}.cls-95{fill:#9d9d9c;}.cls-96{fill:url(#linear-gradient);}</style><linearGradient id="linear-gradient" x1="31.26" y1="64.84" x2="95.9" y2="0.2" gradientUnits="userSpaceOnUse"><stop offset="0" stop-color="#fff"/><stop offset="0.65" stop-color="#f6f6f6"/></linearGradient></defs><title>cloud_3</title><g class="cls-1"><g id="Layer_2" data-name="Layer 2"><g id="_ÎÓÈ_1" data-name="—ÎÓÈ_1"><g class="cls-2"><g class="cls-3"><path class="cls-4" d="M105,37.73a14.57,14.57,0,0,0,.2-2.4A14.09,14.09,0,0,0,91.07,21.24a14.43,14.43,0,0,0-2.65.25A17.8,17.8,0,0,0,60.9,18a15.89,15.89,0,0,0-27.23,1.5A17.88,17.88,0,0,0,5.6,34.21a18.61,18.61,0,0,0,.19,2.6,11.39,11.39,0,0,0,5.6,21.31,10.93,10.93,0,0,0,1.15-.06,16.19,16.19,0,0,0,21.18,9A19.4,19.4,0,0,0,60.64,68.1c.52-.07,1-.16,1.55-.28A11.26,11.26,0,0,0,82.33,66.3a11.13,11.13,0,0,0,17.3-7.54c.28,0,.56,0,.84,0A11,11,0,0,0,105,37.73Z"/><path class="cls-5" d="M105.05,37.61a14.54,14.54,0,0,0,.2-2.39,14.09,14.09,0,0,0-14.09-14.1,13.61,13.61,0,0,0-2.65.26A17.8,17.8,0,0,0,61,17.9a15.9,15.9,0,0,0-27.23,1.49A17.89,17.89,0,0,0,5.69,34.09a18.61,18.61,0,0,0,.19,2.6A11.39,11.39,0,0,0,11.49,58c.38,0,.76,0,1.14,0a16.16,16.16,0,0,0,21.18,9A19.39,19.39,0,0,0,60.73,68c.53-.07,1.05-.17,1.56-.28a11.25,11.25,0,0,0,20.13-1.52,11.13,11.13,0,0,0,17.3-7.54c.28,0,.56,0,.85,0a11,11,0,0,0,4.48-21.07Z"/><path class="cls-6" d="M105.14,37.5a14.57,14.57,0,0,0,.21-2.4A14.09,14.09,0,0,0,91.25,21a14.32,14.32,0,0,0-2.64.25,17.81,17.81,0,0,0-27.53-3.48,15.89,15.89,0,0,0-27.23,1.5A17.87,17.87,0,0,0,5.79,34,17.21,17.21,0,0,0,6,36.58a11.39,11.39,0,0,0,5.6,21.31,10.6,10.6,0,0,0,1.14-.06,16.19,16.19,0,0,0,21.18,9,19.4,19.4,0,0,0,26.92,1.06c.53-.07,1-.16,1.56-.28a11.26,11.26,0,0,0,20.14-1.52,11.13,11.13,0,0,0,17.3-7.54c.27,0,.55,0,.84,0a11,11,0,0,0,4.48-21.07Z"/><path class="cls-7" d="M105.23,37.38a13.53,13.53,0,0,0,.21-2.39,14.09,14.09,0,0,0-14.09-14.1,14.43,14.43,0,0,0-2.65.25,17.82,17.82,0,0,0-27.53-3.47,15.9,15.9,0,0,0-27.23,1.49A17.88,17.88,0,0,0,5.88,33.86a18.61,18.61,0,0,0,.19,2.6,11.39,11.39,0,0,0,5.6,21.31,10.93,10.93,0,0,0,1.15-.06,16.16,16.16,0,0,0,21.18,9,19.37,19.37,0,0,0,26.92,1.06c.52-.06,1-.16,1.55-.27A11.26,11.26,0,0,0,82.61,66a11.13,11.13,0,0,0,17.3-7.54l.84,0a11,11,0,0,0,4.48-21.07Z"/><path class="cls-8" d="M105.33,37.27a14.57,14.57,0,0,0,.2-2.4A14.09,14.09,0,0,0,91.44,20.78a14.43,14.43,0,0,0-2.65.25,17.8,17.8,0,0,0-27.52-3.48A15.89,15.89,0,0,0,34,19.05,17.88,17.88,0,0,0,6,33.74a18.64,18.64,0,0,0,.19,2.61,11.39,11.39,0,0,0,5.61,21.31,10.88,10.88,0,0,0,1.14-.06,16.16,16.16,0,0,0,15,10.19,16,16,0,0,0,6.16-1.22A19.39,19.39,0,0,0,61,67.64c.53-.07,1.05-.16,1.56-.28A11.25,11.25,0,0,0,82.7,65.84,11.13,11.13,0,0,0,100,58.3c.28,0,.56,0,.85,0a11,11,0,0,0,4.48-21.07Z"/><path class="cls-9" d="M105.42,37.15a14.55,14.55,0,0,0,.21-2.39,14.1,14.1,0,0,0-14.1-14.1,14.32,14.32,0,0,0-2.64.25,17.8,17.8,0,0,0-27.53-3.47,15.9,15.9,0,0,0-27.23,1.49A17.88,17.88,0,0,0,6.07,33.63a17.21,17.21,0,0,0,.19,2.6,11.39,11.39,0,0,0,5.6,21.31A10.74,10.74,0,0,0,13,57.48a16.16,16.16,0,0,0,21.18,9A19.37,19.37,0,0,0,61.1,67.52q.8-.1,1.56-.27A11.26,11.26,0,0,0,82.8,65.73a11.12,11.12,0,0,0,17.29-7.54c.28,0,.56,0,.85,0a11,11,0,0,0,4.48-21.07Z"/><path class="cls-10" d="M105.51,37a13.56,13.56,0,0,0,.21-2.4A14.09,14.09,0,0,0,91.63,20.55,14.43,14.43,0,0,0,89,20.8a17.81,17.81,0,0,0-27.53-3.48,15.89,15.89,0,0,0-27.23,1.5A17.87,17.87,0,0,0,6.16,33.51a18.39,18.39,0,0,0,.19,2.6A11.4,11.4,0,0,0,12,57.43a10.93,10.93,0,0,0,1.15-.06,16.15,16.15,0,0,0,15,10.19,15.91,15.91,0,0,0,6.15-1.22A19.4,19.4,0,0,0,61.2,67.41c.52-.07,1-.16,1.55-.28a11.26,11.26,0,0,0,20.14-1.52,11.13,11.13,0,0,0,17.3-7.54c.28,0,.56,0,.84,0A11,11,0,0,0,105.51,37Z"/><path class="cls-11" d="M105.61,36.92a14.54,14.54,0,0,0,.2-2.39,14.09,14.09,0,0,0-14.09-14.1,14.43,14.43,0,0,0-2.65.25,17.79,17.79,0,0,0-27.52-3.47A15.9,15.9,0,0,0,34.32,18.7,17.89,17.89,0,0,0,6.25,33.4,18.61,18.61,0,0,0,6.44,36,11.39,11.39,0,0,0,12,57.31a10.93,10.93,0,0,0,1.15-.06,16.16,16.16,0,0,0,21.18,9,19.37,19.37,0,0,0,26.92,1.06c.53-.07,1-.16,1.56-.28A11.25,11.25,0,0,0,83,65.5,11.13,11.13,0,0,0,100.28,58a7.94,7.94,0,0,0,.85,0,11,11,0,0,0,4.48-21.07Z"/><path class="cls-12" d="M105.7,36.81a14.57,14.57,0,0,0,.21-2.4,14.09,14.09,0,0,0-14.1-14.09,13.51,13.51,0,0,0-2.64.25,17.81,17.81,0,0,0-27.53-3.48,15.89,15.89,0,0,0-27.23,1.5A17.87,17.87,0,0,0,6.35,33.28a17.11,17.11,0,0,0,.19,2.6,11.4,11.4,0,0,0,5.6,21.32,10.74,10.74,0,0,0,1.14-.06,16.18,16.18,0,0,0,15,10.19,16,16,0,0,0,6.16-1.22,19.39,19.39,0,0,0,26.92,1.07c.53-.07,1-.16,1.56-.28a11.26,11.26,0,0,0,20.14-1.52,11.12,11.12,0,0,0,17.29-7.54c.28,0,.56,0,.85,0a11,11,0,0,0,4.48-21.07Z"/><path class="cls-13" d="M105.79,36.69a13.56,13.56,0,0,0,.21-2.4A14.09,14.09,0,0,0,91.91,20.2a14.43,14.43,0,0,0-2.65.25A17.8,17.8,0,0,0,61.73,17,15.9,15.9,0,0,0,34.5,18.47,17.88,17.88,0,0,0,6.44,33.17a17.21,17.21,0,0,0,.19,2.6,11.39,11.39,0,0,0,5.6,21.31A10.93,10.93,0,0,0,13.38,57a16.15,16.15,0,0,0,21.17,9,19.41,19.41,0,0,0,26.93,1.06c.52-.07,1-.16,1.55-.28a11.26,11.26,0,0,0,20.14-1.51,11.13,11.13,0,0,0,17.3-7.55c.28,0,.56,0,.84,0a11,11,0,0,0,4.48-21.07Z"/><path class="cls-14" d="M105.89,36.57a14.36,14.36,0,0,0,.2-2.39A14.09,14.09,0,0,0,92,20.08a13.61,13.61,0,0,0-2.65.26,17.8,17.8,0,0,0-27.52-3.48A15.9,15.9,0,0,0,34.6,18.35,17.89,17.89,0,0,0,6.53,33.05a18.5,18.5,0,0,0,.19,2.6A11.4,11.4,0,0,0,12.32,57a10.93,10.93,0,0,0,1.15-.06,16.16,16.16,0,0,0,21.18,9A19.39,19.39,0,0,0,61.57,67a15.68,15.68,0,0,0,1.55-.28,11.26,11.26,0,0,0,20.14-1.52,11.13,11.13,0,0,0,17.3-7.54c.28,0,.56,0,.85,0a11,11,0,0,0,4.48-21.07Z"/><path class="cls-15" d="M106,36.46a14.57,14.57,0,0,0,.21-2.4A14.1,14.1,0,0,0,92.09,20a14.51,14.51,0,0,0-2.65.25,17.8,17.8,0,0,0-27.52-3.48,15.9,15.9,0,0,0-27.23,1.5A17.88,17.88,0,0,0,6.62,32.94a18.61,18.61,0,0,0,.19,2.6,11.39,11.39,0,0,0,5.61,21.31,10.74,10.74,0,0,0,1.14-.06,16.16,16.16,0,0,0,21.18,9,19.4,19.4,0,0,0,26.92,1.06c.53-.07,1.05-.16,1.56-.28A11.26,11.26,0,0,0,83.35,65a11.13,11.13,0,0,0,17.3-7.55c.28,0,.56,0,.85,0A11,11,0,0,0,106,36.46Z"/><path class="cls-16" d="M106.07,36.34a13.45,13.45,0,0,0,.21-2.39,14.09,14.09,0,0,0-14.09-14.1,13.61,13.61,0,0,0-2.65.26A17.81,17.81,0,0,0,62,16.63a15.9,15.9,0,0,0-27.23,1.49A17.88,17.88,0,0,0,6.72,32.82a17.11,17.11,0,0,0,.19,2.6,11.39,11.39,0,0,0,5.6,21.31c.39,0,.77,0,1.14,0a16.18,16.18,0,0,0,15,10.19,15.91,15.91,0,0,0,6.15-1.22,19.4,19.4,0,0,0,26.93,1.07c.52-.07,1-.17,1.55-.28a11.26,11.26,0,0,0,20.14-1.52,11.13,11.13,0,0,0,17.3-7.54l.84,0a11,11,0,0,0,4.48-21.07Z"/><path class="cls-17" d="M106.17,36.23a14.57,14.57,0,0,0,.2-2.4A14.09,14.09,0,0,0,92.28,19.74a14.43,14.43,0,0,0-2.65.25,17.8,17.8,0,0,0-27.52-3.48A15.9,15.9,0,0,0,34.88,18,17.88,17.88,0,0,0,6.81,32.71,18.61,18.61,0,0,0,7,35.31a11.39,11.39,0,0,0,5.6,21.31,10.93,10.93,0,0,0,1.15-.06,16.19,16.19,0,0,0,21.18,9A19.4,19.4,0,0,0,61.85,66.6a15.68,15.68,0,0,0,1.55-.28A11.26,11.26,0,0,0,83.54,64.8a11.13,11.13,0,0,0,17.3-7.54c.28,0,.56,0,.85,0a11,11,0,0,0,4.48-21.07Z"/><path class="cls-18" d="M106.26,36.11a14.45,14.45,0,0,0,.21-2.39,14.1,14.1,0,0,0-14.1-14.1,13.69,13.69,0,0,0-2.65.26A17.8,17.8,0,0,0,62.2,16.4,15.9,15.9,0,0,0,35,17.89,17.89,17.89,0,0,0,6.9,32.59a18.5,18.5,0,0,0,.19,2.6A11.39,11.39,0,0,0,12.7,56.5c.38,0,.76,0,1.14,0a16.16,16.16,0,0,0,21.18,9,19.39,19.39,0,0,0,26.92,1.07c.53-.07,1.05-.17,1.56-.28a11.25,11.25,0,0,0,20.13-1.52,11.13,11.13,0,0,0,17.3-7.54c.28,0,.56,0,.85,0a11,11,0,0,0,4.48-21.07Z"/><path class="cls-19" d="M106.35,36a13.56,13.56,0,0,0,.21-2.4,14.09,14.09,0,0,0-14.1-14.09,14.32,14.32,0,0,0-2.64.25,17.81,17.81,0,0,0-27.53-3.48,15.89,15.89,0,0,0-27.23,1.5A17.87,17.87,0,0,0,7,32.48a17.21,17.21,0,0,0,.19,2.6,11.39,11.39,0,0,0,5.6,21.31,10.6,10.6,0,0,0,1.14-.06,16.19,16.19,0,0,0,21.18,9A19.41,19.41,0,0,0,62,66.37c.52-.07,1-.16,1.55-.28a11.26,11.26,0,0,0,20.14-1.52A11.13,11.13,0,0,0,101,57c.28,0,.56,0,.84,0A11,11,0,0,0,106.35,36Z"/><path class="cls-20" d="M106.45,35.88a14.54,14.54,0,0,0,.2-2.39,14.09,14.09,0,0,0-14.09-14.1,13.61,13.61,0,0,0-2.65.26,17.8,17.8,0,0,0-27.52-3.48,15.9,15.9,0,0,0-27.23,1.49A17.89,17.89,0,0,0,7.09,32.36,18.61,18.61,0,0,0,7.28,35a11.39,11.39,0,0,0,5.6,21.31c.39,0,.77,0,1.15-.05a16.16,16.16,0,0,0,21.18,9,19.39,19.39,0,0,0,26.92,1.07c.52-.07,1-.17,1.55-.28a11.26,11.26,0,0,0,20.14-1.52,11.13,11.13,0,0,0,17.3-7.54l.84,0a11,11,0,0,0,4.49-21.07Z"/><path class="cls-21" d="M106.54,35.77a14.57,14.57,0,0,0,.21-2.4,14.1,14.1,0,0,0-14.1-14.09,14.51,14.51,0,0,0-2.65.25,17.8,17.8,0,0,0-27.52-3.48,15.89,15.89,0,0,0-27.23,1.5A17.88,17.88,0,0,0,7.18,32.25a18.61,18.61,0,0,0,.19,2.6A11.39,11.39,0,0,0,13,56.16a10.88,10.88,0,0,0,1.14-.06,16.19,16.19,0,0,0,21.18,9,19.4,19.4,0,0,0,26.92,1.06c.53-.07,1.05-.16,1.56-.28a11.25,11.25,0,0,0,20.13-1.52,11.13,11.13,0,0,0,17.3-7.54c.28,0,.56,0,.85,0a11,11,0,0,0,4.48-21.07Z"/><path class="cls-22" d="M106.63,35.65a14.55,14.55,0,0,0,.21-2.39,14.1,14.1,0,0,0-14.1-14.1,14.32,14.32,0,0,0-2.64.25,17.82,17.82,0,0,0-27.53-3.47,15.9,15.9,0,0,0-27.23,1.49A17.88,17.88,0,0,0,7.28,32.13a17.21,17.21,0,0,0,.19,2.6A11.39,11.39,0,0,0,13.07,56c.39,0,.77,0,1.14,0a16.16,16.16,0,0,0,21.18,9A19.37,19.37,0,0,0,62.31,66c.53-.06,1-.16,1.56-.27A11.26,11.26,0,0,0,84,64.23a11.13,11.13,0,0,0,17.3-7.54c.27,0,.56,0,.84,0a11,11,0,0,0,4.48-21.07Z"/><path class="cls-23" d="M106.72,35.54a13.56,13.56,0,0,0,.21-2.4A14.09,14.09,0,0,0,92.84,19.05a14.43,14.43,0,0,0-2.65.25,17.81,17.81,0,0,0-27.53-3.48,15.89,15.89,0,0,0-27.23,1.5A17.87,17.87,0,0,0,7.37,32a18.64,18.64,0,0,0,.19,2.61,11.39,11.39,0,0,0,5.6,21.31,10.93,10.93,0,0,0,1.15-.06,16.16,16.16,0,0,0,21.18,9,19.39,19.39,0,0,0,26.92,1.07c.52-.07,1-.16,1.55-.28A11.26,11.26,0,0,0,84.1,64.11a11.13,11.13,0,0,0,17.3-7.54c.28,0,.56,0,.84,0a11,11,0,0,0,4.48-21.07Z"/><path class="cls-24" d="M106.82,35.42A14.54,14.54,0,0,0,107,33a14.09,14.09,0,0,0-14.09-14.1,14.43,14.43,0,0,0-2.65.25,17.79,17.79,0,0,0-27.52-3.47A15.9,15.9,0,0,0,35.53,17.2,17.89,17.89,0,0,0,7.46,31.9a18.61,18.61,0,0,0,.19,2.6,11.39,11.39,0,0,0,5.61,21.31,10.88,10.88,0,0,0,1.14-.06,16.16,16.16,0,0,0,21.18,9A19.37,19.37,0,0,0,62.5,65.79q.8-.11,1.56-.27A11.25,11.25,0,0,0,84.19,64a11.13,11.13,0,0,0,17.3-7.55,7.94,7.94,0,0,0,.85,0,11,11,0,0,0,4.48-21.07Z"/><path class="cls-25" d="M106.91,35.31a14.57,14.57,0,0,0,.21-2.4A14.09,14.09,0,0,0,93,18.82a14.32,14.32,0,0,0-2.64.25,17.81,17.81,0,0,0-27.53-3.48,15.89,15.89,0,0,0-27.23,1.5A17.87,17.87,0,0,0,7.56,31.78a17,17,0,0,0,.19,2.6,11.4,11.4,0,0,0,5.6,21.32,10.74,10.74,0,0,0,1.14-.06,16.18,16.18,0,0,0,15,10.19,16,16,0,0,0,6.16-1.22,19.39,19.39,0,0,0,26.92,1.07c.53-.07,1-.16,1.56-.28a11.26,11.26,0,0,0,20.14-1.52,11.12,11.12,0,0,0,17.29-7.54c.28,0,.56,0,.85,0a11,11,0,0,0,4.48-21.07Z"/><path class="cls-26" d="M107,35.19a13.53,13.53,0,0,0,.21-2.39A14.09,14.09,0,0,0,93.12,18.7a14.43,14.43,0,0,0-2.65.25,17.8,17.8,0,0,0-27.53-3.47A15.9,15.9,0,0,0,35.71,17,17.88,17.88,0,0,0,7.65,31.67a18.61,18.61,0,0,0,.19,2.6,11.39,11.39,0,0,0,5.6,21.31,10.93,10.93,0,0,0,1.15-.06,16.16,16.16,0,0,0,21.18,9,19.37,19.37,0,0,0,26.92,1.06c.52-.07,1-.16,1.55-.28a11.26,11.26,0,0,0,20.14-1.51,11.13,11.13,0,0,0,17.3-7.55,7.87,7.87,0,0,0,.84,0A11,11,0,0,0,107,35.19Z"/><path class="cls-27" d="M107.1,35.08a14.57,14.57,0,0,0,.2-2.4A14.09,14.09,0,0,0,93.21,18.59a13.61,13.61,0,0,0-2.65.25A17.8,17.8,0,0,0,63,15.36a15.89,15.89,0,0,0-27.23,1.5A17.88,17.88,0,0,0,7.74,31.55a18.5,18.5,0,0,0,.19,2.6,11.4,11.4,0,0,0,5.61,21.32,10.88,10.88,0,0,0,1.14-.06,16.16,16.16,0,0,0,15,10.19,16,16,0,0,0,6.16-1.22,19.39,19.39,0,0,0,26.92,1.07c.53-.07,1-.16,1.56-.28a11.25,11.25,0,0,0,20.13-1.52,11.13,11.13,0,0,0,17.3-7.54c.28,0,.56,0,.85,0a11,11,0,0,0,4.48-21.07Z"/><path class="cls-28" d="M107.19,35a14.57,14.57,0,0,0,.21-2.4A14.09,14.09,0,0,0,93.3,18.47a14.32,14.32,0,0,0-2.64.25,17.8,17.8,0,0,0-27.53-3.47A15.9,15.9,0,0,0,35.9,16.74,17.88,17.88,0,0,0,7.84,31.44,17.21,17.21,0,0,0,8,34a11.39,11.39,0,0,0,5.6,21.31,10.74,10.74,0,0,0,1.14-.06,16.16,16.16,0,0,0,21.18,9,19.4,19.4,0,0,0,26.92,1.06c.53-.07,1.05-.16,1.56-.28a11.26,11.26,0,0,0,20.14-1.51A11.12,11.12,0,0,0,101.86,56a7.94,7.94,0,0,0,.85,0A11,11,0,0,0,107.19,35Z"/><path class="cls-29" d="M107.28,34.84a13.36,13.36,0,0,0,.21-2.39A14.09,14.09,0,0,0,93.4,18.36a13.61,13.61,0,0,0-2.65.25,17.81,17.81,0,0,0-27.53-3.48A15.9,15.9,0,0,0,36,16.62,17.88,17.88,0,0,0,7.93,31.32a18.5,18.5,0,0,0,.19,2.6,11.4,11.4,0,0,0,5.6,21.32,10.93,10.93,0,0,0,1.15-.06,16.15,16.15,0,0,0,15,10.19A15.91,15.91,0,0,0,36,64.15,19.4,19.4,0,0,0,63,65.22c.52-.07,1-.16,1.55-.28a11.26,11.26,0,0,0,20.14-1.52A11.13,11.13,0,0,0,102,55.88l.84,0a11,11,0,0,0,4.48-21.07Z"/><path class="cls-30" d="M107.38,34.73a14.57,14.57,0,0,0,.2-2.4A14.09,14.09,0,0,0,93.49,18.24a14.43,14.43,0,0,0-2.65.25A17.8,17.8,0,0,0,63.32,15a15.9,15.9,0,0,0-27.23,1.5A17.88,17.88,0,0,0,8,31.21a18.61,18.61,0,0,0,.19,2.6,11.39,11.39,0,0,0,5.6,21.31A10.93,10.93,0,0,0,15,55.06a16.16,16.16,0,0,0,21.18,9A19.4,19.4,0,0,0,63.06,65.1a15.68,15.68,0,0,0,1.55-.28,11.27,11.27,0,0,0,20.14-1.51,11.13,11.13,0,0,0,17.3-7.55c.28,0,.56,0,.85,0a11,11,0,0,0,4.48-21.07Z"/><path class="cls-31" d="M107.47,34.61a14.45,14.45,0,0,0,.21-2.39,14.1,14.1,0,0,0-14.1-14.1,13.69,13.69,0,0,0-2.65.26A17.8,17.8,0,0,0,63.41,14.9a15.9,15.9,0,0,0-27.23,1.49A17.89,17.89,0,0,0,8.11,31.09a17.11,17.11,0,0,0,.2,2.6A11.39,11.39,0,0,0,13.91,55a10.75,10.75,0,0,0,1.14,0,16.18,16.18,0,0,0,15,10.19,16,16,0,0,0,6.16-1.22A19.39,19.39,0,0,0,63.15,65c.53-.07,1.05-.17,1.56-.28a11.25,11.25,0,0,0,20.13-1.52,11.13,11.13,0,0,0,17.3-7.54c.28,0,.56,0,.85,0a11,11,0,0,0,4.48-21.07Z"/><path class="cls-32" d="M107.56,34.5a13.56,13.56,0,0,0,.21-2.4A14.09,14.09,0,0,0,93.68,18a14.43,14.43,0,0,0-2.65.25A17.81,17.81,0,0,0,63.5,14.78a15.9,15.9,0,0,0-27.23,1.5A17.87,17.87,0,0,0,8.21,31a17.21,17.21,0,0,0,.19,2.6A11.39,11.39,0,0,0,14,54.89a10.93,10.93,0,0,0,1.15-.06,16.18,16.18,0,0,0,21.17,9,19.41,19.41,0,0,0,26.93,1.06c.52-.07,1-.16,1.55-.28a11.26,11.26,0,0,0,20.14-1.52,11.13,11.13,0,0,0,17.3-7.54c.28,0,.56,0,.84,0a11,11,0,0,0,4.48-21.07Z"/><path class="cls-33" d="M107.66,34.38a14.45,14.45,0,0,0,.2-2.39,14.09,14.09,0,0,0-14.09-14.1,13.61,13.61,0,0,0-2.65.26A17.8,17.8,0,0,0,63.6,14.67a15.9,15.9,0,0,0-27.23,1.49A17.89,17.89,0,0,0,8.3,30.86a18.5,18.5,0,0,0,.19,2.6,11.39,11.39,0,0,0,5.6,21.31c.39,0,.77,0,1.15-.05a16.16,16.16,0,0,0,21.18,9,19.39,19.39,0,0,0,26.92,1.07c.53-.07,1-.17,1.55-.28A11.26,11.26,0,0,0,85,63a11.13,11.13,0,0,0,17.3-7.54c.28,0,.56,0,.85,0a11,11,0,0,0,4.48-21.07Z"/><path class="cls-34" d="M107.75,34.27a14.57,14.57,0,0,0,.21-2.4,14.09,14.09,0,0,0-14.1-14.09,14.51,14.51,0,0,0-2.65.25,17.8,17.8,0,0,0-27.52-3.48,15.89,15.89,0,0,0-27.23,1.5A17.88,17.88,0,0,0,8.39,30.75a18.61,18.61,0,0,0,.19,2.6,11.39,11.39,0,0,0,5.61,21.31,10.74,10.74,0,0,0,1.14-.06,16.19,16.19,0,0,0,21.18,9,19.4,19.4,0,0,0,26.92,1.06c.53-.07,1.05-.16,1.56-.28a11.25,11.25,0,0,0,20.13-1.52,11.13,11.13,0,0,0,17.3-7.54c.28,0,.56,0,.85,0a11,11,0,0,0,4.48-21.07Z"/><path class="cls-35" d="M107.84,34.15a13.53,13.53,0,0,0,.21-2.39A14.09,14.09,0,0,0,94,17.66a13.61,13.61,0,0,0-2.65.26,17.81,17.81,0,0,0-27.53-3.48,15.9,15.9,0,0,0-27.23,1.49A17.88,17.88,0,0,0,8.49,30.63a17.21,17.21,0,0,0,.19,2.6,11.39,11.39,0,0,0,5.6,21.31c.39,0,.77,0,1.14,0a16.16,16.16,0,0,0,21.18,9,19.4,19.4,0,0,0,26.93,1.07c.52-.07,1-.17,1.55-.28a11.26,11.26,0,0,0,20.14-1.52,11.13,11.13,0,0,0,17.3-7.54q.42,0,.84,0a11,11,0,0,0,4.48-21.07Z"/><path class="cls-36" d="M107.94,34a14.57,14.57,0,0,0,.2-2.4A14.09,14.09,0,0,0,94.05,17.55a14.43,14.43,0,0,0-2.65.25,17.8,17.8,0,0,0-27.52-3.48,15.89,15.89,0,0,0-27.23,1.5A17.88,17.88,0,0,0,8.58,30.52a18.61,18.61,0,0,0,.19,2.6,11.39,11.39,0,0,0,5.6,21.31,10.93,10.93,0,0,0,1.15-.06,16.19,16.19,0,0,0,21.18,9,19.4,19.4,0,0,0,26.92,1.06,15.68,15.68,0,0,0,1.55-.28,11.26,11.26,0,0,0,20.14-1.52,11.13,11.13,0,0,0,17.3-7.54c.28,0,.56,0,.85,0A11,11,0,0,0,107.94,34Z"/><path class="cls-37" d="M108,33.92a14.55,14.55,0,0,0,.21-2.39,14.1,14.1,0,0,0-14.1-14.1,13.69,13.69,0,0,0-2.65.26A17.8,17.8,0,0,0,64,14.21,15.9,15.9,0,0,0,36.74,15.7,17.89,17.89,0,0,0,8.67,30.4,18.61,18.61,0,0,0,8.86,33a11.39,11.39,0,0,0,5.61,21.31c.38,0,.76,0,1.14-.05a16.16,16.16,0,0,0,21.18,9A19.39,19.39,0,0,0,63.71,64.3c.53-.07,1.05-.17,1.56-.28A11.25,11.25,0,0,0,85.4,62.5,11.13,11.13,0,0,0,102.7,55c.28,0,.56,0,.85,0A11,11,0,0,0,108,33.92Z"/><path class="cls-38" d="M108.12,33.81a14.57,14.57,0,0,0,.21-2.4,14.09,14.09,0,0,0-14.1-14.09,14.32,14.32,0,0,0-2.64.25,17.81,17.81,0,0,0-27.53-3.48,15.89,15.89,0,0,0-27.23,1.5A17.87,17.87,0,0,0,8.77,30.28,17.24,17.24,0,0,0,9,32.89a11.39,11.39,0,0,0,5.6,21.31,10.6,10.6,0,0,0,1.14-.06,16.18,16.18,0,0,0,15,10.19,16,16,0,0,0,6.16-1.22A19.39,19.39,0,0,0,63.8,64.18c.53-.07,1-.16,1.56-.28A11.26,11.26,0,0,0,85.5,62.38a11.13,11.13,0,0,0,17.3-7.54c.28,0,.56,0,.84,0a11,11,0,0,0,4.48-21.07Z"/><path class="cls-39" d="M108.21,33.69a13.53,13.53,0,0,0,.21-2.39A14.09,14.09,0,0,0,94.33,17.2a14.43,14.43,0,0,0-2.65.25A17.81,17.81,0,0,0,64.16,14a15.91,15.91,0,0,0-27.24,1.49A17.88,17.88,0,0,0,8.86,30.17a18.61,18.61,0,0,0,.19,2.6,11.39,11.39,0,0,0,5.6,21.31A10.93,10.93,0,0,0,15.8,54,16.16,16.16,0,0,0,37,63,19.37,19.37,0,0,0,63.9,64.06c.52-.06,1-.16,1.55-.27a11.26,11.26,0,0,0,20.14-1.52,11.13,11.13,0,0,0,17.3-7.54q.42,0,.84,0a11,11,0,0,0,4.48-21.07Z"/><path class="cls-40" d="M108.31,33.58a14.57,14.57,0,0,0,.2-2.4A14.09,14.09,0,0,0,94.42,17.09a14.43,14.43,0,0,0-2.65.25,17.8,17.8,0,0,0-27.52-3.48A15.89,15.89,0,0,0,37,15.36,17.88,17.88,0,0,0,9,30.05a18.39,18.39,0,0,0,.19,2.6A11.4,11.4,0,0,0,14.75,54a10.88,10.88,0,0,0,1.14-.06,16.16,16.16,0,0,0,15,10.19,16,16,0,0,0,6.16-1.22A19.39,19.39,0,0,0,64,64c.53-.07,1.05-.16,1.56-.28a11.25,11.25,0,0,0,20.13-1.52A11.13,11.13,0,0,0,103,54.61c.28,0,.56,0,.85,0a11,11,0,0,0,4.48-21.07Z"/><path class="cls-41" d="M108.4,33.46a14.55,14.55,0,0,0,.21-2.39A14.1,14.1,0,0,0,94.51,17a14.32,14.32,0,0,0-2.64.25,17.8,17.8,0,0,0-27.53-3.47,15.9,15.9,0,0,0-27.23,1.49A17.88,17.88,0,0,0,9.05,29.94a17.21,17.21,0,0,0,.19,2.6,11.39,11.39,0,0,0,5.6,21.31A10.6,10.6,0,0,0,16,53.79a16.16,16.16,0,0,0,21.18,9,19.37,19.37,0,0,0,26.92,1.06c.53-.07,1-.16,1.56-.28A11.26,11.26,0,0,0,85.78,62a11.13,11.13,0,0,0,17.3-7.55,7.63,7.63,0,0,0,.84,0,11,11,0,0,0,4.48-21.07Z"/><path class="cls-42" d="M108.49,33.35a13.56,13.56,0,0,0,.21-2.4A14.09,14.09,0,0,0,94.61,16.86a13.61,13.61,0,0,0-2.65.25,17.81,17.81,0,0,0-27.53-3.48,15.89,15.89,0,0,0-27.23,1.5A17.87,17.87,0,0,0,9.14,29.82a18.39,18.39,0,0,0,.19,2.6,11.4,11.4,0,0,0,5.6,21.32,10.93,10.93,0,0,0,1.15-.06,16.16,16.16,0,0,0,21.18,9,19.39,19.39,0,0,0,26.92,1.07c.52-.07,1-.16,1.55-.28a11.26,11.26,0,0,0,20.14-1.52,11.13,11.13,0,0,0,17.3-7.54c.28,0,.56,0,.84,0a11,11,0,0,0,4.48-21.07Z"/><path class="cls-43" d="M108.59,33.23a14.57,14.57,0,0,0,.2-2.4A14.09,14.09,0,0,0,94.7,16.74a14.43,14.43,0,0,0-2.65.25,17.79,17.79,0,0,0-27.52-3.47A15.9,15.9,0,0,0,37.3,15,17.89,17.89,0,0,0,9.23,29.71a18.61,18.61,0,0,0,.19,2.6A11.39,11.39,0,0,0,15,53.62a10.88,10.88,0,0,0,1.14-.06,16.16,16.16,0,0,0,21.18,9A19.4,19.4,0,0,0,64.27,63.6c.53-.07,1-.16,1.56-.28A11.25,11.25,0,0,0,86,61.81a11.13,11.13,0,0,0,17.3-7.55,7.94,7.94,0,0,0,.85,0,11,11,0,0,0,4.48-21.07Z"/><path class="cls-44" d="M108.68,33.11a14.36,14.36,0,0,0,.21-2.39,14.09,14.09,0,0,0-14.1-14.09,13.51,13.51,0,0,0-2.64.25A17.81,17.81,0,0,0,64.62,13.4a15.9,15.9,0,0,0-27.23,1.49A17.88,17.88,0,0,0,9.33,29.59a17.11,17.11,0,0,0,.19,2.6,11.4,11.4,0,0,0,5.6,21.32,10.74,10.74,0,0,0,1.14-.06,16.18,16.18,0,0,0,15,10.19,16,16,0,0,0,6.16-1.22,19.39,19.39,0,0,0,26.92,1.07c.53-.07,1-.16,1.56-.28a11.26,11.26,0,0,0,20.14-1.52,11.12,11.12,0,0,0,17.29-7.54c.28,0,.56,0,.85,0a11,11,0,0,0,4.48-21.08Z"/><path class="cls-45" d="M108.77,33a13.56,13.56,0,0,0,.21-2.4A14.09,14.09,0,0,0,94.89,16.51a14.43,14.43,0,0,0-2.65.25,17.8,17.8,0,0,0-27.53-3.47,15.9,15.9,0,0,0-27.23,1.49A17.88,17.88,0,0,0,9.42,29.48a18.61,18.61,0,0,0,.19,2.6,11.39,11.39,0,0,0,5.6,21.31,10.93,10.93,0,0,0,1.15-.06,16.15,16.15,0,0,0,21.17,9,19.41,19.41,0,0,0,26.93,1.06c.52-.07,1-.16,1.55-.28a11.26,11.26,0,0,0,20.14-1.51A11.13,11.13,0,0,0,103.45,54c.28,0,.56,0,.84,0A11,11,0,0,0,108.77,33Z"/><path class="cls-46" d="M108.87,32.88a14.36,14.36,0,0,0,.2-2.39A14.09,14.09,0,0,0,95,16.39a13.61,13.61,0,0,0-2.65.26,17.8,17.8,0,0,0-27.52-3.48,15.9,15.9,0,0,0-27.23,1.49A17.89,17.89,0,0,0,9.51,29.36,18.5,18.5,0,0,0,9.7,32a11.4,11.4,0,0,0,5.6,21.32,10.93,10.93,0,0,0,1.15-.06,16.16,16.16,0,0,0,15,10.19,16,16,0,0,0,6.16-1.22,19.39,19.39,0,0,0,26.92,1.07c.53-.07,1-.17,1.55-.28a11.26,11.26,0,0,0,20.14-1.52,11.13,11.13,0,0,0,17.3-7.54c.28,0,.56,0,.85,0a11,11,0,0,0,4.48-21.07Z"/><path class="cls-47" d="M109,32.77a14.57,14.57,0,0,0,.21-2.4,14.09,14.09,0,0,0-14.1-14.09,14.51,14.51,0,0,0-2.65.25A17.8,17.8,0,0,0,64.9,13.05a15.9,15.9,0,0,0-27.23,1.5A17.88,17.88,0,0,0,9.6,29.25a17.21,17.21,0,0,0,.2,2.6,11.39,11.39,0,0,0,5.6,21.31,10.74,10.74,0,0,0,1.14-.06,16.19,16.19,0,0,0,21.18,9,19.4,19.4,0,0,0,26.92,1.06c.53-.07,1-.16,1.56-.28a11.26,11.26,0,0,0,20.14-1.52,11.12,11.12,0,0,0,17.29-7.54c.28,0,.56,0,.85,0A11,11,0,0,0,109,32.77Z"/><path class="cls-48" d="M109.05,32.65a13.45,13.45,0,0,0,.21-2.39,14.09,14.09,0,0,0-14.09-14.1,13.61,13.61,0,0,0-2.65.26A17.81,17.81,0,0,0,65,12.94a15.9,15.9,0,0,0-27.23,1.49A17.88,17.88,0,0,0,9.7,29.13a17.11,17.11,0,0,0,.19,2.6A11.39,11.39,0,0,0,15.49,53c.39,0,.77,0,1.15,0a16.15,16.15,0,0,0,15,10.19A15.91,15.91,0,0,0,37.81,62,19.4,19.4,0,0,0,64.74,63c.52-.07,1-.17,1.55-.28a11.26,11.26,0,0,0,20.14-1.52,11.13,11.13,0,0,0,17.3-7.54q.42,0,.84,0a11,11,0,0,0,4.48-21.07Z"/><path class="cls-49" d="M109.15,32.54a14.57,14.57,0,0,0,.2-2.4A14.09,14.09,0,0,0,95.26,16.05a14.43,14.43,0,0,0-2.65.25,17.8,17.8,0,0,0-27.52-3.48,15.89,15.89,0,0,0-27.23,1.5A17.88,17.88,0,0,0,9.79,29a18.61,18.61,0,0,0,.19,2.6,11.39,11.39,0,0,0,5.6,21.31,10.93,10.93,0,0,0,1.15-.06,16.19,16.19,0,0,0,21.18,9,19.4,19.4,0,0,0,26.92,1.06,15.68,15.68,0,0,0,1.55-.28,11.26,11.26,0,0,0,20.14-1.52,11.13,11.13,0,0,0,17.3-7.54c.28,0,.56,0,.85,0a11,11,0,0,0,4.48-21.07Z"/><path class="cls-50" d="M109.24,32.42a14.55,14.55,0,0,0,.21-2.39,14.1,14.1,0,0,0-14.1-14.1,13.69,13.69,0,0,0-2.65.26,17.8,17.8,0,0,0-27.52-3.48A15.9,15.9,0,0,0,38,14.2,17.89,17.89,0,0,0,9.88,28.9a18.61,18.61,0,0,0,.19,2.6,11.39,11.39,0,0,0,5.61,21.31c.38,0,.77,0,1.14-.05a16.16,16.16,0,0,0,21.18,9A19.39,19.39,0,0,0,64.92,62.8c.53-.07,1-.17,1.56-.28A11.26,11.26,0,0,0,86.62,61a11.12,11.12,0,0,0,17.29-7.54c.28,0,.56,0,.85,0a11,11,0,0,0,4.48-21.07Z"/><path class="cls-51" d="M109.33,32.31a13.56,13.56,0,0,0,.21-2.4A14.09,14.09,0,0,0,95.45,15.82a14.43,14.43,0,0,0-2.65.25,17.81,17.81,0,0,0-27.53-3.48A15.89,15.89,0,0,0,38,14.09,17.87,17.87,0,0,0,10,28.79a17.21,17.21,0,0,0,.19,2.6,11.39,11.39,0,0,0,5.6,21.31,10.93,10.93,0,0,0,1.15-.06,16.18,16.18,0,0,0,21.17,9A19.41,19.41,0,0,0,65,62.68c.52-.07,1-.16,1.55-.28a11.26,11.26,0,0,0,20.14-1.52A11.13,11.13,0,0,0,104,53.34c.28,0,.56,0,.84,0a11,11,0,0,0,4.48-21.07Z"/><path class="cls-52" d="M109.43,32.19a14.54,14.54,0,0,0,.2-2.39A14.09,14.09,0,0,0,95.54,15.7a14.43,14.43,0,0,0-2.65.25,17.81,17.81,0,0,0-27.52-3.47A15.9,15.9,0,0,0,38.14,14a17.89,17.89,0,0,0-28.07,14.7,18.61,18.61,0,0,0,.19,2.6,11.39,11.39,0,0,0,5.6,21.31c.39,0,.77,0,1.15,0a16.16,16.16,0,0,0,21.18,9,19.39,19.39,0,0,0,26.92,1.07c.53-.07,1-.17,1.55-.28A11.26,11.26,0,0,0,86.8,60.77a11.13,11.13,0,0,0,17.3-7.54c.28,0,.56,0,.85,0a11,11,0,0,0,4.48-21.07Z"/><path class="cls-53" d="M109.52,32.08a14.57,14.57,0,0,0,.21-2.4,14.09,14.09,0,0,0-14.1-14.09,14.51,14.51,0,0,0-2.65.25,17.8,17.8,0,0,0-27.52-3.48,15.89,15.89,0,0,0-27.23,1.5A17.88,17.88,0,0,0,10.16,28.55a18.64,18.64,0,0,0,.19,2.61A11.39,11.39,0,0,0,16,52.47a10.88,10.88,0,0,0,1.14-.06,16.19,16.19,0,0,0,21.18,9A19.4,19.4,0,0,0,65.2,62.45c.53-.07,1-.16,1.56-.28a11.25,11.25,0,0,0,20.13-1.52,11.13,11.13,0,0,0,17.3-7.54c.28,0,.56,0,.85,0a11,11,0,0,0,4.48-21.07Z"/><path class="cls-54" d="M109.61,32a13.53,13.53,0,0,0,.21-2.39,14.1,14.1,0,0,0-14.1-14.1,14.32,14.32,0,0,0-2.64.25,17.82,17.82,0,0,0-27.53-3.47,15.9,15.9,0,0,0-27.23,1.49,17.88,17.88,0,0,0-28.06,14.7,17.21,17.21,0,0,0,.19,2.6,11.39,11.39,0,0,0,5.6,21.31,10.6,10.6,0,0,0,1.14-.06,16.16,16.16,0,0,0,21.18,9,19.37,19.37,0,0,0,26.92,1.06c.53-.06,1-.16,1.56-.27A11.26,11.26,0,0,0,87,60.54,11.13,11.13,0,0,0,104.29,53q.42,0,.84,0A11,11,0,0,0,109.61,32Z"/><path class="cls-55" d="M109.71,31.85a14.57,14.57,0,0,0,.2-2.4A14.09,14.09,0,0,0,95.82,15.36a14.43,14.43,0,0,0-2.65.25,17.8,17.8,0,0,0-27.52-3.48,15.89,15.89,0,0,0-27.23,1.5A17.88,17.88,0,0,0,10.35,28.32a18.39,18.39,0,0,0,.19,2.6,11.4,11.4,0,0,0,5.6,21.32,10.93,10.93,0,0,0,1.15-.06,16.16,16.16,0,0,0,21.18,9,19.39,19.39,0,0,0,26.92,1.07,15.68,15.68,0,0,0,1.55-.28,11.26,11.26,0,0,0,20.14-1.52,11.13,11.13,0,0,0,17.3-7.54c.28,0,.56,0,.84,0a11,11,0,0,0,4.49-21.07Z"/><path class="cls-56" d="M109.8,31.73a14.54,14.54,0,0,0,.2-2.39,14.09,14.09,0,0,0-14.09-14.1,14.43,14.43,0,0,0-2.65.25A17.79,17.79,0,0,0,65.74,12a15.9,15.9,0,0,0-27.23,1.49,17.89,17.89,0,0,0-28.07,14.7,18.61,18.61,0,0,0,.19,2.6,11.39,11.39,0,0,0,5.61,21.31,10.88,10.88,0,0,0,1.14-.06,16.16,16.16,0,0,0,21.18,9A19.37,19.37,0,0,0,65.48,62.1q.8-.1,1.56-.27a11.25,11.25,0,0,0,20.13-1.52,11.13,11.13,0,0,0,17.3-7.54c.28,0,.56,0,.85,0a11,11,0,0,0,4.48-21.07Z"/><path class="cls-57" d="M109.89,31.62a14.57,14.57,0,0,0,.21-2.4A14.09,14.09,0,0,0,96,15.13a14.32,14.32,0,0,0-2.64.25A17.81,17.81,0,0,0,65.83,11.9,15.89,15.89,0,0,0,38.6,13.4,17.87,17.87,0,0,0,10.54,28.09a17,17,0,0,0,.19,2.6A11.4,11.4,0,0,0,16.33,52,10.6,10.6,0,0,0,17.47,52a16.18,16.18,0,0,0,15,10.19,16,16,0,0,0,6.16-1.22A19.39,19.39,0,0,0,65.57,62c.53-.07,1.05-.16,1.56-.28a11.26,11.26,0,0,0,20.14-1.52,11.13,11.13,0,0,0,17.3-7.54c.27,0,.55,0,.84,0a11,11,0,0,0,4.48-21.07Z"/><path class="cls-58" d="M110,31.5a13.56,13.56,0,0,0,.21-2.4A14.09,14.09,0,0,0,96.1,15a14.43,14.43,0,0,0-2.65.25,17.8,17.8,0,0,0-27.53-3.47,15.9,15.9,0,0,0-27.23,1.49A17.88,17.88,0,0,0,10.63,28a18.61,18.61,0,0,0,.19,2.6,11.39,11.39,0,0,0,5.6,21.31,10.93,10.93,0,0,0,1.15-.06,16.16,16.16,0,0,0,21.18,9,19.37,19.37,0,0,0,26.92,1.06c.52-.07,1-.16,1.55-.28a11.26,11.26,0,0,0,20.14-1.51,11.13,11.13,0,0,0,17.3-7.55,7.87,7.87,0,0,0,.84,0A11,11,0,0,0,110,31.5Z"/><path class="cls-59" d="M110.08,31.38a14.36,14.36,0,0,0,.21-2.39A14.1,14.1,0,0,0,96.19,14.9a13.68,13.68,0,0,0-2.65.25A17.8,17.8,0,0,0,66,11.67a15.9,15.9,0,0,0-27.23,1.49,17.89,17.89,0,0,0-28.07,14.7,18.5,18.5,0,0,0,.19,2.6,11.4,11.4,0,0,0,5.61,21.32,10.88,10.88,0,0,0,1.14-.06,16.16,16.16,0,0,0,15,10.19,16,16,0,0,0,6.16-1.22,19.39,19.39,0,0,0,26.92,1.07c.53-.07,1-.16,1.56-.28A11.25,11.25,0,0,0,87.45,60a11.13,11.13,0,0,0,17.3-7.54c.28,0,.56,0,.85,0a11,11,0,0,0,4.48-21.07Z"/><path class="cls-60" d="M110.17,31.27a14.57,14.57,0,0,0,.21-2.4,14.09,14.09,0,0,0-14.1-14.09,14.32,14.32,0,0,0-2.64.25,17.8,17.8,0,0,0-27.53-3.47,15.9,15.9,0,0,0-27.23,1.49,17.88,17.88,0,0,0-28.06,14.7,17.21,17.21,0,0,0,.19,2.6,11.39,11.39,0,0,0,5.6,21.31,10.74,10.74,0,0,0,1.14-.06,16.16,16.16,0,0,0,21.18,9,19.4,19.4,0,0,0,26.92,1.06c.53-.07,1.05-.16,1.56-.28a11.26,11.26,0,0,0,20.14-1.51,11.13,11.13,0,0,0,17.3-7.55c.27,0,.56,0,.84,0a11,11,0,0,0,4.48-21.07Z"/><path class="cls-61" d="M110.26,31.15a13.36,13.36,0,0,0,.21-2.39,14.1,14.1,0,0,0-14.09-14.1,13.61,13.61,0,0,0-2.65.26A17.81,17.81,0,0,0,66.2,11.44,15.9,15.9,0,0,0,39,12.93a17.88,17.88,0,0,0-28.06,14.7,18.5,18.5,0,0,0,.19,2.6,11.4,11.4,0,0,0,5.6,21.32,10.93,10.93,0,0,0,1.15-.06,16.15,16.15,0,0,0,15,10.19A15.91,15.91,0,0,0,39,60.46,19.4,19.4,0,0,0,66,61.53c.52-.07,1-.17,1.55-.28a11.26,11.26,0,0,0,20.14-1.52,11.13,11.13,0,0,0,17.3-7.54q.42,0,.84,0a11,11,0,0,0,4.48-21.07Z"/><path class="cls-62" d="M110.36,31a14.57,14.57,0,0,0,.2-2.4A14.09,14.09,0,0,0,96.47,14.55a14.43,14.43,0,0,0-2.65.25A17.8,17.8,0,0,0,66.3,11.32a15.9,15.9,0,0,0-27.23,1.5A17.88,17.88,0,0,0,11,27.52a18.61,18.61,0,0,0,.19,2.6,11.39,11.39,0,0,0,5.6,21.31,10.93,10.93,0,0,0,1.15-.06,16.16,16.16,0,0,0,21.18,9A19.4,19.4,0,0,0,66,61.41c.53-.07,1-.16,1.56-.28a11.26,11.26,0,0,0,20.13-1.51A11.13,11.13,0,0,0,105,52.07c.28,0,.56,0,.85,0A11,11,0,0,0,110.36,31Z"/><path class="cls-63" d="M110.45,30.92a14.45,14.45,0,0,0,.21-2.39,14.1,14.1,0,0,0-14.1-14.1,13.51,13.51,0,0,0-2.64.26,17.81,17.81,0,0,0-27.53-3.48A15.9,15.9,0,0,0,39.16,12.7,17.88,17.88,0,0,0,11.1,27.4a17.11,17.11,0,0,0,.19,2.6,11.39,11.39,0,0,0,5.6,21.31c.38,0,.77,0,1.14-.05a16.18,16.18,0,0,0,15,10.19,16,16,0,0,0,6.16-1.22A19.39,19.39,0,0,0,66.13,61.3c.53-.07,1.05-.17,1.56-.28A11.26,11.26,0,0,0,87.83,59.5,11.12,11.12,0,0,0,105.12,52c.28,0,.56,0,.85,0a11,11,0,0,0,4.48-21.07Z"/><path class="cls-64" d="M110.54,30.81a13.56,13.56,0,0,0,.21-2.4A14.09,14.09,0,0,0,96.66,14.32a14.43,14.43,0,0,0-2.65.25,17.81,17.81,0,0,0-27.53-3.48,15.89,15.89,0,0,0-27.23,1.5,17.87,17.87,0,0,0-28.06,14.7,17.21,17.21,0,0,0,.19,2.6A11.39,11.39,0,0,0,17,51.2a10.93,10.93,0,0,0,1.15-.06,16.18,16.18,0,0,0,21.17,9,19.41,19.41,0,0,0,26.93,1.06c.52-.07,1-.16,1.55-.28a11.26,11.26,0,0,0,20.14-1.52,11.13,11.13,0,0,0,17.3-7.54c.28,0,.56,0,.84,0a11,11,0,0,0,4.48-21.07Z"/><path class="cls-65" d="M110.64,30.69a14.54,14.54,0,0,0,.2-2.39A14.09,14.09,0,0,0,96.75,14.2a13.61,13.61,0,0,0-2.65.26A17.8,17.8,0,0,0,66.58,11a15.9,15.9,0,0,0-27.23,1.49,17.89,17.89,0,0,0-28.07,14.7,18.61,18.61,0,0,0,.19,2.6,11.39,11.39,0,0,0,5.6,21.31c.39,0,.77,0,1.15,0A16.16,16.16,0,0,0,39.4,60a19.39,19.39,0,0,0,26.92,1.07c.53-.07,1-.17,1.55-.28A11.26,11.26,0,0,0,88,59.27a11.13,11.13,0,0,0,17.3-7.54c.28,0,.56,0,.85,0a11,11,0,0,0,4.48-21.07Z"/><path class="cls-66" d="M110.73,30.58a14.57,14.57,0,0,0,.21-2.4,14.09,14.09,0,0,0-14.1-14.09,14.51,14.51,0,0,0-2.65.25,17.8,17.8,0,0,0-27.52-3.48,15.89,15.89,0,0,0-27.23,1.5,17.88,17.88,0,0,0-28.07,14.7,17.21,17.21,0,0,0,.2,2.6A11.39,11.39,0,0,0,17.17,51a10.74,10.74,0,0,0,1.14-.06,16.19,16.19,0,0,0,21.18,9A19.4,19.4,0,0,0,66.41,61c.53-.07,1-.16,1.56-.28a11.26,11.26,0,0,0,20.14-1.52,11.12,11.12,0,0,0,17.29-7.54c.28,0,.56,0,.85,0a11,11,0,0,0,4.48-21.07Z"/><path class="cls-67" d="M110.82,30.46a13.53,13.53,0,0,0,.21-2.39A14.09,14.09,0,0,0,96.94,14a13.61,13.61,0,0,0-2.65.26,17.81,17.81,0,0,0-27.53-3.48,15.9,15.9,0,0,0-27.23,1.49,17.88,17.88,0,0,0-28.06,14.7,17.21,17.21,0,0,0,.19,2.6,11.39,11.39,0,0,0,5.6,21.31c.39,0,.77,0,1.15-.05a16.15,16.15,0,0,0,21.17,9,19.4,19.4,0,0,0,26.93,1.07c.52-.07,1-.17,1.55-.28A11.26,11.26,0,0,0,88.2,59a11.13,11.13,0,0,0,17.3-7.54q.42,0,.84,0a11,11,0,0,0,4.48-21.07Z"/><path class="cls-68" d="M110.92,30.35a14.57,14.57,0,0,0,.2-2.4A14.09,14.09,0,0,0,97,13.86a14.43,14.43,0,0,0-2.65.25,17.8,17.8,0,0,0-27.52-3.48,15.89,15.89,0,0,0-27.23,1.5,17.88,17.88,0,0,0-28.07,14.7,18.61,18.61,0,0,0,.19,2.6,11.39,11.39,0,0,0,5.6,21.31,10.93,10.93,0,0,0,1.15-.06,16.19,16.19,0,0,0,21.18,9A19.4,19.4,0,0,0,66.6,60.72a15.68,15.68,0,0,0,1.55-.28,11.26,11.26,0,0,0,20.14-1.52,11.13,11.13,0,0,0,17.3-7.54c.28,0,.56,0,.85,0a11,11,0,0,0,4.48-21.07Z"/><path class="cls-69" d="M111,30.23a14.55,14.55,0,0,0,.21-2.39,14.1,14.1,0,0,0-14.1-14.1,14.51,14.51,0,0,0-2.65.25A17.81,17.81,0,0,0,67,10.52,15.9,15.9,0,0,0,39.72,12a17.89,17.89,0,0,0-28.07,14.7,18.61,18.61,0,0,0,.19,2.6,11.39,11.39,0,0,0,5.61,21.31c.38,0,.76,0,1.14,0a16.16,16.16,0,0,0,21.18,9A19.37,19.37,0,0,0,66.69,60.6c.53-.06,1-.16,1.56-.27a11.25,11.25,0,0,0,20.13-1.52,11.13,11.13,0,0,0,17.3-7.54c.28,0,.56,0,.85,0A11,11,0,0,0,111,30.23Z"/><path class="cls-70" d="M111.1,30.12a13.56,13.56,0,0,0,.21-2.4,14.09,14.09,0,0,0-14.1-14.09,14.32,14.32,0,0,0-2.64.25A17.81,17.81,0,0,0,67,10.4a15.89,15.89,0,0,0-27.23,1.5A17.87,17.87,0,0,0,11.75,26.59a17.24,17.24,0,0,0,.19,2.61,11.39,11.39,0,0,0,5.6,21.31,10.6,10.6,0,0,0,1.14-.06,16.18,16.18,0,0,0,15,10.19,16,16,0,0,0,6.15-1.22,19.4,19.4,0,0,0,26.93,1.07c.52-.07,1-.16,1.55-.28a11.26,11.26,0,0,0,20.14-1.52,11.13,11.13,0,0,0,17.3-7.54c.28,0,.56,0,.84,0a11,11,0,0,0,4.48-21.07Z"/><path class="cls-71" d="M111.2,30a14.54,14.54,0,0,0,.2-2.39,14.09,14.09,0,0,0-14.09-14.1,14.43,14.43,0,0,0-2.65.25,17.79,17.79,0,0,0-27.52-3.47,15.9,15.9,0,0,0-27.23,1.49,17.89,17.89,0,0,0-28.07,14.7,18.61,18.61,0,0,0,.19,2.6,11.39,11.39,0,0,0,5.6,21.31,10.93,10.93,0,0,0,1.15-.06,16.16,16.16,0,0,0,21.18,9,19.37,19.37,0,0,0,26.92,1.06c.53-.07,1-.16,1.55-.27a11.26,11.26,0,0,0,20.14-1.52A11.13,11.13,0,0,0,105.87,51q.42,0,.84,0A11,11,0,0,0,111.2,30Z"/><path class="cls-72" d="M111.29,29.89a14.57,14.57,0,0,0,.21-2.4A14.1,14.1,0,0,0,97.4,13.4a14.51,14.51,0,0,0-2.65.25,17.8,17.8,0,0,0-27.52-3.48A15.89,15.89,0,0,0,40,11.67,17.88,17.88,0,0,0,11.93,26.36a18.39,18.39,0,0,0,.19,2.6,11.4,11.4,0,0,0,5.61,21.32,10.88,10.88,0,0,0,1.14-.06,16.16,16.16,0,0,0,15,10.19,16,16,0,0,0,6.16-1.22A19.39,19.39,0,0,0,67,60.26c.53-.07,1-.16,1.56-.28a11.25,11.25,0,0,0,20.13-1.52A11.13,11.13,0,0,0,106,50.92c.28,0,.56,0,.85,0a11,11,0,0,0,4.48-21.07Z"/><path class="cls-73" d="M111.38,29.77a14.55,14.55,0,0,0,.21-2.39A14.09,14.09,0,0,0,97.5,13.28a14.43,14.43,0,0,0-2.65.25,17.8,17.8,0,0,0-27.53-3.47,15.9,15.9,0,0,0-27.23,1.49A17.88,17.88,0,0,0,12,26.25a17.21,17.21,0,0,0,.19,2.6,11.39,11.39,0,0,0,5.6,21.31A10.6,10.6,0,0,0,19,50.1a16.16,16.16,0,0,0,21.18,9,19.37,19.37,0,0,0,26.92,1.06c.53-.07,1-.16,1.56-.28a11.26,11.26,0,0,0,20.14-1.51,11.13,11.13,0,0,0,17.3-7.55,7.75,7.75,0,0,0,.84,0,11,11,0,0,0,4.48-21.07Z"/><path class="cls-74" d="M111.47,29.66a13.56,13.56,0,0,0,.21-2.4A14.09,14.09,0,0,0,97.59,13.17a13.61,13.61,0,0,0-2.65.25A17.8,17.8,0,0,0,67.42,9.94a15.9,15.9,0,0,0-27.24,1.5A17.87,17.87,0,0,0,12.12,26.13a18.5,18.5,0,0,0,.19,2.6,11.4,11.4,0,0,0,5.6,21.32A10.93,10.93,0,0,0,19.06,50a16.16,16.16,0,0,0,21.18,9A19.39,19.39,0,0,0,67.16,60c.52-.07,1-.16,1.55-.28a11.26,11.26,0,0,0,20.14-1.52,11.13,11.13,0,0,0,17.3-7.54c.28,0,.56,0,.84,0a11,11,0,0,0,4.48-21.07Z"/><path class="cls-75" d="M111.57,29.54a14.57,14.57,0,0,0,.21-2.4,14.1,14.1,0,0,0-14.1-14.09A14.51,14.51,0,0,0,95,13.3,17.79,17.79,0,0,0,67.51,9.83a15.9,15.9,0,0,0-27.23,1.49A17.89,17.89,0,0,0,12.21,26a18.61,18.61,0,0,0,.19,2.6A11.39,11.39,0,0,0,18,49.93a10.88,10.88,0,0,0,1.14-.06,16.16,16.16,0,0,0,21.18,9,19.4,19.4,0,0,0,26.92,1.06c.53-.07,1-.16,1.56-.28a11.25,11.25,0,0,0,20.13-1.51,11.13,11.13,0,0,0,17.3-7.55,7.94,7.94,0,0,0,.85,0,11,11,0,0,0,4.48-21.07Z"/><path class="cls-76" d="M111.66,29.42a14.36,14.36,0,0,0,.21-2.39,14.09,14.09,0,0,0-14.1-14.09,13.51,13.51,0,0,0-2.64.25A17.81,17.81,0,0,0,67.6,9.71,15.9,15.9,0,0,0,40.37,11.2,17.88,17.88,0,0,0,12.31,25.9a17.11,17.11,0,0,0,.19,2.6,11.4,11.4,0,0,0,5.6,21.32,10.6,10.6,0,0,0,1.14-.06A16.18,16.18,0,0,0,34.26,60a16,16,0,0,0,6.16-1.22A19.39,19.39,0,0,0,67.34,59.8c.53-.07,1-.16,1.56-.28A11.26,11.26,0,0,0,89,58a11.13,11.13,0,0,0,17.3-7.54c.27,0,.56,0,.84,0a11,11,0,0,0,4.48-21.07Z"/><path class="cls-77" d="M111.75,29.31a13.56,13.56,0,0,0,.21-2.4A14.09,14.09,0,0,0,97.87,12.82a14.43,14.43,0,0,0-2.65.25A17.81,17.81,0,0,0,67.69,9.59a15.9,15.9,0,0,0-27.23,1.5A17.87,17.87,0,0,0,12.4,25.79a18.61,18.61,0,0,0,.19,2.6,11.39,11.39,0,0,0,5.6,21.31,10.93,10.93,0,0,0,1.15-.06,16.16,16.16,0,0,0,21.18,9,19.4,19.4,0,0,0,26.92,1.06c.52-.07,1-.16,1.55-.28a11.26,11.26,0,0,0,20.14-1.51,11.13,11.13,0,0,0,17.3-7.55c.28,0,.56,0,.84,0a11,11,0,0,0,4.48-21.07Z"/><path class="cls-78" d="M111.85,29.19a14.45,14.45,0,0,0,.2-2.39A14.09,14.09,0,0,0,98,12.7a13.61,13.61,0,0,0-2.65.26A17.8,17.8,0,0,0,67.79,9.48,15.9,15.9,0,0,0,40.56,11a17.89,17.89,0,0,0-28.07,14.7,18.5,18.5,0,0,0,.19,2.6,11.39,11.39,0,0,0,5.61,21.31,10.87,10.87,0,0,0,1.14,0,16.16,16.16,0,0,0,15,10.19,16,16,0,0,0,6.16-1.22,19.39,19.39,0,0,0,26.92,1.07c.53-.07,1-.17,1.56-.28a11.25,11.25,0,0,0,20.13-1.52,11.13,11.13,0,0,0,17.3-7.54c.28,0,.56,0,.85,0a11,11,0,0,0,4.48-21.07Z"/><path class="cls-79" d="M111.94,29.08a14.57,14.57,0,0,0,.21-2.4,14.09,14.09,0,0,0-14.1-14.09,14.32,14.32,0,0,0-2.64.25A17.81,17.81,0,0,0,67.88,9.36a15.9,15.9,0,0,0-27.23,1.5,17.87,17.87,0,0,0-28.06,14.7,17.21,17.21,0,0,0,.19,2.6,11.39,11.39,0,0,0,5.6,21.31,10.74,10.74,0,0,0,1.14-.06,16.19,16.19,0,0,0,21.18,9,19.4,19.4,0,0,0,26.92,1.06c.53-.07,1-.16,1.56-.28a11.26,11.26,0,0,0,20.14-1.52,11.13,11.13,0,0,0,17.3-7.54c.27,0,.55,0,.84,0a11,11,0,0,0,4.48-21.07Z"/><path class="cls-80" d="M112,29a13.45,13.45,0,0,0,.21-2.39,14.09,14.09,0,0,0-14.09-14.1,13.61,13.61,0,0,0-2.65.26A17.81,17.81,0,0,0,68,9.25a15.9,15.9,0,0,0-27.23,1.49,17.88,17.88,0,0,0-28.06,14.7,18.5,18.5,0,0,0,.19,2.6,11.39,11.39,0,0,0,5.6,21.31c.39,0,.77,0,1.15-.05a16.15,16.15,0,0,0,21.17,9,19.4,19.4,0,0,0,26.93,1.07c.52-.07,1-.17,1.55-.28a11.26,11.26,0,0,0,20.14-1.52A11.13,11.13,0,0,0,106.71,50q.42,0,.84,0A11,11,0,0,0,112,29Z"/><path class="cls-81" d="M112.13,28.85a14.57,14.57,0,0,0,.2-2.4A14.09,14.09,0,0,0,98.24,12.36a14.43,14.43,0,0,0-2.65.25A17.8,17.8,0,0,0,68.07,9.13a15.89,15.89,0,0,0-27.23,1.5,17.88,17.88,0,0,0-28.07,14.7,18.61,18.61,0,0,0,.19,2.6,11.39,11.39,0,0,0,5.6,21.31,10.93,10.93,0,0,0,1.15-.06,16.19,16.19,0,0,0,21.18,9,19.4,19.4,0,0,0,26.92,1.06c.53-.07,1-.16,1.56-.28A11.25,11.25,0,0,0,89.5,57.42a11.13,11.13,0,0,0,17.3-7.54c.28,0,.56,0,.85,0a11,11,0,0,0,4.48-21.07Z"/><path class="cls-82" d="M112.22,28.73a14.55,14.55,0,0,0,.21-2.39,14.1,14.1,0,0,0-14.1-14.1,13.69,13.69,0,0,0-2.65.26A17.8,17.8,0,0,0,68.16,9a15.9,15.9,0,0,0-27.23,1.49,17.89,17.89,0,0,0-28.07,14.7,17.21,17.21,0,0,0,.2,2.6,11.39,11.39,0,0,0,5.6,21.31c.38,0,.77,0,1.14,0A16.16,16.16,0,0,0,41,58,19.39,19.39,0,0,0,67.9,59.11c.53-.07,1-.17,1.56-.28A11.26,11.26,0,0,0,89.6,57.31a11.12,11.12,0,0,0,17.29-7.54c.28,0,.56,0,.85,0a11,11,0,0,0,4.48-21.07Z"/><path class="cls-83" d="M112.31,28.62a13.56,13.56,0,0,0,.21-2.4A14.09,14.09,0,0,0,98.43,12.13a14.43,14.43,0,0,0-2.65.25A17.81,17.81,0,0,0,68.25,8.9,15.89,15.89,0,0,0,41,10.4,17.87,17.87,0,0,0,13,25.1a17.21,17.21,0,0,0,.19,2.6A11.39,11.39,0,0,0,18.75,49,10.93,10.93,0,0,0,19.9,49a16.18,16.18,0,0,0,21.17,9A19.41,19.41,0,0,0,68,59c.52-.07,1-.16,1.55-.28a11.26,11.26,0,0,0,20.14-1.52A11.13,11.13,0,0,0,107,49.65c.28,0,.56,0,.84,0a11,11,0,0,0,4.48-21.07Z"/><path class="cls-84" d="M112.41,28.5a14.54,14.54,0,0,0,.2-2.39A14.09,14.09,0,0,0,98.52,12a14.43,14.43,0,0,0-2.65.25A17.81,17.81,0,0,0,68.35,8.79a15.9,15.9,0,0,0-27.23,1.49A17.89,17.89,0,0,0,13.05,25a18.61,18.61,0,0,0,.19,2.6,11.39,11.39,0,0,0,5.6,21.31c.39,0,.77,0,1.15,0a16.16,16.16,0,0,0,21.18,9,19.39,19.39,0,0,0,26.92,1.07c.53-.07,1-.17,1.55-.28a11.26,11.26,0,0,0,20.14-1.52,11.13,11.13,0,0,0,17.3-7.54c.28,0,.56,0,.85,0a11,11,0,0,0,4.48-21.07Z"/><path class="cls-85" d="M112.5,28.39a14.57,14.57,0,0,0,.21-2.4A14.09,14.09,0,0,0,98.61,11.9a14.51,14.51,0,0,0-2.65.25A17.8,17.8,0,0,0,68.44,8.67a15.89,15.89,0,0,0-27.23,1.5A17.88,17.88,0,0,0,13.14,24.86a18.64,18.64,0,0,0,.19,2.61,11.39,11.39,0,0,0,5.61,21.31,10.74,10.74,0,0,0,1.14-.06,16.19,16.19,0,0,0,21.18,9,19.4,19.4,0,0,0,26.92,1.06c.53-.07,1-.16,1.56-.28A11.25,11.25,0,0,0,89.87,57a11.13,11.13,0,0,0,17.3-7.54c.28,0,.56,0,.85,0a11,11,0,0,0,4.48-21.07Z"/><path class="cls-86" d="M112.59,28.27a13.53,13.53,0,0,0,.21-2.39,14.09,14.09,0,0,0-14.09-14.1,14.43,14.43,0,0,0-2.65.25A17.82,17.82,0,0,0,68.53,8.56,15.9,15.9,0,0,0,41.3,10.05a17.88,17.88,0,0,0-28.06,14.7,17.21,17.21,0,0,0,.19,2.6A11.39,11.39,0,0,0,19,48.66a10.6,10.6,0,0,0,1.14-.06,16.16,16.16,0,0,0,21.18,9,19.39,19.39,0,0,0,26.93,1.06c.52-.06,1-.16,1.55-.27A11.26,11.26,0,0,0,90,56.85a11.13,11.13,0,0,0,17.3-7.54l.84,0a11,11,0,0,0,4.48-21.07Z"/><path class="cls-87" d="M112.69,28.16a14.57,14.57,0,0,0,.2-2.4A14.09,14.09,0,0,0,98.8,11.67a14.43,14.43,0,0,0-2.65.25A17.8,17.8,0,0,0,68.63,8.44,15.89,15.89,0,0,0,41.4,9.94,17.88,17.88,0,0,0,13.33,24.63a18.39,18.39,0,0,0,.19,2.6,11.4,11.4,0,0,0,5.6,21.32,10.93,10.93,0,0,0,1.15-.06,16.16,16.16,0,0,0,21.18,9,19.39,19.39,0,0,0,26.92,1.07,15.68,15.68,0,0,0,1.55-.28,11.26,11.26,0,0,0,20.14-1.52,11.13,11.13,0,0,0,17.3-7.54c.28,0,.56,0,.85,0a11,11,0,0,0,4.48-21.07Z"/><path class="cls-88" d="M112.78,28a14.57,14.57,0,0,0,.21-2.4,14.1,14.1,0,0,0-14.1-14.09,14.51,14.51,0,0,0-2.65.25A17.79,17.79,0,0,0,68.72,8.33,15.9,15.9,0,0,0,41.49,9.82a17.89,17.89,0,0,0-28.07,14.7,18.61,18.61,0,0,0,.19,2.6,11.39,11.39,0,0,0,5.61,21.31,10.88,10.88,0,0,0,1.14-.06,16.16,16.16,0,0,0,21.18,9,19.37,19.37,0,0,0,26.92,1.06c.53-.07,1.05-.16,1.56-.28a11.25,11.25,0,0,0,20.13-1.51,11.13,11.13,0,0,0,17.3-7.55,7.94,7.94,0,0,0,.85,0A11,11,0,0,0,112.78,28Z"/><path class="cls-89" d="M112.87,27.93a14.57,14.57,0,0,0,.21-2.4A14.09,14.09,0,0,0,99,11.44a13.61,13.61,0,0,0-2.65.25A17.81,17.81,0,0,0,68.81,8.21a15.89,15.89,0,0,0-27.23,1.5A17.87,17.87,0,0,0,13.52,24.4a17,17,0,0,0,.19,2.6,11.4,11.4,0,0,0,5.6,21.32,10.6,10.6,0,0,0,1.14-.06,16.18,16.18,0,0,0,15,10.19,16,16,0,0,0,6.15-1.22A19.4,19.4,0,0,0,68.56,58.3c.52-.07,1-.16,1.55-.28A11.26,11.26,0,0,0,90.25,56.5,11.13,11.13,0,0,0,107.55,49c.28,0,.56,0,.84,0a11,11,0,0,0,4.48-21.07Z"/><path class="cls-90" d="M113,27.81a13.56,13.56,0,0,0,.21-2.4A14.09,14.09,0,0,0,99.08,11.32a14.43,14.43,0,0,0-2.65.25A17.79,17.79,0,0,0,68.91,8.1,15.91,15.91,0,0,0,41.67,9.59a17.88,17.88,0,0,0-28.06,14.7,18.61,18.61,0,0,0,.19,2.6A11.39,11.39,0,0,0,19.4,48.2a10.93,10.93,0,0,0,1.15-.06,16.16,16.16,0,0,0,21.18,9,19.4,19.4,0,0,0,26.92,1.06c.52-.07,1-.16,1.55-.28a11.26,11.26,0,0,0,20.14-1.51,11.13,11.13,0,0,0,17.3-7.55,7.87,7.87,0,0,0,.84,0A11,11,0,0,0,113,27.81Z"/><path class="cls-91" d="M113.06,27.69a14.36,14.36,0,0,0,.21-2.39,14.1,14.1,0,0,0-14.1-14.09,13.68,13.68,0,0,0-2.65.25A17.8,17.8,0,0,0,69,8a15.89,15.89,0,0,0-27.23,1.5A17.88,17.88,0,0,0,13.7,24.17a18.5,18.5,0,0,0,.19,2.6A11.4,11.4,0,0,0,19.5,48.09,10.88,10.88,0,0,0,20.64,48a16.16,16.16,0,0,0,15,10.19A16,16,0,0,0,41.82,57a19.39,19.39,0,0,0,26.92,1.07c.53-.07,1.05-.16,1.56-.28a11.25,11.25,0,0,0,20.13-1.52,11.13,11.13,0,0,0,17.3-7.54c.28,0,.56,0,.85,0a11,11,0,0,0,4.48-21.07Z"/><path class="cls-92" d="M113.15,27.58a14.57,14.57,0,0,0,.21-2.4,14.09,14.09,0,0,0-14.1-14.09,14.32,14.32,0,0,0-2.64.25A17.8,17.8,0,0,0,69.09,7.87,15.9,15.9,0,0,0,41.86,9.36,17.88,17.88,0,0,0,13.8,24.06a17.21,17.21,0,0,0,.19,2.6A11.39,11.39,0,0,0,19.59,48a10.6,10.6,0,0,0,1.14-.06,16.16,16.16,0,0,0,21.18,9A19.4,19.4,0,0,0,68.83,58c.53-.07,1-.16,1.56-.28a11.26,11.26,0,0,0,20.14-1.51,11.13,11.13,0,0,0,17.3-7.55c.27,0,.56,0,.84,0a11,11,0,0,0,4.48-21.07Z"/><path class="cls-93" d="M113.24,27.46a13.36,13.36,0,0,0,.21-2.39A14.09,14.09,0,0,0,99.36,11a13.61,13.61,0,0,0-2.65.26A17.81,17.81,0,0,0,69.18,7.75,15.9,15.9,0,0,0,42,9.24a17.88,17.88,0,0,0-28.06,14.7,18.5,18.5,0,0,0,.19,2.6,11.39,11.39,0,0,0,5.6,21.31,10.94,10.94,0,0,0,1.15-.05,16.16,16.16,0,0,0,21.18,9,19.39,19.39,0,0,0,26.92,1.07c.52-.07,1-.17,1.55-.28A11.26,11.26,0,0,0,90.62,56a11.13,11.13,0,0,0,17.3-7.54q.42,0,.84,0a11,11,0,0,0,4.48-21.07Z"/><path class="cls-94" d="M113.34,27.35a14.57,14.57,0,0,0,.2-2.4A14.09,14.09,0,0,0,99.45,10.86a14.43,14.43,0,0,0-2.65.25A17.8,17.8,0,0,0,69.28,7.63a15.89,15.89,0,0,0-27.23,1.5A17.88,17.88,0,0,0,14,23.83a18.61,18.61,0,0,0,.19,2.6,11.39,11.39,0,0,0,5.61,21.31,10.88,10.88,0,0,0,1.14-.06,16.16,16.16,0,0,0,21.18,9A19.4,19.4,0,0,0,69,57.72c.53-.07,1-.16,1.56-.28a11.25,11.25,0,0,0,20.13-1.52A11.11,11.11,0,0,0,108,48.38c.28,0,.56,0,.85,0a11,11,0,0,0,4.48-21.07Z"/><path class="cls-95" d="M113.43,27.23a14.45,14.45,0,0,0,.21-2.39,14.1,14.1,0,0,0-14.1-14.1A13.51,13.51,0,0,0,96.9,11,17.81,17.81,0,0,0,69.37,7.52,15.9,15.9,0,0,0,42.14,9a17.88,17.88,0,0,0-28.06,14.7,17.11,17.11,0,0,0,.19,2.6,11.39,11.39,0,0,0,5.6,21.31c.38,0,.77,0,1.14,0a16.16,16.16,0,0,0,21.18,9,19.39,19.39,0,0,0,26.92,1.07c.53-.07,1-.17,1.56-.28a11.26,11.26,0,0,0,20.14-1.52,11.13,11.13,0,0,0,17.3-7.54c.27,0,.56,0,.84,0a11,11,0,0,0,4.48-21.07Z"/></g><path class="cls-96" d="M114.27,27.16a15.06,15.06,0,0,0,.21-2.44,14.34,14.34,0,0,0-14.34-14.33,14.87,14.87,0,0,0-2.69.25,18.1,18.1,0,0,0-28-3.53A16.16,16.16,0,0,0,41.77,8.63,18.19,18.19,0,0,0,13.22,23.58a17.74,17.74,0,0,0,.2,2.64,11.58,11.58,0,0,0,5.69,21.67,11.21,11.21,0,0,0,1.17,0A16.44,16.44,0,0,0,41.82,57,19.73,19.73,0,0,0,69.2,58.05c.53-.07,1.06-.17,1.58-.29a11.45,11.45,0,0,0,20.48-1.54,11.32,11.32,0,0,0,17.59-7.67c.28,0,.57,0,.86,0a11.2,11.2,0,0,0,4.56-21.43Z"/></g></g></g></g></svg>