<svg xmlns="http://www.w3.org/2000/svg" xmlns:xlink="http://www.w3.org/1999/xlink" viewBox="0 0 99.76 57.59"><defs><style>.cls-1{isolation:isolate;}.cls-2{opacity:0.5;}.cls-3{mix-blend-mode:multiply;}.cls-4{fill:#f6f6f6;opacity:0;}.cls-5{fill:#f5f5f5;opacity:0.01;}.cls-6{fill:#f4f4f4;opacity:0.02;}.cls-7{fill:#f3f3f3;opacity:0.03;}.cls-8{fill:#f2f2f2;opacity:0.04;}.cls-9{fill:#f1f1f1;opacity:0.05;}.cls-10{fill:#f0f0f0;opacity:0.07;}.cls-11{fill:#efefef;opacity:0.08;}.cls-12{fill:#eee;opacity:0.09;}.cls-13{fill:#ededed;opacity:0.1;}.cls-14{fill:#ececec;opacity:0.11;}.cls-15{fill:#ebebeb;opacity:0.12;}.cls-16{fill:#eaeaea;opacity:0.13;}.cls-17{fill:#e9e9e9;opacity:0.14;}.cls-18{fill:#e8e8e8;opacity:0.15;}.cls-19{fill:#e7e7e7;opacity:0.16;}.cls-20{fill:#e6e6e6;opacity:0.18;}.cls-21{fill:#e5e5e5;opacity:0.19;}.cls-22{fill:#e4e4e4;opacity:0.2;}.cls-23{fill:#e3e3e3;opacity:0.21;}.cls-24{fill:#e2e2e2;opacity:0.22;}.cls-25{fill:#e1e1e1;opacity:0.23;}.cls-26{fill:#e0e0e0;opacity:0.24;}.cls-27{fill:#e0e0df;opacity:0.25;}.cls-28{fill:#dfdfde;opacity:0.26;}.cls-29{fill:#dededd;opacity:0.27;}.cls-30{fill:#dddddc;opacity:0.29;}.cls-31{fill:#dcdcdb;opacity:0.3;}.cls-32{fill:#dbdbda;opacity:0.31;}.cls-33{fill:#dadad9;opacity:0.32;}.cls-34{fill:#d9d9d8;opacity:0.33;}.cls-35{fill:#d8d8d7;opacity:0.34;}.cls-36{fill:#d7d7d6;opacity:0.35;}.cls-37{fill:#d6d6d5;opacity:0.36;}.cls-38{fill:#d5d5d4;opacity:0.37;}.cls-39{fill:#d4d4d3;opacity:0.38;}.cls-40{fill:#d3d3d2;opacity:0.4;}.cls-41{fill:#d2d2d1;opacity:0.41;}.cls-42{fill:#d1d1d0;opacity:0.42;}.cls-43{fill:#d0d0cf;opacity:0.43;}.cls-44{fill:#cfcfce;opacity:0.44;}.cls-45{fill:#cececd;opacity:0.45;}.cls-46{fill:#cdcdcc;opacity:0.46;}.cls-47{fill:#cccccb;opacity:0.47;}.cls-48{fill:#cbcbca;opacity:0.48;}.cls-49{fill:#cacac9;opacity:0.49;}.cls-50{fill:#c9c9c9;opacity:0.51;}.cls-51{fill:#c8c8c8;opacity:0.52;}.cls-52{fill:#c7c7c7;opacity:0.53;}.cls-53{fill:#c6c6c6;opacity:0.54;}.cls-54{fill:#c5c5c5;opacity:0.55;}.cls-55{fill:#c4c4c4;opacity:0.56;}.cls-56{fill:#c3c3c3;opacity:0.57;}.cls-57{fill:#c2c2c2;opacity:0.58;}.cls-58{fill:#c1c1c1;opacity:0.59;}.cls-59{fill:silver;opacity:0.6;}.cls-60{fill:#bfbfbf;opacity:0.62;}.cls-61{fill:#bebebe;opacity:0.63;}.cls-62{fill:#bdbdbd;opacity:0.64;}.cls-63{fill:#bcbcbc;opacity:0.65;}.cls-64{fill:#bbb;opacity:0.66;}.cls-65{fill:#bababa;opacity:0.67;}.cls-66{fill:#b9b9b9;opacity:0.68;}.cls-67{fill:#b8b8b8;opacity:0.69;}.cls-68{fill:#b7b7b7;opacity:0.7;}.cls-69{fill:#b6b6b6;opacity:0.71;}.cls-70{fill:#b5b5b5;opacity:0.73;}.cls-71{fill:#b4b4b4;opacity:0.74;}.cls-72{fill:#b3b3b3;opacity:0.75;}.cls-73{fill:#b3b3b2;opacity:0.76;}.cls-74{fill:#b2b2b1;opacity:0.77;}.cls-75{fill:#b1b1b0;opacity:0.78;}.cls-76{fill:#b0b0af;opacity:0.79;}.cls-77{fill:#afafae;opacity:0.8;}.cls-78{fill:#aeaead;opacity:0.81;}.cls-79{fill:#adadac;opacity:0.82;}.cls-80{fill:#acacab;opacity:0.84;}.cls-81{fill:#ababaa;opacity:0.85;}.cls-82{fill:#aaaaa9;opacity:0.86;}.cls-83{fill:#a9a9a8;opacity:0.87;}.cls-84{fill:#a8a8a7;opacity:0.88;}.cls-85{fill:#a7a7a6;opacity:0.89;}.cls-86{fill:#a6a6a5;opacity:0.9;}.cls-87{fill:#a5a5a4;opacity:0.91;}.cls-88{fill:#a4a4a3;opacity:0.92;}.cls-89{fill:#a3a3a2;opacity:0.93;}.cls-90{fill:#a2a2a1;opacity:0.95;}.cls-91{fill:#a1a1a0;opacity:0.96;}.cls-92{fill:#a0a09f;opacity:0.97;}.cls-93{fill:#9f9f9e;opacity:0.98;}.cls-94{fill:#9e9e9d;opacity:0.99;}.cls-95{fill:#9d9d9c;}.cls-96{fill:url(#linear-gradient);}</style><linearGradient id="linear-gradient" x1="-70.47" y1="-215.77" x2="-123.87" y2="-162.36" gradientTransform="translate(-43.72 -163.56) rotate(180)" gradientUnits="userSpaceOnUse"><stop offset="0" stop-color="#fff"/><stop offset="0.65" stop-color="#f6f6f6"/></linearGradient></defs><title>cloud_4</title><g class="cls-1"><g id="Layer_2" data-name="Layer 2"><g id="_ÎÓÈ_1" data-name="—ÎÓÈ_1"><g class="cls-2"><g class="cls-3"><path class="cls-4" d="M5.4,35.52a11.85,11.85,0,0,0-.17,2A11.64,11.64,0,0,0,16.87,49.15a12.13,12.13,0,0,0,2.19-.21A14.7,14.7,0,0,0,41.8,51.81a13.13,13.13,0,0,0,22.5-1.23A14.78,14.78,0,0,0,87.49,38.43a15.07,15.07,0,0,0-.16-2.14A9.41,9.41,0,0,0,82.7,18.68c-.32,0-.63,0-.94,0A13.37,13.37,0,0,0,69.34,10.3a13.23,13.23,0,0,0-5.08,1A16,16,0,0,0,42,10.43c-.43.06-.86.13-1.28.23a9.31,9.31,0,0,0-16.64,1.25A9.19,9.19,0,0,0,9.8,18.14l-.7,0A9.1,9.1,0,0,0,5.4,35.52Z"/><path class="cls-5" d="M5.47,35.46a11.85,11.85,0,0,0-.17,2A11.65,11.65,0,0,0,17,49.09a12.11,12.11,0,0,0,2.18-.21,14.71,14.71,0,0,0,22.75,2.87,13.13,13.13,0,0,0,22.5-1.23A14.77,14.77,0,0,0,87.56,38.37a15.22,15.22,0,0,0-.15-2.15,9.41,9.41,0,0,0-4.63-17.61c-.32,0-.64,0-1,.05a13.35,13.35,0,0,0-17.5-7.41,16,16,0,0,0-22.24-.88,10.86,10.86,0,0,0-1.29.23,9.31,9.31,0,0,0-16.64,1.25A9.19,9.19,0,0,0,9.87,18.08c-.23,0-.46,0-.7,0a9.1,9.1,0,0,0-3.7,17.41Z"/><path class="cls-6" d="M5.55,35.4A11.64,11.64,0,0,0,17,49a12.14,12.14,0,0,0,2.19-.2A14.72,14.72,0,0,0,42,51.69a13.14,13.14,0,0,0,22.5-1.24A14.76,14.76,0,0,0,87.64,38.31a15.22,15.22,0,0,0-.16-2.15,9.41,9.41,0,0,0-4.63-17.61c-.32,0-.63,0-.94.05a13.38,13.38,0,0,0-17.5-7.42,16,16,0,0,0-22.25-.88c-.43.06-.86.14-1.28.23a9.3,9.3,0,0,0-16.64,1.26A9.19,9.19,0,0,0,10,18c-.23,0-.47,0-.7,0A9.1,9.1,0,0,0,5.55,35.4Z"/><path class="cls-7" d="M5.62,35.34A11.64,11.64,0,0,0,17.1,49a11.29,11.29,0,0,0,2.19-.21A14.71,14.71,0,0,0,42,51.63a13.14,13.14,0,0,0,22.5-1.24A14.77,14.77,0,0,0,87.71,38.25a15.22,15.22,0,0,0-.15-2.15,9.41,9.41,0,0,0-4.63-17.61c-.32,0-.64,0-1,.05a13.38,13.38,0,0,0-17.5-7.42,16,16,0,0,0-22.24-.88c-.44.06-.86.14-1.29.23a9.3,9.3,0,0,0-16.63,1.26A9.2,9.2,0,0,0,10,18q-.35,0-.69,0A9.1,9.1,0,0,0,5.62,35.34Z"/><path class="cls-8" d="M5.7,35.28A11.64,11.64,0,0,0,17.17,48.9a11.29,11.29,0,0,0,2.19-.21A14.7,14.7,0,0,0,42.1,51.56a13.13,13.13,0,0,0,22.5-1.23A14.78,14.78,0,0,0,87.79,38.19,15.22,15.22,0,0,0,87.63,36,9.41,9.41,0,0,0,83,18.43a7.3,7.3,0,0,0-.94.05,13.35,13.35,0,0,0-17.5-7.42,16,16,0,0,0-22.24-.88c-.44.06-.87.13-1.29.23a9.31,9.31,0,0,0-16.64,1.25A9.19,9.19,0,0,0,10.1,17.9c-.23,0-.46,0-.7,0A9.1,9.1,0,0,0,5.7,35.28Z"/><path class="cls-9" d="M5.77,35.21a11.85,11.85,0,0,0-.17,2A11.66,11.66,0,0,0,17.25,48.84a12.13,12.13,0,0,0,2.19-.21A14.7,14.7,0,0,0,42.18,51.5a13.13,13.13,0,0,0,22.5-1.23A14.78,14.78,0,0,0,87.87,38.12,15.33,15.33,0,0,0,87.71,36a9.41,9.41,0,0,0-4.63-17.6c-.32,0-.64,0-1,0A13.35,13.35,0,0,0,64.63,11a16,16,0,0,0-22.24-.88c-.44.06-.86.13-1.28.23A9.31,9.31,0,0,0,24.47,11.6a9.2,9.2,0,0,0-14.3,6.23l-.69,0A9.1,9.1,0,0,0,5.77,35.21Z"/><path class="cls-10" d="M5.85,35.15a11.85,11.85,0,0,0-.17,2A11.65,11.65,0,0,0,17.32,48.78a12.13,12.13,0,0,0,2.19-.21,14.72,14.72,0,0,0,22.74,2.87,13.13,13.13,0,0,0,22.5-1.23A14.78,14.78,0,0,0,87.94,38.06a15.22,15.22,0,0,0-.16-2.15A9.41,9.41,0,0,0,83.15,18.3c-.32,0-.63,0-.94.05a13.35,13.35,0,0,0-17.5-7.41,16,16,0,0,0-22.24-.88,10.86,10.86,0,0,0-1.29.23,9.31,9.31,0,0,0-16.64,1.25,9.19,9.19,0,0,0-14.29,6.23c-.23,0-.46,0-.7,0a9.1,9.1,0,0,0-3.7,17.41Z"/><path class="cls-11" d="M5.92,35.09A11.64,11.64,0,0,0,17.4,48.71a12.14,12.14,0,0,0,2.19-.2,14.72,14.72,0,0,0,22.74,2.87,13.14,13.14,0,0,0,22.5-1.24A14.76,14.76,0,0,0,88,38a15.22,15.22,0,0,0-.16-2.15,9.41,9.41,0,0,0-4.63-17.61c-.32,0-.64,0-1,.05a13.37,13.37,0,0,0-17.49-7.42A16,16,0,0,0,42.54,10c-.43.06-.86.14-1.28.23a9.3,9.3,0,0,0-16.64,1.26,9.19,9.19,0,0,0-14.29,6.23l-.7,0A9.1,9.1,0,0,0,5.92,35.09Z"/><path class="cls-12" d="M6,35A11.64,11.64,0,0,0,17.47,48.65a11.29,11.29,0,0,0,2.19-.21A14.71,14.71,0,0,0,42.4,51.32a13.14,13.14,0,0,0,22.5-1.24A14.78,14.78,0,0,0,88.09,37.94a13.86,13.86,0,0,0-.16-2.15A9.41,9.41,0,0,0,83.3,18.18c-.31,0-.63,0-.94.05a13.38,13.38,0,0,0-17.5-7.42,16,16,0,0,0-22.24-.88c-.44.06-.87.14-1.29.23a9.3,9.3,0,0,0-16.64,1.26A9.09,9.09,0,0,0,19.5,9.81a9.19,9.19,0,0,0-9.1,7.84c-.23,0-.46,0-.7,0A9.1,9.1,0,0,0,6,35Z"/><path class="cls-13" d="M6.08,35a10.69,10.69,0,0,0-.18,2A11.65,11.65,0,0,0,17.55,48.59a11.29,11.29,0,0,0,2.19-.21,14.7,14.7,0,0,0,22.74,2.87A13.13,13.13,0,0,0,65,50,14.78,14.78,0,0,0,88.17,37.88,15.22,15.22,0,0,0,88,35.73a9.41,9.41,0,0,0-4.63-17.61c-.32,0-.63,0-.94,0A13.37,13.37,0,0,0,70,9.74a13.19,13.19,0,0,0-5.08,1,16,16,0,0,0-22.25-.88c-.43.06-.86.13-1.28.23a9.31,9.31,0,0,0-16.64,1.25,9.19,9.19,0,0,0-14.29,6.24c-.23,0-.47,0-.7,0A9.1,9.1,0,0,0,6.08,35Z"/><path class="cls-14" d="M6.15,34.9a11.85,11.85,0,0,0-.17,2A11.65,11.65,0,0,0,17.62,48.53a12.13,12.13,0,0,0,2.19-.21,14.7,14.7,0,0,0,22.74,2.87A13.13,13.13,0,0,0,65.05,50,14.78,14.78,0,0,0,88.24,37.81a14,14,0,0,0-.16-2.15,9.41,9.41,0,0,0-4.63-17.61c-.31,0-.63,0-.94.05A13.35,13.35,0,0,0,65,10.69a16,16,0,0,0-22.24-.88,10.86,10.86,0,0,0-1.29.23,9.31,9.31,0,0,0-16.64,1.25,9.19,9.19,0,0,0-14.29,6.23c-.23,0-.46,0-.7,0A9.1,9.1,0,0,0,6.15,34.9Z"/><path class="cls-15" d="M6.23,34.84A11.59,11.59,0,0,0,17.7,48.47a12.13,12.13,0,0,0,2.19-.21,14.72,14.72,0,0,0,22.74,2.87,13.14,13.14,0,0,0,22.5-1.24A14.76,14.76,0,0,0,88.32,37.75a15.22,15.22,0,0,0-.16-2.15A9.41,9.41,0,0,0,83.53,18c-.32,0-.63,0-.94.05A13.37,13.37,0,0,0,70.17,9.62a13.23,13.23,0,0,0-5.08,1,16,16,0,0,0-22.25-.88,11.07,11.07,0,0,0-1.28.23,9.31,9.31,0,0,0-16.64,1.25,9.19,9.19,0,0,0-14.29,6.23c-.23,0-.47,0-.7,0a9.1,9.1,0,0,0-3.7,17.41Z"/><path class="cls-16" d="M6.3,34.78A11.64,11.64,0,0,0,17.78,48.4,11.27,11.27,0,0,0,20,48.19a14.72,14.72,0,0,0,22.75,2.88A13.13,13.13,0,0,0,65.2,49.83,14.78,14.78,0,0,0,88.39,37.69a15.22,15.22,0,0,0-.15-2.15,9.41,9.41,0,0,0-4.63-17.61c-.32,0-.64,0-1,.05a13.38,13.38,0,0,0-17.5-7.42,16,16,0,0,0-22.24-.88c-.44.06-.87.14-1.29.23A9.3,9.3,0,0,0,25,11.17,9.2,9.2,0,0,0,10.7,17.4c-.23,0-.46,0-.7,0A9.1,9.1,0,0,0,6.3,34.78Z"/><path class="cls-17" d="M6.38,34.72A11.64,11.64,0,0,0,17.85,48.34,11.29,11.29,0,0,0,20,48.13,14.71,14.71,0,0,0,42.78,51a13.14,13.14,0,0,0,22.5-1.24A14.78,14.78,0,0,0,88.47,37.63a15.22,15.22,0,0,0-.16-2.15,9.41,9.41,0,0,0-4.63-17.61c-.32,0-.63,0-.94.05a13.38,13.38,0,0,0-17.5-7.42A16,16,0,0,0,43,9.62c-.43.06-.86.14-1.28.23a9.3,9.3,0,0,0-16.64,1.26,9.19,9.19,0,0,0-14.29,6.23c-.23,0-.47,0-.7,0a9.1,9.1,0,0,0-3.7,17.41Z"/><path class="cls-18" d="M6.45,34.66A11.64,11.64,0,0,0,17.93,48.28a11.19,11.19,0,0,0,2.18-.21,14.71,14.71,0,0,0,22.75,2.87,13.13,13.13,0,0,0,22.5-1.23A14.77,14.77,0,0,0,88.54,37.56a15.18,15.18,0,0,0-.15-2.14,9.41,9.41,0,0,0-4.63-17.61c-.32,0-.64,0-1,0a13.35,13.35,0,0,0-17.5-7.41,16,16,0,0,0-22.24-.88c-.44.06-.87.13-1.29.23A9.3,9.3,0,0,0,25.15,11a9.2,9.2,0,0,0-14.3,6.24c-.23,0-.46,0-.7,0a9.1,9.1,0,0,0-3.7,17.41Z"/><path class="cls-19" d="M6.53,34.59a11.85,11.85,0,0,0-.17,2A11.65,11.65,0,0,0,18,48.22,12.13,12.13,0,0,0,20.19,48a14.7,14.7,0,0,0,22.74,2.87,13.13,13.13,0,0,0,22.5-1.23A14.78,14.78,0,0,0,88.62,37.5a15.33,15.33,0,0,0-.16-2.15,9.41,9.41,0,0,0-4.63-17.61c-.32,0-.63,0-.94.05a13.35,13.35,0,0,0-17.5-7.41A16,16,0,0,0,43.14,9.5a11.07,11.07,0,0,0-1.28.23A9.31,9.31,0,0,0,25.22,11a9.19,9.19,0,0,0-14.29,6.23l-.7,0a9.1,9.1,0,0,0-3.7,17.41Z"/><path class="cls-20" d="M6.6,34.53A11.64,11.64,0,0,0,18.08,48.15a11.94,11.94,0,0,0,2.18-.2A14.73,14.73,0,0,0,43,50.82a13.14,13.14,0,0,0,22.5-1.24A14.76,14.76,0,0,0,88.7,37.44a15.22,15.22,0,0,0-.16-2.15,9.41,9.41,0,0,0-4.63-17.61c-.32,0-.64,0-1,.05a13.38,13.38,0,0,0-17.5-7.42,16,16,0,0,0-22.24-.88c-.44.06-.86.14-1.29.23A9.3,9.3,0,0,0,25.3,10.92,9.2,9.2,0,0,0,11,17.15c-.23,0-.46,0-.7,0A9.1,9.1,0,0,0,6.6,34.53Z"/><path class="cls-21" d="M6.68,34.47A11.64,11.64,0,0,0,18.15,48.09a11.29,11.29,0,0,0,2.19-.21,14.71,14.71,0,0,0,22.74,2.88,13.14,13.14,0,0,0,22.5-1.24A14.78,14.78,0,0,0,88.77,37.38a15.22,15.22,0,0,0-.16-2.15A9.41,9.41,0,0,0,84,17.62c-.32,0-.63,0-.94.05a13.38,13.38,0,0,0-17.5-7.42A16,16,0,0,0,43.3,9.37c-.44.06-.87.14-1.29.23a9.3,9.3,0,0,0-16.64,1.26,9.19,9.19,0,0,0-14.29,6.23c-.23,0-.46,0-.7,0a9.1,9.1,0,0,0-3.7,17.41Z"/><path class="cls-22" d="M6.75,34.41A11.64,11.64,0,0,0,18.23,48a11.29,11.29,0,0,0,2.19-.21A14.71,14.71,0,0,0,43.16,50.7a13.14,13.14,0,0,0,22.5-1.24A14.78,14.78,0,0,0,88.85,37.32a15.22,15.22,0,0,0-.16-2.15,9.41,9.41,0,0,0-4.63-17.61c-.32,0-.64,0-1,.05a13.35,13.35,0,0,0-17.5-7.42,16,16,0,0,0-22.24-.88c-.43.06-.86.14-1.28.23A9.3,9.3,0,0,0,25.45,10.8,9.19,9.19,0,0,0,11.15,17q-.35,0-.69,0A9.1,9.1,0,0,0,6.75,34.41Z"/><path class="cls-23" d="M6.83,34.34a11.85,11.85,0,0,0-.17,2A11.64,11.64,0,0,0,18.3,48a12.13,12.13,0,0,0,2.19-.21,14.7,14.7,0,0,0,22.74,2.87,13.13,13.13,0,0,0,22.5-1.23A14.78,14.78,0,0,0,88.92,37.25a13.73,13.73,0,0,0-.16-2.14A9.41,9.41,0,0,0,84.13,17.5c-.31,0-.63,0-.94,0a13.35,13.35,0,0,0-17.5-7.41,16,16,0,0,0-22.24-.88c-.44.06-.87.13-1.29.23a9.31,9.31,0,0,0-16.64,1.25A9.19,9.19,0,0,0,11.23,17l-.7,0a9.09,9.09,0,0,0-3.7,17.4Z"/><path class="cls-24" d="M6.9,34.28a11.85,11.85,0,0,0-.17,2A11.66,11.66,0,0,0,18.38,47.91a12.13,12.13,0,0,0,2.19-.21,14.7,14.7,0,0,0,22.74,2.87,13.13,13.13,0,0,0,22.5-1.23A14.78,14.78,0,0,0,89,37.19,15.33,15.33,0,0,0,88.84,35a9.41,9.41,0,0,0-4.63-17.61c-.32,0-.63,0-.95.05a13.35,13.35,0,0,0-17.5-7.41,16,16,0,0,0-22.24-.88,11.07,11.07,0,0,0-1.28.23A9.31,9.31,0,0,0,25.6,10.67,9.2,9.2,0,0,0,11.3,16.9l-.69,0A9.1,9.1,0,0,0,6.9,34.28Z"/><path class="cls-25" d="M7,34.22A11.64,11.64,0,0,0,18.45,47.84a12.14,12.14,0,0,0,2.19-.2,14.72,14.72,0,0,0,22.74,2.87,13.14,13.14,0,0,0,22.5-1.24A14.76,14.76,0,0,0,89.07,37.13,13.86,13.86,0,0,0,88.91,35a9.41,9.41,0,0,0-4.63-17.61c-.31,0-.63,0-.94.05A13.38,13.38,0,0,0,65.84,10,16,16,0,0,0,43.6,9.12c-.44.06-.87.14-1.29.23a9.3,9.3,0,0,0-16.64,1.26A9.09,9.09,0,0,0,20.48,9a9.19,9.19,0,0,0-9.1,7.84c-.23,0-.46,0-.7,0A9.1,9.1,0,0,0,7,34.22Z"/><path class="cls-26" d="M7.06,34.16A11.59,11.59,0,0,0,18.53,47.78a11.29,11.29,0,0,0,2.19-.21,14.71,14.71,0,0,0,22.74,2.88A13.14,13.14,0,0,0,66,49.21,14.78,14.78,0,0,0,89.15,37.07,15.22,15.22,0,0,0,89,34.92a9.41,9.41,0,0,0-4.63-17.61c-.32,0-.63,0-.94.05A13.36,13.36,0,0,0,71,8.94a13.22,13.22,0,0,0-5.08,1,16,16,0,0,0-22.25-.88c-.43.06-.86.14-1.28.23a9.3,9.3,0,0,0-16.64,1.26,9.19,9.19,0,0,0-14.29,6.23c-.23,0-.47,0-.7,0a9.1,9.1,0,0,0-3.7,17.41Z"/><path class="cls-27" d="M7.13,34.1A11.64,11.64,0,0,0,18.61,47.72a11.27,11.27,0,0,0,2.18-.21,14.71,14.71,0,0,0,22.75,2.87A13.12,13.12,0,0,0,66,49.15,14.78,14.78,0,0,0,89.22,37a15.22,15.22,0,0,0-.15-2.15,9.41,9.41,0,0,0-4.63-17.61,7.46,7.46,0,0,0-1,.05A13.35,13.35,0,0,0,66,9.88,16,16,0,0,0,43.75,9c-.44.06-.87.13-1.29.23a9.31,9.31,0,0,0-16.64,1.25,9.19,9.19,0,0,0-14.29,6.24c-.23,0-.46,0-.7,0A9.1,9.1,0,0,0,7.13,34.1Z"/><path class="cls-28" d="M7.21,34A11.85,11.85,0,0,0,7,36,11.65,11.65,0,0,0,18.68,47.66a12.13,12.13,0,0,0,2.19-.21,14.7,14.7,0,0,0,22.74,2.87,13.13,13.13,0,0,0,22.5-1.23A14.78,14.78,0,0,0,89.3,36.94a15.33,15.33,0,0,0-.16-2.15,9.41,9.41,0,0,0-4.63-17.6c-.32,0-.63,0-.94,0A13.37,13.37,0,0,0,71.15,8.81a13.23,13.23,0,0,0-5.08,1,16,16,0,0,0-22.25-.88c-.43.06-.86.13-1.28.23A9.31,9.31,0,0,0,25.9,10.42a9.19,9.19,0,0,0-14.29,6.23l-.7,0A9.1,9.1,0,0,0,7.21,34Z"/><path class="cls-29" d="M7.28,34a11.85,11.85,0,0,0-.17,2A11.65,11.65,0,0,0,18.76,47.6a12.11,12.11,0,0,0,2.18-.21,14.71,14.71,0,0,0,22.75,2.87A13.12,13.12,0,0,0,66.18,49,14.78,14.78,0,0,0,89.37,36.88a15.22,15.22,0,0,0-.15-2.15,9.41,9.41,0,0,0-4.63-17.61c-.32,0-.64,0-1,.05a13.35,13.35,0,0,0-17.5-7.41A16,16,0,0,0,43.9,8.88a10.86,10.86,0,0,0-1.29.23A9.31,9.31,0,0,0,26,10.36a9.19,9.19,0,0,0-14.29,6.23c-.23,0-.46,0-.7,0A9.1,9.1,0,0,0,7.28,34Z"/><path class="cls-30" d="M7.36,33.91A11.64,11.64,0,0,0,18.83,47.53a12.14,12.14,0,0,0,2.19-.2A14.72,14.72,0,0,0,43.76,50.2,13.14,13.14,0,0,0,66.26,49,14.76,14.76,0,0,0,89.45,36.82a15.22,15.22,0,0,0-.16-2.15,9.41,9.41,0,0,0-4.63-17.61c-.32,0-.63,0-.94.05a13.38,13.38,0,0,0-17.5-7.42A16,16,0,0,0,44,8.81c-.43.06-.86.14-1.28.23A9.3,9.3,0,0,0,26.05,10.3a9.19,9.19,0,0,0-14.29,6.23c-.23,0-.47,0-.7,0a9.1,9.1,0,0,0-3.7,17.41Z"/><path class="cls-31" d="M7.43,33.85A11.64,11.64,0,0,0,18.91,47.47a11.12,11.12,0,0,0,2.18-.21,14.72,14.72,0,0,0,22.75,2.88,13.14,13.14,0,0,0,22.5-1.24A14.77,14.77,0,0,0,89.52,36.76a15.22,15.22,0,0,0-.15-2.15A9.41,9.41,0,0,0,84.74,17c-.32,0-.64,0-.95.05a13.38,13.38,0,0,0-17.5-7.42,16,16,0,0,0-22.24-.88c-.44.06-.86.14-1.29.23a9.3,9.3,0,0,0-16.63,1.26,9.2,9.2,0,0,0-14.3,6.23c-.23,0-.46,0-.7,0a9.1,9.1,0,0,0-3.7,17.41Z"/><path class="cls-32" d="M7.51,33.79A11.64,11.64,0,0,0,19,47.41a11.29,11.29,0,0,0,2.19-.21,14.7,14.7,0,0,0,22.74,2.87,13.13,13.13,0,0,0,22.5-1.23A14.78,14.78,0,0,0,89.6,36.7a15.22,15.22,0,0,0-.16-2.15,9.41,9.41,0,0,0-4.63-17.61c-.32,0-.63,0-.94,0a13.35,13.35,0,0,0-17.5-7.41,16,16,0,0,0-22.25-.88c-.43.06-.86.13-1.28.23A9.31,9.31,0,0,0,26.2,10.17a9.19,9.19,0,0,0-14.29,6.24c-.23,0-.46,0-.7,0a9.1,9.1,0,0,0-3.7,17.41Z"/><path class="cls-33" d="M7.58,33.72a11.85,11.85,0,0,0-.17,2A11.66,11.66,0,0,0,19.06,47.35a12.13,12.13,0,0,0,2.19-.21A14.7,14.7,0,0,0,44,50a13.13,13.13,0,0,0,22.5-1.23A14.77,14.77,0,0,0,89.67,36.63a15.33,15.33,0,0,0-.15-2.15,9.41,9.41,0,0,0-4.63-17.6c-.32,0-.64,0-1,0a13.35,13.35,0,0,0-17.5-7.41A16,16,0,0,0,44.2,8.63c-.44.06-.86.13-1.29.23a9.3,9.3,0,0,0-16.63,1.25A9.2,9.2,0,0,0,12,16.34c-.23,0-.46,0-.69,0A9.1,9.1,0,0,0,7.58,33.72Z"/><path class="cls-34" d="M7.66,33.66a11.85,11.85,0,0,0-.17,2A11.65,11.65,0,0,0,19.13,47.29a12.13,12.13,0,0,0,2.19-.21A14.72,14.72,0,0,0,44.06,50a13.13,13.13,0,0,0,22.5-1.23A14.78,14.78,0,0,0,89.75,36.57a15.22,15.22,0,0,0-.16-2.15A9.41,9.41,0,0,0,85,16.81c-.32,0-.63,0-.94.05a13.35,13.35,0,0,0-17.5-7.41,16,16,0,0,0-22.24-.88A10.86,10.86,0,0,0,43,8.8a9.31,9.31,0,0,0-16.64,1.25,9.19,9.19,0,0,0-14.29,6.23c-.23,0-.46,0-.7,0a9.1,9.1,0,0,0-3.7,17.41Z"/><path class="cls-35" d="M7.73,33.6A11.64,11.64,0,0,0,19.21,47.22,12.14,12.14,0,0,0,21.4,47a14.72,14.72,0,0,0,22.74,2.87,13.14,13.14,0,0,0,22.5-1.24A14.76,14.76,0,0,0,89.83,36.51a15.22,15.22,0,0,0-.16-2.15A9.41,9.41,0,0,0,85,16.75c-.32,0-.64,0-1,.05a13.38,13.38,0,0,0-17.5-7.42A16,16,0,0,0,44.35,8.5c-.44.06-.86.14-1.28.23A9.3,9.3,0,0,0,26.43,10a9.2,9.2,0,0,0-14.3,6.23q-.35,0-.69,0A9.1,9.1,0,0,0,7.73,33.6Z"/><path class="cls-36" d="M7.81,33.54A11.64,11.64,0,0,0,19.28,47.16,11.29,11.29,0,0,0,21.47,47a14.71,14.71,0,0,0,22.74,2.88,13.14,13.14,0,0,0,22.5-1.24A14.78,14.78,0,0,0,89.9,36.45a13.86,13.86,0,0,0-.16-2.15,9.41,9.41,0,0,0-4.63-17.61c-.31,0-.63,0-.94,0a13.35,13.35,0,0,0-17.5-7.42,16,16,0,0,0-22.24-.88c-.44.06-.87.14-1.29.23A9.3,9.3,0,0,0,26.5,9.93a9.1,9.1,0,0,0-5.19-1.62,9.2,9.2,0,0,0-9.1,7.85c-.23,0-.46,0-.7,0a9.1,9.1,0,0,0-3.7,17.41Z"/><path class="cls-37" d="M7.88,33.48A11.64,11.64,0,0,0,19.36,47.1a11.29,11.29,0,0,0,2.19-.21,14.7,14.7,0,0,0,22.74,2.87,13.13,13.13,0,0,0,22.5-1.23A14.78,14.78,0,0,0,90,36.39a15.22,15.22,0,0,0-.16-2.15,9.41,9.41,0,0,0-4.63-17.61c-.32,0-.63,0-.94,0A13.37,13.37,0,0,0,71.83,8.25a13.19,13.19,0,0,0-5.08,1A16,16,0,0,0,44.5,8.38c-.43.06-.86.13-1.28.23A9.31,9.31,0,0,0,26.58,9.86,9.19,9.19,0,0,0,12.29,16.1l-.7,0A9.1,9.1,0,0,0,7.88,33.48Z"/><path class="cls-38" d="M8,33.41a11.85,11.85,0,0,0-.17,2A11.65,11.65,0,0,0,19.43,47a12.13,12.13,0,0,0,2.19-.21A14.7,14.7,0,0,0,44.36,49.7a13.13,13.13,0,0,0,22.5-1.23A14.78,14.78,0,0,0,90.05,36.32a14,14,0,0,0-.16-2.15,9.41,9.41,0,0,0-4.63-17.61c-.31,0-.63,0-.94.05A13.35,13.35,0,0,0,66.82,9.2a16,16,0,0,0-22.24-.88,10.86,10.86,0,0,0-1.29.23A9.31,9.31,0,0,0,26.65,9.8,9.19,9.19,0,0,0,12.36,16c-.23,0-.46,0-.7,0A9.1,9.1,0,0,0,8,33.41Z"/><path class="cls-39" d="M8,33.35a10.72,10.72,0,0,0-.18,2A11.66,11.66,0,0,0,19.51,47a12.13,12.13,0,0,0,2.19-.21,14.72,14.72,0,0,0,22.74,2.87,13.14,13.14,0,0,0,22.5-1.24A14.76,14.76,0,0,0,90.13,36.26,15.22,15.22,0,0,0,90,34.11,9.41,9.41,0,0,0,85.34,16.5c-.32,0-.63,0-.94.05A13.37,13.37,0,0,0,72,8.13a13.19,13.19,0,0,0-5.08,1,16,16,0,0,0-22.25-.89c-.43.06-.86.14-1.28.24A9.3,9.3,0,0,0,26.73,9.74,9.19,9.19,0,0,0,12.44,16l-.7,0A9.1,9.1,0,0,0,8,33.35Z"/><path class="cls-40" d="M8.11,33.29A11.64,11.64,0,0,0,19.59,46.91a11.27,11.27,0,0,0,2.18-.21,14.72,14.72,0,0,0,22.75,2.88A13.13,13.13,0,0,0,67,48.34,14.78,14.78,0,0,0,90.2,36.2a15.22,15.22,0,0,0-.15-2.15,9.41,9.41,0,0,0-4.63-17.61c-.32,0-.64,0-1,0A13.38,13.38,0,0,0,67,9.07a16,16,0,0,0-22.24-.88c-.44.06-.87.14-1.29.23A9.3,9.3,0,0,0,26.8,9.68a9.07,9.07,0,0,0-5.19-1.61,9.2,9.2,0,0,0-9.1,7.84c-.23,0-.46,0-.7,0a9.1,9.1,0,0,0-3.7,17.41Z"/><path class="cls-41" d="M8.19,33.23A11.64,11.64,0,0,0,19.66,46.85a11.29,11.29,0,0,0,2.19-.21,14.71,14.71,0,0,0,22.74,2.88,13.14,13.14,0,0,0,22.5-1.24A14.78,14.78,0,0,0,90.28,36.14,15.22,15.22,0,0,0,90.12,34a9.41,9.41,0,0,0-4.63-17.61,7.3,7.3,0,0,0-.94.05A13.37,13.37,0,0,0,72.13,8a13.23,13.23,0,0,0-5.08,1A16,16,0,0,0,44.8,8.13c-.43.06-.86.14-1.28.23A9.3,9.3,0,0,0,26.88,9.62a9.18,9.18,0,0,0-14.29,6.23c-.23,0-.47,0-.7,0a9.1,9.1,0,0,0-3.7,17.41Z"/><path class="cls-42" d="M8.26,33.16a11.85,11.85,0,0,0-.17,2A11.64,11.64,0,0,0,19.74,46.79a11.27,11.27,0,0,0,2.18-.21,14.71,14.71,0,0,0,22.75,2.87,13.12,13.12,0,0,0,22.49-1.23A14.78,14.78,0,0,0,90.35,36.07a15.08,15.08,0,0,0-.15-2.14,9.41,9.41,0,0,0-4.63-17.61c-.32,0-.64,0-.95,0A13.35,13.35,0,0,0,67.12,9a16,16,0,0,0-22.24-.88c-.44.06-.87.13-1.29.23A9.31,9.31,0,0,0,27,9.55a9.19,9.19,0,0,0-14.29,6.24c-.23,0-.46,0-.7,0a9.09,9.09,0,0,0-3.7,17.4Z"/><path class="cls-43" d="M8.34,33.1a11.85,11.85,0,0,0-.17,2A11.65,11.65,0,0,0,19.81,46.73,12.13,12.13,0,0,0,22,46.52a14.7,14.7,0,0,0,22.74,2.87,13.13,13.13,0,0,0,22.5-1.23A14.78,14.78,0,0,0,90.43,36a15.33,15.33,0,0,0-.16-2.15,9.41,9.41,0,0,0-4.63-17.61c-.32,0-.63,0-.94.05A13.35,13.35,0,0,0,67.2,8.89,16,16,0,0,0,45,8a11.07,11.07,0,0,0-1.28.23A9.31,9.31,0,0,0,27,9.49a9.19,9.19,0,0,0-14.29,6.23l-.7,0A9.1,9.1,0,0,0,8.34,33.1Z"/><path class="cls-44" d="M8.41,33A11.64,11.64,0,0,0,19.89,46.66a12,12,0,0,0,2.18-.2,14.73,14.73,0,0,0,22.75,2.87,13.14,13.14,0,0,0,22.5-1.24A14.76,14.76,0,0,0,90.5,36a15.22,15.22,0,0,0-.15-2.15,9.41,9.41,0,0,0-4.63-17.61c-.32,0-.64,0-1,0a13.38,13.38,0,0,0-17.5-7.42A16,16,0,0,0,45,7.94c-.44.06-.87.14-1.29.23A9.3,9.3,0,0,0,27.11,9.43a9.2,9.2,0,0,0-14.3,6.23c-.23,0-.46,0-.7,0A9.1,9.1,0,0,0,8.41,33Z"/><path class="cls-45" d="M8.49,33A11.64,11.64,0,0,0,20,46.6a11.29,11.29,0,0,0,2.19-.21,14.71,14.71,0,0,0,22.74,2.88A13.14,13.14,0,0,0,67.39,48,14.78,14.78,0,0,0,90.58,35.89a15.22,15.22,0,0,0-.16-2.15,9.41,9.41,0,0,0-4.63-17.61c-.32,0-.63,0-.94.05a13.38,13.38,0,0,0-17.5-7.42,16,16,0,0,0-22.24-.88c-.44.06-.87.14-1.29.23A9.3,9.3,0,0,0,27.18,9.37,9.19,9.19,0,0,0,12.89,15.6c-.23,0-.46,0-.7,0A9.1,9.1,0,0,0,8.49,33Z"/><path class="cls-46" d="M8.56,32.92A11.64,11.64,0,0,0,20,46.54a11.29,11.29,0,0,0,2.19-.21A14.71,14.71,0,0,0,45,49.21,13.14,13.14,0,0,0,67.47,48,14.78,14.78,0,0,0,90.66,35.83a15.22,15.22,0,0,0-.16-2.15,9.41,9.41,0,0,0-4.63-17.61c-.32,0-.64,0-1,.05A13.35,13.35,0,0,0,67.42,8.7a16,16,0,0,0-22.24-.88c-.43.06-.86.14-1.28.23A9.3,9.3,0,0,0,27.26,9.31,9.19,9.19,0,0,0,13,15.54l-.69,0A9.1,9.1,0,0,0,8.56,32.92Z"/><path class="cls-47" d="M8.64,32.85a11.85,11.85,0,0,0-.17,2A11.65,11.65,0,0,0,20.11,46.48a12.13,12.13,0,0,0,2.19-.21A14.7,14.7,0,0,0,45,49.14a13.13,13.13,0,0,0,22.5-1.23A14.78,14.78,0,0,0,90.73,35.76a15.07,15.07,0,0,0-.16-2.14A9.41,9.41,0,0,0,85.94,16c-.32,0-.63,0-.94,0A13.35,13.35,0,0,0,67.5,8.64a16,16,0,0,0-22.24-.88c-.44.06-.87.13-1.29.23A9.31,9.31,0,0,0,27.33,9.24,9.19,9.19,0,0,0,13,15.47c-.23,0-.46,0-.7,0a9.1,9.1,0,0,0-3.7,17.41Z"/><path class="cls-48" d="M8.71,32.79a11.85,11.85,0,0,0-.17,2A11.66,11.66,0,0,0,20.19,46.42a12.13,12.13,0,0,0,2.19-.21,14.7,14.7,0,0,0,22.74,2.87,13.13,13.13,0,0,0,22.5-1.23A14.78,14.78,0,0,0,90.81,35.7a15.22,15.22,0,0,0-.16-2.15A9.41,9.41,0,0,0,86,15.94c-.32,0-.64,0-1,.05A13.35,13.35,0,0,0,72.66,7.57a13.19,13.19,0,0,0-5.08,1A16,16,0,0,0,45.33,7.7a11.07,11.07,0,0,0-1.28.23A9.31,9.31,0,0,0,27.41,9.18a9.19,9.19,0,0,0-14.29,6.23l-.7,0A9.1,9.1,0,0,0,8.71,32.79Z"/><path class="cls-49" d="M8.79,32.73A11.64,11.64,0,0,0,20.26,46.35a12.14,12.14,0,0,0,2.19-.2A14.72,14.72,0,0,0,45.19,49a13.14,13.14,0,0,0,22.5-1.24A14.76,14.76,0,0,0,90.88,35.64a13.86,13.86,0,0,0-.16-2.15,9.41,9.41,0,0,0-4.63-17.61c-.31,0-.63,0-.94,0a13.38,13.38,0,0,0-17.5-7.42,16,16,0,0,0-22.24-.88c-.44.06-.87.14-1.29.23A9.3,9.3,0,0,0,27.48,9.12a9.19,9.19,0,0,0-14.29,6.23c-.23,0-.46,0-.7,0a9.1,9.1,0,0,0-3.7,17.41Z"/><path class="cls-50" d="M8.87,32.67a10.72,10.72,0,0,0-.18,2A11.65,11.65,0,0,0,20.34,46.29a11.29,11.29,0,0,0,2.19-.21A14.71,14.71,0,0,0,45.27,49a13.14,13.14,0,0,0,22.5-1.24A14.78,14.78,0,0,0,91,35.58a15.22,15.22,0,0,0-.16-2.15,9.41,9.41,0,0,0-4.63-17.61c-.32,0-.63,0-.94,0A13.36,13.36,0,0,0,72.81,7.45a13.19,13.19,0,0,0-5.08,1,16,16,0,0,0-22.25-.88c-.43.06-.86.14-1.28.23A9.3,9.3,0,0,0,27.56,9.06a9.19,9.19,0,0,0-14.29,6.23c-.23,0-.47,0-.7,0a9.1,9.1,0,0,0-3.7,17.41Z"/><path class="cls-51" d="M8.94,32.61A11.64,11.64,0,0,0,20.41,46.23,11.29,11.29,0,0,0,22.6,46a14.7,14.7,0,0,0,22.74,2.87,13.13,13.13,0,0,0,22.5-1.23A14.78,14.78,0,0,0,91,35.52a15.22,15.22,0,0,0-.15-2.15,9.41,9.41,0,0,0-4.63-17.61,7.46,7.46,0,0,0-1,.05A13.35,13.35,0,0,0,67.8,8.39a16,16,0,0,0-22.24-.88c-.44.06-.87.13-1.29.23A9.31,9.31,0,0,0,27.63,9a9.19,9.19,0,0,0-14.29,6.24c-.23,0-.46,0-.7,0a9.1,9.1,0,0,0-3.7,17.41Z"/><path class="cls-52" d="M9,32.54a11.85,11.85,0,0,0-.18,2A11.66,11.66,0,0,0,20.49,46.17,12.13,12.13,0,0,0,22.68,46a14.7,14.7,0,0,0,22.74,2.87,13.13,13.13,0,0,0,22.5-1.23A14.78,14.78,0,0,0,91.11,35.45,15.33,15.33,0,0,0,91,33.3a9.41,9.41,0,0,0-4.63-17.6c-.32,0-.63,0-.94,0A13.37,13.37,0,0,0,73,7.32a13.23,13.23,0,0,0-5.08,1,16,16,0,0,0-22.25-.88c-.43.06-.86.13-1.28.23A9.31,9.31,0,0,0,27.71,8.93a9.19,9.19,0,0,0-14.29,6.23l-.7,0A9.1,9.1,0,0,0,9,32.54Z"/><path class="cls-53" d="M9.09,32.48A11.65,11.65,0,0,0,20.57,46.11a12.11,12.11,0,0,0,2.18-.21A14.73,14.73,0,0,0,45.5,48.77,13.12,13.12,0,0,0,68,47.54,14.78,14.78,0,0,0,91.18,35.39,15.22,15.22,0,0,0,91,33.24,9.41,9.41,0,0,0,86.4,15.63c-.32,0-.64,0-1,0A13.35,13.35,0,0,0,68,8.27a16,16,0,0,0-22.24-.88,10.86,10.86,0,0,0-1.29.23A9.3,9.3,0,0,0,27.79,8.87a9.2,9.2,0,0,0-14.3,6.23c-.23,0-.46,0-.7,0a9.1,9.1,0,0,0-3.7,17.41Z"/><path class="cls-54" d="M9.17,32.42A11.64,11.64,0,0,0,20.64,46a12.14,12.14,0,0,0,2.19-.2,14.72,14.72,0,0,0,22.74,2.87,13.14,13.14,0,0,0,22.5-1.24A14.78,14.78,0,0,0,91.26,35.33a15.22,15.22,0,0,0-.16-2.15,9.41,9.41,0,0,0-4.63-17.61c-.32,0-.63,0-.94,0A13.38,13.38,0,0,0,68,8.2a16,16,0,0,0-22.25-.88c-.43.06-.86.14-1.28.23A9.3,9.3,0,0,0,27.86,8.81,9.19,9.19,0,0,0,13.57,15c-.23,0-.47,0-.7,0a9.1,9.1,0,0,0-3.7,17.41Z"/><path class="cls-55" d="M9.24,32.36A11.64,11.64,0,0,0,20.72,46a11.19,11.19,0,0,0,2.18-.21,14.72,14.72,0,0,0,22.75,2.88,13.14,13.14,0,0,0,22.5-1.24A14.77,14.77,0,0,0,91.33,35.27a15.22,15.22,0,0,0-.15-2.15,9.41,9.41,0,0,0-4.63-17.61c-.32,0-.64,0-1,.05A13.38,13.38,0,0,0,68.1,8.14a16,16,0,0,0-22.24-.88c-.44.06-.86.14-1.29.23A9.3,9.3,0,0,0,27.94,8.75,9.2,9.2,0,0,0,13.64,15c-.23,0-.46,0-.7,0a9.1,9.1,0,0,0-3.7,17.41Z"/><path class="cls-56" d="M9.32,32.3A11.64,11.64,0,0,0,20.79,45.92,11.29,11.29,0,0,0,23,45.71a14.7,14.7,0,0,0,22.74,2.87,13.13,13.13,0,0,0,22.5-1.23A14.78,14.78,0,0,0,91.41,35.21a15.22,15.22,0,0,0-.16-2.15,9.41,9.41,0,0,0-4.63-17.61c-.32,0-.63,0-.94,0a13.35,13.35,0,0,0-17.5-7.41A16,16,0,0,0,45.93,7.2c-.43.06-.86.13-1.28.23A9.31,9.31,0,0,0,28,8.68a9.19,9.19,0,0,0-14.29,6.24c-.23,0-.47,0-.7,0A9.1,9.1,0,0,0,9.32,32.3Z"/><path class="cls-57" d="M9.39,32.23a11.85,11.85,0,0,0-.17,2A11.66,11.66,0,0,0,20.87,45.86a11.94,11.94,0,0,0,2.18-.21A14.71,14.71,0,0,0,45.8,48.52a13.13,13.13,0,0,0,22.5-1.23A14.78,14.78,0,0,0,91.49,35.14,15.33,15.33,0,0,0,91.33,33,9.41,9.41,0,0,0,86.7,15.38c-.32,0-.64,0-1,0A13.35,13.35,0,0,0,68.25,8,16,16,0,0,0,46,7.14a11.24,11.24,0,0,0-1.29.23A9.3,9.3,0,0,0,28.09,8.62a9.2,9.2,0,0,0-14.3,6.23c-.23,0-.46,0-.7,0a9.1,9.1,0,0,0-3.7,17.41Z"/><path class="cls-58" d="M9.47,32.17A11.65,11.65,0,0,0,20.94,45.8a12.13,12.13,0,0,0,2.19-.21,14.72,14.72,0,0,0,22.74,2.87,13.14,13.14,0,0,0,22.5-1.23A14.78,14.78,0,0,0,91.56,35.08a15.22,15.22,0,0,0-.16-2.15,9.41,9.41,0,0,0-4.63-17.61c-.32,0-.63,0-.94,0A13.35,13.35,0,0,0,68.33,8a16,16,0,0,0-22.25-.88,11.07,11.07,0,0,0-1.28.23A9.31,9.31,0,0,0,28.16,8.56a9.19,9.19,0,0,0-14.29,6.23c-.23,0-.46,0-.7,0a9.1,9.1,0,0,0-3.7,17.41Z"/><path class="cls-59" d="M9.54,32.11A11.64,11.64,0,0,0,21,45.73a11.12,11.12,0,0,0,2.18-.21A14.72,14.72,0,0,0,46,48.4a13.14,13.14,0,0,0,22.5-1.24A14.78,14.78,0,0,0,91.64,35a15.22,15.22,0,0,0-.16-2.15,9.41,9.41,0,0,0-4.63-17.61c-.32,0-.64,0-.95.05A13.38,13.38,0,0,0,68.4,7.89,16,16,0,0,0,46.16,7c-.44.06-.86.14-1.28.23A9.3,9.3,0,0,0,28.24,8.5a9.2,9.2,0,0,0-14.3,6.23l-.69,0A9.1,9.1,0,0,0,9.54,32.11Z"/><path class="cls-60" d="M9.62,32.05A11.64,11.64,0,0,0,21.09,45.67a11.29,11.29,0,0,0,2.19-.21A14.71,14.71,0,0,0,46,48.34a13.14,13.14,0,0,0,22.5-1.24A14.78,14.78,0,0,0,91.71,35a13.86,13.86,0,0,0-.16-2.15A9.41,9.41,0,0,0,86.92,15.2c-.31,0-.63,0-.94.05a13.35,13.35,0,0,0-17.5-7.42A16,16,0,0,0,46.24,7c-.44.06-.87.14-1.29.23A9.3,9.3,0,0,0,28.31,8.44,9.18,9.18,0,0,0,14,14.67c-.23,0-.46,0-.7,0a9.1,9.1,0,0,0-3.7,17.41Z"/><path class="cls-61" d="M9.7,32a10.88,10.88,0,0,0-.18,2A11.65,11.65,0,0,0,21.17,45.61a11.29,11.29,0,0,0,2.19-.21A14.7,14.7,0,0,0,46.1,48.27,13.13,13.13,0,0,0,68.6,47,14.78,14.78,0,0,0,91.79,34.89a15.07,15.07,0,0,0-.16-2.14A9.41,9.41,0,0,0,87,15.14c-.32,0-.63,0-1,0A13.35,13.35,0,0,0,73.64,6.76a13.19,13.19,0,0,0-5.08,1,16,16,0,0,0-22.25-.88c-.43.06-.86.13-1.28.23A9.31,9.31,0,0,0,28.39,8.37,9.19,9.19,0,0,0,14.1,14.61l-.7,0A9.09,9.09,0,0,0,9.7,32Z"/><path class="cls-62" d="M9.77,31.92a11.85,11.85,0,0,0-.17,2A11.65,11.65,0,0,0,21.24,45.55a12.13,12.13,0,0,0,2.19-.21,14.7,14.7,0,0,0,22.74,2.87A13.13,13.13,0,0,0,68.67,47,14.78,14.78,0,0,0,91.86,34.83a14,14,0,0,0-.16-2.15,9.41,9.41,0,0,0-4.63-17.61c-.31,0-.63,0-.94,0a13.35,13.35,0,0,0-17.5-7.41,16,16,0,0,0-22.24-.88,10.86,10.86,0,0,0-1.29.23A9.31,9.31,0,0,0,28.46,8.31a9.19,9.19,0,0,0-14.29,6.23c-.23,0-.46,0-.7,0a9.1,9.1,0,0,0-3.7,17.41Z"/><path class="cls-63" d="M9.85,31.86a10.72,10.72,0,0,0-.18,2A11.65,11.65,0,0,0,21.32,45.48a12.14,12.14,0,0,0,2.19-.2,14.72,14.72,0,0,0,22.74,2.87,13.14,13.14,0,0,0,22.5-1.24A14.76,14.76,0,0,0,91.94,34.77a15.22,15.22,0,0,0-.16-2.15A9.41,9.41,0,0,0,87.15,15c-.32,0-.63,0-1,.05A13.37,13.37,0,0,0,68.71,7.64a16,16,0,0,0-22.25-.88c-.43.06-.86.14-1.28.24A9.3,9.3,0,0,0,28.54,8.25a9.19,9.19,0,0,0-14.29,6.23l-.7,0a9.1,9.1,0,0,0-3.7,17.41Z"/><path class="cls-64" d="M9.92,31.8A11.64,11.64,0,0,0,21.4,45.42a11.27,11.27,0,0,0,2.18-.21,14.72,14.72,0,0,0,22.75,2.88,13.13,13.13,0,0,0,22.49-1.24A14.78,14.78,0,0,0,92,34.71a15.22,15.22,0,0,0-.15-2.15A9.41,9.41,0,0,0,87.23,15c-.32,0-.64,0-1,.05a13.38,13.38,0,0,0-17.5-7.42A16,16,0,0,0,46.54,6.7c-.44.06-.87.14-1.29.23A9.3,9.3,0,0,0,28.61,8.19a9.07,9.07,0,0,0-5.19-1.61,9.2,9.2,0,0,0-9.1,7.84c-.23,0-.46,0-.7,0A9.1,9.1,0,0,0,9.92,31.8Z"/><path class="cls-65" d="M10,31.74A11.64,11.64,0,0,0,21.47,45.36a11.29,11.29,0,0,0,2.19-.21A14.71,14.71,0,0,0,46.4,48a13.14,13.14,0,0,0,22.5-1.24A14.78,14.78,0,0,0,92.09,34.65a15.22,15.22,0,0,0-.16-2.15A9.41,9.41,0,0,0,87.3,14.89a7.3,7.3,0,0,0-.94,0A13.37,13.37,0,0,0,73.94,6.51a13.23,13.23,0,0,0-5.08,1,16,16,0,0,0-22.25-.88c-.43.06-.86.13-1.28.23A9.3,9.3,0,0,0,28.69,8.13,9.18,9.18,0,0,0,14.4,14.36c-.23,0-.47,0-.7,0A9.1,9.1,0,0,0,10,31.74Z"/><path class="cls-66" d="M10.07,31.67a11.85,11.85,0,0,0-.17,2A11.65,11.65,0,0,0,21.55,45.3a11.27,11.27,0,0,0,2.18-.21A14.71,14.71,0,0,0,46.48,48,13.12,13.12,0,0,0,69,46.73,14.78,14.78,0,0,0,92.16,34.58,15.08,15.08,0,0,0,92,32.44a9.41,9.41,0,0,0-4.63-17.61c-.32,0-.64,0-.95,0a13.35,13.35,0,0,0-17.5-7.41,16,16,0,0,0-22.24-.88c-.44.06-.87.13-1.29.23A9.3,9.3,0,0,0,28.77,8.06a9.2,9.2,0,0,0-14.3,6.23l-.7,0a9.09,9.09,0,0,0-3.7,17.4Z"/><path class="cls-67" d="M10.15,31.61a11.85,11.85,0,0,0-.17,2A11.65,11.65,0,0,0,21.62,45.24,12.13,12.13,0,0,0,23.81,45,14.7,14.7,0,0,0,46.55,47.9a13.13,13.13,0,0,0,22.5-1.23A14.78,14.78,0,0,0,92.24,34.52a15.33,15.33,0,0,0-.16-2.15,9.41,9.41,0,0,0-4.63-17.61c-.32,0-.63,0-.94.05A13.37,13.37,0,0,0,74.09,6.39,13.23,13.23,0,0,0,69,7.4a16,16,0,0,0-22.25-.88,11.07,11.07,0,0,0-1.28.23A9.31,9.31,0,0,0,28.84,8a9.19,9.19,0,0,0-14.29,6.23l-.7,0a9.1,9.1,0,0,0-3.7,17.41Z"/><path class="cls-68" d="M10.22,31.55A11.64,11.64,0,0,0,21.7,45.17a12.11,12.11,0,0,0,2.18-.2,14.73,14.73,0,0,0,22.75,2.87A13.13,13.13,0,0,0,69.12,46.6,14.76,14.76,0,0,0,92.31,34.46a15.22,15.22,0,0,0-.15-2.15A9.41,9.41,0,0,0,87.53,14.7c-.32,0-.64,0-1,.05a13.38,13.38,0,0,0-17.5-7.42,16,16,0,0,0-22.24-.88c-.44.06-.87.14-1.29.23A9.3,9.3,0,0,0,28.92,7.94a9.2,9.2,0,0,0-14.3,6.23c-.23,0-.46,0-.7,0a9.1,9.1,0,0,0-3.7,17.41Z"/><path class="cls-69" d="M10.3,31.49A11.64,11.64,0,0,0,21.77,45.11,11.29,11.29,0,0,0,24,44.9,14.71,14.71,0,0,0,46.7,47.78a13.14,13.14,0,0,0,22.5-1.24A14.78,14.78,0,0,0,92.39,34.4a15.22,15.22,0,0,0-.16-2.15A9.41,9.41,0,0,0,87.6,14.64c-.32,0-.63,0-.94,0a13.38,13.38,0,0,0-17.5-7.42,16,16,0,0,0-22.25-.88c-.43.06-.86.14-1.28.23A9.3,9.3,0,0,0,29,7.88,9.19,9.19,0,0,0,14.7,14.11c-.23,0-.46,0-.7,0a9.1,9.1,0,0,0-3.7,17.41Z"/><path class="cls-70" d="M10.37,31.43A11.64,11.64,0,0,0,21.85,45.05,11.29,11.29,0,0,0,24,44.84a14.7,14.7,0,0,0,22.74,2.87,13.13,13.13,0,0,0,22.5-1.23A14.78,14.78,0,0,0,92.47,34.34a15.22,15.22,0,0,0-.16-2.15,9.41,9.41,0,0,0-4.63-17.61,7.46,7.46,0,0,0-1,.05,13.35,13.35,0,0,0-17.5-7.42A16,16,0,0,0,47,6.33c-.44.06-.86.13-1.29.23A9.3,9.3,0,0,0,29.07,7.81a9.2,9.2,0,0,0-14.3,6.24q-.35,0-.69,0a9.1,9.1,0,0,0-3.71,17.41Z"/><path class="cls-71" d="M10.45,31.36a11.85,11.85,0,0,0-.17,2A11.65,11.65,0,0,0,21.92,45a12.13,12.13,0,0,0,2.19-.21,14.7,14.7,0,0,0,22.74,2.87,13.13,13.13,0,0,0,22.5-1.23A14.78,14.78,0,0,0,92.54,34.27a15.33,15.33,0,0,0-.16-2.15,9.41,9.41,0,0,0-4.63-17.6c-.32,0-.63,0-.94,0a13.35,13.35,0,0,0-17.5-7.41,16,16,0,0,0-22.24-.88c-.44.06-.87.13-1.29.23A9.31,9.31,0,0,0,29.14,7.75,9.19,9.19,0,0,0,14.85,14c-.23,0-.46,0-.7,0a9.1,9.1,0,0,0-3.7,17.41Z"/><path class="cls-72" d="M10.52,31.3a11.85,11.85,0,0,0-.17,2A11.66,11.66,0,0,0,22,44.93a12.13,12.13,0,0,0,2.19-.21,14.7,14.7,0,0,0,22.74,2.87,13.13,13.13,0,0,0,22.5-1.23A14.78,14.78,0,0,0,92.62,34.21a15.22,15.22,0,0,0-.16-2.15,9.41,9.41,0,0,0-4.63-17.61c-.32,0-.64,0-1,.05a13.35,13.35,0,0,0-17.5-7.41,16,16,0,0,0-22.24-.88,10.7,10.7,0,0,0-1.28.23A9.31,9.31,0,0,0,29.22,7.69a9.2,9.2,0,0,0-14.3,6.23l-.69,0A9.1,9.1,0,0,0,10.52,31.3Z"/><path class="cls-73" d="M10.6,31.24A11.64,11.64,0,0,0,22.07,44.86a12.14,12.14,0,0,0,2.19-.2A14.72,14.72,0,0,0,47,47.53a13.14,13.14,0,0,0,22.5-1.24A14.76,14.76,0,0,0,92.69,34.15,15.22,15.22,0,0,0,92.53,32,9.41,9.41,0,0,0,87.9,14.39c-.32,0-.63,0-.94,0A13.38,13.38,0,0,0,69.46,7a16,16,0,0,0-22.24-.88c-.44.06-.87.14-1.29.23A9.3,9.3,0,0,0,29.29,7.63,9.19,9.19,0,0,0,15,13.86c-.23,0-.46,0-.7,0a9.1,9.1,0,0,0-3.7,17.41Z"/><path class="cls-74" d="M10.67,31.18A11.64,11.64,0,0,0,22.15,44.8a11.29,11.29,0,0,0,2.19-.21,14.71,14.71,0,0,0,22.74,2.88,13.14,13.14,0,0,0,22.5-1.24A14.78,14.78,0,0,0,92.77,34.09a15.22,15.22,0,0,0-.16-2.15A9.41,9.41,0,0,0,88,14.33c-.32,0-.63,0-.94.05A13.36,13.36,0,0,0,74.62,6a13.19,13.19,0,0,0-5.08,1,16,16,0,0,0-22.25-.88c-.43.06-.86.14-1.28.23A9.3,9.3,0,0,0,29.37,7.57,9.19,9.19,0,0,0,15.08,13.8l-.7,0a9.1,9.1,0,0,0-3.71,17.41Z"/><path class="cls-75" d="M10.75,31.12A11.64,11.64,0,0,0,22.22,44.74a11.29,11.29,0,0,0,2.19-.21A14.7,14.7,0,0,0,47.15,47.4a13.13,13.13,0,0,0,22.5-1.23A14.78,14.78,0,0,0,92.84,34a13.86,13.86,0,0,0-.16-2.15,9.41,9.41,0,0,0-4.63-17.61c-.31,0-.63,0-.94,0A13.35,13.35,0,0,0,69.61,6.9,16,16,0,0,0,47.37,6c-.44.06-.87.13-1.29.23A9.31,9.31,0,0,0,29.44,7.5a9.19,9.19,0,0,0-14.29,6.24c-.23,0-.46,0-.7,0a9.1,9.1,0,0,0-3.7,17.41Z"/><path class="cls-76" d="M10.83,31.05a10.88,10.88,0,0,0-.18,2A11.66,11.66,0,0,0,22.3,44.68a12.13,12.13,0,0,0,2.19-.21,14.7,14.7,0,0,0,22.74,2.87,13.13,13.13,0,0,0,22.5-1.23A14.78,14.78,0,0,0,92.92,34a15.33,15.33,0,0,0-.16-2.15,9.41,9.41,0,0,0-4.63-17.6c-.32,0-.63,0-.94,0A13.37,13.37,0,0,0,74.77,5.83a13.19,13.19,0,0,0-5.08,1A16,16,0,0,0,47.44,6c-.43.06-.86.13-1.28.23A9.31,9.31,0,0,0,29.52,7.44a9.19,9.19,0,0,0-14.29,6.23l-.7,0a9.1,9.1,0,0,0-3.7,17.41Z"/><path class="cls-77" d="M10.9,31A11.65,11.65,0,0,0,22.38,44.62a12.11,12.11,0,0,0,2.18-.21A14.72,14.72,0,0,0,47.3,47.28a13.13,13.13,0,0,0,22.5-1.23A14.78,14.78,0,0,0,93,33.9a13.86,13.86,0,0,0-.16-2.15A9.41,9.41,0,0,0,88.2,14.14c-.31,0-.63,0-.94,0a13.35,13.35,0,0,0-17.5-7.41A16,16,0,0,0,47.52,5.9a10.86,10.86,0,0,0-1.29.23A9.31,9.31,0,0,0,29.59,7.38,9.07,9.07,0,0,0,24.4,5.77a9.19,9.19,0,0,0-9.1,7.84c-.23,0-.46,0-.7,0A9.1,9.1,0,0,0,10.9,31Z"/><path class="cls-78" d="M11,30.93A11.59,11.59,0,0,0,22.45,44.55a12.14,12.14,0,0,0,2.19-.2,14.72,14.72,0,0,0,22.74,2.87A13.14,13.14,0,0,0,69.88,46,14.78,14.78,0,0,0,93.07,33.84a15.22,15.22,0,0,0-.16-2.15,9.41,9.41,0,0,0-4.63-17.61c-.32,0-.63,0-.94.05a13.38,13.38,0,0,0-17.5-7.42,16,16,0,0,0-22.25-.88c-.43.06-.86.14-1.28.23A9.3,9.3,0,0,0,29.67,7.32a9.19,9.19,0,0,0-14.29,6.23c-.23,0-.47,0-.7,0A9.1,9.1,0,0,0,11,30.93Z"/><path class="cls-79" d="M11.05,30.87A11.64,11.64,0,0,0,22.53,44.49a11.27,11.27,0,0,0,2.18-.21,14.72,14.72,0,0,0,22.75,2.88A13.13,13.13,0,0,0,70,45.92,14.78,14.78,0,0,0,93.14,33.78,15.22,15.22,0,0,0,93,31.63,9.41,9.41,0,0,0,88.36,14c-.32,0-.64,0-1,.05a13.35,13.35,0,0,0-17.5-7.42,16,16,0,0,0-22.24-.88c-.44.06-.87.14-1.29.23A9.3,9.3,0,0,0,29.75,7.26a9.19,9.19,0,0,0-14.3,6.23c-.23,0-.46,0-.7,0a9.1,9.1,0,0,0-3.7,17.41Z"/><path class="cls-80" d="M11.13,30.81A11.64,11.64,0,0,0,22.6,44.43a11.29,11.29,0,0,0,2.19-.21,14.7,14.7,0,0,0,22.74,2.87A13.13,13.13,0,0,0,70,45.86,14.78,14.78,0,0,0,93.22,33.71a15.07,15.07,0,0,0-.16-2.14A9.41,9.41,0,0,0,88.43,14c-.32,0-.63,0-.94,0A13.35,13.35,0,0,0,70,6.59a16,16,0,0,0-22.25-.88c-.43.06-.86.13-1.28.23A9.31,9.31,0,0,0,29.82,7.19a9.19,9.19,0,0,0-14.29,6.24c-.23,0-.47,0-.7,0a9.1,9.1,0,0,0-3.7,17.41Z"/><path class="cls-81" d="M11.2,30.74a11.85,11.85,0,0,0-.17,2A11.66,11.66,0,0,0,22.68,44.37a12,12,0,0,0,2.18-.21A14.71,14.71,0,0,0,47.61,47a13.13,13.13,0,0,0,22.5-1.23A14.77,14.77,0,0,0,93.29,33.65a15.33,15.33,0,0,0-.15-2.15,9.41,9.41,0,0,0-4.63-17.61c-.32,0-.64,0-1,0a13.35,13.35,0,0,0-17.5-7.41,16,16,0,0,0-22.24-.88,10.86,10.86,0,0,0-1.29.23A9.3,9.3,0,0,0,29.9,7.13a9.2,9.2,0,0,0-14.3,6.23c-.23,0-.46,0-.7,0a9.1,9.1,0,0,0-3.7,17.41Z"/><path class="cls-82" d="M11.28,30.68A11.64,11.64,0,0,0,22.75,44.3a12.14,12.14,0,0,0,2.19-.2A14.72,14.72,0,0,0,47.68,47a13.14,13.14,0,0,0,22.5-1.24A14.76,14.76,0,0,0,93.37,33.59a15.22,15.22,0,0,0-.16-2.15,9.41,9.41,0,0,0-4.63-17.61c-.32,0-.63,0-.94.05a13.38,13.38,0,0,0-17.5-7.42,16,16,0,0,0-22.25-.87,11.07,11.07,0,0,0-1.28.23A9.31,9.31,0,0,0,30,7.07,9.19,9.19,0,0,0,15.68,13.3c-.23,0-.47,0-.7,0a9.1,9.1,0,0,0-3.7,17.41Z"/><path class="cls-83" d="M11.35,30.62A11.64,11.64,0,0,0,22.83,44.24,11.12,11.12,0,0,0,25,44a14.72,14.72,0,0,0,22.75,2.88,13.14,13.14,0,0,0,22.5-1.24A14.78,14.78,0,0,0,93.45,33.53a15.22,15.22,0,0,0-.16-2.15,9.41,9.41,0,0,0-4.63-17.61c-.32,0-.64,0-1,.05A13.38,13.38,0,0,0,70.21,6.4,16,16,0,0,0,48,5.52c-.44.06-.86.14-1.29.23A9.3,9.3,0,0,0,30.05,7a9.2,9.2,0,0,0-14.3,6.23c-.23,0-.46,0-.7,0a9.1,9.1,0,0,0-3.7,17.41Z"/><path class="cls-84" d="M11.43,30.56A11.64,11.64,0,0,0,22.9,44.18,11.29,11.29,0,0,0,25.09,44a14.71,14.71,0,0,0,22.74,2.88,13.14,13.14,0,0,0,22.5-1.24A14.78,14.78,0,0,0,93.52,33.47a15.22,15.22,0,0,0-.16-2.15,9.41,9.41,0,0,0-4.63-17.61c-.32,0-.63,0-.94,0a13.35,13.35,0,0,0-17.5-7.42,16,16,0,0,0-22.24-.88c-.44.06-.87.14-1.29.23A9.3,9.3,0,0,0,30.12,7a9.18,9.18,0,0,0-14.29,6.23c-.23,0-.46,0-.7,0a9.1,9.1,0,0,0-3.7,17.41Z"/><path class="cls-85" d="M11.5,30.49a11.85,11.85,0,0,0-.17,2A11.65,11.65,0,0,0,23,44.12a11.29,11.29,0,0,0,2.19-.21,14.7,14.7,0,0,0,22.74,2.87,13.13,13.13,0,0,0,22.5-1.23A14.78,14.78,0,0,0,93.6,33.4a15.07,15.07,0,0,0-.16-2.14,9.41,9.41,0,0,0-4.63-17.61c-.32,0-.64,0-1,0A13.35,13.35,0,0,0,75.45,5.27a13.19,13.19,0,0,0-5.08,1A16,16,0,0,0,48.12,5.4c-.43.06-.86.13-1.28.23A9.31,9.31,0,0,0,30.2,6.88a9.19,9.19,0,0,0-14.29,6.24l-.7,0a9.09,9.09,0,0,0-3.71,17.4Z"/><path class="cls-86" d="M11.58,30.43a11.85,11.85,0,0,0-.17,2A11.65,11.65,0,0,0,23.05,44.06a12.13,12.13,0,0,0,2.19-.21A14.7,14.7,0,0,0,48,46.72a13.13,13.13,0,0,0,22.5-1.23A14.78,14.78,0,0,0,93.67,33.34a13.86,13.86,0,0,0-.16-2.15,9.41,9.41,0,0,0-4.63-17.61c-.31,0-.63,0-.94.05a13.35,13.35,0,0,0-17.5-7.41A16,16,0,0,0,48.2,5.34a10.86,10.86,0,0,0-1.29.23A9.31,9.31,0,0,0,30.27,6.82,9.19,9.19,0,0,0,16,13.05c-.23,0-.46,0-.7,0a9.1,9.1,0,0,0-3.7,17.41Z"/><path class="cls-87" d="M11.66,30.37a10.72,10.72,0,0,0-.18,2A11.65,11.65,0,0,0,23.13,44a12.14,12.14,0,0,0,2.19-.2,14.72,14.72,0,0,0,22.74,2.87,13.14,13.14,0,0,0,22.5-1.24A14.76,14.76,0,0,0,93.75,33.28a15.22,15.22,0,0,0-.16-2.15A9.41,9.41,0,0,0,89,13.52c-.32,0-.63,0-.95.05A13.37,13.37,0,0,0,70.52,6.15a16,16,0,0,0-22.25-.88c-.43.06-.86.14-1.28.23A9.3,9.3,0,0,0,30.35,6.76,9.19,9.19,0,0,0,16.06,13l-.7,0a9.1,9.1,0,0,0-3.7,17.41Z"/><path class="cls-88" d="M11.73,30.31A11.64,11.64,0,0,0,23.2,43.93a11.29,11.29,0,0,0,2.19-.21A14.71,14.71,0,0,0,48.13,46.6a13.14,13.14,0,0,0,22.5-1.24A14.78,14.78,0,0,0,93.82,33.22a13.86,13.86,0,0,0-.16-2.15A9.41,9.41,0,0,0,89,13.46c-.32,0-.64,0-1,0a13.38,13.38,0,0,0-17.5-7.42,16,16,0,0,0-22.24-.88c-.44.06-.87.14-1.29.23A9.3,9.3,0,0,0,30.42,6.7a9.07,9.07,0,0,0-5.19-1.61,9.2,9.2,0,0,0-9.1,7.84c-.23,0-.46,0-.7,0a9.1,9.1,0,0,0-3.7,17.41Z"/><path class="cls-89" d="M11.81,30.25A11.59,11.59,0,0,0,23.28,43.87a11.29,11.29,0,0,0,2.19-.21,14.71,14.71,0,0,0,22.74,2.88,13.14,13.14,0,0,0,22.5-1.24A14.78,14.78,0,0,0,93.9,33.16,15.22,15.22,0,0,0,93.74,31,9.41,9.41,0,0,0,89.11,13.4a7.3,7.3,0,0,0-.94,0A13.37,13.37,0,0,0,75.75,5a13.23,13.23,0,0,0-5.08,1,16,16,0,0,0-22.25-.88c-.43.06-.86.13-1.28.23A9.3,9.3,0,0,0,30.5,6.64a9.18,9.18,0,0,0-14.29,6.23c-.23,0-.47,0-.7,0a9.1,9.1,0,0,0-3.7,17.41Z"/><path class="cls-90" d="M11.88,30.18a11.85,11.85,0,0,0-.17,2A11.65,11.65,0,0,0,23.36,43.81a12.11,12.11,0,0,0,2.18-.21,14.71,14.71,0,0,0,22.75,2.87,13.12,13.12,0,0,0,22.49-1.23A14.78,14.78,0,0,0,94,33.09,15.08,15.08,0,0,0,93.82,31a9.41,9.41,0,0,0-4.63-17.61c-.32,0-.64,0-1,0A13.35,13.35,0,0,0,70.74,6,16,16,0,0,0,48.5,5.09c-.44.06-.87.13-1.29.23A9.3,9.3,0,0,0,30.58,6.57a9.2,9.2,0,0,0-14.3,6.23c-.23,0-.46,0-.7,0a9.1,9.1,0,0,0-3.7,17.41Z"/><path class="cls-91" d="M12,30.12a11.85,11.85,0,0,0-.17,2A11.65,11.65,0,0,0,23.43,43.75a12.13,12.13,0,0,0,2.19-.21,14.7,14.7,0,0,0,22.74,2.87,13.13,13.13,0,0,0,22.5-1.23A14.78,14.78,0,0,0,94.05,33a15.33,15.33,0,0,0-.16-2.15,9.41,9.41,0,0,0-4.63-17.61c-.32,0-.63,0-.94.05A13.37,13.37,0,0,0,75.9,4.9a13.23,13.23,0,0,0-5.08,1A16,16,0,0,0,48.57,5a11.07,11.07,0,0,0-1.28.23A9.31,9.31,0,0,0,30.65,6.51a9.19,9.19,0,0,0-14.29,6.23l-.7,0A9.1,9.1,0,0,0,12,30.12Z"/><path class="cls-92" d="M12,30.06A11.64,11.64,0,0,0,23.51,43.68a12.11,12.11,0,0,0,2.18-.2,14.73,14.73,0,0,0,22.75,2.87,13.13,13.13,0,0,0,22.49-1.24A14.76,14.76,0,0,0,94.12,33,15.22,15.22,0,0,0,94,30.82a9.41,9.41,0,0,0-4.63-17.61c-.32,0-.64,0-1,0a13.38,13.38,0,0,0-17.5-7.42A16,16,0,0,0,48.65,5c-.44.06-.87.14-1.29.23A9.3,9.3,0,0,0,30.73,6.45a9.2,9.2,0,0,0-14.3,6.23c-.23,0-.46,0-.7,0A9.1,9.1,0,0,0,12,30.06Z"/><path class="cls-93" d="M12.11,30A11.64,11.64,0,0,0,23.58,43.62a11.29,11.29,0,0,0,2.19-.21,14.71,14.71,0,0,0,22.74,2.88A13.14,13.14,0,0,0,71,45.05,14.78,14.78,0,0,0,94.2,32.91,15.22,15.22,0,0,0,94,30.76a9.41,9.41,0,0,0-4.63-17.61c-.32,0-.63,0-.94,0A13.38,13.38,0,0,0,71,5.78,16,16,0,0,0,48.72,4.9c-.43.06-.86.14-1.28.23A9.3,9.3,0,0,0,30.8,6.39a9.19,9.19,0,0,0-14.29,6.23c-.23,0-.47,0-.7,0A9.1,9.1,0,0,0,12.11,30Z"/><path class="cls-94" d="M12.18,29.94A11.64,11.64,0,0,0,23.66,43.56a11.12,11.12,0,0,0,2.18-.21,14.71,14.71,0,0,0,22.75,2.87A13.13,13.13,0,0,0,71.09,45,14.78,14.78,0,0,0,94.28,32.85a15.22,15.22,0,0,0-.16-2.15,9.41,9.41,0,0,0-4.63-17.61,7.46,7.46,0,0,0-.95.05A13.35,13.35,0,0,0,71,5.72,16,16,0,0,0,48.8,4.84c-.44.06-.86.13-1.29.23A9.3,9.3,0,0,0,30.88,6.32a9.2,9.2,0,0,0-14.3,6.24c-.23,0-.46,0-.7,0a9.1,9.1,0,0,0-3.7,17.41Z"/><path class="cls-95" d="M12.26,29.87a11.85,11.85,0,0,0-.17,2A11.65,11.65,0,0,0,23.73,43.5a12.13,12.13,0,0,0,2.19-.21,14.7,14.7,0,0,0,22.74,2.87,13.13,13.13,0,0,0,22.5-1.23A14.78,14.78,0,0,0,94.35,32.78a15.33,15.33,0,0,0-.16-2.15A9.41,9.41,0,0,0,89.56,13c-.32,0-.63,0-.94,0a13.35,13.35,0,0,0-17.5-7.41,16,16,0,0,0-22.24-.88c-.44.06-.87.13-1.29.23A9.31,9.31,0,0,0,31,6.26a9.19,9.19,0,0,0-14.29,6.23c-.23,0-.46,0-.7,0a9.1,9.1,0,0,0-3.7,17.41Z"/></g><path class="cls-96" d="M11.57,29.94a11.05,11.05,0,0,0-.18,2A11.85,11.85,0,0,0,23.24,43.79a11.61,11.61,0,0,0,2.22-.21A15,15,0,0,0,48.59,46.5a13.35,13.35,0,0,0,22.88-1.25A15,15,0,0,0,95.05,32.9a14.29,14.29,0,0,0-.16-2.19,9.57,9.57,0,0,0-4.7-17.91c-.33,0-.65,0-1,0A13.56,13.56,0,0,0,71.43,5.31a16.3,16.3,0,0,0-22.62-.9c-.45.06-.88.14-1.31.24A9.46,9.46,0,0,0,30.58,5.92,9.35,9.35,0,0,0,16,12.26c-.23,0-.47,0-.71,0a9.26,9.26,0,0,0-3.76,17.71Z"/></g></g></g></g></svg>