<svg xmlns="http://www.w3.org/2000/svg" xmlns:xlink="http://www.w3.org/1999/xlink" viewBox="0 0 79.22 51.55"><defs><style>.cls-1{isolation:isolate;}.cls-2{opacity:0.5;}.cls-3{opacity:0.77;mix-blend-mode:multiply;}.cls-4{fill:#f6f6f6;opacity:0;}.cls-5{fill:#f5f5f5;opacity:0.01;}.cls-6{fill:#f4f4f4;opacity:0.02;}.cls-7{fill:#f3f3f3;opacity:0.03;}.cls-8{fill:#f2f2f2;opacity:0.04;}.cls-9{fill:#f1f1f1;opacity:0.05;}.cls-10{fill:#f0f0f0;opacity:0.07;}.cls-11{fill:#efefef;opacity:0.08;}.cls-12{fill:#eee;opacity:0.09;}.cls-13{fill:#ededed;opacity:0.1;}.cls-14{fill:#ececec;opacity:0.11;}.cls-15{fill:#ebebeb;opacity:0.12;}.cls-16{fill:#eaeaea;opacity:0.13;}.cls-17{fill:#e9e9e9;opacity:0.14;}.cls-18{fill:#e8e8e8;opacity:0.15;}.cls-19{fill:#e7e7e7;opacity:0.16;}.cls-20{fill:#e6e6e6;opacity:0.18;}.cls-21{fill:#e5e5e5;opacity:0.19;}.cls-22{fill:#e4e4e4;opacity:0.2;}.cls-23{fill:#e3e3e3;opacity:0.21;}.cls-24{fill:#e2e2e2;opacity:0.22;}.cls-25{fill:#e1e1e1;opacity:0.23;}.cls-26{fill:#e0e0e0;opacity:0.24;}.cls-27{fill:#e0e0df;opacity:0.25;}.cls-28{fill:#dfdfde;opacity:0.26;}.cls-29{fill:#dededd;opacity:0.27;}.cls-30{fill:#dddddc;opacity:0.29;}.cls-31{fill:#dcdcdb;opacity:0.3;}.cls-32{fill:#dbdbda;opacity:0.31;}.cls-33{fill:#dadad9;opacity:0.32;}.cls-34{fill:#d9d9d8;opacity:0.33;}.cls-35{fill:#d8d8d7;opacity:0.34;}.cls-36{fill:#d7d7d6;opacity:0.35;}.cls-37{fill:#d6d6d5;opacity:0.36;}.cls-38{fill:#d5d5d4;opacity:0.37;}.cls-39{fill:#d4d4d3;opacity:0.38;}.cls-40{fill:#d3d3d2;opacity:0.4;}.cls-41{fill:#d2d2d1;opacity:0.41;}.cls-42{fill:#d1d1d0;opacity:0.42;}.cls-43{fill:#d0d0cf;opacity:0.43;}.cls-44{fill:#cfcfce;opacity:0.44;}.cls-45{fill:#cececd;opacity:0.45;}.cls-46{fill:#cdcdcc;opacity:0.46;}.cls-47{fill:#cccccb;opacity:0.47;}.cls-48{fill:#cbcbca;opacity:0.48;}.cls-49{fill:#cacac9;opacity:0.49;}.cls-50{fill:#c9c9c9;opacity:0.51;}.cls-51{fill:#c8c8c8;opacity:0.52;}.cls-52{fill:#c7c7c7;opacity:0.53;}.cls-53{fill:#c6c6c6;opacity:0.54;}.cls-54{fill:#c5c5c5;opacity:0.55;}.cls-55{fill:#c4c4c4;opacity:0.56;}.cls-56{fill:#c3c3c3;opacity:0.57;}.cls-57{fill:#c2c2c2;opacity:0.58;}.cls-58{fill:#c1c1c1;opacity:0.59;}.cls-59{fill:silver;opacity:0.6;}.cls-60{fill:#bfbfbf;opacity:0.62;}.cls-61{fill:#bebebe;opacity:0.63;}.cls-62{fill:#bdbdbd;opacity:0.64;}.cls-63{fill:#bcbcbc;opacity:0.65;}.cls-64{fill:#bbb;opacity:0.66;}.cls-65{fill:#bababa;opacity:0.67;}.cls-66{fill:#b9b9b9;opacity:0.68;}.cls-67{fill:#b8b8b8;opacity:0.69;}.cls-68{fill:#b7b7b7;opacity:0.7;}.cls-69{fill:#b6b6b6;opacity:0.71;}.cls-70{fill:#b5b5b5;opacity:0.73;}.cls-71{fill:#b4b4b4;opacity:0.74;}.cls-72{fill:#b3b3b3;opacity:0.75;}.cls-73{fill:#b3b3b2;opacity:0.76;}.cls-74{fill:#b2b2b1;opacity:0.77;}.cls-75{fill:#b1b1b0;opacity:0.78;}.cls-76{fill:#b0b0af;opacity:0.79;}.cls-77{fill:#afafae;opacity:0.8;}.cls-78{fill:#aeaead;opacity:0.81;}.cls-79{fill:#adadac;opacity:0.82;}.cls-80{fill:#acacab;opacity:0.84;}.cls-81{fill:#ababaa;opacity:0.85;}.cls-82{fill:#aaaaa9;opacity:0.86;}.cls-83{fill:#a9a9a8;opacity:0.87;}.cls-84{fill:#a8a8a7;opacity:0.88;}.cls-85{fill:#a7a7a6;opacity:0.89;}.cls-86{fill:#a6a6a5;opacity:0.9;}.cls-87{fill:#a5a5a4;opacity:0.91;}.cls-88{fill:#a4a4a3;opacity:0.92;}.cls-89{fill:#a3a3a2;opacity:0.93;}.cls-90{fill:#a2a2a1;opacity:0.95;}.cls-91{fill:#a1a1a0;opacity:0.96;}.cls-92{fill:#a0a09f;opacity:0.97;}.cls-93{fill:#9f9f9e;opacity:0.98;}.cls-94{fill:#9e9e9d;opacity:0.99;}.cls-95{fill:#9d9d9c;}.cls-96{fill:url(#linear-gradient);}</style><linearGradient id="linear-gradient" x1="-70.02" y1="-329.25" x2="-107.68" y2="-291.6" gradientTransform="translate(-42.28 -292.44) rotate(180)" gradientUnits="userSpaceOnUse"><stop offset="0" stop-color="#fff"/><stop offset="0.65" stop-color="#f6f6f6"/></linearGradient></defs><title>cloud_2</title><g class="cls-1"><g id="Layer_2" data-name="Layer 2"><g id="_ÎÓÈ_1" data-name="—ÎÓÈ_1"><g class="cls-2"><g class="cls-3"><path class="cls-4" d="M3.8,36a9,9,0,0,0-.12,1.39,8.22,8.22,0,0,0,8.21,8.21,7.91,7.91,0,0,0,1.55-.15,10.36,10.36,0,0,0,16,2,9.26,9.26,0,0,0,15.86-.87,10.42,10.42,0,0,0,16.35-8.56,10.88,10.88,0,0,0-.11-1.52,6.63,6.63,0,0,0-3.26-12.41c-.23,0-.45,0-.67,0a9.42,9.42,0,0,0-8.75-5.94,9.53,9.53,0,0,0-3.59.71,11.31,11.31,0,0,0-15.68-.62,9.12,9.12,0,0,0-.91.17A6.55,6.55,0,0,0,17,19.35a6.4,6.4,0,0,0-3.66-1.14,6.48,6.48,0,0,0-6.41,5.53l-.5,0A6.42,6.42,0,0,0,3.8,36Z"/><path class="cls-5" d="M4,35.83a8,8,0,0,0-.13,1.4A8.22,8.22,0,0,0,12,45.44a8.76,8.76,0,0,0,1.55-.15,10.38,10.38,0,0,0,16,2,9.26,9.26,0,0,0,15.86-.88,10.41,10.41,0,0,0,16.35-8.56,10.73,10.73,0,0,0-.11-1.51A6.64,6.64,0,0,0,58.46,24a4.92,4.92,0,0,0-.67,0,9.42,9.42,0,0,0-12.34-5.23,11.29,11.29,0,0,0-15.68-.62,9.1,9.1,0,0,0-.91.16,6.56,6.56,0,0,0-11.73.89,6.4,6.4,0,0,0-3.66-1.14,6.48,6.48,0,0,0-6.41,5.53l-.5,0A6.41,6.41,0,0,0,4,35.83Z"/><path class="cls-6" d="M4.11,35.67A8,8,0,0,0,4,37.06a8.2,8.2,0,0,0,8.21,8.21,8.73,8.73,0,0,0,1.54-.14,10.37,10.37,0,0,0,16,2,9.26,9.26,0,0,0,15.86-.87A10.41,10.41,0,0,0,62,37.72a10.88,10.88,0,0,0-.11-1.52,6.63,6.63,0,0,0-3.26-12.41c-.23,0-.45,0-.67,0a9.4,9.4,0,0,0-8.75-5.93,9.53,9.53,0,0,0-3.59.7A11.31,11.31,0,0,0,29.92,18a8.93,8.93,0,0,0-.9.17A6.55,6.55,0,0,0,17.29,19,6.49,6.49,0,0,0,7.21,23.41l-.49,0A6.42,6.42,0,0,0,4.11,35.67Z"/><path class="cls-7" d="M4.26,35.5a8.1,8.1,0,0,0-.12,1.4,8.21,8.21,0,0,0,8.21,8.21A7.88,7.88,0,0,0,13.89,45a10.38,10.38,0,0,0,16,2,9.26,9.26,0,0,0,15.86-.87,10.42,10.42,0,0,0,16.35-8.57A10.73,10.73,0,0,0,62,36a6.64,6.64,0,0,0-3.26-12.42c-.23,0-.45,0-.67,0a9.42,9.42,0,0,0-12.34-5.23,11.29,11.29,0,0,0-15.68-.62,8.91,8.91,0,0,0-.9.16,6.56,6.56,0,0,0-11.73.89A6.48,6.48,0,0,0,7.36,23.25l-.49,0A6.41,6.41,0,0,0,4.26,35.5Z"/><path class="cls-8" d="M4.41,35.34a8,8,0,0,0-.12,1.39,8.2,8.2,0,0,0,8.21,8.21A8.73,8.73,0,0,0,14,44.8a10.37,10.37,0,0,0,16,2A9.25,9.25,0,0,0,45.93,46a10.41,10.41,0,0,0,16.35-8.56,10.73,10.73,0,0,0-.11-1.51,6.64,6.64,0,0,0-3.26-12.42c-.23,0-.45,0-.67,0a9.42,9.42,0,0,0-8.75-5.93,9.26,9.26,0,0,0-3.58.71,11.3,11.3,0,0,0-15.69-.62,8.91,8.91,0,0,0-.9.16,6.56,6.56,0,0,0-11.73.88,6.49,6.49,0,0,0-10.08,4.4,4,4,0,0,0-.49,0A6.41,6.41,0,0,0,4.41,35.34Z"/><path class="cls-9" d="M4.56,35.18a7.9,7.9,0,0,0-.12,1.39,8.21,8.21,0,0,0,8.21,8.21,7.88,7.88,0,0,0,1.54-.15,10.36,10.36,0,0,0,16,2,9.26,9.26,0,0,0,15.86-.87,10.42,10.42,0,0,0,16.35-8.56,10.88,10.88,0,0,0-.11-1.52A6.63,6.63,0,0,0,59.06,23.3c-.23,0-.45,0-.67,0A9.41,9.41,0,0,0,46.06,18.1a11.32,11.32,0,0,0-15.69-.62c-.3,0-.61.1-.9.16a6.56,6.56,0,0,0-11.73.89A6.48,6.48,0,0,0,7.66,22.92l-.49,0A6.42,6.42,0,0,0,4.56,35.18Z"/><path class="cls-10" d="M4.71,35a8,8,0,0,0-.12,1.4,8.22,8.22,0,0,0,8.21,8.21,8.65,8.65,0,0,0,1.54-.15,10.37,10.37,0,0,0,16,2,9.26,9.26,0,0,0,15.87-.87,10.41,10.41,0,0,0,16.35-8.56,9.42,9.42,0,0,0-.12-1.51,6.64,6.64,0,0,0-3.26-12.42,5,5,0,0,0-.67,0,9.4,9.4,0,0,0-8.75-5.94,9.26,9.26,0,0,0-3.58.71,11.3,11.3,0,0,0-15.69-.62c-.3,0-.6.09-.9.16a6.56,6.56,0,0,0-11.73.88,6.49,6.49,0,0,0-10.08,4.4l-.49,0A6.41,6.41,0,0,0,4.71,35Z"/><path class="cls-11" d="M4.86,34.85a8,8,0,0,0-.12,1.39A8.21,8.21,0,0,0,13,44.45a7.81,7.81,0,0,0,1.54-.15,10.37,10.37,0,0,0,16,2,9.26,9.26,0,0,0,15.86-.87A10.42,10.42,0,0,0,62.74,36.9a9.54,9.54,0,0,0-.12-1.52A6.63,6.63,0,0,0,59.36,23c-.22,0-.45,0-.67,0a9.41,9.41,0,0,0-12.33-5.23,11.32,11.32,0,0,0-15.69-.62c-.3,0-.6.1-.9.17A6.55,6.55,0,0,0,18,18.2,6.48,6.48,0,0,0,8,22.59l-.49,0A6.42,6.42,0,0,0,4.86,34.85Z"/><path class="cls-12" d="M5,34.68a8.1,8.1,0,0,0-.12,1.4,8.22,8.22,0,0,0,8.21,8.21,7.81,7.81,0,0,0,1.54-.15,10.39,10.39,0,0,0,16,2,9.26,9.26,0,0,0,15.86-.87,10.42,10.42,0,0,0,16.35-8.57,10.73,10.73,0,0,0-.11-1.51A6.64,6.64,0,0,0,59.51,22.8c-.22,0-.45,0-.67,0a9.4,9.4,0,0,0-8.75-5.94,9.29,9.29,0,0,0-3.58.71A11.29,11.29,0,0,0,30.83,17a9.1,9.1,0,0,0-.91.16A6.56,6.56,0,0,0,18.19,18,6.48,6.48,0,0,0,8.11,22.43l-.49,0A6.41,6.41,0,0,0,5,34.68Z"/><path class="cls-13" d="M5.16,34.52A8,8,0,0,0,5,35.91a8.21,8.21,0,0,0,8.21,8.21A8.65,8.65,0,0,0,14.79,44a10.38,10.38,0,0,0,16,2,9.26,9.26,0,0,0,15.86-.87A10.41,10.41,0,0,0,63,36.57a11,11,0,0,0-.11-1.52,6.63,6.63,0,0,0-3.27-12.41q-.33,0-.66,0a9.43,9.43,0,0,0-8.75-5.93,9.31,9.31,0,0,0-3.59.71A11.29,11.29,0,0,0,31,16.83a9.1,9.1,0,0,0-.91.16,6.56,6.56,0,0,0-11.73.88,6.49,6.49,0,0,0-10.08,4.4,3.91,3.91,0,0,0-.49,0A6.42,6.42,0,0,0,5.16,34.52Z"/><path class="cls-14" d="M5.31,34.35a8.1,8.1,0,0,0-.12,1.4A8.22,8.22,0,0,0,13.4,44a7.81,7.81,0,0,0,1.54-.15,10.37,10.37,0,0,0,16,2A9.26,9.26,0,0,0,46.84,45a10.42,10.42,0,0,0,16.35-8.56,10.88,10.88,0,0,0-.11-1.52,6.63,6.63,0,0,0-3.27-12.41q-.33,0-.66,0a9.42,9.42,0,0,0-8.75-5.94,9.53,9.53,0,0,0-3.59.71,11.29,11.29,0,0,0-15.68-.62c-.31,0-.61.1-.91.16a6.56,6.56,0,0,0-11.73.89,6.4,6.4,0,0,0-3.66-1.14A6.49,6.49,0,0,0,8.41,22.1l-.49,0A6.41,6.41,0,0,0,5.31,34.35Z"/><path class="cls-15" d="M5.46,34.19a9.11,9.11,0,0,0-.12,1.4,8.22,8.22,0,0,0,8.21,8.21,8.76,8.76,0,0,0,1.55-.15,10.37,10.37,0,0,0,16,2A9.25,9.25,0,0,0,47,44.8a10.41,10.41,0,0,0,16.35-8.56,10.73,10.73,0,0,0-.11-1.51A6.64,6.64,0,0,0,60,22.31a4.87,4.87,0,0,0-.66,0A9.42,9.42,0,0,0,47,17.12a11.29,11.29,0,0,0-15.68-.62,9.1,9.1,0,0,0-.91.16,6.56,6.56,0,0,0-11.73.88,6.48,6.48,0,0,0-10.07,4.4,4.18,4.18,0,0,0-.5,0A6.41,6.41,0,0,0,5.46,34.19Z"/><path class="cls-16" d="M5.61,34a9.09,9.09,0,0,0-.12,1.39,8.21,8.21,0,0,0,8.21,8.21,7.91,7.91,0,0,0,1.55-.15,10.36,10.36,0,0,0,16,2,9.26,9.26,0,0,0,15.86-.87,10.42,10.42,0,0,0,16.35-8.56,10.88,10.88,0,0,0-.11-1.52,6.63,6.63,0,0,0-3.26-12.41c-.23,0-.45,0-.67,0a9.42,9.42,0,0,0-8.75-5.94,9.53,9.53,0,0,0-3.59.71,11.31,11.31,0,0,0-15.68-.62,9.12,9.12,0,0,0-.91.17,6.55,6.55,0,0,0-11.73.88,6.4,6.4,0,0,0-3.66-1.14,6.48,6.48,0,0,0-6.41,5.53l-.5,0A6.42,6.42,0,0,0,5.61,34Z"/><path class="cls-17" d="M5.76,33.86a9.22,9.22,0,0,0-.12,1.4,8.22,8.22,0,0,0,8.21,8.21,7.91,7.91,0,0,0,1.55-.15,10.38,10.38,0,0,0,16,2,9.26,9.26,0,0,0,15.86-.87,10.42,10.42,0,0,0,16.35-8.57,10.73,10.73,0,0,0-.11-1.51A6.64,6.64,0,0,0,60.27,22c-.23,0-.45,0-.67,0a9.42,9.42,0,0,0-12.34-5.23,11.29,11.29,0,0,0-15.68-.62,9.1,9.1,0,0,0-.91.16,6.56,6.56,0,0,0-11.73.89,6.4,6.4,0,0,0-3.66-1.14,6.48,6.48,0,0,0-6.41,5.53l-.5,0A6.41,6.41,0,0,0,5.76,33.86Z"/><path class="cls-18" d="M5.92,33.7a8,8,0,0,0-.13,1.39A8.21,8.21,0,0,0,14,43.3a8.73,8.73,0,0,0,1.54-.14,10.37,10.37,0,0,0,16,2,9.26,9.26,0,0,0,15.86-.87,10.41,10.41,0,0,0,16.35-8.56,10.88,10.88,0,0,0-.11-1.52,6.63,6.63,0,0,0-3.26-12.41c-.23,0-.45,0-.67,0a9.42,9.42,0,0,0-12.34-5.22A11.3,11.3,0,0,0,31.73,16c-.31.05-.61.1-.9.17a6.56,6.56,0,0,0-11.73.88A6.49,6.49,0,0,0,9,21.45a4,4,0,0,0-.49,0A6.42,6.42,0,0,0,5.92,33.7Z"/><path class="cls-19" d="M6.07,33.53A8.1,8.1,0,0,0,6,34.93a8.21,8.21,0,0,0,8.21,8.21A7.88,7.88,0,0,0,15.7,43a10.36,10.36,0,0,0,16,2,9.26,9.26,0,0,0,15.86-.87,10.42,10.42,0,0,0,16.35-8.56,10.77,10.77,0,0,0-.11-1.52,6.63,6.63,0,0,0-3.26-12.41c-.23,0-.45,0-.67,0a9.42,9.42,0,0,0-12.34-5.23,11.29,11.29,0,0,0-15.68-.62c-.3,0-.61.1-.9.16a6.56,6.56,0,0,0-11.73.89A6.48,6.48,0,0,0,9.17,21.28l-.49,0A6.41,6.41,0,0,0,6.07,33.53Z"/><path class="cls-20" d="M6.22,33.37a8,8,0,0,0-.12,1.4A8.2,8.2,0,0,0,14.31,43a8.73,8.73,0,0,0,1.54-.14,10.37,10.37,0,0,0,16,2A9.25,9.25,0,0,0,47.74,44a10.41,10.41,0,0,0,16.35-8.56A10.73,10.73,0,0,0,64,33.91a6.64,6.64,0,0,0-3.26-12.42c-.23,0-.45,0-.67,0a9.42,9.42,0,0,0-8.75-5.93,9.26,9.26,0,0,0-3.58.71A11.3,11.3,0,0,0,32,15.68a8.91,8.91,0,0,0-.9.16,6.56,6.56,0,0,0-11.73.88,6.49,6.49,0,0,0-10.08,4.4,4,4,0,0,0-.49,0A6.41,6.41,0,0,0,6.22,33.37Z"/><path class="cls-21" d="M6.37,33.21a7.9,7.9,0,0,0-.12,1.39,8.21,8.21,0,0,0,8.21,8.21A7.88,7.88,0,0,0,16,42.66a10.36,10.36,0,0,0,16,2,9.26,9.26,0,0,0,15.86-.87,10.42,10.42,0,0,0,16.35-8.56,10.88,10.88,0,0,0-.11-1.52,6.63,6.63,0,0,0-3.26-12.41c-.23,0-.45,0-.67,0a9.41,9.41,0,0,0-12.33-5.23,11.32,11.32,0,0,0-15.69-.62,8.93,8.93,0,0,0-.9.17,6.55,6.55,0,0,0-11.73.88A6.48,6.48,0,0,0,9.47,21l-.49,0A6.42,6.42,0,0,0,6.37,33.21Z"/><path class="cls-22" d="M6.52,33a8,8,0,0,0-.12,1.4,8.22,8.22,0,0,0,8.21,8.21,8.65,8.65,0,0,0,1.54-.15,10.38,10.38,0,0,0,16,2,9.26,9.26,0,0,0,15.87-.88A10.41,10.41,0,0,0,64.4,35.09a9.42,9.42,0,0,0-.12-1.51A6.64,6.64,0,0,0,61,21.16a5,5,0,0,0-.67,0,9.4,9.4,0,0,0-8.75-5.94A9.26,9.26,0,0,0,48,16a11.3,11.3,0,0,0-15.69-.62c-.3,0-.6.09-.9.16a6.56,6.56,0,0,0-11.73.88,6.49,6.49,0,0,0-10.08,4.4l-.49,0A6.41,6.41,0,0,0,6.52,33Z"/><path class="cls-23" d="M6.67,32.88a8,8,0,0,0-.12,1.39,8.21,8.21,0,0,0,8.21,8.21,8.65,8.65,0,0,0,1.54-.14,10.37,10.37,0,0,0,16,2,9.27,9.27,0,0,0,15.87-.87,10.41,10.41,0,0,0,16.35-8.56,9.54,9.54,0,0,0-.12-1.52A6.63,6.63,0,0,0,61.17,21c-.22,0-.45,0-.67,0A9.44,9.44,0,0,0,48.17,15.8a11.32,11.32,0,0,0-15.69-.62c-.3,0-.6.1-.9.17a6.55,6.55,0,0,0-11.73.88A6.49,6.49,0,0,0,9.77,20.62l-.49,0A6.42,6.42,0,0,0,6.67,32.88Z"/><path class="cls-24" d="M6.82,32.71a8.1,8.1,0,0,0-.12,1.4,8.22,8.22,0,0,0,8.21,8.21,7.81,7.81,0,0,0,1.54-.15,10.39,10.39,0,0,0,16,2,9.26,9.26,0,0,0,15.86-.87A10.42,10.42,0,0,0,64.7,34.76a10.73,10.73,0,0,0-.11-1.51,6.64,6.64,0,0,0-3.27-12.42c-.22,0-.45,0-.66,0a9.42,9.42,0,0,0-8.75-5.94,9.27,9.27,0,0,0-3.59.71A11.29,11.29,0,0,0,32.64,15a9.1,9.1,0,0,0-.91.16A6.56,6.56,0,0,0,20,16.07a6.41,6.41,0,0,0-3.67-1.14,6.48,6.48,0,0,0-6.41,5.53l-.49,0A6.41,6.41,0,0,0,6.82,32.71Z"/><path class="cls-25" d="M7,32.55a8,8,0,0,0-.12,1.39,8.21,8.21,0,0,0,8.21,8.21A8.65,8.65,0,0,0,16.6,42a10.38,10.38,0,0,0,16,2,9.26,9.26,0,0,0,15.86-.87A10.41,10.41,0,0,0,64.85,34.6a10.73,10.73,0,0,0-.11-1.51,6.64,6.64,0,0,0-3.27-12.42q-.33,0-.66,0a9.43,9.43,0,0,0-8.75-5.93,9.31,9.31,0,0,0-3.59.71,11.29,11.29,0,0,0-15.68-.62,9.1,9.1,0,0,0-.91.16,6.56,6.56,0,0,0-11.73.88,6.49,6.49,0,0,0-10.08,4.4,3.93,3.93,0,0,0-.49,0A6.41,6.41,0,0,0,7,32.55Z"/><path class="cls-26" d="M7.12,32.39A7.9,7.9,0,0,0,7,33.78,8.22,8.22,0,0,0,15.21,42a7.81,7.81,0,0,0,1.54-.15,10.37,10.37,0,0,0,16,2A9.26,9.26,0,0,0,48.65,43,10.42,10.42,0,0,0,65,34.44a10.88,10.88,0,0,0-.11-1.52,6.63,6.63,0,0,0-3.27-12.41q-.33,0-.66,0a9.42,9.42,0,0,0-12.34-5.23,11.31,11.31,0,0,0-15.68-.62c-.31,0-.61.1-.91.16a6.56,6.56,0,0,0-11.73.89,6.4,6.4,0,0,0-3.66-1.14,6.49,6.49,0,0,0-6.42,5.53l-.49,0A6.42,6.42,0,0,0,7.12,32.39Z"/><path class="cls-27" d="M7.27,32.22a9.11,9.11,0,0,0-.12,1.4,8.22,8.22,0,0,0,8.21,8.21,8.76,8.76,0,0,0,1.55-.15,10.38,10.38,0,0,0,16,2,9.26,9.26,0,0,0,15.86-.88,10.41,10.41,0,0,0,16.35-8.56A10.73,10.73,0,0,0,65,32.76a6.64,6.64,0,0,0-3.27-12.42,4.87,4.87,0,0,0-.66,0,9.42,9.42,0,0,0-12.34-5.23,11.29,11.29,0,0,0-15.68-.62,9.1,9.1,0,0,0-.91.16,6.56,6.56,0,0,0-11.73.88A6.49,6.49,0,0,0,10.37,20l-.49,0A6.41,6.41,0,0,0,7.27,32.22Z"/><path class="cls-28" d="M7.42,32.06a9.09,9.09,0,0,0-.12,1.39,8.21,8.21,0,0,0,8.21,8.21,8.76,8.76,0,0,0,1.55-.14,10.37,10.37,0,0,0,16,2A9.26,9.26,0,0,0,49,42.67,10.41,10.41,0,0,0,65.3,34.11a10.88,10.88,0,0,0-.11-1.52,6.63,6.63,0,0,0-3.27-12.41q-.33,0-.66,0a9.42,9.42,0,0,0-8.75-5.94,9.53,9.53,0,0,0-3.59.71,11.31,11.31,0,0,0-15.68-.62,9.12,9.12,0,0,0-.91.17,6.55,6.55,0,0,0-11.73.88,6.4,6.4,0,0,0-3.66-1.14,6.49,6.49,0,0,0-6.41,5.53l-.5,0A6.42,6.42,0,0,0,7.42,32.06Z"/><path class="cls-29" d="M7.57,31.89a9.22,9.22,0,0,0-.12,1.4,8.22,8.22,0,0,0,8.21,8.21,7.91,7.91,0,0,0,1.55-.15,10.38,10.38,0,0,0,16,2,9.26,9.26,0,0,0,15.86-.87,10.42,10.42,0,0,0,16.35-8.57,10.73,10.73,0,0,0-.11-1.51A6.64,6.64,0,0,0,62.08,20c-.23,0-.45,0-.67,0a9.42,9.42,0,0,0-12.34-5.23,11.29,11.29,0,0,0-15.68-.62,9.1,9.1,0,0,0-.91.16,6.56,6.56,0,0,0-11.73.89,6.4,6.4,0,0,0-3.66-1.14,6.48,6.48,0,0,0-6.41,5.53l-.5,0A6.41,6.41,0,0,0,7.57,31.89Z"/><path class="cls-30" d="M7.73,31.73a8,8,0,0,0-.13,1.39,8.21,8.21,0,0,0,8.22,8.21,8.73,8.73,0,0,0,1.54-.14,10.37,10.37,0,0,0,16,2,9.26,9.26,0,0,0,15.86-.87A10.41,10.41,0,0,0,65.6,33.78a10.73,10.73,0,0,0-.11-1.51,6.64,6.64,0,0,0-3.26-12.42c-.23,0-.45,0-.67,0a9.42,9.42,0,0,0-12.34-5.22A11.29,11.29,0,0,0,33.54,14a9.1,9.1,0,0,0-.91.16,6.55,6.55,0,0,0-11.72.88,6.49,6.49,0,0,0-10.08,4.4,4.1,4.1,0,0,0-.5,0,6.41,6.41,0,0,0-2.6,12.27Z"/><path class="cls-31" d="M7.88,31.56A8.1,8.1,0,0,0,7.76,33,8.21,8.21,0,0,0,16,41.17,7.88,7.88,0,0,0,17.51,41a10.36,10.36,0,0,0,16,2,9.26,9.26,0,0,0,15.86-.87,10.42,10.42,0,0,0,16.35-8.56,10.88,10.88,0,0,0-.11-1.52,6.63,6.63,0,0,0-3.26-12.41c-.23,0-.45,0-.67,0A9.41,9.41,0,0,0,53,13.78a9.53,9.53,0,0,0-3.59.71,11.29,11.29,0,0,0-15.68-.62c-.31,0-.61.1-.9.16a6.56,6.56,0,0,0-11.73.89A6.48,6.48,0,0,0,11,19.31l-.49,0A6.41,6.41,0,0,0,7.88,31.56Z"/><path class="cls-32" d="M8,31.4a8,8,0,0,0-.12,1.4A8.21,8.21,0,0,0,16.12,41a8.74,8.74,0,0,0,1.54-.15,10.37,10.37,0,0,0,16,2A9.25,9.25,0,0,0,49.55,42,10.41,10.41,0,0,0,65.9,33.45a10.73,10.73,0,0,0-.11-1.51,6.64,6.64,0,0,0-3.26-12.42,4.92,4.92,0,0,0-.67,0,9.41,9.41,0,0,0-8.75-5.94,9.26,9.26,0,0,0-3.58.71,11.3,11.3,0,0,0-15.69-.62,8.91,8.91,0,0,0-.9.16,6.56,6.56,0,0,0-11.73.88,6.49,6.49,0,0,0-10.08,4.4l-.49,0A6.41,6.41,0,0,0,8,31.4Z"/><path class="cls-33" d="M8.18,31.24a8,8,0,0,0-.12,1.39,8.2,8.2,0,0,0,8.21,8.21,7.88,7.88,0,0,0,1.54-.15,10.36,10.36,0,0,0,16,2,9.26,9.26,0,0,0,15.86-.87,10.42,10.42,0,0,0,16.35-8.56,10.88,10.88,0,0,0-.11-1.52,6.63,6.63,0,0,0-3.26-12.41c-.23,0-.45,0-.67,0a9.41,9.41,0,0,0-12.33-5.23A11.32,11.32,0,0,0,34,13.54a8.93,8.93,0,0,0-.9.17,6.55,6.55,0,0,0-11.73.88A6.48,6.48,0,0,0,11.28,19l-.49,0A6.42,6.42,0,0,0,8.18,31.24Z"/><path class="cls-34" d="M8.33,31.07a8.1,8.1,0,0,0-.12,1.4,8.21,8.21,0,0,0,8.21,8.21A7.81,7.81,0,0,0,18,40.53a10.38,10.38,0,0,0,16,2,9.27,9.27,0,0,0,15.87-.87,10.42,10.42,0,0,0,16.35-8.57,9.42,9.42,0,0,0-.12-1.51,6.64,6.64,0,0,0-3.26-12.42c-.22,0-.45,0-.67,0a9.41,9.41,0,0,0-8.75-5.94,9.26,9.26,0,0,0-3.58.71,11.3,11.3,0,0,0-15.69-.62c-.3,0-.6.09-.9.16a6.56,6.56,0,0,0-11.73.89,6.48,6.48,0,0,0-10.08,4.39l-.49,0A6.41,6.41,0,0,0,8.33,31.07Z"/><path class="cls-35" d="M8.48,30.91a8,8,0,0,0-.12,1.39,8.21,8.21,0,0,0,8.21,8.21,8.65,8.65,0,0,0,1.54-.14,10.37,10.37,0,0,0,16,2A9.27,9.27,0,0,0,50,41.52,10.41,10.41,0,0,0,66.36,33a9.54,9.54,0,0,0-.12-1.52A6.63,6.63,0,0,0,63,19c-.22,0-.45,0-.67,0a9.41,9.41,0,0,0-8.75-5.93,9.26,9.26,0,0,0-3.58.71,11.3,11.3,0,0,0-15.69-.62c-.3,0-.6.09-.9.16a6.56,6.56,0,0,0-11.73.88,6.49,6.49,0,0,0-10.08,4.4,3.91,3.91,0,0,0-.49,0A6.42,6.42,0,0,0,8.48,30.91Z"/><path class="cls-36" d="M8.63,30.74a8.1,8.1,0,0,0-.12,1.4,8.22,8.22,0,0,0,8.21,8.21,7.81,7.81,0,0,0,1.54-.15,10.36,10.36,0,0,0,16,2,9.27,9.27,0,0,0,15.87-.87A10.42,10.42,0,0,0,66.51,32.8a10.77,10.77,0,0,0-.11-1.52,6.63,6.63,0,0,0-3.27-12.41c-.22,0-.45,0-.67,0A9.4,9.4,0,0,0,53.71,13a9.26,9.26,0,0,0-3.58.71,11.29,11.29,0,0,0-15.68-.62c-.31,0-.61.1-.91.16a6.56,6.56,0,0,0-11.73.89,6.48,6.48,0,0,0-10.08,4.39l-.49,0A6.41,6.41,0,0,0,8.63,30.74Z"/><path class="cls-37" d="M8.78,30.58A8,8,0,0,0,8.66,32a8.22,8.22,0,0,0,8.21,8.21A8.65,8.65,0,0,0,18.41,40a10.38,10.38,0,0,0,16,2,9.25,9.25,0,0,0,15.86-.87,10.41,10.41,0,0,0,16.35-8.56,10.73,10.73,0,0,0-.11-1.51A6.64,6.64,0,0,0,63.28,18.7a4.78,4.78,0,0,0-.66,0,9.42,9.42,0,0,0-8.75-5.94,9.31,9.31,0,0,0-3.59.71,11.29,11.29,0,0,0-15.68-.62,9.1,9.1,0,0,0-.91.16A6.56,6.56,0,0,0,22,13.93a6.49,6.49,0,0,0-10.08,4.4,3.93,3.93,0,0,0-.49,0A6.41,6.41,0,0,0,8.78,30.58Z"/><path class="cls-38" d="M8.93,30.42a7.9,7.9,0,0,0-.12,1.39A8.21,8.21,0,0,0,17,40a7.81,7.81,0,0,0,1.54-.15,10.37,10.37,0,0,0,16,2A9.26,9.26,0,0,0,50.46,41a10.42,10.42,0,0,0,16.35-8.56A10.88,10.88,0,0,0,66.7,31a6.63,6.63,0,0,0-3.27-12.41q-.33,0-.66,0A9.42,9.42,0,0,0,54,12.63a9.53,9.53,0,0,0-3.59.71,11.31,11.31,0,0,0-15.68-.62,9.12,9.12,0,0,0-.91.17,6.55,6.55,0,0,0-11.73.88,6.4,6.4,0,0,0-3.66-1.14A6.49,6.49,0,0,0,12,18.16l-.49,0A6.42,6.42,0,0,0,8.93,30.42Z"/><path class="cls-39" d="M9.08,30.25A8.1,8.1,0,0,0,9,31.65a8.22,8.22,0,0,0,8.21,8.21,7.81,7.81,0,0,0,1.54-.15,10.39,10.39,0,0,0,16,2,9.26,9.26,0,0,0,15.86-.88A10.41,10.41,0,0,0,67,32.3a10.73,10.73,0,0,0-.11-1.51,6.64,6.64,0,0,0-3.27-12.42c-.22,0-.44,0-.66,0a9.42,9.42,0,0,0-12.34-5.23,11.29,11.29,0,0,0-15.68-.62,9.1,9.1,0,0,0-.91.16,6.56,6.56,0,0,0-11.73.89,6.4,6.4,0,0,0-3.66-1.14A6.49,6.49,0,0,0,12.18,18l-.49,0A6.41,6.41,0,0,0,9.08,30.25Z"/><path class="cls-40" d="M9.23,30.09a9.09,9.09,0,0,0-.12,1.39,8.21,8.21,0,0,0,8.21,8.21,8.76,8.76,0,0,0,1.55-.14,10.37,10.37,0,0,0,16,2,9.26,9.26,0,0,0,15.86-.87,10.41,10.41,0,0,0,16.35-8.56A10.88,10.88,0,0,0,67,30.62a6.63,6.63,0,0,0-3.27-12.41q-.33,0-.66,0a9.41,9.41,0,0,0-8.75-5.93,9.53,9.53,0,0,0-3.59.7,11.31,11.31,0,0,0-15.68-.62c-.31,0-.61.1-.91.17a6.55,6.55,0,0,0-11.73.88,6.49,6.49,0,0,0-10.08,4.39l-.49,0A6.42,6.42,0,0,0,9.23,30.09Z"/><path class="cls-41" d="M9.38,29.92a9.22,9.22,0,0,0-.12,1.4,8.22,8.22,0,0,0,8.21,8.21A7.91,7.91,0,0,0,19,39.38a10.38,10.38,0,0,0,16,2,9.26,9.26,0,0,0,15.86-.87A10.42,10.42,0,0,0,67.26,32a10.73,10.73,0,0,0-.11-1.51,6.63,6.63,0,0,0-3.27-12.41q-.33,0-.66,0a9.42,9.42,0,0,0-12.34-5.23,11.29,11.29,0,0,0-15.68-.62c-.31,0-.61.1-.91.16a6.56,6.56,0,0,0-11.73.89,6.4,6.4,0,0,0-3.66-1.14,6.48,6.48,0,0,0-6.41,5.53l-.5,0A6.41,6.41,0,0,0,9.38,29.92Z"/><path class="cls-42" d="M9.54,29.76a8,8,0,0,0-.13,1.39,8.21,8.21,0,0,0,8.21,8.21,8.76,8.76,0,0,0,1.55-.14,10.37,10.37,0,0,0,16,2,9.26,9.26,0,0,0,15.86-.87,10.41,10.41,0,0,0,16.35-8.56,10.73,10.73,0,0,0-.11-1.51A6.64,6.64,0,0,0,64,17.88c-.23,0-.45,0-.67,0A9.42,9.42,0,0,0,51,12.69a11.29,11.29,0,0,0-15.68-.62,9.1,9.1,0,0,0-.91.16,6.56,6.56,0,0,0-11.73.88,6.48,6.48,0,0,0-10.07,4.4,4.18,4.18,0,0,0-.5,0,6.41,6.41,0,0,0-2.6,12.27Z"/><path class="cls-43" d="M9.69,29.6A7.9,7.9,0,0,0,9.57,31a8.21,8.21,0,0,0,8.21,8.21,7.88,7.88,0,0,0,1.54-.15,10.36,10.36,0,0,0,16,2,9.26,9.26,0,0,0,15.86-.87,10.42,10.42,0,0,0,16.35-8.56,10.88,10.88,0,0,0-.11-1.52,6.63,6.63,0,0,0-3.26-12.41c-.23,0-.45,0-.67,0a9.41,9.41,0,0,0-8.75-5.94,9.53,9.53,0,0,0-3.59.71A11.31,11.31,0,0,0,35.5,11.9c-.31,0-.61.1-.91.16A6.55,6.55,0,0,0,22.87,13a6.48,6.48,0,0,0-10.08,4.39l-.49,0A6.42,6.42,0,0,0,9.69,29.6Z"/><path class="cls-44" d="M9.84,29.43a8,8,0,0,0-.12,1.4A8.21,8.21,0,0,0,17.93,39a8.74,8.74,0,0,0,1.54-.15,10.38,10.38,0,0,0,16,2A9.26,9.26,0,0,0,51.36,40a10.41,10.41,0,0,0,16.35-8.56A10.73,10.73,0,0,0,67.6,30a6.64,6.64,0,0,0-3.26-12.42,4.92,4.92,0,0,0-.67,0,9.42,9.42,0,0,0-12.34-5.23,11.29,11.29,0,0,0-15.68-.62,8.91,8.91,0,0,0-.9.16A6.56,6.56,0,0,0,23,12.78a6.49,6.49,0,0,0-10.08,4.4l-.49,0A6.41,6.41,0,0,0,9.84,29.43Z"/><path class="cls-45" d="M10,29.27a8,8,0,0,0-.12,1.39,8.2,8.2,0,0,0,8.21,8.21,8.73,8.73,0,0,0,1.54-.14,10.37,10.37,0,0,0,16,2,9.26,9.26,0,0,0,15.86-.87,10.41,10.41,0,0,0,16.35-8.56,10.88,10.88,0,0,0-.11-1.52,6.63,6.63,0,0,0-3.26-12.41c-.23,0-.45,0-.67,0a9.41,9.41,0,0,0-12.33-5.23,11.32,11.32,0,0,0-15.69-.62,8.93,8.93,0,0,0-.9.17,6.55,6.55,0,0,0-11.73.88A6.48,6.48,0,0,0,13.09,17l-.49,0A6.42,6.42,0,0,0,10,29.27Z"/><path class="cls-46" d="M10.14,29.1A8.1,8.1,0,0,0,10,30.5a8.21,8.21,0,0,0,8.21,8.21,7.88,7.88,0,0,0,1.54-.15,10.38,10.38,0,0,0,16,2,9.27,9.27,0,0,0,15.87-.87A10.41,10.41,0,0,0,68,31.15a10.73,10.73,0,0,0-.11-1.51,6.64,6.64,0,0,0-3.26-12.42c-.22,0-.45,0-.67,0a9.41,9.41,0,0,0-8.75-5.94,9.26,9.26,0,0,0-3.58.71A11.3,11.3,0,0,0,36,11.41a8.91,8.91,0,0,0-.9.16,6.56,6.56,0,0,0-11.73.89,6.48,6.48,0,0,0-10.08,4.39l-.49,0A6.41,6.41,0,0,0,10.14,29.1Z"/><path class="cls-47" d="M10.29,28.94a8,8,0,0,0-.12,1.39,8.2,8.2,0,0,0,8.21,8.21,8.65,8.65,0,0,0,1.54-.14,10.37,10.37,0,0,0,16,2,9.27,9.27,0,0,0,15.87-.87A10.41,10.41,0,0,0,68.17,31a10.73,10.73,0,0,0-.12-1.51,6.64,6.64,0,0,0-3.26-12.42c-.22,0-.45,0-.67,0a9.42,9.42,0,0,0-8.75-5.93,9.26,9.26,0,0,0-3.58.71,11.3,11.3,0,0,0-15.69-.62c-.3,0-.6.09-.9.16a6.56,6.56,0,0,0-11.73.88,6.49,6.49,0,0,0-10.08,4.4,3.93,3.93,0,0,0-.49,0,6.41,6.41,0,0,0-2.61,12.27Z"/><path class="cls-48" d="M10.44,28.77a8.1,8.1,0,0,0-.12,1.4,8.22,8.22,0,0,0,8.21,8.21,7.81,7.81,0,0,0,1.54-.15,10.36,10.36,0,0,0,16,2A9.27,9.27,0,0,0,52,39.39a10.42,10.42,0,0,0,16.35-8.56,10.88,10.88,0,0,0-.11-1.52A6.63,6.63,0,0,0,64.94,16.9c-.22,0-.45,0-.67,0A9.41,9.41,0,0,0,51.94,11.7a11.3,11.3,0,0,0-15.69-.62c-.3,0-.6.1-.9.16a6.56,6.56,0,0,0-11.73.89,6.48,6.48,0,0,0-10.08,4.39l-.49,0a6.41,6.41,0,0,0-2.61,12.27Z"/><path class="cls-49" d="M10.59,28.61a8,8,0,0,0-.12,1.4,8.22,8.22,0,0,0,8.21,8.21,8.65,8.65,0,0,0,1.54-.15,10.38,10.38,0,0,0,16,2,9.25,9.25,0,0,0,15.86-.87,10.41,10.41,0,0,0,16.35-8.56,10.73,10.73,0,0,0-.11-1.51,6.64,6.64,0,0,0-3.27-12.42,5,5,0,0,0-.67,0,9.4,9.4,0,0,0-8.75-5.94,9.29,9.29,0,0,0-3.58.71,11.29,11.29,0,0,0-15.68-.62,9.1,9.1,0,0,0-.91.16A6.56,6.56,0,0,0,23.77,12a6.49,6.49,0,0,0-10.08,4.4l-.49,0a6.41,6.41,0,0,0-2.61,12.27Z"/><path class="cls-50" d="M10.74,28.45a8,8,0,0,0-.12,1.39,8.21,8.21,0,0,0,8.21,8.21,7.81,7.81,0,0,0,1.54-.15,10.37,10.37,0,0,0,16,2,9.26,9.26,0,0,0,15.86-.87A10.42,10.42,0,0,0,68.62,30.5,10.88,10.88,0,0,0,68.51,29a6.63,6.63,0,0,0-3.27-12.41c-.22,0-.45,0-.66,0a9.42,9.42,0,0,0-12.34-5.23,11.31,11.31,0,0,0-15.68-.62,9.12,9.12,0,0,0-.91.17,6.55,6.55,0,0,0-11.73.88,6.4,6.4,0,0,0-3.66-1.14,6.49,6.49,0,0,0-6.42,5.53l-.49,0a6.42,6.42,0,0,0-2.61,12.28Z"/><path class="cls-51" d="M10.89,28.28a8.1,8.1,0,0,0-.12,1.4A8.22,8.22,0,0,0,19,37.89a7.81,7.81,0,0,0,1.54-.15,10.39,10.39,0,0,0,16,2,9.26,9.26,0,0,0,15.86-.87,10.42,10.42,0,0,0,16.35-8.57,10.73,10.73,0,0,0-.11-1.51A6.64,6.64,0,0,0,65.39,16.4c-.22,0-.44,0-.66,0a9.42,9.42,0,0,0-12.34-5.23,11.29,11.29,0,0,0-15.68-.62,9.1,9.1,0,0,0-.91.16,6.56,6.56,0,0,0-11.73.89,6.4,6.4,0,0,0-3.66-1.14A6.49,6.49,0,0,0,14,16l-.49,0a6.41,6.41,0,0,0-2.61,12.27Z"/><path class="cls-52" d="M11,28.12a8,8,0,0,0-.12,1.39,8.21,8.21,0,0,0,8.21,8.21,8.56,8.56,0,0,0,1.54-.14,10.38,10.38,0,0,0,16,2,9.26,9.26,0,0,0,15.86-.87,10.41,10.41,0,0,0,16.35-8.56,10.88,10.88,0,0,0-.11-1.52,6.63,6.63,0,0,0-3.27-12.41q-.33,0-.66,0a9.42,9.42,0,0,0-12.34-5.22,11.29,11.29,0,0,0-15.68-.62,9.1,9.1,0,0,0-.91.16,6.56,6.56,0,0,0-11.73.88,6.48,6.48,0,0,0-10.07,4.4,4.19,4.19,0,0,0-.5,0A6.42,6.42,0,0,0,11,28.12Z"/><path class="cls-53" d="M11.19,28a9.22,9.22,0,0,0-.12,1.4,8.22,8.22,0,0,0,8.21,8.21,7.91,7.91,0,0,0,1.55-.15,10.36,10.36,0,0,0,16,2,9.26,9.26,0,0,0,15.86-.87A10.42,10.42,0,0,0,69.07,30,10.88,10.88,0,0,0,69,28.49a6.63,6.63,0,0,0-3.27-12.41q-.33,0-.66,0a9.42,9.42,0,0,0-8.75-5.94,9.53,9.53,0,0,0-3.59.71A11.29,11.29,0,0,0,37,10.26c-.31,0-.61.1-.91.16a6.56,6.56,0,0,0-11.73.89,6.4,6.4,0,0,0-3.66-1.14A6.48,6.48,0,0,0,14.3,15.7l-.5,0A6.41,6.41,0,0,0,11.19,28Z"/><path class="cls-54" d="M11.34,27.79a9.11,9.11,0,0,0-.12,1.4,8.21,8.21,0,0,0,8.21,8.2A8.76,8.76,0,0,0,21,37.25a10.37,10.37,0,0,0,16,2,9.25,9.25,0,0,0,15.86-.87,10.41,10.41,0,0,0,16.35-8.56,10.73,10.73,0,0,0-.11-1.51,6.64,6.64,0,0,0-3.26-12.42,4.92,4.92,0,0,0-.67,0,9.42,9.42,0,0,0-12.34-5.23,11.29,11.29,0,0,0-15.68-.62,9.1,9.1,0,0,0-.91.16,6.56,6.56,0,0,0-11.73.88,6.48,6.48,0,0,0-10.07,4.4,4.18,4.18,0,0,0-.5,0,6.41,6.41,0,0,0-2.61,12.27Z"/><path class="cls-55" d="M11.5,27.63A8,8,0,0,0,11.37,29a8.21,8.21,0,0,0,8.21,8.21,7.91,7.91,0,0,0,1.55-.15,10.36,10.36,0,0,0,16,2A9.26,9.26,0,0,0,53,38.24a10.42,10.42,0,0,0,16.35-8.56,10.88,10.88,0,0,0-.11-1.52A6.63,6.63,0,0,0,66,15.75c-.23,0-.45,0-.67,0a9.41,9.41,0,0,0-8.75-5.94,9.53,9.53,0,0,0-3.59.71,11.31,11.31,0,0,0-15.68-.62,9.12,9.12,0,0,0-.91.17A6.55,6.55,0,0,0,24.67,11,6.4,6.4,0,0,0,21,9.84a6.48,6.48,0,0,0-6.41,5.53l-.49,0A6.42,6.42,0,0,0,11.5,27.63Z"/><path class="cls-56" d="M11.65,27.46a8.1,8.1,0,0,0-.12,1.4,8.21,8.21,0,0,0,8.21,8.21,7.88,7.88,0,0,0,1.54-.15,10.38,10.38,0,0,0,16,2,9.26,9.26,0,0,0,15.86-.88,10.41,10.41,0,0,0,16.35-8.56A10.73,10.73,0,0,0,69.41,28a6.64,6.64,0,0,0-3.26-12.42c-.23,0-.45,0-.67,0a9.42,9.42,0,0,0-12.34-5.23,11.29,11.29,0,0,0-15.68-.62,8.91,8.91,0,0,0-.9.16,6.56,6.56,0,0,0-11.73.89,6.48,6.48,0,0,0-10.08,4.39l-.49,0a6.41,6.41,0,0,0-2.61,12.27Z"/><path class="cls-57" d="M11.8,27.3a8,8,0,0,0-.12,1.39,8.2,8.2,0,0,0,8.21,8.21,8.73,8.73,0,0,0,1.54-.14,10.37,10.37,0,0,0,16,2,9.26,9.26,0,0,0,15.86-.87,10.41,10.41,0,0,0,16.35-8.56,10.88,10.88,0,0,0-.11-1.52A6.63,6.63,0,0,0,66.3,15.42c-.23,0-.45,0-.67,0a9.42,9.42,0,0,0-12.34-5.22A11.3,11.3,0,0,0,37.61,9.6a8.93,8.93,0,0,0-.9.17A6.55,6.55,0,0,0,25,10.65,6.49,6.49,0,0,0,14.9,15l-.49,0A6.42,6.42,0,0,0,11.8,27.3Z"/><path class="cls-58" d="M12,27.13a8.1,8.1,0,0,0-.12,1.4A8.21,8.21,0,0,0,20,36.74a7.88,7.88,0,0,0,1.54-.15,10.36,10.36,0,0,0,16,2,9.26,9.26,0,0,0,15.86-.87,10.42,10.42,0,0,0,16.35-8.56,10.77,10.77,0,0,0-.11-1.52,6.63,6.63,0,0,0-3.26-12.41c-.23,0-.45,0-.67,0A9.41,9.41,0,0,0,57,9.35a9.26,9.26,0,0,0-3.58.71,11.3,11.3,0,0,0-15.69-.62c-.3,0-.61.1-.9.16a6.56,6.56,0,0,0-11.73.89,6.48,6.48,0,0,0-10.08,4.39l-.49,0A6.41,6.41,0,0,0,12,27.13Z"/><path class="cls-59" d="M12.1,27A8,8,0,0,0,12,28.36a8.2,8.2,0,0,0,8.21,8.21,8.65,8.65,0,0,0,1.54-.14,10.37,10.37,0,0,0,16,2,9.27,9.27,0,0,0,15.87-.87A10.4,10.4,0,0,0,70,29a9.42,9.42,0,0,0-.11-1.51A6.64,6.64,0,0,0,66.6,15.09c-.23,0-.45,0-.67,0a9.42,9.42,0,0,0-8.75-5.93,9.26,9.26,0,0,0-3.58.71,11.3,11.3,0,0,0-15.69-.62,8.91,8.91,0,0,0-.9.16,6.56,6.56,0,0,0-11.73.88,6.49,6.49,0,0,0-10.08,4.4,4,4,0,0,0-.49,0A6.41,6.41,0,0,0,12.1,27Z"/><path class="cls-60" d="M12.25,26.81a7.9,7.9,0,0,0-.12,1.39,8.21,8.21,0,0,0,8.21,8.21,7.81,7.81,0,0,0,1.54-.15,10.36,10.36,0,0,0,16,2,9.27,9.27,0,0,0,15.87-.87,10.41,10.41,0,0,0,16.34-8.56A9.54,9.54,0,0,0,70,27.34a6.63,6.63,0,0,0-3.26-12.41c-.22,0-.45,0-.67,0A9.41,9.41,0,0,0,53.75,9.73a11.32,11.32,0,0,0-15.69-.62c-.3,0-.6.1-.9.16a6.56,6.56,0,0,0-11.73.89,6.48,6.48,0,0,0-10.08,4.39l-.49,0a6.42,6.42,0,0,0-2.61,12.28Z"/><path class="cls-61" d="M12.4,26.64a8,8,0,0,0-.12,1.4,8.22,8.22,0,0,0,8.21,8.21A8.65,8.65,0,0,0,22,36.1a10.38,10.38,0,0,0,16,2,9.25,9.25,0,0,0,15.86-.87,10.41,10.41,0,0,0,16.35-8.56,10.73,10.73,0,0,0-.11-1.51A6.64,6.64,0,0,0,66.9,14.76a5,5,0,0,0-.67,0,9.4,9.4,0,0,0-8.75-5.94,9.26,9.26,0,0,0-3.58.71A11.3,11.3,0,0,0,38.21,9c-.3,0-.6.09-.9.16A6.56,6.56,0,0,0,25.58,10a6.49,6.49,0,0,0-10.08,4.4l-.49,0A6.41,6.41,0,0,0,12.4,26.64Z"/><path class="cls-62" d="M12.55,26.48a8,8,0,0,0-.12,1.39,8.21,8.21,0,0,0,8.21,8.21,8.65,8.65,0,0,0,1.54-.14,10.38,10.38,0,0,0,16,2,9.26,9.26,0,0,0,15.86-.87,10.41,10.41,0,0,0,16.35-8.56A10.88,10.88,0,0,0,70.32,27,6.63,6.63,0,0,0,67.05,14.6c-.22,0-.45,0-.66,0A9.42,9.42,0,0,0,54.05,9.4a11.31,11.31,0,0,0-15.68-.62,9.12,9.12,0,0,0-.91.17,6.55,6.55,0,0,0-11.73.88,6.4,6.4,0,0,0-3.66-1.14,6.5,6.5,0,0,0-6.42,5.53l-.49,0a6.42,6.42,0,0,0-2.61,12.28Z"/><path class="cls-63" d="M12.7,26.31a8.1,8.1,0,0,0-.12,1.4,8.22,8.22,0,0,0,8.21,8.21,7.81,7.81,0,0,0,1.54-.15,10.39,10.39,0,0,0,16,2,9.26,9.26,0,0,0,15.86-.87,10.42,10.42,0,0,0,16.35-8.57,10.73,10.73,0,0,0-.11-1.51A6.63,6.63,0,0,0,67.2,14.44q-.33,0-.66,0a9.42,9.42,0,0,0-8.75-5.94,9.31,9.31,0,0,0-3.59.71,11.29,11.29,0,0,0-15.68-.62,9.1,9.1,0,0,0-.91.16,6.56,6.56,0,0,0-11.73.89,6.4,6.4,0,0,0-3.66-1.14,6.49,6.49,0,0,0-6.42,5.53l-.49,0A6.41,6.41,0,0,0,12.7,26.31Z"/><path class="cls-64" d="M12.85,26.15a8,8,0,0,0-.12,1.39,8.21,8.21,0,0,0,8.21,8.21,8.56,8.56,0,0,0,1.54-.14,10.38,10.38,0,0,0,16,2,9.26,9.26,0,0,0,15.86-.87A10.41,10.41,0,0,0,70.73,28.2a10.73,10.73,0,0,0-.11-1.51,6.64,6.64,0,0,0-3.27-12.42q-.33,0-.66,0A9.42,9.42,0,0,0,54.35,9.08a11.29,11.29,0,0,0-15.68-.62,9.1,9.1,0,0,0-.91.16A6.56,6.56,0,0,0,26,9.5,6.48,6.48,0,0,0,16,13.9a4.18,4.18,0,0,0-.5,0,6.41,6.41,0,0,0-2.61,12.27Z"/><path class="cls-65" d="M13,26a8.1,8.1,0,0,0-.12,1.4,8.22,8.22,0,0,0,8.21,8.21,7.74,7.74,0,0,0,1.54-.15,10.37,10.37,0,0,0,16,2,9.26,9.26,0,0,0,15.86-.87A10.42,10.42,0,0,0,70.88,28a10.88,10.88,0,0,0-.11-1.52A6.63,6.63,0,0,0,67.5,14.11q-.33,0-.66,0A9.42,9.42,0,0,0,58.09,8.2a9.53,9.53,0,0,0-3.59.71,11.29,11.29,0,0,0-15.68-.62c-.31,0-.61.1-.91.16a6.56,6.56,0,0,0-11.73.89A6.4,6.4,0,0,0,22.52,8.2a6.48,6.48,0,0,0-6.41,5.53l-.5,0A6.41,6.41,0,0,0,13,26Z"/><path class="cls-66" d="M13.15,25.82a9.11,9.11,0,0,0-.12,1.4,8.22,8.22,0,0,0,8.21,8.21,8.76,8.76,0,0,0,1.55-.15,10.37,10.37,0,0,0,16,2,9.25,9.25,0,0,0,15.86-.87A10.41,10.41,0,0,0,71,27.87a10.73,10.73,0,0,0-.11-1.51,6.64,6.64,0,0,0-3.26-12.42A4.92,4.92,0,0,0,67,14,9.42,9.42,0,0,0,54.65,8.75,11.29,11.29,0,0,0,39,8.13a9.1,9.1,0,0,0-.91.16,6.56,6.56,0,0,0-11.73.88,6.48,6.48,0,0,0-10.07,4.4l-.5,0a6.41,6.41,0,0,0-2.61,12.27Z"/><path class="cls-67" d="M13.3,25.66a9.09,9.09,0,0,0-.12,1.39,8.21,8.21,0,0,0,8.21,8.21,7.91,7.91,0,0,0,1.55-.15,10.36,10.36,0,0,0,16,2,9.26,9.26,0,0,0,15.86-.87,10.42,10.42,0,0,0,16.35-8.56,10.88,10.88,0,0,0-.11-1.52,6.63,6.63,0,0,0-3.26-12.41c-.23,0-.45,0-.67,0a9.42,9.42,0,0,0-8.75-5.94,9.53,9.53,0,0,0-3.59.71A11.31,11.31,0,0,0,39.12,8a9.12,9.12,0,0,0-.91.17A6.55,6.55,0,0,0,26.48,9a6.4,6.4,0,0,0-3.66-1.14,6.49,6.49,0,0,0-6.41,5.53l-.49,0A6.42,6.42,0,0,0,13.3,25.66Z"/><path class="cls-68" d="M13.46,25.49a8.1,8.1,0,0,0-.13,1.4,8.22,8.22,0,0,0,8.22,8.21A7.88,7.88,0,0,0,23.09,35a10.38,10.38,0,0,0,16,2A9.26,9.26,0,0,0,55,36.11a10.42,10.42,0,0,0,16.35-8.57A10.73,10.73,0,0,0,71.22,26,6.64,6.64,0,0,0,68,13.61c-.23,0-.45,0-.67,0A9.42,9.42,0,0,0,55,8.42,11.29,11.29,0,0,0,39.27,7.8a8.44,8.44,0,0,0-.9.16,6.56,6.56,0,0,0-11.73.89,6.48,6.48,0,0,0-10.08,4.39l-.49,0a6.41,6.41,0,0,0-2.61,12.27Z"/><path class="cls-69" d="M13.61,25.33a8,8,0,0,0-.12,1.39,8.2,8.2,0,0,0,8.21,8.21,8.73,8.73,0,0,0,1.54-.14,10.37,10.37,0,0,0,16,2,9.26,9.26,0,0,0,15.86-.87,10.41,10.41,0,0,0,16.35-8.56,11,11,0,0,0-.11-1.52,6.63,6.63,0,0,0-3.26-12.41c-.23,0-.45,0-.67,0A9.42,9.42,0,0,0,55.1,8.26a11.29,11.29,0,0,0-15.68-.62,8.91,8.91,0,0,0-.9.16,6.56,6.56,0,0,0-11.73.88,6.49,6.49,0,0,0-10.08,4.4,4,4,0,0,0-.49,0,6.42,6.42,0,0,0-2.61,12.28Z"/><path class="cls-70" d="M13.76,25.16a8.1,8.1,0,0,0-.12,1.4,8.21,8.21,0,0,0,8.21,8.21,7.88,7.88,0,0,0,1.54-.15,10.36,10.36,0,0,0,16,2,9.26,9.26,0,0,0,15.86-.87,10.42,10.42,0,0,0,16.35-8.56,10.88,10.88,0,0,0-.11-1.52,6.63,6.63,0,0,0-3.26-12.41c-.23,0-.45,0-.67,0A9.41,9.41,0,0,0,55.26,8.09a11.3,11.3,0,0,0-15.69-.62c-.3,0-.61.1-.9.16a6.56,6.56,0,0,0-11.73.89,6.48,6.48,0,0,0-10.08,4.39l-.49,0a6.41,6.41,0,0,0-2.61,12.27Z"/><path class="cls-71" d="M13.91,25a8,8,0,0,0-.12,1.4A8.2,8.2,0,0,0,22,34.6a8.65,8.65,0,0,0,1.54-.14,10.37,10.37,0,0,0,16,2,9.26,9.26,0,0,0,15.87-.87,10.4,10.4,0,0,0,16.34-8.56,9.42,9.42,0,0,0-.11-1.51,6.64,6.64,0,0,0-3.26-12.42,4.92,4.92,0,0,0-.67,0A9.41,9.41,0,0,0,59,7.22a9.26,9.26,0,0,0-3.58.71,11.3,11.3,0,0,0-15.69-.62,8.91,8.91,0,0,0-.9.16,6.56,6.56,0,0,0-11.73.88A6.49,6.49,0,0,0,17,12.75a4,4,0,0,0-.49,0A6.41,6.41,0,0,0,13.91,25Z"/><path class="cls-72" d="M14.06,24.84a8,8,0,0,0-.12,1.39,8.2,8.2,0,0,0,8.21,8.21,7.81,7.81,0,0,0,1.54-.15,10.36,10.36,0,0,0,16,2,9.27,9.27,0,0,0,15.87-.87,10.41,10.41,0,0,0,16.34-8.56,9.54,9.54,0,0,0-.11-1.52A6.63,6.63,0,0,0,68.56,13c-.23,0-.45,0-.67,0A9.41,9.41,0,0,0,55.56,7.76a11.32,11.32,0,0,0-15.69-.62,8.93,8.93,0,0,0-.9.17,6.55,6.55,0,0,0-11.73.88,6.48,6.48,0,0,0-10.08,4.39l-.49,0a6.42,6.42,0,0,0-2.61,12.28Z"/><path class="cls-73" d="M14.21,24.67a8.1,8.1,0,0,0-.12,1.4,8.22,8.22,0,0,0,8.21,8.21,7.81,7.81,0,0,0,1.54-.15,10.38,10.38,0,0,0,16,2,9.27,9.27,0,0,0,15.87-.87,10.42,10.42,0,0,0,16.35-8.57A10.73,10.73,0,0,0,72,25.21a6.64,6.64,0,0,0-3.27-12.42c-.22,0-.45,0-.67,0a9.4,9.4,0,0,0-8.75-5.94,9.26,9.26,0,0,0-3.58.71A11.29,11.29,0,0,0,40,7a9.1,9.1,0,0,0-.91.16A6.56,6.56,0,0,0,27.39,8a6.48,6.48,0,0,0-10.08,4.39l-.49,0a6.41,6.41,0,0,0-2.61,12.27Z"/><path class="cls-74" d="M14.36,24.51a8,8,0,0,0-.12,1.39,8.21,8.21,0,0,0,8.21,8.21A8.65,8.65,0,0,0,24,34a10.38,10.38,0,0,0,16,2,9.26,9.26,0,0,0,15.86-.87,10.41,10.41,0,0,0,16.35-8.56A10.88,10.88,0,0,0,72.13,25a6.63,6.63,0,0,0-3.27-12.41c-.22,0-.45,0-.66,0a9.43,9.43,0,0,0-8.75-5.93,9.27,9.27,0,0,0-3.59.71,11.3,11.3,0,0,0-15.68-.63c-.31.05-.61.1-.91.17a6.55,6.55,0,0,0-11.73.88,6.49,6.49,0,0,0-10.08,4.39l-.49,0a6.42,6.42,0,0,0-2.61,12.28Z"/><path class="cls-75" d="M14.51,24.34a8.1,8.1,0,0,0-.12,1.4A8.22,8.22,0,0,0,22.6,34a7.81,7.81,0,0,0,1.54-.15,10.37,10.37,0,0,0,16,2A9.26,9.26,0,0,0,56,35a10.42,10.42,0,0,0,16.35-8.57,10.84,10.84,0,0,0-.11-1.51A6.63,6.63,0,0,0,69,12.47l-.66,0A9.42,9.42,0,0,0,59.6,6.56,9.31,9.31,0,0,0,56,7.27a11.29,11.29,0,0,0-15.68-.62c-.31,0-.61.1-.91.16a6.56,6.56,0,0,0-11.73.89A6.4,6.4,0,0,0,24,6.56a6.49,6.49,0,0,0-6.42,5.53l-.49,0a6.41,6.41,0,0,0-2.61,12.27Z"/><path class="cls-76" d="M14.66,24.18a8,8,0,0,0-.12,1.4,8.21,8.21,0,0,0,8.21,8.2,8.65,8.65,0,0,0,1.54-.14,10.38,10.38,0,0,0,16,2,9.26,9.26,0,0,0,15.86-.87,10.41,10.41,0,0,0,16.35-8.56,10.73,10.73,0,0,0-.11-1.51A6.64,6.64,0,0,0,69.16,12.3l-.66,0A9.42,9.42,0,0,0,56.16,7.11a11.29,11.29,0,0,0-15.68-.62,9.1,9.1,0,0,0-.91.16,6.56,6.56,0,0,0-11.73.88,6.49,6.49,0,0,0-10.08,4.4,3.93,3.93,0,0,0-.49,0,6.41,6.41,0,0,0-2.61,12.27Z"/><path class="cls-77" d="M14.81,24a8,8,0,0,0-.12,1.39,8.22,8.22,0,0,0,8.21,8.21,7.74,7.74,0,0,0,1.54-.15,10.37,10.37,0,0,0,16,2,9.26,9.26,0,0,0,15.86-.87,10.42,10.42,0,0,0,16.35-8.56,10.88,10.88,0,0,0-.11-1.52,6.63,6.63,0,0,0-3.27-12.41l-.66,0A9.42,9.42,0,0,0,59.9,6.23a9.53,9.53,0,0,0-3.59.71,11.31,11.31,0,0,0-15.68-.62c-.31,0-.61.1-.91.16A6.56,6.56,0,0,0,28,7.37a6.4,6.4,0,0,0-3.66-1.14,6.48,6.48,0,0,0-6.41,5.53l-.5,0A6.42,6.42,0,0,0,14.81,24Z"/><path class="cls-78" d="M15,23.85a9.11,9.11,0,0,0-.12,1.4,8.22,8.22,0,0,0,8.21,8.21,8.76,8.76,0,0,0,1.55-.15,10.38,10.38,0,0,0,16,2,9.26,9.26,0,0,0,15.86-.88A10.41,10.41,0,0,0,72.84,25.9a10.73,10.73,0,0,0-.11-1.51A6.64,6.64,0,0,0,69.46,12a4.87,4.87,0,0,0-.66,0A9.42,9.42,0,0,0,56.46,6.78a11.29,11.29,0,0,0-15.68-.62,9.1,9.1,0,0,0-.91.16,6.56,6.56,0,0,0-11.73.89,6.4,6.4,0,0,0-3.66-1.14,6.48,6.48,0,0,0-6.41,5.53l-.5,0A6.41,6.41,0,0,0,15,23.85Z"/><path class="cls-79" d="M15.11,23.69A9.09,9.09,0,0,0,15,25.08a8.21,8.21,0,0,0,8.21,8.21,8.76,8.76,0,0,0,1.55-.14,10.37,10.37,0,0,0,16,2,9.26,9.26,0,0,0,15.86-.87A10.41,10.41,0,0,0,73,25.74a10.88,10.88,0,0,0-.11-1.52,6.63,6.63,0,0,0-3.26-12.41c-.23,0-.45,0-.67,0A9.41,9.41,0,0,0,60.2,5.91a9.53,9.53,0,0,0-3.59.7A11.31,11.31,0,0,0,40.93,6a9.12,9.12,0,0,0-.91.17A6.55,6.55,0,0,0,28.29,7a6.4,6.4,0,0,0-3.66-1.13,6.48,6.48,0,0,0-6.41,5.52l-.5,0a6.42,6.42,0,0,0-2.61,12.28Z"/><path class="cls-80" d="M15.27,23.52a8.1,8.1,0,0,0-.12,1.4,8.21,8.21,0,0,0,8.21,8.21A7.88,7.88,0,0,0,24.9,33a10.38,10.38,0,0,0,16,2,9.26,9.26,0,0,0,15.86-.87,10.42,10.42,0,0,0,16.35-8.57A10.73,10.73,0,0,0,73,24.06a6.64,6.64,0,0,0-3.26-12.42c-.23,0-.45,0-.67,0A9.42,9.42,0,0,0,56.76,6.45a11.29,11.29,0,0,0-15.68-.62,9.1,9.1,0,0,0-.91.16,6.55,6.55,0,0,0-11.72.89,6.48,6.48,0,0,0-10.08,4.39l-.49,0a6.41,6.41,0,0,0-2.61,12.27Z"/><path class="cls-81" d="M15.42,23.36a8,8,0,0,0-.12,1.39A8.2,8.2,0,0,0,23.51,33a8.73,8.73,0,0,0,1.54-.14,10.37,10.37,0,0,0,16,2A9.26,9.26,0,0,0,56.94,34a10.41,10.41,0,0,0,16.35-8.56,10.73,10.73,0,0,0-.11-1.51,6.64,6.64,0,0,0-3.26-12.42c-.23,0-.45,0-.67,0A9.42,9.42,0,0,0,56.91,6.29a11.29,11.29,0,0,0-15.68-.62,8.44,8.44,0,0,0-.9.16,6.56,6.56,0,0,0-11.73.88,6.49,6.49,0,0,0-10.08,4.4,4,4,0,0,0-.49,0,6.41,6.41,0,0,0-2.61,12.27Z"/><path class="cls-82" d="M15.57,23.19a8.1,8.1,0,0,0-.12,1.4,8.21,8.21,0,0,0,8.21,8.21,7.88,7.88,0,0,0,1.54-.15,10.36,10.36,0,0,0,16,2,9.26,9.26,0,0,0,15.86-.87,10.42,10.42,0,0,0,16.35-8.56,10.88,10.88,0,0,0-.11-1.52,6.63,6.63,0,0,0-3.26-12.41c-.23,0-.45,0-.67,0A9.41,9.41,0,0,0,57.07,6.12,11.3,11.3,0,0,0,41.38,5.5c-.3,0-.61.1-.9.16a6.56,6.56,0,0,0-11.73.89,6.48,6.48,0,0,0-10.08,4.39l-.49,0a6.41,6.41,0,0,0-2.61,12.27Z"/><path class="cls-83" d="M15.72,23a8,8,0,0,0-.12,1.4,8.21,8.21,0,0,0,8.21,8.21,8.74,8.74,0,0,0,1.54-.15,10.37,10.37,0,0,0,16,2,9.26,9.26,0,0,0,15.87-.87,10.4,10.4,0,0,0,16.34-8.56,10.73,10.73,0,0,0-.11-1.51,6.64,6.64,0,0,0-3.26-12.42,4.92,4.92,0,0,0-.67,0A9.41,9.41,0,0,0,60.8,5.25,9.26,9.26,0,0,0,57.22,6a11.3,11.3,0,0,0-15.69-.62,8.91,8.91,0,0,0-.9.16,6.56,6.56,0,0,0-11.73.88,6.49,6.49,0,0,0-10.08,4.4l-.49,0A6.41,6.41,0,0,0,15.72,23Z"/><path class="cls-84" d="M15.87,22.87a8,8,0,0,0-.12,1.39A8.2,8.2,0,0,0,24,32.47a7.81,7.81,0,0,0,1.54-.15,10.36,10.36,0,0,0,16,2,9.27,9.27,0,0,0,15.87-.87,10.41,10.41,0,0,0,16.34-8.56,9.54,9.54,0,0,0-.11-1.52A6.63,6.63,0,0,0,70.37,11c-.23,0-.45,0-.67,0A9.41,9.41,0,0,0,57.37,5.79a11.32,11.32,0,0,0-15.69-.62,8.93,8.93,0,0,0-.9.17,6.55,6.55,0,0,0-11.73.88A6.48,6.48,0,0,0,19,10.61l-.49,0a6.42,6.42,0,0,0-2.61,12.28Z"/><path class="cls-85" d="M16,22.7a8.1,8.1,0,0,0-.12,1.4,8.22,8.22,0,0,0,8.21,8.21,7.81,7.81,0,0,0,1.54-.15,10.38,10.38,0,0,0,16,2,9.27,9.27,0,0,0,15.87-.87A10.42,10.42,0,0,0,73.9,24.75a10.73,10.73,0,0,0-.11-1.51,6.64,6.64,0,0,0-3.27-12.42c-.22,0-.45,0-.67,0A9.4,9.4,0,0,0,61.1,4.92a9.26,9.26,0,0,0-3.58.71A11.3,11.3,0,0,0,41.83,5c-.3,0-.6.09-.9.16a6.56,6.56,0,0,0-11.73.89,6.48,6.48,0,0,0-10.08,4.39l-.49,0A6.41,6.41,0,0,0,16,22.7Z"/><path class="cls-86" d="M16.17,22.54a8,8,0,0,0-.12,1.39,8.21,8.21,0,0,0,8.21,8.21A8.65,8.65,0,0,0,25.8,32a10.37,10.37,0,0,0,16,2,9.27,9.27,0,0,0,15.87-.87,10.41,10.41,0,0,0,16.35-8.56,10.73,10.73,0,0,0-.11-1.51,6.64,6.64,0,0,0-3.27-12.42c-.22,0-.45,0-.67,0a9.41,9.41,0,0,0-8.75-5.93,9.26,9.26,0,0,0-3.58.71A11.29,11.29,0,0,0,42,4.85a9.1,9.1,0,0,0-.91.16,6.56,6.56,0,0,0-11.73.88,6.49,6.49,0,0,0-10.08,4.4,3.93,3.93,0,0,0-.49,0,6.41,6.41,0,0,0-2.61,12.27Z"/><path class="cls-87" d="M16.32,22.37a8.1,8.1,0,0,0-.12,1.4A8.22,8.22,0,0,0,24.41,32,7.81,7.81,0,0,0,26,31.83a10.37,10.37,0,0,0,16,2A9.26,9.26,0,0,0,57.85,33,10.42,10.42,0,0,0,74.2,24.43a10.88,10.88,0,0,0-.11-1.52A6.63,6.63,0,0,0,70.82,10.5c-.22,0-.45,0-.66,0A9.42,9.42,0,0,0,57.82,5.3a11.29,11.29,0,0,0-15.68-.62c-.31,0-.61.1-.91.16a6.56,6.56,0,0,0-11.73.89,6.4,6.4,0,0,0-3.66-1.14,6.49,6.49,0,0,0-6.42,5.53l-.49,0a6.41,6.41,0,0,0-2.61,12.27Z"/><path class="cls-88" d="M16.47,22.21a8,8,0,0,0-.12,1.4,8.22,8.22,0,0,0,8.21,8.21,8.65,8.65,0,0,0,1.54-.15,10.38,10.38,0,0,0,16,2A9.25,9.25,0,0,0,58,32.82a10.41,10.41,0,0,0,16.35-8.56,10.73,10.73,0,0,0-.11-1.51A6.64,6.64,0,0,0,71,10.33a4.87,4.87,0,0,0-.66,0A9.42,9.42,0,0,0,58,5.14a11.29,11.29,0,0,0-15.68-.62,9.1,9.1,0,0,0-.91.16,6.56,6.56,0,0,0-11.73.88A6.49,6.49,0,0,0,19.57,10l-.49,0a6.41,6.41,0,0,0-2.61,12.27Z"/><path class="cls-89" d="M16.62,22.05a8,8,0,0,0-.12,1.39,8.21,8.21,0,0,0,8.21,8.21,7.81,7.81,0,0,0,1.54-.15,10.37,10.37,0,0,0,16,2,9.26,9.26,0,0,0,15.86-.87A10.42,10.42,0,0,0,74.5,24.1a10.88,10.88,0,0,0-.11-1.52,6.63,6.63,0,0,0-3.27-12.41l-.66,0a9.42,9.42,0,0,0-8.75-5.94A9.53,9.53,0,0,0,58.12,5a11.31,11.31,0,0,0-15.68-.62,9.12,9.12,0,0,0-.91.17A6.55,6.55,0,0,0,29.8,5.4a6.4,6.4,0,0,0-3.66-1.14,6.5,6.5,0,0,0-6.42,5.53l-.49,0a6.42,6.42,0,0,0-2.61,12.28Z"/><path class="cls-90" d="M16.77,21.88a9.22,9.22,0,0,0-.12,1.4,8.22,8.22,0,0,0,8.21,8.21,7.91,7.91,0,0,0,1.55-.15,10.38,10.38,0,0,0,16,2A9.26,9.26,0,0,0,58.3,32.5a10.42,10.42,0,0,0,16.35-8.57,10.73,10.73,0,0,0-.11-1.51A6.64,6.64,0,0,0,71.27,10c-.22,0-.44,0-.66,0A9.42,9.42,0,0,0,58.27,4.81a11.29,11.29,0,0,0-15.68-.62,9.1,9.1,0,0,0-.91.16A6.56,6.56,0,0,0,30,5.24,6.4,6.4,0,0,0,26.29,4.1a6.48,6.48,0,0,0-6.41,5.53l-.5,0a6.41,6.41,0,0,0-2.61,12.27Z"/><path class="cls-91" d="M16.92,21.72a9.09,9.09,0,0,0-.12,1.39A8.21,8.21,0,0,0,25,31.32a8.76,8.76,0,0,0,1.55-.14,10.37,10.37,0,0,0,16,2,9.26,9.26,0,0,0,15.86-.87A10.41,10.41,0,0,0,74.8,23.77a10.88,10.88,0,0,0-.11-1.52A6.63,6.63,0,0,0,71.42,9.84l-.66,0A9.41,9.41,0,0,0,62,3.94a9.53,9.53,0,0,0-3.59.7A11.31,11.31,0,0,0,42.74,4c-.31.05-.61.1-.91.17a6.55,6.55,0,0,0-11.73.88A6.48,6.48,0,0,0,20,9.46l-.5,0a6.42,6.42,0,0,0-2.61,12.28Z"/><path class="cls-92" d="M17.08,21.55A8.1,8.1,0,0,0,17,23a8.21,8.21,0,0,0,8.21,8.21A7.88,7.88,0,0,0,26.71,31a10.36,10.36,0,0,0,16,2,9.26,9.26,0,0,0,15.86-.87A10.42,10.42,0,0,0,75,23.6a10.73,10.73,0,0,0-.11-1.51A6.63,6.63,0,0,0,71.58,9.68c-.23,0-.45,0-.67,0A9.42,9.42,0,0,0,58.57,4.48a11.29,11.29,0,0,0-15.68-.62c-.31,0-.61.1-.91.16a6.56,6.56,0,0,0-11.73.89,6.4,6.4,0,0,0-3.66-1.14A6.48,6.48,0,0,0,20.18,9.3l-.49,0a6.41,6.41,0,0,0-2.61,12.27Z"/><path class="cls-93" d="M17.23,21.39a8,8,0,0,0-.12,1.4A8.2,8.2,0,0,0,25.32,31a8.73,8.73,0,0,0,1.54-.14,10.37,10.37,0,0,0,16,2A9.26,9.26,0,0,0,58.75,32,10.41,10.41,0,0,0,75.1,23.44,10.73,10.73,0,0,0,75,21.93,6.64,6.64,0,0,0,71.73,9.51c-.23,0-.45,0-.67,0A9.42,9.42,0,0,0,58.72,4.32,11.29,11.29,0,0,0,43,3.7a9.1,9.1,0,0,0-.91.16,6.55,6.55,0,0,0-11.72.88,6.49,6.49,0,0,0-10.08,4.4,4,4,0,0,0-.49,0,6.41,6.41,0,0,0-2.61,12.27Z"/><path class="cls-94" d="M17.38,21.23a7.9,7.9,0,0,0-.12,1.39,8.21,8.21,0,0,0,8.21,8.21A7.88,7.88,0,0,0,27,30.68a10.36,10.36,0,0,0,16,2,9.26,9.26,0,0,0,15.86-.87,10.42,10.42,0,0,0,16.35-8.56,10.88,10.88,0,0,0-.11-1.52A6.63,6.63,0,0,0,71.88,9.35c-.23,0-.45,0-.67,0a9.41,9.41,0,0,0-8.75-5.94,9.53,9.53,0,0,0-3.59.71,11.31,11.31,0,0,0-15.68-.62c-.3,0-.61.1-.9.16a6.56,6.56,0,0,0-11.73.89A6.48,6.48,0,0,0,20.48,9L20,9a6.42,6.42,0,0,0-2.61,12.28Z"/><path class="cls-95" d="M17.53,21.06a8.1,8.1,0,0,0-.12,1.4,8.21,8.21,0,0,0,8.21,8.21,8.74,8.74,0,0,0,1.54-.15,10.38,10.38,0,0,0,16,2,9.26,9.26,0,0,0,15.86-.88A10.41,10.41,0,0,0,75.4,23.11a10.73,10.73,0,0,0-.11-1.51A6.64,6.64,0,0,0,72,9.18a4.92,4.92,0,0,0-.67,0,9.41,9.41,0,0,0-8.75-5.94A9.26,9.26,0,0,0,59,4a11.3,11.3,0,0,0-15.69-.62,8.91,8.91,0,0,0-.9.16,6.56,6.56,0,0,0-11.73.89A6.48,6.48,0,0,0,20.63,8.81l-.49,0a6.41,6.41,0,0,0-2.61,12.27Z"/></g><path class="cls-96" d="M17,21.11a8.21,8.21,0,0,0-.12,1.41,8.35,8.35,0,0,0,8.35,8.35,8.19,8.19,0,0,0,1.57-.15,10.54,10.54,0,0,0,16.3,2.06,9.41,9.41,0,0,0,16.13-.88A10.59,10.59,0,0,0,75.9,23.19a11.17,11.17,0,0,0-.11-1.54A6.75,6.75,0,0,0,72.47,9c-.23,0-.46,0-.68,0A9.58,9.58,0,0,0,59.24,3.74a11.51,11.51,0,0,0-16-.63,9.32,9.32,0,0,0-.92.17,6.67,6.67,0,0,0-11.93.9A6.58,6.58,0,0,0,20.2,8.64l-.51,0A6.53,6.53,0,0,0,17,21.11Z"/></g></g></g></g></svg>