<svg xmlns="http://www.w3.org/2000/svg" xmlns:xlink="http://www.w3.org/1999/xlink" viewBox="0 0 108.81 62.65"><defs><style>.cls-1{isolation:isolate;}.cls-2{opacity:0.5;}.cls-3{mix-blend-mode:multiply;}.cls-4{fill:#f6f6f6;opacity:0;}.cls-5{fill:#f5f5f5;opacity:0.01;}.cls-6{fill:#f4f4f4;opacity:0.02;}.cls-7{fill:#f3f3f3;opacity:0.03;}.cls-8{fill:#f2f2f2;opacity:0.04;}.cls-9{fill:#f1f1f1;opacity:0.05;}.cls-10{fill:#f0f0f0;opacity:0.07;}.cls-11{fill:#efefef;opacity:0.08;}.cls-12{fill:#eee;opacity:0.09;}.cls-13{fill:#ededed;opacity:0.1;}.cls-14{fill:#ececec;opacity:0.11;}.cls-15{fill:#ebebeb;opacity:0.12;}.cls-16{fill:#eaeaea;opacity:0.13;}.cls-17{fill:#e9e9e9;opacity:0.14;}.cls-18{fill:#e8e8e8;opacity:0.15;}.cls-19{fill:#e7e7e7;opacity:0.16;}.cls-20{fill:#e6e6e6;opacity:0.18;}.cls-21{fill:#e5e5e5;opacity:0.19;}.cls-22{fill:#e4e4e4;opacity:0.2;}.cls-23{fill:#e3e3e3;opacity:0.21;}.cls-24{fill:#e2e2e2;opacity:0.22;}.cls-25{fill:#e1e1e1;opacity:0.23;}.cls-26{fill:#e0e0e0;opacity:0.24;}.cls-27{fill:#e0e0df;opacity:0.25;}.cls-28{fill:#dfdfde;opacity:0.26;}.cls-29{fill:#dededd;opacity:0.27;}.cls-30{fill:#dddddc;opacity:0.29;}.cls-31{fill:#dcdcdb;opacity:0.3;}.cls-32{fill:#dbdbda;opacity:0.31;}.cls-33{fill:#dadad9;opacity:0.32;}.cls-34{fill:#d9d9d8;opacity:0.33;}.cls-35{fill:#d8d8d7;opacity:0.34;}.cls-36{fill:#d7d7d6;opacity:0.35;}.cls-37{fill:#d6d6d5;opacity:0.36;}.cls-38{fill:#d5d5d4;opacity:0.37;}.cls-39{fill:#d4d4d3;opacity:0.38;}.cls-40{fill:#d3d3d2;opacity:0.4;}.cls-41{fill:#d2d2d1;opacity:0.41;}.cls-42{fill:#d1d1d0;opacity:0.42;}.cls-43{fill:#d0d0cf;opacity:0.43;}.cls-44{fill:#cfcfce;opacity:0.44;}.cls-45{fill:#cececd;opacity:0.45;}.cls-46{fill:#cdcdcc;opacity:0.46;}.cls-47{fill:#cccccb;opacity:0.47;}.cls-48{fill:#cbcbca;opacity:0.48;}.cls-49{fill:#cacac9;opacity:0.49;}.cls-50{fill:#c9c9c9;opacity:0.51;}.cls-51{fill:#c8c8c8;opacity:0.52;}.cls-52{fill:#c7c7c7;opacity:0.53;}.cls-53{fill:#c6c6c6;opacity:0.54;}.cls-54{fill:#c5c5c5;opacity:0.55;}.cls-55{fill:#c4c4c4;opacity:0.56;}.cls-56{fill:#c3c3c3;opacity:0.57;}.cls-57{fill:#c2c2c2;opacity:0.58;}.cls-58{fill:#c1c1c1;opacity:0.59;}.cls-59{fill:silver;opacity:0.6;}.cls-60{fill:#bfbfbf;opacity:0.62;}.cls-61{fill:#bebebe;opacity:0.63;}.cls-62{fill:#bdbdbd;opacity:0.64;}.cls-63{fill:#bcbcbc;opacity:0.65;}.cls-64{fill:#bbb;opacity:0.66;}.cls-65{fill:#bababa;opacity:0.67;}.cls-66{fill:#b9b9b9;opacity:0.68;}.cls-67{fill:#b8b8b8;opacity:0.69;}.cls-68{fill:#b7b7b7;opacity:0.7;}.cls-69{fill:#b6b6b6;opacity:0.71;}.cls-70{fill:#b5b5b5;opacity:0.73;}.cls-71{fill:#b4b4b4;opacity:0.74;}.cls-72{fill:#b3b3b3;opacity:0.75;}.cls-73{fill:#b3b3b2;opacity:0.76;}.cls-74{fill:#b2b2b1;opacity:0.77;}.cls-75{fill:#b1b1b0;opacity:0.78;}.cls-76{fill:#b0b0af;opacity:0.79;}.cls-77{fill:#afafae;opacity:0.8;}.cls-78{fill:#aeaead;opacity:0.81;}.cls-79{fill:#adadac;opacity:0.82;}.cls-80{fill:#acacab;opacity:0.84;}.cls-81{fill:#ababaa;opacity:0.85;}.cls-82{fill:#aaaaa9;opacity:0.86;}.cls-83{fill:#a9a9a8;opacity:0.87;}.cls-84{fill:#a8a8a7;opacity:0.88;}.cls-85{fill:#a7a7a6;opacity:0.89;}.cls-86{fill:#a6a6a5;opacity:0.9;}.cls-87{fill:#a5a5a4;opacity:0.91;}.cls-88{fill:#a4a4a3;opacity:0.92;}.cls-89{fill:#a3a3a2;opacity:0.93;}.cls-90{fill:#a2a2a1;opacity:0.95;}.cls-91{fill:#a1a1a0;opacity:0.96;}.cls-92{fill:#a0a09f;opacity:0.97;}.cls-93{fill:#9f9f9e;opacity:0.98;}.cls-94{fill:#9e9e9d;opacity:0.99;}.cls-95{fill:#9d9d9c;}.cls-96{fill:url(#linear-gradient);}</style><linearGradient id="linear-gradient" x1="27.52" y1="58.8" x2="86.13" y2="0.18" gradientUnits="userSpaceOnUse"><stop offset="0" stop-color="#fff"/><stop offset="0.65" stop-color="#f6f6f6"/></linearGradient></defs><title>cloud_5</title><g class="cls-1"><g id="Layer_2" data-name="Layer 2"><g id="_ÎÓÈ_1" data-name="—ÎÓÈ_1"><g class="cls-2"><g class="cls-3"><path class="cls-4" d="M95.17,30.35a13.09,13.09,0,0,0,.19-2.18A12.78,12.78,0,0,0,82.58,15.39a12.6,12.6,0,0,0-2.4.23,16.14,16.14,0,0,0-25-3.15,14.41,14.41,0,0,0-24.69,1.35A16.22,16.22,0,0,0,5.08,27.15a16.7,16.7,0,0,0,.17,2.36,10.33,10.33,0,0,0,5.08,19.33,8.94,8.94,0,0,0,1-.06,14.64,14.64,0,0,0,19.2,8.14,17.58,17.58,0,0,0,24.41,1c.48-.07,1-.15,1.42-.26a10.2,10.2,0,0,0,18.25-1.37,10.09,10.09,0,0,0,15.69-6.84c.25,0,.51,0,.77,0a10,10,0,0,0,4.06-19.1Z"/><path class="cls-5" d="M95.24,30.28a11.92,11.92,0,0,0,.19-2.17A12.77,12.77,0,0,0,80.25,15.56a16.14,16.14,0,0,0-25-3.15A14.41,14.41,0,0,0,30.6,13.76,16.21,16.21,0,0,0,5.15,27.09a15.34,15.34,0,0,0,.18,2.36,10.33,10.33,0,0,0,5.08,19.32c.35,0,.69,0,1-.05a14.68,14.68,0,0,0,19.21,8.14,17.57,17.57,0,0,0,24.41,1,13,13,0,0,0,1.41-.25A10.21,10.21,0,0,0,74.73,56.2a10.1,10.1,0,0,0,15.69-6.84c.25,0,.5,0,.76,0a10,10,0,0,0,4.06-19.11Z"/><path class="cls-6" d="M95.32,30.22A12.76,12.76,0,0,0,82.73,15.27a12.6,12.6,0,0,0-2.4.23,16.15,16.15,0,0,0-25-3.16A14.42,14.42,0,0,0,30.68,13.7,16.21,16.21,0,0,0,5.23,27a16.7,16.7,0,0,0,.17,2.36,10.33,10.33,0,0,0,5.08,19.32c.35,0,.7,0,1-.05a14.67,14.67,0,0,0,19.2,8.14,17.58,17.58,0,0,0,24.42,1,13.89,13.89,0,0,0,1.41-.25,10.21,10.21,0,0,0,18.26-1.38,10,10,0,0,0,5.7,1.77,10.09,10.09,0,0,0,10-8.61c.25,0,.51,0,.77,0a10,10,0,0,0,4.06-19.11Z"/><path class="cls-7" d="M95.4,30.16A13,13,0,0,0,95.58,28,12.77,12.77,0,0,0,80.4,15.44a16.15,16.15,0,0,0-25-3.16,14.41,14.41,0,0,0-24.69,1.36A16.21,16.21,0,0,0,5.3,27a15.21,15.21,0,0,0,.18,2.35,10.33,10.33,0,0,0,5.08,19.33c.35,0,.69,0,1,0A14.65,14.65,0,0,0,30.8,56.73a17.58,17.58,0,0,0,24.41,1c.48-.06.95-.15,1.41-.25a10.21,10.21,0,0,0,18.26-1.38,10,10,0,0,0,5.7,1.77,10.1,10.1,0,0,0,10-8.61c.25,0,.5,0,.76,0a10,10,0,0,0,4.07-19.1Z"/><path class="cls-8" d="M95.47,30.1a13,13,0,0,0,.19-2.18A12.78,12.78,0,0,0,82.88,15.15a13.56,13.56,0,0,0-2.4.22,16.14,16.14,0,0,0-25-3.15,14.41,14.41,0,0,0-24.69,1.36A16.21,16.21,0,0,0,5.38,26.9a16.7,16.7,0,0,0,.17,2.36,10.33,10.33,0,0,0,5.08,19.33,8.94,8.94,0,0,0,1-.06,14.64,14.64,0,0,0,19.2,8.14,17.6,17.6,0,0,0,24.42,1c.47-.07.94-.15,1.41-.25A10.21,10.21,0,0,0,75,56a10.08,10.08,0,0,0,15.68-6.84c.26,0,.51,0,.77,0a10,10,0,0,0,4.06-19.1Z"/><path class="cls-9" d="M95.55,30A12.81,12.81,0,0,0,83,15.08a12.68,12.68,0,0,0-2.4.23,16.14,16.14,0,0,0-25-3.15A14.41,14.41,0,0,0,30.9,13.51,16.21,16.21,0,0,0,5.46,26.84a16.7,16.7,0,0,0,.17,2.36,10.33,10.33,0,0,0,5.08,19.32,9.05,9.05,0,0,0,1-.05A14.67,14.67,0,0,0,31,56.61a17.58,17.58,0,0,0,24.41,1c.48-.07,1-.15,1.41-.26A10.21,10.21,0,0,0,75,56a10.1,10.1,0,0,0,15.69-6.84c.25,0,.51,0,.76,0A10,10,0,0,0,95.55,30Z"/><path class="cls-10" d="M95.62,30A12.76,12.76,0,0,0,83,15a12.68,12.68,0,0,0-2.4.23,16.14,16.14,0,0,0-25-3.15A14.41,14.41,0,0,0,31,13.45,16.21,16.21,0,0,0,5.53,26.78a16.7,16.7,0,0,0,.17,2.36,10.33,10.33,0,0,0,5.08,19.32c.35,0,.7,0,1-.05A14.67,14.67,0,0,0,31,56.55a17.58,17.58,0,0,0,24.42,1,13.89,13.89,0,0,0,1.41-.25,10.21,10.21,0,0,0,18.26-1.38,10,10,0,0,0,5.7,1.77,10.08,10.08,0,0,0,10-8.6c.26,0,.51,0,.77,0A10,10,0,0,0,95.62,30Z"/><path class="cls-11" d="M95.7,29.91a13,13,0,0,0,.18-2.17A12.77,12.77,0,0,0,80.7,15.19a16.14,16.14,0,0,0-25-3.16,14.43,14.43,0,0,0-24.7,1.36A16.2,16.2,0,0,0,5.61,26.72a16.7,16.7,0,0,0,.17,2.36A10.33,10.33,0,0,0,10.86,48.4c.35,0,.69,0,1,0a14.67,14.67,0,0,0,19.2,8.14,17.6,17.6,0,0,0,24.41,1c.48-.06,1-.15,1.41-.25a10.21,10.21,0,0,0,18.26-1.38A10.09,10.09,0,0,0,90.87,49c.25,0,.51,0,.76,0A10,10,0,0,0,95.7,29.91Z"/><path class="cls-12" d="M95.77,29.85A13,13,0,0,0,96,27.68,12.78,12.78,0,0,0,83.18,14.9a13.56,13.56,0,0,0-2.4.22,16.16,16.16,0,0,0-25-3.15,14.41,14.41,0,0,0-24.69,1.36A16.21,16.21,0,0,0,5.68,26.65,16.59,16.59,0,0,0,5.85,29a10.33,10.33,0,0,0,5.08,19.33c.35,0,.7,0,1-.05a14.65,14.65,0,0,0,19.21,8.13,17.58,17.58,0,0,0,24.41,1c.47-.06.95-.15,1.41-.25a10.21,10.21,0,0,0,18.26-1.38A10,10,0,0,0,81,57.53a10.09,10.09,0,0,0,10-8.61c.26,0,.51,0,.77,0a10,10,0,0,0,4.06-19.1Z"/><path class="cls-13" d="M95.85,29.79A13,13,0,0,0,96,27.61,12.78,12.78,0,0,0,80.85,15.06,16.13,16.13,0,0,0,55.9,11.91a14.41,14.41,0,0,0-24.69,1.36A16.21,16.21,0,0,0,5.76,26.59,16.7,16.7,0,0,0,5.93,29,10.33,10.33,0,0,0,11,48.28a8.94,8.94,0,0,0,1-.06,14.64,14.64,0,0,0,19.2,8.14,17.58,17.58,0,0,0,24.41,1c.48-.07,1-.15,1.41-.26A10.21,10.21,0,0,0,75.33,55.7,10.09,10.09,0,0,0,91,48.86c.25,0,.51,0,.77,0a10,10,0,0,0,4.06-19.1Z"/><path class="cls-14" d="M95.92,29.72A12.76,12.76,0,0,0,83.33,14.77a12.68,12.68,0,0,0-2.4.23,16.14,16.14,0,0,0-25-3.15A14.41,14.41,0,0,0,31.28,13.2,16.21,16.21,0,0,0,5.83,26.53,16.7,16.7,0,0,0,6,28.89a10.33,10.33,0,0,0,5.08,19.32,8.84,8.84,0,0,0,1-.05A14.68,14.68,0,0,0,31.33,56.3a17.58,17.58,0,0,0,24.41,1c.48-.07.95-.15,1.41-.26a10.21,10.21,0,0,0,18.26-1.37A10.1,10.1,0,0,0,91.09,48.8c.26,0,.51,0,.77,0a10,10,0,0,0,4.06-19.11Z"/><path class="cls-15" d="M96,29.66A12.76,12.76,0,0,0,83.41,14.71a12.6,12.6,0,0,0-2.4.23,16.14,16.14,0,0,0-25-3.15,14.41,14.41,0,0,0-24.69,1.35A16.21,16.21,0,0,0,5.91,26.47a16.7,16.7,0,0,0,.17,2.36,10.33,10.33,0,0,0,5.08,19.32c.35,0,.7,0,1,0a14.67,14.67,0,0,0,19.2,8.14,17.57,17.57,0,0,0,24.41,1A13,13,0,0,0,57.22,57a10.21,10.21,0,0,0,18.26-1.38,10.09,10.09,0,0,0,15.69-6.83c.25,0,.51,0,.77,0A10,10,0,0,0,96,29.66Z"/><path class="cls-16" d="M96.07,29.6a12,12,0,0,0,.19-2.17A12.77,12.77,0,0,0,81.08,14.88a16.15,16.15,0,0,0-25-3.16,14.42,14.42,0,0,0-24.69,1.36A16.21,16.21,0,0,0,6,26.41a15.11,15.11,0,0,0,.18,2.35,10.33,10.33,0,0,0,5.08,19.33c.35,0,.69,0,1-.05a14.68,14.68,0,0,0,19.21,8.14,17.6,17.6,0,0,0,24.41,1c.48-.06,1-.15,1.41-.25a10.21,10.21,0,0,0,18.26-1.38,10,10,0,0,0,5.7,1.77,10.1,10.1,0,0,0,10-8.61c.25,0,.5,0,.76,0A10,10,0,0,0,96.07,29.6Z"/><path class="cls-17" d="M96.15,29.54a13,13,0,0,0,.19-2.17A12.78,12.78,0,0,0,83.56,14.59a13.47,13.47,0,0,0-2.4.22,16.16,16.16,0,0,0-25-3.15A14.41,14.41,0,0,0,31.51,13,16.21,16.21,0,0,0,6.06,26.34a16.59,16.59,0,0,0,.17,2.36A10.33,10.33,0,0,0,11.31,48c.35,0,.7,0,1-.05a14.64,14.64,0,0,0,19.2,8.13,17.58,17.58,0,0,0,24.41,1c.48-.06.95-.15,1.41-.25a10.21,10.21,0,0,0,18.26-1.38,10.09,10.09,0,0,0,15.69-6.84c.25,0,.51,0,.77,0a10,10,0,0,0,4.06-19.1Z"/><path class="cls-18" d="M96.23,29.48a13.09,13.09,0,0,0,.18-2.18A12.77,12.77,0,0,0,81.23,14.75a16.14,16.14,0,0,0-25-3.15A14.41,14.41,0,0,0,31.58,13,16.22,16.22,0,0,0,6.13,26.28a15.34,15.34,0,0,0,.18,2.36A10.33,10.33,0,0,0,11.39,48a8.77,8.77,0,0,0,1-.06,14.65,14.65,0,0,0,19.21,8.14A17.58,17.58,0,0,0,56,57c.48-.07,1-.15,1.41-.26a10.21,10.21,0,0,0,18.26-1.37A10.09,10.09,0,0,0,91.4,48.55c.25,0,.5,0,.76,0a10,10,0,0,0,4.07-19.1Z"/><path class="cls-19" d="M96.3,29.41A12.76,12.76,0,0,0,83.71,14.46a12.6,12.6,0,0,0-2.4.23,16.14,16.14,0,0,0-25-3.15,14.41,14.41,0,0,0-24.69,1.35A16.21,16.21,0,0,0,6.21,26.22a16.7,16.7,0,0,0,.17,2.36A10.33,10.33,0,0,0,11.46,47.9a8.94,8.94,0,0,0,1,0A14.67,14.67,0,0,0,31.7,56a17.6,17.6,0,0,0,24.42,1c.47-.07.94-.15,1.41-.26a10.21,10.21,0,0,0,18.26-1.37,10.1,10.1,0,0,0,15.68-6.84c.25,0,.51,0,.77,0A10,10,0,0,0,96.3,29.41Z"/><path class="cls-20" d="M96.38,29.35A12.81,12.81,0,0,0,83.78,14.4a12.68,12.68,0,0,0-2.4.23,16.14,16.14,0,0,0-25-3.15,14.41,14.41,0,0,0-24.69,1.35A16.21,16.21,0,0,0,6.28,26.16a16.7,16.7,0,0,0,.18,2.36,10.33,10.33,0,0,0,5.08,19.32c.35,0,.69,0,1-.05a14.67,14.67,0,0,0,19.2,8.14,17.57,17.57,0,0,0,24.41,1,13,13,0,0,0,1.41-.25,10.21,10.21,0,0,0,18.26-1.38,10.09,10.09,0,0,0,15.69-6.84c.25,0,.5,0,.76,0a10,10,0,0,0,4.07-19.11Z"/><path class="cls-21" d="M96.45,29.29a13,13,0,0,0,.19-2.17A12.77,12.77,0,0,0,81.46,14.57a16.15,16.15,0,0,0-25-3.16,14.42,14.42,0,0,0-24.69,1.36A16.21,16.21,0,0,0,6.36,26.1a16.56,16.56,0,0,0,.17,2.35,10.33,10.33,0,0,0,5.08,19.33c.35,0,.7,0,1-.05a14.67,14.67,0,0,0,19.2,8.14,17.61,17.61,0,0,0,24.42,1c.47-.06.94-.15,1.41-.25A10.21,10.21,0,0,0,75.94,55.2,10,10,0,0,0,81.64,57a10.09,10.09,0,0,0,10-8.61c.25,0,.51,0,.77,0a10,10,0,0,0,4.06-19.11Z"/><path class="cls-22" d="M96.53,29.23a13,13,0,0,0,.18-2.17A12.78,12.78,0,0,0,83.93,14.28a13.56,13.56,0,0,0-2.4.22,16.13,16.13,0,0,0-25-3.15,14.42,14.42,0,0,0-24.7,1.36A16.2,16.2,0,0,0,6.44,26a16.59,16.59,0,0,0,.17,2.36,10.33,10.33,0,0,0,5.08,19.33c.35,0,.69,0,1,0a14.64,14.64,0,0,0,19.2,8.13,17.58,17.58,0,0,0,24.41,1c.48-.06.95-.15,1.41-.25A10.21,10.21,0,0,0,76,55.14,10.09,10.09,0,0,0,91.7,48.3c.25,0,.51,0,.76,0a10,10,0,0,0,4.07-19.1Z"/><path class="cls-23" d="M96.6,29.17A13.09,13.09,0,0,0,96.79,27,12.77,12.77,0,0,0,81.61,14.44a16.14,16.14,0,0,0-25-3.15A14.41,14.41,0,0,0,32,12.64,16.22,16.22,0,0,0,6.51,26a16.7,16.7,0,0,0,.17,2.36,10.33,10.33,0,0,0,5.08,19.33,8.94,8.94,0,0,0,1-.06A14.64,14.64,0,0,0,32,55.74a17.6,17.6,0,0,0,24.42,1c.47-.07.94-.15,1.41-.26a10.21,10.21,0,0,0,18.26-1.37,10.08,10.08,0,0,0,15.68-6.84c.26,0,.51,0,.77,0a10,10,0,0,0,4.06-19.1Z"/><path class="cls-24" d="M96.68,29.1a12.76,12.76,0,0,0-12.6-14.95,12.68,12.68,0,0,0-2.4.23,16.13,16.13,0,0,0-25-3.15A14.42,14.42,0,0,0,32,12.58,16.2,16.2,0,0,0,6.59,25.91a16.7,16.7,0,0,0,.17,2.36,10.33,10.33,0,0,0,5.08,19.32,8.94,8.94,0,0,0,1-.05,14.67,14.67,0,0,0,19.2,8.14,17.57,17.57,0,0,0,24.41,1,13,13,0,0,0,1.41-.25A10.21,10.21,0,0,0,76.16,55a10.1,10.1,0,0,0,15.69-6.84c.25,0,.51,0,.76,0A10,10,0,0,0,96.68,29.1Z"/><path class="cls-25" d="M96.75,29A12.76,12.76,0,0,0,84.16,14.09a12.68,12.68,0,0,0-2.4.23,16.15,16.15,0,0,0-25-3.16,14.42,14.42,0,0,0-24.69,1.36A16.21,16.21,0,0,0,6.66,25.85a16.7,16.7,0,0,0,.17,2.36,10.33,10.33,0,0,0,5.08,19.32c.35,0,.7,0,1-.05a14.68,14.68,0,0,0,19.21,8.14,17.57,17.57,0,0,0,24.41,1A13,13,0,0,0,58,56.33,10.21,10.21,0,0,0,76.24,55a10,10,0,0,0,5.7,1.77,10.09,10.09,0,0,0,10-8.61c.26,0,.51,0,.77,0A10,10,0,0,0,96.75,29Z"/><path class="cls-26" d="M96.83,29A13,13,0,0,0,97,26.81,12.78,12.78,0,0,0,81.83,14.26,16.14,16.14,0,0,0,56.88,11.1a14.42,14.42,0,0,0-24.69,1.36A16.21,16.21,0,0,0,6.74,25.79a16.56,16.56,0,0,0,.17,2.35A10.33,10.33,0,0,0,12,47.47c.35,0,.7,0,1,0a14.64,14.64,0,0,0,19.2,8.13,17.58,17.58,0,0,0,24.41,1c.48-.06,1-.15,1.41-.25a10.21,10.21,0,0,0,18.26-1.38A10.09,10.09,0,0,0,92,48.05c.25,0,.51,0,.77,0A10,10,0,0,0,96.83,29Z"/><path class="cls-27" d="M96.9,28.92a13,13,0,0,0,.19-2.17A12.78,12.78,0,0,0,84.31,14a13.56,13.56,0,0,0-2.4.22A16.14,16.14,0,0,0,57,11,14.41,14.41,0,0,0,32.26,12.4,16.21,16.21,0,0,0,6.81,25.72,16.7,16.7,0,0,0,7,28.08a10.33,10.33,0,0,0,5.08,19.33c.36,0,.7,0,1,0a14.65,14.65,0,0,0,19.21,8.13,17.58,17.58,0,0,0,24.41,1c.48-.06,1-.15,1.41-.25a10.21,10.21,0,0,0,18.26-1.38A10.08,10.08,0,0,0,92.07,48c.26,0,.51,0,.77,0a10,10,0,0,0,4.06-19.1Z"/><path class="cls-28" d="M97,28.86a13.09,13.09,0,0,0,.19-2.18A12.78,12.78,0,0,0,84.39,13.9a12.6,12.6,0,0,0-2.4.23A16.14,16.14,0,0,0,57,11a14.41,14.41,0,0,0-24.69,1.35A16.22,16.22,0,0,0,6.89,25.66,16.7,16.7,0,0,0,7.06,28a10.33,10.33,0,0,0,5.08,19.32,8.94,8.94,0,0,0,1-.05,14.64,14.64,0,0,0,19.2,8.14,17.58,17.58,0,0,0,24.41,1c.48-.07,1-.15,1.41-.26a10.21,10.21,0,0,0,18.26-1.37,10.09,10.09,0,0,0,15.69-6.84c.25,0,.51,0,.77,0A10,10,0,0,0,97,28.86Z"/><path class="cls-29" d="M97.05,28.79a11.92,11.92,0,0,0,.19-2.17A12.77,12.77,0,0,0,82.06,14.07a16.14,16.14,0,0,0-25-3.15,14.41,14.41,0,0,0-24.69,1.35A16.21,16.21,0,0,0,7,25.6,15.34,15.34,0,0,0,7.14,28a10.32,10.32,0,0,0,5.08,19.32c.35,0,.69,0,1-.05a14.68,14.68,0,0,0,19.21,8.14,17.57,17.57,0,0,0,24.41,1,13,13,0,0,0,1.41-.25,10.21,10.21,0,0,0,18.26-1.37,10.1,10.1,0,0,0,15.69-6.84c.25,0,.5,0,.76,0a10,10,0,0,0,4.06-19.11Z"/><path class="cls-30" d="M97.13,28.73a13,13,0,0,0,.19-2.17A12.78,12.78,0,0,0,84.54,13.78a12.6,12.6,0,0,0-2.4.23,16.15,16.15,0,0,0-25-3.16,14.42,14.42,0,0,0-24.69,1.36A16.21,16.21,0,0,0,7,25.54a16.7,16.7,0,0,0,.17,2.36,10.33,10.33,0,0,0,5.08,19.32c.35,0,.7,0,1,0a14.67,14.67,0,0,0,19.2,8.14,17.6,17.6,0,0,0,24.41,1c.48-.06,1-.15,1.42-.25a10.2,10.2,0,0,0,18.25-1.38A10.09,10.09,0,0,0,92.3,47.8c.25,0,.51,0,.77,0a10,10,0,0,0,4.06-19.11Z"/><path class="cls-31" d="M97.21,28.67a13,13,0,0,0,.18-2.17A12.77,12.77,0,0,0,82.21,14a16.15,16.15,0,0,0-25-3.16,14.41,14.41,0,0,0-24.69,1.36A16.21,16.21,0,0,0,7.11,25.48a15.21,15.21,0,0,0,.18,2.35,10.33,10.33,0,0,0,5.08,19.33c.35,0,.69,0,1,0a14.65,14.65,0,0,0,19.21,8.13,17.58,17.58,0,0,0,24.41,1c.48-.06.95-.15,1.41-.25a10.21,10.21,0,0,0,18.26-1.38,10.09,10.09,0,0,0,15.69-6.84c.25,0,.5,0,.76,0a10,10,0,0,0,4.07-19.1Z"/><path class="cls-32" d="M97.28,28.61a13,13,0,0,0,.19-2.18A12.77,12.77,0,0,0,82.29,13.88a16.14,16.14,0,0,0-25-3.15,14.41,14.41,0,0,0-24.69,1.36A16.21,16.21,0,0,0,7.19,25.41a16.7,16.7,0,0,0,.17,2.36A10.33,10.33,0,0,0,12.44,47.1a8.94,8.94,0,0,0,1-.06,14.64,14.64,0,0,0,19.2,8.14,17.6,17.6,0,0,0,24.42,1c.47-.07.94-.15,1.41-.25a10.21,10.21,0,0,0,18.26-1.38,10.08,10.08,0,0,0,15.68-6.84c.25,0,.51,0,.77,0a10,10,0,0,0,4.06-19.1Z"/><path class="cls-33" d="M97.36,28.54a12.81,12.81,0,0,0-12.6-14.95,12.68,12.68,0,0,0-2.4.23,16.14,16.14,0,0,0-25-3.15A14.41,14.41,0,0,0,32.71,12,16.22,16.22,0,0,0,7.26,25.35a16.7,16.7,0,0,0,.18,2.36A10.33,10.33,0,0,0,12.52,47a9.05,9.05,0,0,0,1-.05,14.67,14.67,0,0,0,19.2,8.14,17.58,17.58,0,0,0,24.41,1c.48-.07.95-.15,1.41-.26a10.21,10.21,0,0,0,18.26-1.37,10.1,10.1,0,0,0,15.69-6.84c.25,0,.5,0,.76,0a10,10,0,0,0,4.07-19.11Z"/><path class="cls-34" d="M97.43,28.48A12.76,12.76,0,0,0,84.84,13.53a12.68,12.68,0,0,0-2.4.23,16.14,16.14,0,0,0-25-3.15A14.41,14.41,0,0,0,32.79,12,16.21,16.21,0,0,0,7.34,25.29a16.7,16.7,0,0,0,.17,2.36A10.33,10.33,0,0,0,12.59,47c.35,0,.7,0,1,0a14.67,14.67,0,0,0,19.2,8.14,17.58,17.58,0,0,0,24.42,1,13.89,13.89,0,0,0,1.41-.25,10.21,10.21,0,0,0,18.26-1.38,10,10,0,0,0,5.7,1.77,10.09,10.09,0,0,0,10-8.6c.26,0,.51,0,.77,0a10,10,0,0,0,4.06-19.11Z"/><path class="cls-35" d="M97.51,28.42a13,13,0,0,0,.18-2.17A12.77,12.77,0,0,0,82.51,13.7a16.14,16.14,0,0,0-25-3.16,14.43,14.43,0,0,0-24.7,1.36A16.2,16.2,0,0,0,7.42,25.23a16.7,16.7,0,0,0,.17,2.36,10.33,10.33,0,0,0,5.08,19.32c.35,0,.69,0,1,0A14.67,14.67,0,0,0,32.91,55a17.6,17.6,0,0,0,24.41,1c.48-.06,1-.15,1.41-.25A10.21,10.21,0,0,0,77,54.33a10.09,10.09,0,0,0,15.69-6.84c.25,0,.51,0,.76,0a10,10,0,0,0,4.07-19.11Z"/><path class="cls-36" d="M97.58,28.36a13,13,0,0,0,.19-2.17A12.78,12.78,0,0,0,85,13.41a13.56,13.56,0,0,0-2.4.22,16.16,16.16,0,0,0-25-3.15,14.41,14.41,0,0,0-24.69,1.36A16.21,16.21,0,0,0,7.49,25.16a16.59,16.59,0,0,0,.17,2.36,10.33,10.33,0,0,0,5.08,19.33c.35,0,.7,0,1-.05A14.65,14.65,0,0,0,33,54.93a17.58,17.58,0,0,0,24.41,1c.47-.06.94-.15,1.41-.25a10.21,10.21,0,0,0,18.26-1.38,10.08,10.08,0,0,0,15.68-6.84c.26,0,.51,0,.77,0a10,10,0,0,0,4.06-19.1Z"/><path class="cls-37" d="M97.66,28.3a13,13,0,0,0,.19-2.18A12.78,12.78,0,0,0,82.66,13.57a16.13,16.13,0,0,0-24.95-3.15A14.42,14.42,0,0,0,33,11.77,16.21,16.21,0,0,0,7.57,25.1a16.7,16.7,0,0,0,.17,2.36,10.33,10.33,0,0,0,5.08,19.33,8.94,8.94,0,0,0,1-.06,14.64,14.64,0,0,0,19.2,8.14,17.58,17.58,0,0,0,24.41,1c.48-.07,1-.15,1.41-.26a10.21,10.21,0,0,0,18.26-1.37,10.09,10.09,0,0,0,15.69-6.84c.25,0,.51,0,.76,0a10,10,0,0,0,4.07-19.1Z"/><path class="cls-38" d="M97.73,28.23A12.76,12.76,0,0,0,85.14,13.28a12.68,12.68,0,0,0-2.4.23,16.14,16.14,0,0,0-25-3.15,14.41,14.41,0,0,0-24.69,1.35A16.21,16.21,0,0,0,7.64,25a16.7,16.7,0,0,0,.17,2.36,10.33,10.33,0,0,0,5.08,19.32,8.94,8.94,0,0,0,1,0,14.68,14.68,0,0,0,19.21,8.14,17.58,17.58,0,0,0,24.41,1c.48-.07,1-.15,1.41-.26a10.21,10.21,0,0,0,18.26-1.37A10.1,10.1,0,0,0,92.9,47.31c.26,0,.51,0,.77,0a10,10,0,0,0,4.06-19.11Z"/><path class="cls-39" d="M97.81,28.17A12.76,12.76,0,0,0,85.22,13.22a12.6,12.6,0,0,0-2.4.23,16.14,16.14,0,0,0-25-3.15,14.41,14.41,0,0,0-24.69,1.35A16.21,16.21,0,0,0,7.72,25a16.7,16.7,0,0,0,.17,2.36A10.33,10.33,0,0,0,13,46.66c.35,0,.7,0,1,0a14.67,14.67,0,0,0,19.2,8.14,17.57,17.57,0,0,0,24.41,1A13,13,0,0,0,59,55.46a10.21,10.21,0,0,0,18.26-1.38A10.09,10.09,0,0,0,93,47.25c.25,0,.51,0,.77,0a10,10,0,0,0,4.06-19.11Z"/><path class="cls-40" d="M97.88,28.11a13,13,0,0,0,.19-2.17A12.77,12.77,0,0,0,82.89,13.39a16.15,16.15,0,0,0-25-3.16,14.42,14.42,0,0,0-24.69,1.36A16.21,16.21,0,0,0,7.79,24.92,16.56,16.56,0,0,0,8,27.27,10.33,10.33,0,0,0,13,46.6c.36,0,.7,0,1-.05a14.68,14.68,0,0,0,19.21,8.14,17.6,17.6,0,0,0,24.41,1c.48-.06.95-.15,1.41-.25A10.21,10.21,0,0,0,77.37,54a10.08,10.08,0,0,0,15.68-6.84c.26,0,.51,0,.77,0a10,10,0,0,0,4.06-19.11Z"/><path class="cls-41" d="M98,28.05a13,13,0,0,0,.19-2.17A12.78,12.78,0,0,0,85.37,13.1a13.47,13.47,0,0,0-2.4.22,16.16,16.16,0,0,0-25-3.15,14.41,14.41,0,0,0-24.69,1.36A16.21,16.21,0,0,0,7.87,24.85,16.59,16.59,0,0,0,8,27.21a10.33,10.33,0,0,0,5.08,19.33c.35,0,.7,0,1,0a14.64,14.64,0,0,0,19.2,8.13,17.58,17.58,0,0,0,24.41,1c.48-.06.95-.15,1.41-.25A10.21,10.21,0,0,0,77.44,54a10.09,10.09,0,0,0,15.69-6.84c.25,0,.51,0,.77,0A10,10,0,0,0,98,28.05Z"/><path class="cls-42" d="M98,28a12.11,12.11,0,0,0,.19-2.18A12.77,12.77,0,0,0,83,13.26a16.14,16.14,0,0,0-25-3.15,14.41,14.41,0,0,0-24.69,1.35A16.22,16.22,0,0,0,7.94,24.79a15.34,15.34,0,0,0,.18,2.36A10.33,10.33,0,0,0,13.2,46.48a8.77,8.77,0,0,0,1-.06,14.65,14.65,0,0,0,19.21,8.14,17.58,17.58,0,0,0,24.41,1c.48-.07.95-.15,1.41-.26A10.21,10.21,0,0,0,77.52,53.9a10.09,10.09,0,0,0,15.69-6.84c.25,0,.5,0,.76,0A10,10,0,0,0,98,28Z"/><path class="cls-43" d="M98.11,27.92A12.76,12.76,0,0,0,85.52,13a12.6,12.6,0,0,0-2.4.23,16.14,16.14,0,0,0-25-3.15A14.41,14.41,0,0,0,33.47,11.4,16.21,16.21,0,0,0,8,24.73a16.7,16.7,0,0,0,.17,2.36,10.33,10.33,0,0,0,5.08,19.32,8.94,8.94,0,0,0,1,0,14.67,14.67,0,0,0,19.2,8.14,17.58,17.58,0,0,0,24.42,1,13.89,13.89,0,0,0,1.41-.25A10.21,10.21,0,0,0,77.6,53.84,10.1,10.1,0,0,0,93.28,47c.25,0,.51,0,.77,0a10,10,0,0,0,4.06-19.11Z"/><path class="cls-44" d="M98.19,27.86a12.81,12.81,0,0,0-12.6-14.95,12.68,12.68,0,0,0-2.4.23,16.15,16.15,0,0,0-25-3.16,14.42,14.42,0,0,0-24.69,1.36A16.21,16.21,0,0,0,8.09,24.67,15.34,15.34,0,0,0,8.27,27a10.33,10.33,0,0,0,5.08,19.32c.35,0,.69,0,1-.05a14.68,14.68,0,0,0,19.21,8.14A17.57,17.57,0,0,0,58,55.4a13,13,0,0,0,1.41-.25,10.21,10.21,0,0,0,18.26-1.38,10,10,0,0,0,5.7,1.77,10.1,10.1,0,0,0,10-8.61c.25,0,.5,0,.76,0a10,10,0,0,0,4.07-19.11Z"/><path class="cls-45" d="M98.26,27.8a13,13,0,0,0,.19-2.17A12.77,12.77,0,0,0,83.27,13.08a16.15,16.15,0,0,0-25-3.16,14.42,14.42,0,0,0-24.69,1.36A16.21,16.21,0,0,0,8.17,24.61,16.56,16.56,0,0,0,8.34,27a10.33,10.33,0,0,0,5.08,19.33c.35,0,.7,0,1,0a14.67,14.67,0,0,0,19.2,8.14,17.61,17.61,0,0,0,24.42,1c.47-.06.94-.15,1.41-.25a10.21,10.21,0,0,0,18.26-1.38,10,10,0,0,0,5.7,1.77,10.09,10.09,0,0,0,10-8.61c.26,0,.51,0,.77,0a10,10,0,0,0,4.06-19.1Z"/><path class="cls-46" d="M98.34,27.74a13,13,0,0,0,.18-2.17A12.78,12.78,0,0,0,85.74,12.79a13.56,13.56,0,0,0-2.4.22,16.14,16.14,0,0,0-25-3.15,14.41,14.41,0,0,0-24.69,1.36A16.2,16.2,0,0,0,8.25,24.54a16.59,16.59,0,0,0,.17,2.36A10.33,10.33,0,0,0,13.5,46.23c.35,0,.69,0,1,0a14.64,14.64,0,0,0,19.2,8.13,17.58,17.58,0,0,0,24.41,1c.48-.06,1-.15,1.41-.25a10.21,10.21,0,0,0,18.26-1.38,10.09,10.09,0,0,0,15.69-6.84c.25,0,.51,0,.76,0a10,10,0,0,0,4.07-19.1Z"/><path class="cls-47" d="M98.41,27.67A12.76,12.76,0,0,0,85.82,12.72a12.68,12.68,0,0,0-2.4.23,16.14,16.14,0,0,0-25-3.15,14.41,14.41,0,0,0-24.69,1.35A16.22,16.22,0,0,0,8.32,24.48a16.7,16.7,0,0,0,.17,2.36,10.33,10.33,0,0,0,5.08,19.32,8.94,8.94,0,0,0,1,0,14.64,14.64,0,0,0,19.2,8.14,17.6,17.6,0,0,0,24.42,1c.47-.07.94-.15,1.41-.26A10.21,10.21,0,0,0,77.9,53.59a10.08,10.08,0,0,0,15.68-6.84c.26,0,.51,0,.77,0a10,10,0,0,0,4.06-19.11Z"/><path class="cls-48" d="M98.49,27.61a12.81,12.81,0,0,0-12.6-14.95,12.68,12.68,0,0,0-2.4.23A16.13,16.13,0,0,0,58.54,9.74a14.42,14.42,0,0,0-24.7,1.35A16.2,16.2,0,0,0,8.4,24.42a16.7,16.7,0,0,0,.17,2.36A10.33,10.33,0,0,0,13.65,46.1a9.05,9.05,0,0,0,1-.05,14.67,14.67,0,0,0,19.2,8.14,17.57,17.57,0,0,0,24.41,1,13,13,0,0,0,1.41-.25A10.21,10.21,0,0,0,78,53.52a10.09,10.09,0,0,0,15.69-6.83c.25,0,.51,0,.76,0a10,10,0,0,0,4.07-19.11Z"/><path class="cls-49" d="M98.56,27.55a13,13,0,0,0,.19-2.17A12.77,12.77,0,0,0,83.57,12.83a16.15,16.15,0,0,0-25-3.16A14.42,14.42,0,0,0,33.92,11,16.21,16.21,0,0,0,8.47,24.36a16.7,16.7,0,0,0,.17,2.36A10.33,10.33,0,0,0,13.72,46c.35,0,.7,0,1,0A14.68,14.68,0,0,0,34,54.13a17.57,17.57,0,0,0,24.41,1c.47-.06.95-.15,1.41-.25a10.21,10.21,0,0,0,18.26-1.38,10,10,0,0,0,5.7,1.77,10.09,10.09,0,0,0,10-8.61c.26,0,.51,0,.77,0a10,10,0,0,0,4.06-19.11Z"/><path class="cls-50" d="M98.64,27.49a13,13,0,0,0,.19-2.17A12.78,12.78,0,0,0,83.64,12.77a16.14,16.14,0,0,0-25-3.16A14.42,14.42,0,0,0,34,11,16.2,16.2,0,0,0,8.55,24.29a16.59,16.59,0,0,0,.17,2.36A10.33,10.33,0,0,0,13.8,46c.35,0,.7,0,1,0A14.64,14.64,0,0,0,34,54.06a17.58,17.58,0,0,0,24.41,1c.48-.06.95-.15,1.41-.25A10.21,10.21,0,0,0,78.12,53.4a10.09,10.09,0,0,0,15.69-6.84c.25,0,.51,0,.77,0a10,10,0,0,0,4.06-19.1Z"/><path class="cls-51" d="M98.71,27.43a13,13,0,0,0,.19-2.18A12.78,12.78,0,0,0,86.12,12.48a13.56,13.56,0,0,0-2.4.22,16.14,16.14,0,0,0-25-3.15,14.41,14.41,0,0,0-24.69,1.36A16.21,16.21,0,0,0,8.62,24.23a16.7,16.7,0,0,0,.17,2.36,10.33,10.33,0,0,0,5.08,19.33,8.81,8.81,0,0,0,1-.06A14.65,14.65,0,0,0,34.12,54a17.58,17.58,0,0,0,24.41,1c.48-.07.95-.15,1.41-.25A10.21,10.21,0,0,0,78.2,53.34,10.08,10.08,0,0,0,93.88,46.5c.26,0,.51,0,.77,0a10,10,0,0,0,4.06-19.1Z"/><path class="cls-52" d="M98.79,27.36A12.76,12.76,0,0,0,86.2,12.41a12.6,12.6,0,0,0-2.4.23,16.14,16.14,0,0,0-25-3.15,14.41,14.41,0,0,0-24.69,1.35A16.22,16.22,0,0,0,8.7,24.17a16.7,16.7,0,0,0,.17,2.36A10.33,10.33,0,0,0,14,45.85a8.94,8.94,0,0,0,1-.05,14.67,14.67,0,0,0,19.2,8.14,17.58,17.58,0,0,0,24.41,1c.48-.07.95-.15,1.41-.26a10.21,10.21,0,0,0,18.26-1.37A10.1,10.1,0,0,0,94,46.44c.25,0,.51,0,.77,0a10,10,0,0,0,4.06-19.11Z"/><path class="cls-53" d="M98.86,27.3A12.76,12.76,0,0,0,86.27,12.35a12.68,12.68,0,0,0-2.4.23,16.14,16.14,0,0,0-25-3.15,14.41,14.41,0,0,0-24.69,1.35A16.21,16.21,0,0,0,8.77,24.11a16.7,16.7,0,0,0,.17,2.36A10.33,10.33,0,0,0,14,45.79c.36,0,.7,0,1,0a14.68,14.68,0,0,0,19.21,8.14,17.57,17.57,0,0,0,24.41,1,13,13,0,0,0,1.41-.25,10.21,10.21,0,0,0,18.26-1.38A10.08,10.08,0,0,0,94,46.38c.26,0,.51,0,.77,0A10,10,0,0,0,98.86,27.3Z"/><path class="cls-54" d="M98.94,27.24a13,13,0,0,0,.19-2.17A12.78,12.78,0,0,0,86.35,12.29a12.6,12.6,0,0,0-2.4.23A16.15,16.15,0,0,0,59,9.36,14.42,14.42,0,0,0,34.3,10.72,16.21,16.21,0,0,0,8.85,24.05,16.7,16.7,0,0,0,9,26.41,10.33,10.33,0,0,0,14.1,45.73c.35,0,.7,0,1,0a14.67,14.67,0,0,0,19.2,8.14,17.6,17.6,0,0,0,24.41,1c.48-.06,1-.15,1.42-.25a10.21,10.21,0,0,0,18.25-1.38,10.09,10.09,0,0,0,15.69-6.84c.25,0,.51,0,.77,0a10,10,0,0,0,4.06-19.11Z"/><path class="cls-55" d="M99,27.18A13,13,0,0,0,99.2,25,12.77,12.77,0,0,0,84,12.46a16.15,16.15,0,0,0-25-3.16,14.41,14.41,0,0,0-24.69,1.36A16.21,16.21,0,0,0,8.92,24a15.24,15.24,0,0,0,.18,2.36,10.33,10.33,0,0,0,5.08,19.33c.35,0,.69,0,1-.05a14.65,14.65,0,0,0,19.21,8.13,17.58,17.58,0,0,0,24.41,1c.48-.06,1-.15,1.41-.25A10.21,10.21,0,0,0,78.5,53.09a10,10,0,0,0,5.7,1.77,10.1,10.1,0,0,0,10-8.61c.25,0,.5,0,.76,0A10,10,0,0,0,99,27.18Z"/><path class="cls-56" d="M99.09,27.12a13,13,0,0,0,.19-2.18A12.78,12.78,0,0,0,86.5,12.16a12.6,12.6,0,0,0-2.4.23,16.14,16.14,0,0,0-25-3.15,14.41,14.41,0,0,0-24.69,1.35A16.22,16.22,0,0,0,9,23.92a16.7,16.7,0,0,0,.17,2.36,10.33,10.33,0,0,0,5.08,19.33,8.94,8.94,0,0,0,1-.06,14.64,14.64,0,0,0,19.2,8.14,17.6,17.6,0,0,0,24.42,1c.47-.07.94-.15,1.41-.26A10.21,10.21,0,0,0,78.58,53a10.08,10.08,0,0,0,15.68-6.84c.25,0,.51,0,.77,0a10,10,0,0,0,4.06-19.1Z"/><path class="cls-57" d="M99.17,27.05A12.81,12.81,0,0,0,86.57,12.1a12.68,12.68,0,0,0-2.4.23,16.14,16.14,0,0,0-25-3.15,14.41,14.41,0,0,0-24.69,1.35A16.22,16.22,0,0,0,9.07,23.86a15.34,15.34,0,0,0,.18,2.36,10.33,10.33,0,0,0,5.08,19.32,8.77,8.77,0,0,0,1,0,14.68,14.68,0,0,0,19.21,8.14A17.58,17.58,0,0,0,59,54.6c.48-.07,1-.15,1.41-.26A10.21,10.21,0,0,0,78.65,53a10.1,10.1,0,0,0,15.69-6.84c.25,0,.5,0,.76,0a10,10,0,0,0,4.07-19.11Z"/><path class="cls-58" d="M99.24,27A12.76,12.76,0,0,0,86.65,12a12.68,12.68,0,0,0-2.4.23,16.14,16.14,0,0,0-25-3.15A14.41,14.41,0,0,0,34.6,10.47,16.21,16.21,0,0,0,9.15,23.8a16.7,16.7,0,0,0,.17,2.36A10.33,10.33,0,0,0,14.4,45.48c.35,0,.7,0,1,0a14.67,14.67,0,0,0,19.2,8.14,17.58,17.58,0,0,0,24.42,1,13.89,13.89,0,0,0,1.41-.25A10.21,10.21,0,0,0,78.73,52.9a10,10,0,0,0,5.7,1.77,10.09,10.09,0,0,0,10-8.6c.26,0,.51,0,.77,0A10,10,0,0,0,99.24,27Z"/><path class="cls-59" d="M99.32,26.93a13,13,0,0,0,.18-2.17A12.77,12.77,0,0,0,84.32,12.21a16.15,16.15,0,0,0-25-3.16,14.42,14.42,0,0,0-24.69,1.36A16.2,16.2,0,0,0,9.23,23.74a16.56,16.56,0,0,0,.17,2.35,10.33,10.33,0,0,0,5.08,19.33c.35,0,.69,0,1-.05a14.67,14.67,0,0,0,19.2,8.14,17.6,17.6,0,0,0,24.41,1c.48-.06.95-.15,1.41-.25A10.21,10.21,0,0,0,78.8,52.84,10.09,10.09,0,0,0,94.49,46c.25,0,.51,0,.76,0a10,10,0,0,0,4.07-19.11Z"/><path class="cls-60" d="M99.39,26.87a13,13,0,0,0,.19-2.17A12.78,12.78,0,0,0,86.8,11.92a13.56,13.56,0,0,0-2.4.22A16.16,16.16,0,0,0,59.44,9a14.41,14.41,0,0,0-24.69,1.36A16.21,16.21,0,0,0,9.3,23.67,16.59,16.59,0,0,0,9.47,26a10.33,10.33,0,0,0,5.08,19.33c.35,0,.7,0,1,0a14.64,14.64,0,0,0,19.2,8.13,17.6,17.6,0,0,0,24.42,1c.47-.06.94-.15,1.41-.25a10.21,10.21,0,0,0,18.26-1.38,10.08,10.08,0,0,0,15.68-6.84c.26,0,.51,0,.77,0a10,10,0,0,0,4.06-19.1Z"/><path class="cls-61" d="M99.47,26.81a13,13,0,0,0,.18-2.18A12.77,12.77,0,0,0,84.47,12.08,16.13,16.13,0,0,0,59.52,8.93a14.42,14.42,0,0,0-24.7,1.35A16.21,16.21,0,0,0,9.38,23.61,16.7,16.7,0,0,0,9.55,26,10.33,10.33,0,0,0,14.63,45.3a9.07,9.07,0,0,0,1-.06,14.64,14.64,0,0,0,19.2,8.14,17.58,17.58,0,0,0,24.41,1c.48-.07.95-.15,1.41-.26A10.21,10.21,0,0,0,79,52.72a10.09,10.09,0,0,0,15.69-6.84c.25,0,.51,0,.76,0a10,10,0,0,0,4.07-19.1Z"/><path class="cls-62" d="M99.54,26.74A12.76,12.76,0,0,0,87,11.79a12.68,12.68,0,0,0-2.4.23,16.14,16.14,0,0,0-25-3.15A14.41,14.41,0,0,0,34.9,10.22,16.21,16.21,0,0,0,9.45,23.55a16.7,16.7,0,0,0,.17,2.36A10.33,10.33,0,0,0,14.7,45.23a8.94,8.94,0,0,0,1,0A14.68,14.68,0,0,0,35,53.32a17.58,17.58,0,0,0,24.41,1c.47-.07,1-.15,1.41-.26A10.21,10.21,0,0,0,79,52.66a10.1,10.1,0,0,0,15.68-6.84c.26,0,.51,0,.77,0a10,10,0,0,0,4.06-19.11Z"/><path class="cls-63" d="M99.62,26.68A12.76,12.76,0,0,0,87,11.73a12.71,12.71,0,0,0-2.41.23,16.13,16.13,0,0,0-25-3.15A14.41,14.41,0,0,0,35,10.16,16.21,16.21,0,0,0,9.53,23.49a16.7,16.7,0,0,0,.17,2.36,10.33,10.33,0,0,0,5.08,19.32c.35,0,.7,0,1-.05A14.67,14.67,0,0,0,35,53.26a17.57,17.57,0,0,0,24.41,1A13,13,0,0,0,60.84,54,10.21,10.21,0,0,0,79.1,52.59a10.09,10.09,0,0,0,15.69-6.84c.25,0,.51,0,.77,0a10,10,0,0,0,4.06-19.11Z"/><path class="cls-64" d="M99.69,26.62a13,13,0,0,0,.19-2.17A12.77,12.77,0,0,0,84.7,11.9a16.15,16.15,0,0,0-25-3.16A14.42,14.42,0,0,0,35.05,10.1,16.21,16.21,0,0,0,9.6,23.43a16.56,16.56,0,0,0,.17,2.35,10.33,10.33,0,0,0,5.08,19.33c.36,0,.7,0,1,0A14.67,14.67,0,0,0,29.51,54.3a14.48,14.48,0,0,0,5.59-1.11,17.58,17.58,0,0,0,24.41,1c.48-.06,1-.15,1.41-.25a10.21,10.21,0,0,0,18.26-1.38,10.08,10.08,0,0,0,15.68-6.84c.26,0,.51,0,.77,0a10,10,0,0,0,4.06-19.1Z"/><path class="cls-65" d="M99.77,26.56a13,13,0,0,0,.19-2.17A12.78,12.78,0,0,0,87.18,11.61a13.47,13.47,0,0,0-2.4.22,16.14,16.14,0,0,0-25-3.15A14.41,14.41,0,0,0,35.13,10,16.21,16.21,0,0,0,9.68,23.36a16.7,16.7,0,0,0,.17,2.36,10.33,10.33,0,0,0,5.08,19.33c.35,0,.7,0,1,0a14.64,14.64,0,0,0,19.2,8.13,17.58,17.58,0,0,0,24.41,1c.48-.06,1-.15,1.41-.25a10.21,10.21,0,0,0,18.26-1.38,10.09,10.09,0,0,0,15.69-6.84c.25,0,.51,0,.77,0a10,10,0,0,0,4.06-19.1Z"/><path class="cls-66" d="M99.84,26.5a12.11,12.11,0,0,0,.19-2.18A12.77,12.77,0,0,0,84.85,11.77a16.14,16.14,0,0,0-25-3.15A14.41,14.41,0,0,0,35.2,10,16.22,16.22,0,0,0,9.75,23.3a15.34,15.34,0,0,0,.18,2.36A10.32,10.32,0,0,0,15,45a8.77,8.77,0,0,0,1,0,14.65,14.65,0,0,0,19.21,8.14,17.58,17.58,0,0,0,24.41,1c.48-.07,1-.15,1.41-.26a10.21,10.21,0,0,0,18.26-1.37A10.09,10.09,0,0,0,95,45.57c.25,0,.5,0,.76,0a10,10,0,0,0,4.06-19.1Z"/><path class="cls-67" d="M99.92,26.43A12.76,12.76,0,0,0,87.33,11.48a12.6,12.6,0,0,0-2.4.23A16.14,16.14,0,0,0,60,8.56,14.41,14.41,0,0,0,35.28,9.91,16.21,16.21,0,0,0,9.83,23.24,16.7,16.7,0,0,0,10,25.6a10.33,10.33,0,0,0,5.08,19.32,8.94,8.94,0,0,0,1-.05A14.67,14.67,0,0,0,35.32,53a17.57,17.57,0,0,0,24.41,1,13.6,13.6,0,0,0,1.42-.25A10.2,10.2,0,0,0,79.4,52.35a10.1,10.1,0,0,0,15.69-6.84c.25,0,.51,0,.77,0a10,10,0,0,0,4.06-19.11Z"/><path class="cls-68" d="M100,26.37a13,13,0,0,0,.18-2.17A12.77,12.77,0,0,0,85,11.65,16.15,16.15,0,0,0,60,8.49,14.42,14.42,0,0,0,35.35,9.85,16.21,16.21,0,0,0,9.9,23.18a15.34,15.34,0,0,0,.18,2.36,10.33,10.33,0,0,0,5.08,19.32c.35,0,.69,0,1,0A14.68,14.68,0,0,0,35.4,53a17.57,17.57,0,0,0,24.41,1,13,13,0,0,0,1.41-.25,10.21,10.21,0,0,0,18.26-1.38,10,10,0,0,0,5.7,1.77,10.1,10.1,0,0,0,10-8.61c.25,0,.5,0,.76,0A10,10,0,0,0,100,26.37Z"/><path class="cls-69" d="M100.07,26.31a13,13,0,0,0,.19-2.17A12.78,12.78,0,0,0,87.48,11.36a12.6,12.6,0,0,0-2.4.23,16.15,16.15,0,0,0-25-3.16A14.42,14.42,0,0,0,35.43,9.79,16.21,16.21,0,0,0,10,23.12a16.56,16.56,0,0,0,.17,2.35A10.33,10.33,0,0,0,15.23,44.8c.35,0,.7,0,1,0a14.64,14.64,0,0,0,19.2,8.13,17.6,17.6,0,0,0,24.42,1c.47-.06.94-.15,1.41-.25a10.21,10.21,0,0,0,18.26-1.38A10,10,0,0,0,85.26,54a10.09,10.09,0,0,0,10-8.61c.25,0,.51,0,.77,0a10,10,0,0,0,4.06-19.1Z"/><path class="cls-70" d="M100.15,26.25a13,13,0,0,0,.18-2.18A12.78,12.78,0,0,0,87.55,11.29a13.56,13.56,0,0,0-2.4.23,16.14,16.14,0,0,0-25-3.15A14.41,14.41,0,0,0,35.5,9.73,16.21,16.21,0,0,0,10.05,23.05a16.7,16.7,0,0,0,.18,2.36,10.33,10.33,0,0,0,5.08,19.33,9.07,9.07,0,0,0,1-.06,14.64,14.64,0,0,0,19.2,8.14,17.58,17.58,0,0,0,24.41,1c.48-.06.95-.15,1.41-.25a10.21,10.21,0,0,0,18.26-1.38,10.09,10.09,0,0,0,15.69-6.84c.25,0,.5,0,.76,0a10,10,0,0,0,4.07-19.1Z"/><path class="cls-71" d="M100.22,26.18A12.76,12.76,0,0,0,87.63,11.23a12.68,12.68,0,0,0-2.4.23,16.14,16.14,0,0,0-25-3.15A14.41,14.41,0,0,0,35.58,9.66,16.22,16.22,0,0,0,10.13,23a16.7,16.7,0,0,0,.17,2.36,10.33,10.33,0,0,0,5.08,19.32,8.94,8.94,0,0,0,1-.05,14.67,14.67,0,0,0,19.2,8.14,17.6,17.6,0,0,0,24.42,1c.47-.07.94-.15,1.41-.26A10.21,10.21,0,0,0,79.71,52.1a10.1,10.1,0,0,0,15.68-6.84c.26,0,.51,0,.77,0a10,10,0,0,0,4.06-19.11Z"/><path class="cls-72" d="M100.3,26.12A12.81,12.81,0,0,0,87.7,11.17a12.68,12.68,0,0,0-2.4.23,16.14,16.14,0,0,0-25-3.15A14.41,14.41,0,0,0,35.65,9.6,16.2,16.2,0,0,0,10.21,22.93a16.7,16.7,0,0,0,.17,2.36,10.33,10.33,0,0,0,5.08,19.32c.35,0,.69,0,1,0A14.67,14.67,0,0,0,35.7,52.7a17.57,17.57,0,0,0,24.41,1,13,13,0,0,0,1.41-.25A10.21,10.21,0,0,0,79.78,52,10.09,10.09,0,0,0,95.47,45.2l.76,0a10,10,0,0,0,4.07-19.11Z"/><path class="cls-73" d="M100.37,26.06a13,13,0,0,0,.19-2.17A12.77,12.77,0,0,0,85.38,11.34a16.15,16.15,0,0,0-25-3.16A14.42,14.42,0,0,0,35.73,9.54,16.21,16.21,0,0,0,10.28,22.87a16.7,16.7,0,0,0,.17,2.36,10.33,10.33,0,0,0,5.08,19.32c.35,0,.7,0,1,0a14.68,14.68,0,0,0,19.21,8.14,17.6,17.6,0,0,0,24.41,1c.47-.06.94-.15,1.41-.25A10.21,10.21,0,0,0,79.86,52a10,10,0,0,0,5.7,1.77,10.09,10.09,0,0,0,10-8.61c.26,0,.51,0,.77,0a10,10,0,0,0,4.06-19.11Z"/><path class="cls-74" d="M100.45,26a13,13,0,0,0,.19-2.17A12.79,12.79,0,0,0,87.85,11.05a13.56,13.56,0,0,0-2.4.22,16.15,16.15,0,0,0-25-3.15A14.42,14.42,0,0,0,35.8,9.48,16.2,16.2,0,0,0,10.36,22.8a16.59,16.59,0,0,0,.17,2.36,10.33,10.33,0,0,0,5.08,19.33c.35,0,.7,0,1-.05a14.64,14.64,0,0,0,19.2,8.13,17.58,17.58,0,0,0,24.41,1c.48-.06,1-.15,1.41-.25a10.21,10.21,0,0,0,18.26-1.38,10.09,10.09,0,0,0,15.69-6.84c.25,0,.51,0,.76,0A10,10,0,0,0,100.45,26Z"/><path class="cls-75" d="M100.52,25.94a13,13,0,0,0,.19-2.18A12.77,12.77,0,0,0,85.53,11.21a16.14,16.14,0,0,0-25-3.15A14.41,14.41,0,0,0,35.88,9.41,16.22,16.22,0,0,0,10.43,22.74a16.7,16.7,0,0,0,.17,2.36,10.33,10.33,0,0,0,5.08,19.33,8.94,8.94,0,0,0,1-.06,14.65,14.65,0,0,0,19.21,8.14,17.58,17.58,0,0,0,24.41,1c.48-.07.95-.15,1.41-.25A10.21,10.21,0,0,0,80,51.85,10.08,10.08,0,0,0,95.69,45c.26,0,.51,0,.77,0a10,10,0,0,0,4.06-19.1Z"/><path class="cls-76" d="M100.6,25.87a12.77,12.77,0,0,0-15-14.72A16.13,16.13,0,0,0,60.65,8,14.41,14.41,0,0,0,36,9.35,16.21,16.21,0,0,0,10.51,22.68,16.7,16.7,0,0,0,10.68,25a10.33,10.33,0,0,0,5.08,19.32,8.94,8.94,0,0,0,1,0A14.67,14.67,0,0,0,36,52.45a17.58,17.58,0,0,0,24.41,1c.48-.07,1-.15,1.41-.26a10.21,10.21,0,0,0,18.26-1.37A10.1,10.1,0,0,0,95.77,45c.25,0,.51,0,.77,0a10,10,0,0,0,4.06-19.11Z"/><path class="cls-77" d="M100.67,25.81A12.76,12.76,0,0,0,88.08,10.86a12.68,12.68,0,0,0-2.4.23,16.14,16.14,0,0,0-25-3.15A14.41,14.41,0,0,0,36,9.29,16.21,16.21,0,0,0,10.58,22.62,16.7,16.7,0,0,0,10.75,25,10.33,10.33,0,0,0,15.83,44.3c.36,0,.7,0,1,0a14.68,14.68,0,0,0,19.21,8.14,17.57,17.57,0,0,0,24.41,1,13,13,0,0,0,1.41-.25,10.21,10.21,0,0,0,18.26-1.38,10.08,10.08,0,0,0,15.68-6.83c.26,0,.51,0,.77,0a10,10,0,0,0,4.06-19.11Z"/><path class="cls-78" d="M100.75,25.75a13,13,0,0,0,.19-2.17A12.78,12.78,0,0,0,88.16,10.8a12.6,12.6,0,0,0-2.4.23,16.15,16.15,0,0,0-25-3.16A14.42,14.42,0,0,0,36.11,9.23,16.21,16.21,0,0,0,10.66,22.56a16.45,16.45,0,0,0,.17,2.35,10.33,10.33,0,0,0,5.08,19.33c.35,0,.7,0,1-.05a14.67,14.67,0,0,0,19.2,8.14,17.6,17.6,0,0,0,24.41,1c.48-.06.95-.15,1.41-.25a10.21,10.21,0,0,0,18.26-1.38,10.09,10.09,0,0,0,15.69-6.84c.25,0,.51,0,.77,0a10,10,0,0,0,4.06-19.11Z"/><path class="cls-79" d="M100.82,25.69a12,12,0,0,0,.19-2.17A12.78,12.78,0,0,0,88.23,10.74a13.56,13.56,0,0,0-2.4.22,16.16,16.16,0,0,0-25-3.15A14.41,14.41,0,0,0,36.18,9.17,16.21,16.21,0,0,0,10.73,22.49a15.24,15.24,0,0,0,.18,2.36A10.33,10.33,0,0,0,16,44.18c.35,0,.69,0,1,0a14.65,14.65,0,0,0,19.21,8.13,17.58,17.58,0,0,0,24.41,1c.48-.06,1-.15,1.41-.25A10.21,10.21,0,0,0,80.31,51.6,10.09,10.09,0,0,0,96,44.76c.25,0,.5,0,.76,0a10,10,0,0,0,4.06-19.1Z"/><path class="cls-80" d="M100.9,25.63a13.09,13.09,0,0,0,.19-2.18A12.78,12.78,0,0,0,88.31,10.67a12.6,12.6,0,0,0-2.4.23A16.14,16.14,0,0,0,61,7.75,14.41,14.41,0,0,0,36.26,9.1,16.22,16.22,0,0,0,10.81,22.43,16.7,16.7,0,0,0,11,24.79a10.33,10.33,0,0,0,5.08,19.33,8.94,8.94,0,0,0,1-.06A14.64,14.64,0,0,0,36.3,52.2a17.6,17.6,0,0,0,24.42,1c.47-.07.94-.15,1.41-.26a10.21,10.21,0,0,0,18.26-1.37A10.08,10.08,0,0,0,96.07,44.7c.25,0,.51,0,.77,0a10,10,0,0,0,4.06-19.1Z"/><path class="cls-81" d="M101,25.56a12.81,12.81,0,0,0-12.6-14.95,12.68,12.68,0,0,0-2.4.23A16.14,16.14,0,0,0,61,7.69,14.41,14.41,0,0,0,36.33,9,16.21,16.21,0,0,0,10.88,22.37a15.34,15.34,0,0,0,.18,2.36,10.33,10.33,0,0,0,5.08,19.32,8.77,8.77,0,0,0,1,0,14.68,14.68,0,0,0,19.21,8.14,17.58,17.58,0,0,0,24.41,1c.48-.07,1-.15,1.41-.26a10.21,10.21,0,0,0,18.26-1.37,10.1,10.1,0,0,0,15.69-6.84c.25,0,.5,0,.76,0A10,10,0,0,0,101,25.56Z"/><path class="cls-82" d="M101.05,25.5A12.76,12.76,0,0,0,88.46,10.55a12.68,12.68,0,0,0-2.4.23,16.15,16.15,0,0,0-25-3.16A14.42,14.42,0,0,0,36.41,9,16.21,16.21,0,0,0,11,22.31a16.7,16.7,0,0,0,.17,2.36A10.33,10.33,0,0,0,16.21,44c.35,0,.7,0,1-.05a14.67,14.67,0,0,0,19.2,8.14,17.58,17.58,0,0,0,24.42,1,13.89,13.89,0,0,0,1.41-.25,10.21,10.21,0,0,0,18.26-1.38,10,10,0,0,0,5.7,1.77,10.09,10.09,0,0,0,10-8.61c.25,0,.51,0,.77,0a10,10,0,0,0,4.06-19.11Z"/><path class="cls-83" d="M101.13,25.44a13,13,0,0,0,.18-2.17A12.77,12.77,0,0,0,86.13,10.72a16.15,16.15,0,0,0-25-3.16A14.42,14.42,0,0,0,36.48,8.92,16.21,16.21,0,0,0,11,22.25a16.56,16.56,0,0,0,.18,2.35,10.33,10.33,0,0,0,5.08,19.33c.35,0,.69,0,1,0A14.67,14.67,0,0,0,36.53,52a17.6,17.6,0,0,0,24.41,1c.48-.06,1-.15,1.41-.25a10.21,10.21,0,0,0,18.26-1.38A10.09,10.09,0,0,0,96.3,44.51c.25,0,.51,0,.76,0a10,10,0,0,0,4.07-19.1Z"/><path class="cls-84" d="M101.2,25.38a13,13,0,0,0,.19-2.17A12.78,12.78,0,0,0,88.61,10.43a13.56,13.56,0,0,0-2.4.22,16.16,16.16,0,0,0-25-3.15A14.41,14.41,0,0,0,36.56,8.86,16.21,16.21,0,0,0,11.11,22.18a16.59,16.59,0,0,0,.17,2.36,10.33,10.33,0,0,0,5.08,19.33c.35,0,.7,0,1,0A14.64,14.64,0,0,0,36.6,52a17.6,17.6,0,0,0,24.42,1c.47-.06.94-.15,1.41-.25a10.21,10.21,0,0,0,18.26-1.38,10.08,10.08,0,0,0,15.68-6.84c.26,0,.51,0,.77,0a10,10,0,0,0,4.06-19.1Z"/><path class="cls-85" d="M101.28,25.32a13.09,13.09,0,0,0,.18-2.18A12.77,12.77,0,0,0,86.28,10.59a16.13,16.13,0,0,0-25-3.15,14.42,14.42,0,0,0-24.7,1.35A16.21,16.21,0,0,0,11.19,22.12a16.7,16.7,0,0,0,.17,2.36,10.33,10.33,0,0,0,5.08,19.33,9.07,9.07,0,0,0,1-.06,14.64,14.64,0,0,0,19.2,8.14,17.58,17.58,0,0,0,24.41,1c.48-.07.95-.15,1.41-.26a10.21,10.21,0,0,0,18.26-1.37,10.09,10.09,0,0,0,15.69-6.84c.25,0,.51,0,.76,0a10,10,0,0,0,4.07-19.1Z"/><path class="cls-86" d="M101.35,25.25A12.76,12.76,0,0,0,88.76,10.3a12.68,12.68,0,0,0-2.4.23,16.14,16.14,0,0,0-25-3.15A14.41,14.41,0,0,0,36.71,8.73,16.21,16.21,0,0,0,11.26,22.06a16.7,16.7,0,0,0,.17,2.36,10.33,10.33,0,0,0,5.08,19.32,8.94,8.94,0,0,0,1-.05,14.68,14.68,0,0,0,19.21,8.14,17.57,17.57,0,0,0,24.41,1,13.89,13.89,0,0,0,1.41-.25,10.21,10.21,0,0,0,18.26-1.37,10.1,10.1,0,0,0,15.68-6.84c.26,0,.51,0,.77,0a10,10,0,0,0,4.06-19.11Z"/><path class="cls-87" d="M101.43,25.19a13,13,0,0,0,.19-2.17A12.78,12.78,0,0,0,86.43,10.47a16.14,16.14,0,0,0-25-3.16,14.43,14.43,0,0,0-24.7,1.36A16.2,16.2,0,0,0,11.34,22a16.7,16.7,0,0,0,.17,2.36,10.33,10.33,0,0,0,5.08,19.32c.35,0,.7,0,1,0a14.67,14.67,0,0,0,19.2,8.14,17.57,17.57,0,0,0,24.41,1,13,13,0,0,0,1.41-.25A10.21,10.21,0,0,0,80.91,51.1,10.09,10.09,0,0,0,96.6,44.26c.25,0,.51,0,.77,0a10,10,0,0,0,4.06-19.11Z"/><path class="cls-88" d="M101.5,25.13a13,13,0,0,0,.19-2.17A12.77,12.77,0,0,0,86.51,10.41a16.15,16.15,0,0,0-25-3.16A14.41,14.41,0,0,0,36.86,8.61,16.21,16.21,0,0,0,11.41,21.94a16.56,16.56,0,0,0,.17,2.35,10.33,10.33,0,0,0,5.08,19.33c.35,0,.7,0,1,0A14.65,14.65,0,0,0,36.91,51.7a17.58,17.58,0,0,0,24.41,1c.48-.06,1-.15,1.41-.25A10.21,10.21,0,0,0,81,51,10.08,10.08,0,0,0,96.67,44.2c.26,0,.51,0,.77,0a10,10,0,0,0,4.06-19.1Z"/><path class="cls-89" d="M101.58,25.07a13,13,0,0,0,.19-2.17A12.78,12.78,0,0,0,89,10.12a13.67,13.67,0,0,0-2.41.22A16.13,16.13,0,0,0,61.63,7.19,14.41,14.41,0,0,0,36.94,8.55,16.21,16.21,0,0,0,11.49,21.87a16.7,16.7,0,0,0,.17,2.36,10.33,10.33,0,0,0,5.08,19.33,8.94,8.94,0,0,0,1-.06A14.64,14.64,0,0,0,37,51.64a17.58,17.58,0,0,0,24.41,1c.48-.06,1-.15,1.41-.25A10.21,10.21,0,0,0,81.06,51a10.09,10.09,0,0,0,15.69-6.84c.25,0,.51,0,.77,0a10,10,0,0,0,4.06-19.1Z"/><path class="cls-90" d="M101.65,25A12.76,12.76,0,0,0,89.06,10.05a12.68,12.68,0,0,0-2.4.23,16.14,16.14,0,0,0-25-3.15A14.41,14.41,0,0,0,37,8.48,16.22,16.22,0,0,0,11.56,21.81a16.7,16.7,0,0,0,.17,2.36,10.33,10.33,0,0,0,5.08,19.32,8.84,8.84,0,0,0,1-.05,14.65,14.65,0,0,0,19.21,8.14,17.58,17.58,0,0,0,24.41,1c.48-.07,1-.15,1.41-.26a10.21,10.21,0,0,0,18.26-1.37,10.08,10.08,0,0,0,15.68-6.84c.26,0,.51,0,.77,0A10,10,0,0,0,101.65,25Z"/><path class="cls-91" d="M101.73,24.94A12.76,12.76,0,0,0,89.14,10a12.6,12.6,0,0,0-2.4.23,16.14,16.14,0,0,0-25-3.15A14.41,14.41,0,0,0,37.09,8.42,16.21,16.21,0,0,0,11.64,21.75a16.7,16.7,0,0,0,.17,2.36,10.33,10.33,0,0,0,5.08,19.32c.35,0,.7,0,1,0a14.67,14.67,0,0,0,19.2,8.14,17.57,17.57,0,0,0,24.41,1A13,13,0,0,0,63,52.23a10.21,10.21,0,0,0,18.26-1.37A10.1,10.1,0,0,0,96.9,44c.25,0,.51,0,.77,0a10,10,0,0,0,4.06-19.11Z"/><path class="cls-92" d="M101.81,24.88a13,13,0,0,0,.18-2.17A12.77,12.77,0,0,0,86.81,10.16,16.15,16.15,0,0,0,61.85,7,14.42,14.42,0,0,0,37.16,8.36,16.21,16.21,0,0,0,11.71,21.69a15.34,15.34,0,0,0,.18,2.36A10.33,10.33,0,0,0,17,43.37c.35,0,.69,0,1,0a14.68,14.68,0,0,0,19.21,8.14,17.6,17.6,0,0,0,24.41,1c.48-.06,1-.15,1.41-.25a10.21,10.21,0,0,0,18.26-1.38A10,10,0,0,0,87,52.56,10.1,10.1,0,0,0,97,44c.25,0,.5,0,.76,0a10,10,0,0,0,4.07-19.11Z"/><path class="cls-93" d="M101.88,24.82a13,13,0,0,0,.19-2.17A12.78,12.78,0,0,0,89.29,9.87a12.6,12.6,0,0,0-2.4.23,16.15,16.15,0,0,0-25-3.16A14.41,14.41,0,0,0,37.24,8.3,16.21,16.21,0,0,0,11.79,21.62,16.59,16.59,0,0,0,12,24,10.33,10.33,0,0,0,17,43.31c.35,0,.7,0,1-.05a14.64,14.64,0,0,0,19.2,8.13,17.6,17.6,0,0,0,24.42,1c.47-.06.94-.15,1.41-.25a10.21,10.21,0,0,0,18.26-1.38,10,10,0,0,0,5.7,1.77,10.09,10.09,0,0,0,10-8.61c.25,0,.51,0,.77,0a10,10,0,0,0,4.06-19.1Z"/><path class="cls-94" d="M102,24.76a13,13,0,0,0,.18-2.18A12.77,12.77,0,0,0,87,10,16.14,16.14,0,0,0,62,6.88,14.41,14.41,0,0,0,37.31,8.24,16.21,16.21,0,0,0,11.86,21.56,15.34,15.34,0,0,0,12,23.92a10.33,10.33,0,0,0,5.08,19.33,8.77,8.77,0,0,0,1-.06,14.65,14.65,0,0,0,19.21,8.14,17.58,17.58,0,0,0,24.41,1c.48-.07.95-.15,1.41-.26a10.21,10.21,0,0,0,18.26-1.37,10.09,10.09,0,0,0,15.69-6.84c.25,0,.5,0,.76,0A10,10,0,0,0,102,24.76Z"/><path class="cls-95" d="M102,24.69A12.76,12.76,0,0,0,89.44,9.74,12.68,12.68,0,0,0,87,10a16.14,16.14,0,0,0-25-3.15A14.41,14.41,0,0,0,37.39,8.17,16.22,16.22,0,0,0,11.94,21.5a16.7,16.7,0,0,0,.17,2.36,10.33,10.33,0,0,0,5.08,19.32,8.94,8.94,0,0,0,1,0,14.67,14.67,0,0,0,19.2,8.14,17.6,17.6,0,0,0,24.42,1c.47-.07.94-.15,1.41-.26a10.21,10.21,0,0,0,18.26-1.37A10.1,10.1,0,0,0,97.2,43.77c.26,0,.51,0,.77,0A10,10,0,0,0,102,24.69Z"/></g><path class="cls-96" d="M102.79,24.63a13.45,13.45,0,0,0,.19-2.21A13,13,0,0,0,87.54,9.65a16.41,16.41,0,0,0-25.38-3.2A14.66,14.66,0,0,0,37.05,7.82,16.5,16.5,0,0,0,11.17,21.38a17.38,17.38,0,0,0,.17,2.4,10.5,10.5,0,0,0,5.17,19.65c.35,0,.71,0,1,0a14.92,14.92,0,0,0,13.86,9.4,14.67,14.67,0,0,0,5.67-1.13,17.9,17.9,0,0,0,24.83,1c.49-.07,1-.15,1.44-.26A10.38,10.38,0,0,0,81.93,51a10.26,10.26,0,0,0,15.95-7c.26,0,.52,0,.78,0a10.15,10.15,0,0,0,4.13-19.43Z"/></g></g></g></g></svg>