<svg xmlns="http://www.w3.org/2000/svg" xmlns:xlink="http://www.w3.org/1999/xlink" viewBox="0 0 45.06 36.68">
  <defs><style>.coloredCloud{fill:url(#linear-gradient);}</style>
    <linearGradient id="linear-gradient" y1="18.34" x2="45.06" y2="18.34" gradientUnits="userSpaceOnUse"><stop offset="0.16" stop-color="#9800bf"/><stop offset="0.48" stop-color="#e100ff"/><stop offset="0.63" stop-color="#ed6aff"/><stop offset="0.79" stop-color="#ff15d8"/><stop offset="1" stop-color="#d4005e"/>
    </linearGradient>
  </defs>
<title>ColoredCloud</title>
  <g id="Layer_2" data-name="Layer 2">
    <g id="Layer_1-2" data-name="Layer 1"><path class="cls-1" d="M39.53,21.3A13.11,13.11,0,0,0,23.28,10.86a9.24,9.24,0,0,0-1.13-2L25,6a1.32,1.32,0,0,0-1.86-1.86L20.3,7a9.21,9.21,0,0,0-4.2-1.73v-4S15.32,0,14.59,0A1.61,1.61,0,0,0,13.1,1.32V5.37a9.31,9.31,0,0,0-4,1.74L6.2,4.25A1.32,1.32,0,1,0,4.34,6.11L7.2,9a10.15,10.15,0,0,0-1.74,3.7H1.32A2.44,2.44,0,0,0,0,14.5c0,.73,1.32,1.18,1.32,1.18H5.7a9.18,9.18,0,0,0,1.61,4,9.32,9.32,0,0,0-2,14.08,8.08,8.08,0,0,0,6.27,2.9H37.77a6.87,6.87,0,0,0,5.78-3C46.85,28.61,44.42,22.86,39.53,21.3Zm-30-2.53A6.5,6.5,0,0,1,8,14.5a6.6,6.6,0,0,1,12.65-2.61,13.17,13.17,0,0,0-6.4,6.85A9.39,9.39,0,0,0,9.57,18.77ZM37,34.68H12.17a6.74,6.74,0,0,1-6.63-5c-1.4-5.94,5.51-11.34,11.9-5.91a1.32,1.32,0,0,0,1.71-2,14.1,14.1,0,0,0-2.43-1.65,10.62,10.62,0,0,1,9.74-6.49,10.5,10.5,0,0,1,10.21,7.92,10.15,10.15,0,0,0-6.83,3.4,1.32,1.32,0,1,0,1.91,1.82c4.9-5.13,10.61-1.81,10.61,2.68A5.32,5.32,0,0,1,37,34.68Z"/>
    </g>
  </g>
</svg>
