<svg xmlns="http://www.w3.org/2000/svg" xmlns:xlink="http://www.w3.org/1999/xlink" viewBox="0 0 44.96 36.85">
  <defs><style></style>
    <linearGradient id="linear-gradient" x1="39.95" y1="47.44" x2="-3.21" y2="-4.24" gradientUnits="userSpaceOnUse"><stop offset="0.16" stop-color="#9056ff"/><stop offset="0.48" stop-color="#6a5eff"/><stop offset="0.63" stop-color="#4e89fd"/><stop offset="0.79" stop-color="#34c3f9"/><stop offset="1" stop-color="#28d1f8"/>
    </linearGradient>
  </defs>
  <title>ColoredCloud2</title>
  <g id="Layer_2" data-name="Layer 2">
    <g id="Layer_1-2" data-name="Layer 1"><path class="cls-1" d="M39.43,21.47A13.15,13.15,0,0,0,23.18,11a9.74,9.74,0,0,0-1.13-2L24.9,6.19A1.32,1.32,0,1,0,23,4.33L20.19,7.18A9.07,9.07,0,0,0,16,5.45V1.32S15.32,0,14.59,0A1.82,1.82,0,0,0,13,1.32V5.37A9.47,9.47,0,0,0,9.07,7.11L6.2,4.25A1.32,1.32,0,1,0,4.34,6.11L7.2,9a9.65,9.65,0,0,0-1.74,3.87H1.32A2,2,0,0,0,0,14.5c0,.73,1.32,1.35,1.32,1.35H5.6a9.18,9.18,0,0,0,1.61,4A9.31,9.31,0,0,0,5.23,34a8.08,8.08,0,0,0,6.27,2.9H37.67a6.87,6.87,0,0,0,5.78-3C46.75,28.77,44.31,23,39.43,21.47ZM9.57,18.77A6.5,6.5,0,0,1,8,14.5a6.6,6.6,0,0,1,12.65-2.61,13.17,13.17,0,0,0-6.4,6.85A9.39,9.39,0,0,0,9.57,18.77ZM37,33.85H12.17a6.75,6.75,0,0,1-6.63-5c-1.4-5.94,5.51-11.34,11.9-5.91a1.32,1.32,0,0,0,1.71-2,13,13,0,0,0-2.43-1.65,10.62,10.62,0,0,1,9.74-6.49,10.5,10.5,0,0,1,10.21,7.91,10.21,10.21,0,0,0-6.83,3.41,1.32,1.32,0,1,0,1.91,1.82c4.9-5.14,10.61-1.81,10.61,2.68A5.32,5.32,0,0,1,37,33.85Z"/>
    </g>
  </g>
</svg>
